<svg width="16" height="16" viewBox="0 0 16 16" fill="none" xmlns="http://www.w3.org/2000/svg">
<path fill-rule="evenodd" clip-rule="evenodd" d="M10.1973 9.89867C10.1022 9.38049 9.82687 8.91265 9.42002 8.57793C9.01318 8.24322 8.50104 8.06321 7.97424 8.06975C7.44745 8.0763 6.93994 8.26898 6.54154 8.6137C6.14313 8.95842 5.87951 9.43295 5.79731 9.95334C5.78072 10.0641 5.77225 10.176 5.77197 10.288C5.77163 10.5978 5.83577 10.9043 5.96033 11.1879C6.08489 11.4716 6.26713 11.7262 6.49546 11.9356C6.72379 12.145 6.99321 12.3045 7.28657 12.4041C7.57993 12.5037 7.8908 12.5411 8.19941 12.5139C8.50802 12.4868 8.8076 12.3957 9.07909 12.2465C9.35057 12.0973 9.58803 11.8932 9.77633 11.6472C9.96463 11.4012 10.0997 11.1187 10.1728 10.8177C10.246 10.5166 10.2557 10.2037 10.2013 9.89867H10.1973ZM6.63997 10.288C6.63997 10.1094 6.67515 9.93256 6.7435 9.76756C6.81184 9.60255 6.91202 9.45263 7.03831 9.32634C7.1646 9.20005 7.31452 9.09988 7.47952 9.03153C7.64453 8.96318 7.82138 8.92801 7.99997 8.92801C8.17857 8.92801 8.35542 8.96318 8.52042 9.03153C8.68543 9.09988 8.83535 9.20005 8.96164 9.32634C9.08793 9.45263 9.1881 9.60255 9.25645 9.76756C9.3248 9.93256 9.35997 10.1094 9.35997 10.288C9.36053 10.3618 9.35428 10.4354 9.34131 10.508C9.28738 10.8213 9.1254 11.1058 8.88353 11.3121C8.64165 11.5183 8.33516 11.6334 8.01729 11.6372C7.69942 11.641 7.39027 11.5333 7.14352 11.3329C6.89678 11.1324 6.72805 10.8519 6.66664 10.54C6.64958 10.4571 6.64065 10.3727 6.63997 10.288Z" fill="#0C0C0D"/>
<path fill-rule="evenodd" clip-rule="evenodd" d="M11.7133 9.076C11.4554 8.28428 10.9512 7.59573 10.2742 7.11085C9.59731 6.62597 8.78313 6.37015 7.95052 6.38072C7.11791 6.39129 6.31048 6.6677 5.64608 7.16961C4.98168 7.67152 4.49509 8.37265 4.25734 9.17066C4.14861 9.53311 4.0938 9.90959 4.09468 10.288C4.09504 10.8525 4.2178 11.4103 4.45449 11.9228C4.69117 12.4353 5.03616 12.8904 5.46568 13.2568C5.8952 13.6231 6.39903 13.892 6.94248 14.0449C7.48592 14.1977 8.05604 14.231 8.61356 14.1423C9.17109 14.0536 9.70275 13.8451 10.1719 13.5311C10.6411 13.2172 11.0366 12.8052 11.3313 12.3237C11.6259 11.8421 11.8126 11.3024 11.8786 10.7417C11.9446 10.1811 11.8882 9.61278 11.7133 9.076ZM8.00001 13.3213C7.19943 13.3214 6.43131 13.0049 5.86309 12.4409C5.29488 11.8769 4.97266 11.1112 4.96668 10.3107V10.288C4.97481 9.49355 5.29432 8.734 5.85651 8.17262C6.41871 7.61123 7.17872 7.29283 7.97318 7.28584C8.76764 7.27886 9.53313 7.58385 10.1051 8.13526C10.6771 8.68667 11.0099 9.44048 11.032 10.2347C11.032 10.2533 11.032 10.2693 11.032 10.288C11.032 11.0923 10.7126 11.8636 10.144 12.4324C9.57546 13.0012 8.80427 13.321 8.00001 13.3213Z" fill="#0C0C0D"/>
<path fill-rule="evenodd" clip-rule="evenodd" d="M5.14136 1.30801C5.89089 0.558478 6.90668 0.136147 7.96668 0.133331C9.02645 0.136498 10.0419 0.558985 10.7911 1.30848C11.5404 2.05798 11.9625 3.07356 11.9653 4.13333V6.36261C11.968 6.36529 11.9707 6.36798 11.9733 6.37067H11.968C12.7373 7.15115 13.2597 8.14094 13.4699 9.21648C13.6802 10.292 13.569 11.4057 13.1503 12.4184C12.7316 13.4312 12.0238 14.2981 11.1154 14.9111C10.207 15.5241 9.13813 15.856 8.04227 15.8653C6.94641 15.8746 5.87209 15.5609 4.95339 14.9634C4.0347 14.3659 3.31234 13.5111 2.87647 12.5056C2.44061 11.5001 2.31055 10.3885 2.50253 9.30956C2.69451 8.23061 3.20003 7.2321 3.95598 6.43867C3.95954 6.43492 3.9631 6.43118 3.96667 6.42745V4.13333C3.96949 3.07333 4.39182 2.05755 5.14136 1.30801ZM3.96667 7.85295V7.86C4.19434 7.47918 4.47492 7.13261 4.80001 6.83067C4.82656 6.80611 4.8534 6.78162 4.88055 6.75765C5.45243 6.25266 6.13846 5.89421 6.8796 5.71316C7.62074 5.53211 8.39478 5.53389 9.13508 5.71834C9.87308 5.90222 10.5555 6.26215 11.124 6.76729V6.772C11.4491 7.06006 11.7323 7.39217 11.9653 7.75867V7.75034C12.0899 7.94488 12.2003 8.14884 12.2954 8.3607C12.5673 8.9668 12.7075 9.62371 12.7066 10.288C12.7066 11.5363 12.2108 12.7335 11.3281 13.6161C10.4454 14.4988 9.24826 14.9947 7.99998 14.9947C7.23705 14.9952 6.48542 14.8103 5.8098 14.4559C5.13419 14.1015 4.55482 13.5882 4.12158 12.9602C3.68834 12.3322 3.4142 11.6083 3.32277 10.8509C3.23134 10.0934 3.32536 9.32514 3.59672 8.6121C3.69739 8.34757 3.82136 8.09359 3.96667 7.85295ZM11.124 5.66441C10.1898 5.03205 9.0856 4.69792 7.95738 4.70624C6.82704 4.71457 5.72592 5.06625 4.80001 5.71465V4.13333C4.79137 3.71263 4.86677 3.29443 5.02179 2.90324C5.17682 2.51204 5.40835 2.15571 5.70282 1.85513C5.9973 1.55455 6.3488 1.31575 6.73673 1.15273C7.12466 0.989702 7.54122 0.905731 7.96201 0.905731C8.3828 0.905731 8.79936 0.989702 9.18729 1.15273C9.57522 1.31575 9.92672 1.55455 10.2212 1.85513C10.5157 2.15571 10.7472 2.51204 10.9022 2.90324C11.0572 3.29443 11.1327 3.71263 11.124 4.13333V5.66441Z" fill="#0C0C0D"/>
</svg>
