<?xml version="1.0" encoding="UTF-8"?><svg id="Layer_1" xmlns="http://www.w3.org/2000/svg" viewBox="0 0 150 150"><defs><style>.cls-1{fill:#9c9b9b;}.cls-2{fill:#2d1996;}</style></defs><path class="cls-1" d="M149.5,.5V149.5H.5V.5H149.5M150,0H0V150H150V0h0Z"/><g><path class="cls-2" d="M62.4,57.6c-.22,.31-.14,.72,.37,1.43l11.17,14.77c.35,.47,.68,.83,.72,1.23h0c-.04,.39-.37,.75-.72,1.23l-11.17,14.77c-.4,.56-.6,1.11-.37,1.42,.3,.43,1.06,.04,1.56-.23l27.26-15.95,1.13-.7c.61-.42,.61-.69,0-1.08l-1.13-.7-27.26-15.95c-.53-.32-1.27-.66-1.56-.23Z"/><path class="cls-2" d="M47.67,77.39l-10.11,5.99c-.73,.43-1.09,1.27-.9,2.13l.26,1.07c1.79,6.23,5.56,12.33,9.94,16.74,6.83,6.87,16.25,11.71,28.14,11.69,10.5-.01,20.7-4.23,28.12-11.69,4.38-4.41,7.69-9.81,9.62-15.72,.11-.34,.22-.67,.32-1.02l.26-1.07c.21-.83-.17-1.7-.9-2.13l-10.11-5.99c-.55-.32-1.2-.35-1.77-.07-.26,.12-.65,.48-.73,.98-.07,.45-.21,1.33-.32,1.87-.31,1.55-.66,2.84-1.67,5.19-3.65,8.48-12.66,14.92-22.84,14.92-12.09,0-22.29-8.63-24.61-20.11-.15-.73-.22-1.12-.35-1.87-.1-.59-.33-.86-.6-.98-.57-.28-1.22-.25-1.77,.07Z"/><path class="cls-2" d="M47.67,72.61l-10.11-5.99c-.73-.43-1.09-1.27-.9-2.13l.26-1.07c1.79-6.23,5.56-12.33,9.94-16.74,6.83-6.87,16.25-11.71,28.14-11.69,10.5,.01,20.7,4.23,28.12,11.69,4.38,4.41,7.69,9.81,9.62,15.72,.11,.34,.22,.67,.32,1.02l.26,1.07c.21,.83-.17,1.7-.9,2.13l-10.11,5.99c-.55,.32-1.2,.35-1.77,.07-.26-.12-.65-.48-.73-.98-.07-.45-.21-1.33-.32-1.87-.31-1.55-.66-2.84-1.67-5.19-3.65-8.48-12.66-14.92-22.84-14.92-12.09,0-22.29,8.63-24.61,20.11-.15,.73-.22,1.12-.35,1.87-.1,.59-.33,.86-.6,.98-.57,.28-1.22,.25-1.77-.07Z"/></g></svg>
