<?xml version="1.0" encoding="UTF-8"?><svg id="Layer_1" xmlns="http://www.w3.org/2000/svg" viewBox="0 0 250 122"><defs><style>.cls-1{fill:#2d1996;}</style></defs><path class="cls-1" d="M46.35,46.96c-.18,.25-.11,.58,.31,1.15l9.09,11.91c.29,.38,.55,.67,.58,.99h0c-.03,.31-.3,.6-.58,.99l-9.09,11.91c-.33,.45-.49,.89-.31,1.15,.24,.34,.86,.03,1.27-.19l22.18-12.86,.92-.56c.5-.34,.5-.55,0-.87l-.92-.56-22.18-12.87c-.43-.26-1.03-.53-1.27-.19Z"/><path class="cls-1" d="M34.37,62.93l-8.22,4.83c-.6,.34-.89,1.03-.73,1.72l.21,.86c1.46,5.03,4.52,9.94,8.09,13.5,5.56,5.54,13.23,9.44,22.9,9.43,8.54-.01,16.85-3.41,22.88-9.43,3.56-3.56,6.26-7.92,7.83-12.68,.09-.27,.18-.54,.26-.82l.21-.86c.17-.67-.14-1.37-.73-1.72l-8.22-4.83c-.45-.26-.97-.28-1.44-.06-.21,.1-.53,.39-.59,.79-.06,.37-.17,1.07-.26,1.51-.25,1.25-.53,2.29-1.36,4.19-2.97,6.84-10.3,12.03-18.59,12.03-9.84,0-18.14-6.96-20.03-16.22-.12-.59-.18-.9-.28-1.51-.08-.48-.27-.69-.48-.79-.47-.23-.99-.2-1.44,.06Z"/><path class="cls-1" d="M34.37,59.07l-8.22-4.83c-.6-.34-.89-1.03-.73-1.72l.21-.86c1.46-5.03,4.52-9.94,8.09-13.5,5.56-5.54,13.23-9.44,22.9-9.43,8.54,.01,16.85,3.41,22.88,9.43,3.56,3.56,6.26,7.92,7.83,12.68,.09,.27,.18,.54,.26,.82l.21,.86c.17,.67-.14,1.37-.73,1.72l-8.22,4.83c-.45,.26-.97,.28-1.44,.06-.21-.1-.53-.39-.59-.79-.06-.37-.17-1.07-.26-1.51-.25-1.25-.53-2.29-1.36-4.19-2.97-6.84-10.3-12.03-18.59-12.03-9.84,0-18.14,6.96-20.03,16.22-.12,.59-.18,.9-.28,1.51-.08,.48-.27,.69-.48,.79-.47,.23-.99,.2-1.44-.06Z"/><g id="TEXT"><g><polygon class="cls-1" points="93.99 40.62 93.99 59.5 99.04 59.5 99.04 52.06 103.03 52.06 103.03 59.5 108.08 59.5 108.08 40.62 103.03 40.62 103.03 47.76 99.04 47.76 99.04 40.62 93.99 40.62"/><path class="cls-1" d="M117.17,53.48c0,.15-.01,.3-.03,.44-.02,.15-.04,.28-.08,.43-.18,.54-.47,.93-.84,1.19-.38,.25-.77,.38-1.18,.38-.26,0-.53-.08-.79-.25-.26-.17-.49-.43-.67-.8-.19-.37-.28-.86-.29-1.47,0-.63,.13-1.15,.37-1.55,.25-.4,.56-.72,.95-.94,.39-.22,.81-.38,1.26-.47,.45-.09,.88-.13,1.3-.15v3.19Zm5.08,5.72c-.11-.63-.19-1.29-.24-2.01-.04-.71-.06-1.44-.06-2.18v-6.81c0-.93-.07-1.85-.24-2.74-.15-.9-.46-1.72-.91-2.44-.45-.73-1.1-1.31-1.96-1.74-.86-.44-1.98-.67-3.36-.67-.86,0-1.64,.09-2.38,.23-.73,.14-1.38,.32-1.94,.53-.56,.2-1.02,.42-1.36,.62l.9,3.29c.54-.34,1.11-.59,1.73-.78,.62-.17,1.28-.27,2.01-.27,.86,.01,1.51,.24,1.94,.7,.43,.45,.65,1.04,.65,1.77v.41c-1.05,0-2.07,.14-3.06,.41-.99,.26-1.88,.66-2.68,1.21-.8,.54-1.43,1.24-1.9,2.1-.47,.85-.71,1.88-.73,3.07,0,1.1,.22,2.05,.64,2.89,.41,.83,.99,1.49,1.7,1.96,.73,.47,1.54,.71,2.48,.72,.82,0,1.56-.17,2.25-.51,.69-.35,1.29-.88,1.79-1.59h.07l.26,1.8h4.41Z"/><path class="cls-1" d="M168.51,49.04c-.13,.01-.25,.02-.35,.03-.11,0-.24,0-.38,0-.61,0-1.15-.13-1.62-.37-.48-.24-.87-.57-1.14-1-.27-.42-.42-.92-.42-1.47,0-.84,.27-1.48,.77-1.92,.5-.42,1.19-.64,2.06-.64,.19,0,.38,0,.55,.03,.19,.02,.35,.05,.52,.08v5.25Zm4.79-8.16c-.62-.11-1.39-.2-2.31-.26-.91-.05-1.89-.08-2.94-.08-.86,0-1.69,.05-2.48,.15-.79,.1-1.52,.25-2.18,.45-.66,.2-1.19,.45-1.61,.74-.7,.47-1.24,1.04-1.61,1.69-.37,.65-.57,1.44-.57,2.37,0,.89,.22,1.65,.61,2.27,.4,.63,.93,1.13,1.59,1.51,.66,.38,1.38,.65,2.17,.82v.07c-.51,.15-.96,.35-1.33,.57-.37,.23-.68,.47-.93,.74-.4,.46-.74,1.01-1.03,1.64-.28,.64-.52,1.29-.72,1.96-.19,.67-.36,1.28-.52,1.84-.11,.4-.25,.78-.42,1.13-.16,.33-.35,.65-.53,.94h5.21c.12-.21,.22-.43,.31-.67,.09-.23,.17-.47,.22-.71,.18-.76,.37-1.51,.57-2.27,.2-.76,.43-1.42,.72-2.02,.3-.59,.67-1.04,1.13-1.31,.17-.1,.37-.19,.59-.27,.22-.08,.48-.12,.79-.12h.46v7.36h4.83v-18.54Z"/><polygon class="cls-1" points="174.51 40.62 174.51 59.35 193.95 59.35 194.19 64.51 197.97 64.51 198.17 55.75 196.41 55.67 196.41 40.62 191.51 40.62 191.51 55.25 187.95 55.25 187.95 40.62 183.01 40.62 183.01 55.25 179.45 55.25 179.45 40.62 174.51 40.62"/><path class="cls-1" d="M202.19,48.26c0-.46,.05-.95,.14-1.44,.09-.48,.22-.94,.41-1.37,.18-.42,.41-.75,.7-1.02,.29-.25,.63-.39,1.03-.4,.49,0,.88,.19,1.19,.56,.31,.37,.53,.88,.66,1.5,.14,.64,.22,1.35,.21,2.15h-4.34Zm8.66,3.45c.06-.25,.1-.58,.12-.98,.02-.4,.04-.92,.04-1.57-.01-2.79-.55-4.93-1.64-6.42-1.08-1.49-2.61-2.25-4.59-2.25-1.4,0-2.66,.4-3.76,1.19-1.1,.77-1.98,1.9-2.61,3.36-.65,1.46-.97,3.23-.99,5.28,0,1.92,.3,3.56,.89,4.9,.6,1.34,1.46,2.37,2.62,3.08,1.14,.7,2.55,1.06,4.21,1.06,.95,0,1.88-.07,2.76-.22,.89-.15,1.66-.35,2.3-.6l-.68-3.53c-.44,.15-.95,.29-1.55,.42-.6,.11-1.24,.18-1.94,.19-.73,0-1.38-.12-1.95-.39-.58-.25-1.04-.66-1.39-1.24-.33-.57-.53-1.34-.56-2.28h8.7Z"/><path class="cls-1" d="M216.55,48.26c0-.46,.06-.95,.14-1.43,.09-.48,.23-.94,.41-1.36,.19-.42,.42-.76,.71-1.02,.28-.25,.63-.38,1.03-.4,.48,.01,.88,.19,1.19,.56,.31,.38,.53,.88,.67,1.5,.14,.64,.21,1.35,.2,2.15h-4.35Zm8.66,3.45c.06-.25,.1-.58,.12-.98,.02-.4,.03-.92,.03-1.57-.02-2.79-.56-4.93-1.63-6.42-1.08-1.49-2.61-2.24-4.59-2.25-1.4,0-2.66,.4-3.76,1.19-1.1,.77-1.97,1.9-2.61,3.36-.64,1.46-.97,3.23-.98,5.29,0,1.92,.3,3.55,.9,4.9,.59,1.34,1.46,2.37,2.61,3.08,1.15,.71,2.55,1.06,4.21,1.07,.96,0,1.88-.08,2.76-.22,.89-.15,1.66-.35,2.31-.6l-.68-3.53c-.44,.15-.95,.3-1.54,.42-.6,.12-1.24,.18-1.94,.19-.73,0-1.39-.12-1.96-.39-.58-.25-1.04-.66-1.38-1.24-.34-.57-.53-1.33-.56-2.28h8.69Z"/><path class="cls-1" d="M98.73,73.49h1.16c.65,0,1.24,.08,1.76,.26,.53,.17,.95,.44,1.26,.81,.31,.36,.47,.84,.48,1.4-.02,.6-.18,1.07-.51,1.43-.33,.35-.75,.6-1.26,.75-.52,.15-1.07,.22-1.66,.22-.21,0-.43,0-.65-.03-.22-.02-.42-.04-.59-.08v-4.77Zm.04-7.5c.38-.08,.79-.12,1.24-.12,.89,0,1.59,.18,2.11,.54,.51,.36,.77,.89,.79,1.6-.02,.5-.15,.93-.42,1.27-.28,.34-.64,.59-1.09,.77-.46,.17-.96,.27-1.5,.27h-1.13v-4.32Zm-4.72,15.37c.54,.06,1.2,.11,1.99,.15,.79,.04,1.63,.05,2.51,.05,.76,0,1.58-.03,2.45-.12,.88-.08,1.74-.23,2.6-.46,.84-.21,1.63-.53,2.33-.94,.7-.42,1.27-.96,1.68-1.62,.42-.67,.65-1.49,.66-2.45,0-.73-.17-1.39-.51-1.99-.33-.61-.82-1.11-1.46-1.52-.64-.41-1.42-.69-2.34-.84v-.08c.64-.15,1.21-.41,1.74-.77,.53-.38,.96-.85,1.29-1.42,.32-.59,.48-1.27,.49-2.04,0-.82-.18-1.51-.53-2.07-.35-.55-.81-1-1.39-1.34-.59-.34-1.22-.59-1.93-.77-.71-.17-1.44-.29-2.17-.35-.73-.06-1.42-.09-2.08-.09-.94,.01-1.88,.04-2.8,.11-.92,.07-1.76,.16-2.52,.27v18.3Z"/><path class="cls-1" d="M128.71,70.36c.02-.46,.06-.94,.15-1.44,.1-.48,.23-.94,.41-1.35,.18-.42,.42-.76,.7-1.02,.29-.25,.63-.39,1.04-.4,.48,0,.89,.2,1.19,.57,.31,.37,.52,.88,.67,1.5,.14,.63,.21,1.34,.21,2.14h-4.36Zm8.67,3.46c.06-.25,.1-.58,.12-.98,.02-.4,.03-.92,.03-1.57-.02-2.8-.56-4.93-1.64-6.42-1.08-1.49-2.6-2.24-4.6-2.25-1.4,0-2.66,.4-3.76,1.18-1.1,.78-1.97,1.9-2.61,3.37-.64,1.46-.97,3.22-.99,5.29,0,1.93,.3,3.55,.89,4.9,.6,1.34,1.47,2.37,2.62,3.08,1.15,.71,2.56,1.07,4.22,1.07,.95,0,1.87-.08,2.76-.23,.88-.15,1.66-.35,2.3-.59l-.67-3.53c-.44,.16-.94,.29-1.54,.41-.6,.12-1.25,.18-1.94,.19-.73,0-1.38-.12-1.96-.38-.58-.26-1.04-.67-1.38-1.25-.34-.58-.53-1.33-.56-2.28h8.7Z"/><path class="cls-1" d="M138.83,81.48h4.56l.2-6.57c.02-.6,.02-1.28,.05-2.03,.02-.76,.03-1.62,.06-2.59,.02-.98,.03-2.11,.04-3.4h.08c.11,.49,.23,1.06,.36,1.72,.13,.66,.26,1.34,.4,2.06,.14,.71,.27,1.42,.41,2.11,.13,.68,.25,1.29,.37,1.83l1.5,6.56h4.1l1.47-6.48c.22-.98,.43-1.96,.63-2.95,.2-.98,.39-1.9,.55-2.75,.17-.85,.29-1.55,.4-2.1h.07c.03,1.31,.05,2.46,.08,3.44,.02,.98,.05,1.83,.07,2.57,.02,.74,.04,1.4,.05,1.98l.23,6.6h4.72l-1.24-18.88h-6.29l-1.31,6.03c-.11,.52-.22,1.06-.33,1.6-.11,.55-.22,1.14-.35,1.78-.12,.64-.27,1.35-.43,2.15h-.12c-.17-.81-.34-1.53-.48-2.16-.14-.63-.28-1.21-.4-1.75-.13-.54-.26-1.08-.38-1.61l-1.4-6.03h-6.29l-1.35,18.88Z"/><path class="cls-1" d="M170.22,71.1c-.13,.02-.25,.03-.35,.04-.1,0-.23,0-.38,0-.6,0-1.15-.13-1.62-.38-.47-.24-.85-.57-1.13-1-.27-.42-.42-.91-.42-1.46,.01-.85,.26-1.48,.78-1.92,.5-.43,1.19-.65,2.06-.65,.19,0,.37,0,.55,.03,.18,.02,.35,.05,.52,.08v5.24Zm4.79-8.15c-.63-.12-1.39-.2-2.3-.26-.92-.06-1.89-.08-2.94-.08-.86,0-1.69,.05-2.49,.15-.8,.09-1.53,.25-2.17,.45-.66,.2-1.2,.45-1.63,.73-.69,.47-1.22,1.03-1.6,1.69-.38,.65-.57,1.45-.58,2.37,.01,.89,.22,1.65,.61,2.28,.4,.62,.93,1.13,1.59,1.5,.66,.38,1.37,.65,2.16,.82v.07c-.51,.15-.96,.34-1.33,.56-.38,.22-.68,.46-.93,.74-.41,.46-.75,1-1.03,1.64-.28,.63-.52,1.29-.72,1.96-.19,.67-.36,1.29-.52,1.85-.12,.4-.25,.78-.42,1.12-.16,.35-.35,.67-.54,.95h5.21c.12-.2,.22-.42,.32-.66,.09-.23,.17-.47,.23-.72,.19-.75,.38-1.5,.56-2.26,.19-.75,.43-1.42,.73-2.02,.28-.59,.66-1.03,1.12-1.32,.17-.09,.37-.19,.59-.26,.22-.08,.48-.12,.78-.12h.47v7.35h4.82v-18.54Z"/><path class="cls-1" d="M114.6,71.1c.13,.02,.24,.03,.35,.04,.1,0,.22,0,.37,0,.61,0,1.15-.13,1.62-.37,.48-.24,.85-.57,1.12-1,.28-.42,.42-.91,.42-1.46,0-.84-.26-1.48-.76-1.92-.51-.43-1.19-.65-2.07-.65-.19,0-.37,0-.54,.03-.18,.02-.35,.05-.52,.08v5.24Zm-4.78-8.15c.62-.12,1.39-.2,2.31-.26,.91-.06,1.89-.09,2.93-.09,.86,0,1.69,.06,2.48,.16,.8,.1,1.52,.26,2.18,.45,.65,.2,1.19,.44,1.62,.73,.69,.47,1.23,1.03,1.61,1.69,.37,.65,.57,1.45,.57,2.37-.02,.89-.21,2.24-.61,2.86-1.74,3.28-5.02,3.49-8.27,3.05v7.57h-4.82v-18.53Z"/><path class="cls-1" d="M151.93,55.78c-1.3,0-2.62-1.96-2.62-5.72,0-4.16,1.59-5.72,2.59-5.72,1.4,0,2.46,2.39,2.46,5.56,0,4.64-1.59,5.87-2.43,5.87Zm.13-15.16c-4.7,0-7.73,3.69-7.73,9.39s2.78,9.49,7.43,9.49c2.84,0,7.6-1.26,7.6-9.75,0-5.72-2.73-9.13-7.31-9.13Z"/><path class="cls-1" d="M133.59,40.62h-3.17c-3.96,0-7.92,3.19-7.92,9.89,0,5.44,2.87,8.83,7.5,8.98,1.96,.07,4.19-.78,4.19-.78l-.85-3.64s-.69,.35-2.03,.39c-2.9,.1-3.9-2.96-3.9-5.21,0-3.24,1.15-5.14,3.79-5.34,.66-.05,2.31-.1,2.31-.1h2.55v14.37h4.93v-14.37h3.9v-4.2h-11.3Z"/></g></g></svg>