<?xml version="1.0" encoding="UTF-8"?><svg id="Layer_1" xmlns="http://www.w3.org/2000/svg" viewBox="0 0 215 122"><defs><style>.cls-1{fill:#9b9a9a;}.cls-2{fill:#2d1996;}</style></defs><path class="cls-2" d="M125.37,43.86c.17-.04,.34-.07,.52-.08,.17-.02,.35-.03,.54-.03,.86,0,1.55,.22,2.05,.64,.5,.43,.76,1.07,.77,1.91,0,.55-.14,1.04-.42,1.46-.27,.42-.65,.76-1.13,.99-.47,.24-1,.36-1.61,.37-.14,0-.27,0-.38,0-.1,0-.22-.02-.34-.03v-5.22Zm-4.76,15.54h4.8v-7.32h.46c.3,0,.57,.04,.78,.12,.22,.08,.42,.17,.59,.26,.46,.27,.83,.72,1.13,1.3,.28,.6,.52,1.26,.71,2.01,.19,.75,.38,1.5,.56,2.25,.05,.24,.14,.48,.22,.71,.09,.23,.19,.45,.31,.66h5.18c-.18-.29-.36-.61-.53-.94-.17-.35-.31-.72-.42-1.13-.15-.56-.33-1.17-.51-1.83-.2-.66-.43-1.31-.72-1.95-.29-.63-.62-1.17-1.02-1.63-.25-.27-.55-.5-.93-.73-.37-.22-.81-.41-1.32-.56v-.07c.78-.16,1.5-.43,2.16-.81,.65-.38,1.18-.87,1.58-1.5,.39-.62,.6-1.37,.61-2.25,0-.93-.2-1.71-.57-2.36-.38-.65-.91-1.21-1.6-1.68-.42-.29-.95-.54-1.61-.74-.65-.2-1.37-.35-2.16-.45-.79-.1-1.61-.14-2.47-.14-1.04,0-2.01,.02-2.92,.08-.91,.06-1.68,.14-2.3,.26v18.44Z"/><path class="cls-2" d="M140.58,43.86c.17-.04,.34-.07,.52-.08,.17-.02,.35-.03,.54-.03,.86,0,1.55,.22,2.05,.64,.5,.43,.76,1.07,.77,1.91,0,.55-.14,1.04-.42,1.46-.27,.42-.65,.76-1.13,.99-.47,.24-1,.36-1.61,.37-.14,0-.27,0-.38,0-.1,0-.22-.02-.34-.03v-5.22Zm-4.76,15.54h4.8v-7.32h.46c.3,0,.57,.04,.78,.12,.22,.08,.42,.17,.59,.26,.46,.27,.83,.72,1.13,1.3,.28,.6,.52,1.26,.71,2.01,.19,.75,.38,1.5,.56,2.25,.05,.24,.14,.48,.22,.71,.09,.23,.19,.45,.31,.66h5.18c-.18-.29-.36-.61-.53-.94-.17-.35-.31-.72-.42-1.13-.15-.56-.33-1.17-.51-1.83-.2-.66-.43-1.31-.72-1.95-.29-.63-.62-1.17-1.02-1.63-.25-.27-.55-.5-.93-.73-.37-.22-.81-.41-1.32-.56v-.07c.78-.16,1.5-.43,2.16-.81,.65-.38,1.18-.87,1.58-1.5,.39-.62,.6-1.37,.61-2.25,0-.93-.2-1.71-.57-2.36-.38-.65-.91-1.21-1.6-1.68-.42-.29-.95-.54-1.6-.74-.65-.2-1.37-.35-2.16-.45-.79-.1-1.61-.14-2.47-.14-1.04,0-2.01,.02-2.92,.08-.91,.06-1.68,.14-2.3,.26v18.44Z"/><path class="cls-2" d="M102.49,55.5c-2.88,.1-3.87-2.94-3.87-5.17,0-.09,0-.18,0-.27,.03-1.64,.38-2.92,1.09-3.77,.61-.92,1.54-1.57,2.89-1.52,.61,.02,1.08,.1,1.41,.19,.4,.1,.61,.2,.61,.2v-3.86s-1.19-.52-3.07-.53c-.08,0-.17,0-.25,0-.14,0-.27,.02-.41,.03h-.05c-3.13,.33-6.08,2.68-6.89,7.23-.14,.79-.22,1.64-.22,2.57,0,5.41,2.85,8.78,7.45,8.92,1.95,.06,4.17-.78,4.17-.78l-.85-3.61s-.69,.34-2.02,.39Z"/><polygon class="cls-2" points="176.59 40.86 176.59 45.12 180.56 45.12 180.55 59.4 185.55 59.4 185.56 45.12 189.51 45.12 189.51 40.86 176.59 40.86"/><path class="cls-2" d="M114.63,81.39h4.47l.19-6.48c.02-.59,.02-1.26,.04-1.99,.02-.74,.03-1.58,.06-2.54,.02-.96,.03-2.07,.04-3.33h.08c.11,.48,.22,1.04,.35,1.69,.13,.64,.26,1.31,.39,2.02,.14,.7,.27,1.4,.4,2.06,.13,.66,.25,1.27,.37,1.79l1.47,6.43h4.01l1.44-6.35c.22-.96,.42-1.92,.62-2.89,.2-.96,.38-1.86,.54-2.69,.16-.83,.29-1.51,.39-2.06h.07c.03,1.29,.05,2.41,.08,3.37s.04,1.79,.07,2.52c.02,.72,.04,1.37,.05,1.94l.22,6.51h4.62l-1.22-18.54h-6.17l-1.29,5.91c-.11,.51-.22,1.03-.33,1.57-.11,.54-.22,1.12-.35,1.74-.12,.62-.26,1.33-.42,2.1h-.12c-.17-.79-.33-1.5-.47-2.12-.14-.62-.28-1.18-.39-1.72-.13-.53-.25-1.06-.37-1.58l-1.37-5.91h-6.17l-1.33,18.54Z"/><path class="cls-2" d="M113.14,81.39v-18.54h-4.88v18.54h4.88Z"/><polygon class="cls-2" points="94.33 62.84 94.33 67.04 98.24 67.04 98.24 81.38 103.16 81.38 103.16 67.04 107.06 67.04 107.06 62.84 94.33 62.84"/><polygon class="cls-2" points="146.21 73.86 146.21 70.21 140.23 70.21 140.23 66.54 146.74 66.54 146.74 62.89 135.99 62.89 135.99 81.34 146.74 81.34 146.74 77.55 140.23 77.55 140.23 73.86 146.21 73.86"/><path class="cls-2" d="M112.5,59.47c2.19,0,6.63-1.01,6.63-7.81v-10.73h-4.71v11.36c0,2.58-.79,2.91-1.83,2.91-1.26,0-1.98-.5-2.05-2.91v-11.36h-4.71v10.76c0,5.16,2.75,7.78,6.66,7.78Z"/><polygon class="cls-2" points="171.23 40.86 171.4 49.91 167.36 40.86 163.05 40.86 163.05 59.4 167.44 59.4 167.26 50.45 171.29 59.4 175.62 59.4 175.62 40.86 171.23 40.86"/><polygon class="cls-2" points="161.37 52 161.37 48.28 155.27 48.28 155.27 44.58 161.91 44.58 161.91 40.86 150.95 40.86 150.95 59.4 161.91 59.4 161.91 55.54 155.27 55.54 155.27 52 161.37 52"/><path class="cls-2" d="M46.47,46.96c-.18,.25-.11,.58,.31,1.15l9.09,11.91c.29,.38,.55,.67,.58,.99h0c-.03,.31-.3,.6-.58,.99l-9.09,11.91c-.33,.45-.49,.89-.31,1.15,.24,.34,.86,.03,1.27-.19l22.18-12.86,.92-.56c.5-.34,.5-.55,0-.87l-.92-.56-22.18-12.87c-.43-.26-1.03-.53-1.27-.19Z"/><path class="cls-2" d="M34.49,62.93l-8.22,4.83c-.6,.34-.89,1.03-.73,1.72l.21,.86c1.46,5.03,4.52,9.94,8.09,13.5,5.56,5.54,13.23,9.44,22.9,9.43,8.54-.01,16.85-3.41,22.88-9.43,3.56-3.56,6.26-7.92,7.83-12.68,.09-.27,.18-.54,.26-.82l.21-.86c.17-.67-.14-1.37-.73-1.72l-8.22-4.83c-.45-.26-.97-.28-1.44-.06-.21,.1-.53,.39-.59,.79-.06,.37-.17,1.07-.26,1.51-.25,1.25-.53,2.29-1.36,4.19-2.97,6.84-10.3,12.03-18.59,12.03-9.84,0-18.14-6.96-20.03-16.22-.12-.59-.18-.9-.28-1.51-.08-.48-.27-.69-.48-.79-.47-.23-.99-.2-1.44,.06Z"/><path class="cls-2" d="M34.49,59.07l-8.22-4.83c-.6-.34-.89-1.03-.73-1.72l.21-.86c1.46-5.03,4.52-9.94,8.09-13.5,5.56-5.54,13.23-9.44,22.9-9.43,8.54,.01,16.85,3.41,22.88,9.43,3.56,3.56,6.26,7.92,7.83,12.68,.09,.27,.18,.54,.26,.82l.21,.86c.17,.67-.14,1.37-.73,1.72l-8.22,4.83c-.45,.26-.97,.28-1.44,.06-.21-.1-.53-.39-.59-.79-.06-.37-.17-1.07-.26-1.51-.25-1.25-.53-2.29-1.36-4.19-2.97-6.84-10.3-12.03-18.59-12.03-9.84,0-18.14,6.96-20.03,16.22-.12,.59-.18,.9-.28,1.51-.08,.48-.27,.69-.48,.79-.47,.23-.99,.2-1.44-.06Z"/><path class="cls-1" d="M214.5,.5V121.5H.5V.5H214.5M215,0H0V122H215V0h0Z"/></svg>