<?xml version="1.0" encoding="utf-8"?>
<!-- Generator: Adobe Illustrator 15.0.0, SVG Export Plug-In . SVG Version: 6.00 Build 0)  -->
<!DOCTYPE svg PUBLIC "-//W3C//DTD SVG 1.1//EN" "http://www.w3.org/Graphics/SVG/1.1/DTD/svg11.dtd">
<svg version="1.1" id="图层_1" xmlns="http://www.w3.org/2000/svg" xmlns:xlink="http://www.w3.org/1999/xlink" x="0px" y="0px"
	 width="536px" height="210px" viewBox="0 0 536 210" enable-background="new 0 0 536 210" xml:space="preserve">
<path fill="#EA6903" d="M124.9,68.4c3.967-2.933,8.283-4.566,12.95-4.9C115.817,58.066,99.866,62.933,90,78.1
	c-9.867,15.168-16.783,24.285-20.75,27.35c-3.934,3.097-8.15,5.081-12.65,5.95c21.867,5.1,37.733-0.051,47.601-15.45
	C114.067,80.55,120.967,71.367,124.9,68.4z"/>
<path fill="#EA6903" d="M69,14.5c-0.567-4.9-0.117-9.434,1.35-13.6c-15.136,16.288-18.503,32.555-10.1,48.8
	C68.65,65.98,73.133,76.563,73.7,81.45c0.602,4.884,0.169,9.418-1.301,13.6C87.533,78.75,90.9,62.467,82.5,46.2
	C74.1,29.967,69.6,19.4,69,14.5z"/>
<path fill="#EA6903" d="M10.55,37.5C6.607,34.707,3.423,31.257,1,27.15c0.058,21.333,9.091,34.799,27.1,40.4
	c18.04,5.634,29.224,10.001,33.55,13.1c4.331,3.1,7.448,6.633,9.351,10.6C69.958,68.611,60.609,54.695,42.95,49.5
	C25.293,44.3,14.493,40.3,10.55,37.5z"/>
<path fill="#EA6903" d="M82.55,142.9H49.2V209.1h4.149L82.55,142.9 M41.2,115.8v23.8H92l11.5-23.8H41.2z"/>
<path fill="#5C666F" d="M162.05,165.05c-1.066-1.6-2.517-2.783-4.35-3.55c-1.867-0.767-3.967-1.15-6.301-1.15h-13.8v35.45h9.2
	V182.15h0.1l8.7,13.649h11.45l-11.1-14.55c1.666-0.3,3.083-0.934,4.25-1.9c1.133-0.934,2-2.1,2.6-3.5c0.6-1.399,0.9-2.934,0.9-4.6
	C163.666,168.75,163.116,166.684,162.05,165.05 M150.7,167.7c0.966,0.2,1.767,0.616,2.399,1.25c0.667,0.667,1,1.634,1,2.899
	c0,1.234-0.333,2.184-1,2.851c-0.633,0.634-1.434,1.05-2.399,1.25c-0.967,0.2-1.967,0.3-3,0.3h-0.9v-8.85h0.9
	C148.734,167.4,149.734,167.5,150.7,167.7z"/>
<path fill="#5C666F" d="M193.75,195.8v-24.1h-8.55v2.3c-0.934-1.033-2.067-1.816-3.4-2.35c-1.3-0.5-2.667-0.75-4.1-0.75
	c-2.4,0-4.5,0.583-6.301,1.75c-1.8,1.166-3.217,2.732-4.25,4.699c-1,1.9-1.5,4.018-1.5,6.351s0.517,4.483,1.551,6.45
	c1.033,1.934,2.466,3.482,4.3,4.649c1.8,1.167,3.899,1.767,6.3,1.8c1.434,0,2.816-0.283,4.15-0.85c1.3-0.566,2.35-1.45,3.149-2.65
	h0.101v2.7H193.75 M179.95,178.3c1.166,0.034,2.166,0.284,3,0.75c0.8,0.5,1.416,1.167,1.85,2c0.434,0.8,0.65,1.7,0.65,2.7
	c0,1.566-0.483,2.85-1.45,3.85c-0.934,1-2.283,1.518-4.05,1.551c-1.733-0.033-3.084-0.551-4.051-1.551
	c-0.933-1-1.416-2.283-1.449-3.85c0-1,0.216-1.9,0.649-2.7c0.434-0.833,1.066-1.5,1.9-2
	C177.833,178.584,178.817,178.334,179.95,178.3z"/>
<path fill="#5C666F" d="M224.1,156.8h-8.55V174c-0.9-1.033-2.017-1.816-3.35-2.35c-1.334-0.5-2.717-0.75-4.15-0.75
	c-2.367,0-4.45,0.583-6.25,1.75c-1.833,1.166-3.25,2.732-4.25,4.699c-1.033,1.9-1.55,4.018-1.55,6.351s0.517,4.483,1.55,6.45
	c1.033,1.934,2.467,3.482,4.3,4.649s3.934,1.767,6.3,1.8c1.467,0,2.851-0.283,4.15-0.85c1.333-0.566,2.383-1.45,3.15-2.65h0.1v2.7
	h8.55V156.8 M204.85,183.75c0-1,0.217-1.9,0.65-2.7c0.433-0.833,1.05-1.5,1.85-2c0.833-0.466,1.833-0.716,3-0.75
	c1.167,0.034,2.15,0.284,2.95,0.75c0.833,0.5,1.467,1.167,1.9,2c0.433,0.8,0.649,1.7,0.649,2.7c0,1.566-0.483,2.85-1.45,3.85
	s-2.316,1.518-4.05,1.551c-1.767-0.033-3.116-0.551-4.05-1.551C205.333,186.6,204.85,185.316,204.85,183.75z"/>
<path fill="#5C666F" d="M238,171.7h-8.55v24.1H238V171.7 M237.1,159.05c-0.899-0.899-2.017-1.366-3.35-1.399
	c-1.367,0.033-2.5,0.5-3.4,1.399c-0.899,0.9-1.366,2.034-1.399,3.4c0.033,1.333,0.5,2.45,1.399,3.35c0.9,0.934,2.033,1.417,3.4,1.45
	c1.333-0.033,2.45-0.517,3.35-1.45c0.934-0.899,1.417-2.017,1.45-3.35C238.517,161.084,238.033,159.95,237.1,159.05z"/>
<path fill="#5C666F" d="M248.7,172.4c-2.2,1-3.95,2.467-5.25,4.399c-1.334,1.9-2.018,4.217-2.051,6.95
	c0.033,2.767,0.717,5.1,2.051,7c1.3,1.9,3.05,3.35,5.25,4.35c2.199,1,4.6,1.5,7.199,1.5c2.634,0,5.051-0.5,7.25-1.5
	c2.167-1,3.917-2.449,5.25-4.35c1.334-1.934,2.017-4.267,2.051-7c-0.034-2.733-0.717-5.05-2.051-6.95
	c-1.333-1.933-3.083-3.399-5.25-4.399c-2.199-1-4.616-1.5-7.25-1.5C253.267,170.9,250.866,171.4,248.7,172.4 M255.9,178.3
	c1.167,0.034,2.167,0.284,3,0.75c0.801,0.5,1.417,1.167,1.851,2c0.433,0.8,0.649,1.7,0.649,2.7c0,1.566-0.483,2.85-1.449,3.85
	c-0.934,1-2.284,1.518-4.051,1.551c-1.767-0.033-3.116-0.551-4.05-1.551c-0.967-1-1.45-2.283-1.45-3.85c0-1,0.217-1.9,0.65-2.7
	c0.434-0.833,1.066-1.5,1.9-2C253.75,178.584,254.734,178.334,255.9,178.3z"/>
<path fill="#5C666F" d="M282.65,188v-27.65h-9.199v35.45h20.25V188H282.65z"/>
<path fill="#5C666F" d="M305.5,171.7h-8.55v24.1h8.55V171.7 M304.6,159.05c-0.9-0.899-2.017-1.366-3.35-1.399
	c-1.367,0.033-2.501,0.5-3.4,1.399c-0.899,0.9-1.366,2.034-1.399,3.4c0.033,1.333,0.5,2.45,1.399,3.35
	c0.899,0.934,2.033,1.417,3.4,1.45c1.333-0.033,2.449-0.517,3.35-1.45c0.934-0.899,1.417-2.017,1.45-3.35
	C306.017,161.084,305.533,159.95,304.6,159.05z"/>
<path fill="#5C666F" d="M319,156.8h-8.551v39H319v-2.7h0.1c0.8,1.2,1.85,2.084,3.15,2.65c1.3,0.566,2.666,0.85,4.1,0.85
	c2.434-0.033,4.55-0.633,6.35-1.8c1.834-1.167,3.267-2.716,4.301-4.649c1-1.934,1.517-4.084,1.55-6.45
	c-0.033-2.333-0.55-4.45-1.55-6.351c-1-1.967-2.4-3.533-4.2-4.699c-1.834-1.167-3.95-1.75-6.351-1.75c-1.399,0-2.75,0.25-4.05,0.75
	c-1.333,0.533-2.467,1.316-3.399,2.35V156.8 M321.25,179.05c0.8-0.466,1.783-0.716,2.949-0.75c1.167,0.034,2.167,0.284,3,0.75
	c0.801,0.5,1.417,1.167,1.851,2c0.433,0.8,0.649,1.7,0.649,2.7c0,1.566-0.483,2.85-1.449,3.85c-0.934,1-2.284,1.518-4.051,1.551
	c-1.733-0.033-3.083-0.551-4.05-1.551c-0.934-1-1.417-2.283-1.45-3.85c0-1,0.217-1.9,0.65-2.7
	C319.783,180.217,320.416,179.55,321.25,179.05z"/>
<path fill="#5C666F" d="M365.449,177.15c-1.033-2-2.517-3.533-4.449-4.601c-1.967-1.1-4.351-1.649-7.15-1.649
	c-2.667,0-4.983,0.516-6.95,1.55c-2,1.033-3.566,2.5-4.7,4.399c-1.133,1.934-1.699,4.234-1.699,6.9c0.033,2.8,0.633,5.15,1.8,7.05
	c1.233,1.9,2.899,3.351,5,4.351c2.066,0.967,4.45,1.449,7.149,1.449c1.867,0,3.634-0.283,5.301-0.85
	c1.699-0.6,3.166-1.517,4.399-2.75s2.083-2.783,2.55-4.65H358.5c-0.467,0.801-1.034,1.367-1.7,1.7c-0.7,0.333-1.5,0.5-2.4,0.5
	c-1.767,0-3.1-0.466-4-1.399c-0.899-0.9-1.35-2.234-1.35-4h18V184.3C367.05,181.533,366.517,179.15,365.449,177.15 M350.949,177.4
	c0.934-0.634,2.033-0.95,3.301-0.95c1.199,0,2.232,0.333,3.1,1c0.934,0.7,1.517,1.634,1.75,2.8h-9.9
	C349.466,178.983,350.05,178.033,350.949,177.4z"/>
<path fill="#5C666F" d="M380.75,179.75c0.866-0.633,2.083-0.967,3.649-1c0.667,0,1.283,0.066,1.851,0.2c0.6,0.1,1.199,0.3,1.8,0.6
	v-8.2h-1.65c-1.7,0-3.217,0.334-4.55,1c-1.333,0.7-2.434,1.801-3.3,3.301h-0.05v-4H369.9V195.8h8.601v-9.75
	c-0.034-1.366,0.116-2.6,0.449-3.7C379.283,181.25,379.883,180.383,380.75,179.75z"/>
<path fill="#5C666F" d="M401.949,164.45h-8.55v7.25h-2.8v7.05h2.8v17.05h8.55v-17.05h4.851v-7.05h-4.851V164.45z"/>
<path fill="#5C666F" d="M407.449,171.7l11.65,20.8l-8.2,15.35h9.55L439.75,171.7h-9.7l-6.3,12.35l-6.45-12.35H407.449z"/>
<path fill="#5C666F" d="M146.8,126.15h0.1l8.7,13.649h11.45l-11.1-14.55c1.666-0.3,3.083-0.934,4.25-1.9c1.133-0.934,2-2.1,2.6-3.5
	c0.6-1.399,0.9-2.934,0.9-4.6c-0.034-2.5-0.584-4.566-1.65-6.2c-1.066-1.6-2.517-2.783-4.35-3.55
	c-1.867-0.767-3.967-1.15-6.301-1.15h-13.8v35.45h9.2V126.15 M146.8,120.25v-8.85h0.9c1.033,0,2.033,0.1,3,0.3
	c0.966,0.2,1.767,0.616,2.399,1.25c0.667,0.667,1,1.634,1,2.899c0,1.234-0.333,2.184-1,2.851c-0.633,0.634-1.434,1.05-2.399,1.25
	c-0.967,0.2-1.967,0.3-3,0.3H146.8z"/>
<path fill="#5C666F" d="M181.8,115.65c-1.3-0.5-2.667-0.75-4.1-0.75c-2.4,0-4.5,0.583-6.301,1.75c-1.8,1.166-3.217,2.732-4.25,4.699
	c-1,1.9-1.5,4.018-1.5,6.351s0.517,4.483,1.551,6.45c1.033,1.934,2.466,3.482,4.3,4.649c1.8,1.167,3.899,1.767,6.3,1.8
	c1.434,0,2.816-0.283,4.15-0.85c1.3-0.566,2.35-1.45,3.149-2.65h0.101v2.7h8.55v-24.1h-8.55v2.3
	C184.267,116.967,183.133,116.184,181.8,115.65 M177,123.05c0.833-0.466,1.816-0.716,2.95-0.75c1.166,0.034,2.166,0.284,3,0.75
	c0.8,0.5,1.416,1.167,1.85,2c0.434,0.8,0.65,1.7,0.65,2.7c0,1.566-0.483,2.85-1.45,3.85c-0.934,1-2.283,1.518-4.05,1.551
	c-1.733-0.033-3.084-0.551-4.051-1.551c-0.933-1-1.416-2.283-1.449-3.85c0-1,0.216-1.9,0.649-2.7
	C175.533,124.217,176.166,123.55,177,123.05z"/>
<path fill="#5C666F" d="M224.1,100.8h-8.55V118c-0.9-1.033-2.017-1.816-3.35-2.35c-1.334-0.5-2.717-0.75-4.15-0.75
	c-2.367,0-4.45,0.583-6.25,1.75c-1.833,1.166-3.25,2.732-4.25,4.699c-1.033,1.9-1.55,4.018-1.55,6.351s0.517,4.483,1.55,6.45
	c1.033,1.934,2.467,3.482,4.3,4.649s3.934,1.767,6.3,1.8c1.467,0,2.851-0.283,4.15-0.85c1.333-0.566,2.383-1.45,3.15-2.65h0.1v2.7
	h8.55V100.8 M206.3,131.6c-0.967-1-1.45-2.283-1.45-3.85c0-1,0.217-1.9,0.65-2.7c0.433-0.833,1.05-1.5,1.85-2
	c0.833-0.466,1.833-0.716,3-0.75c1.167,0.034,2.15,0.284,2.95,0.75c0.833,0.5,1.467,1.167,1.9,2c0.433,0.8,0.649,1.7,0.649,2.7
	c0,1.566-0.483,2.85-1.45,3.85s-2.316,1.518-4.05,1.551C208.583,133.117,207.234,132.6,206.3,131.6z"/>
<path fill="#5C666F" d="M238,115.7h-8.55v24.1H238V115.7 M230.35,103.05c-0.899,0.9-1.366,2.034-1.399,3.4
	c0.033,1.333,0.5,2.45,1.399,3.35c0.9,0.934,2.033,1.417,3.4,1.45c1.333-0.033,2.45-0.517,3.35-1.45
	c0.934-0.899,1.417-2.017,1.45-3.35c-0.033-1.367-0.517-2.5-1.45-3.4c-0.899-0.9-2.017-1.366-3.35-1.4
	C232.383,101.684,231.25,102.15,230.35,103.05z"/>
<path fill="#5C666F" d="M268.4,120.8c-1.333-1.933-3.083-3.399-5.25-4.399c-2.199-1-4.616-1.5-7.25-1.5
	c-2.633,0-5.033,0.5-7.199,1.5c-2.2,1-3.95,2.467-5.25,4.399c-1.334,1.9-2.018,4.217-2.051,6.95c0.033,2.767,0.717,5.1,2.051,7
	c1.3,1.9,3.05,3.35,5.25,4.35c2.199,1,4.6,1.5,7.199,1.5c2.634,0,5.051-0.5,7.25-1.5c2.167-1,3.917-2.449,5.25-4.35
	c1.334-1.934,2.017-4.267,2.051-7C270.416,125.017,269.734,122.7,268.4,120.8 M261.4,127.75c0,1.566-0.483,2.85-1.449,3.85
	c-0.934,1-2.284,1.518-4.051,1.551c-1.767-0.033-3.116-0.551-4.05-1.551c-0.967-1-1.45-2.283-1.45-3.85c0-1,0.217-1.9,0.65-2.7
	c0.434-0.833,1.066-1.5,1.9-2c0.8-0.466,1.783-0.716,2.949-0.75c1.167,0.034,2.167,0.284,3,0.75c0.801,0.5,1.417,1.167,1.851,2
	C261.183,125.85,261.4,126.75,261.4,127.75z"/>
<path fill="#5C666F" d="M293.8,112.15v-7.8h-20.35v35.45h9.199V125.9h10.101V118.1H282.65v-5.949H293.8z"/>
<path fill="#5C666F" d="M305.3,119.65v-4h-8.6V139.8h8.6v-9.75c-0.033-1.366,0.116-2.6,0.45-3.7c0.333-1.1,0.933-1.967,1.8-2.6
	c0.866-0.633,2.083-0.967,3.649-1c0.667,0,1.283,0.066,1.851,0.2c0.6,0.1,1.199,0.3,1.8,0.6v-8.2h-1.65c-1.699,0-3.217,0.334-4.55,1
	c-1.333,0.7-2.434,1.801-3.3,3.301H305.3z"/>
<path fill="#5C666F" d="M329.6,114.9c-2.667,0-4.983,0.516-6.95,1.55c-2,1.033-3.566,2.5-4.7,4.399
	c-1.133,1.934-1.699,4.234-1.699,6.9c0.033,2.8,0.633,5.15,1.8,7.05c1.233,1.9,2.899,3.351,5,4.351
	c2.066,0.967,4.45,1.449,7.149,1.449c1.867,0,3.634-0.283,5.301-0.85c1.699-0.6,3.166-1.517,4.399-2.75s2.083-2.783,2.55-4.65
	h-8.199c-0.467,0.801-1.034,1.367-1.7,1.7c-0.7,0.333-1.5,0.5-2.4,0.5c-1.767,0-3.1-0.466-4-1.399c-0.899-0.9-1.35-2.234-1.35-4h18
	V128.3c0-2.767-0.533-5.149-1.601-7.149c-1.033-2-2.517-3.533-4.449-4.601C334.783,115.45,332.4,114.9,329.6,114.9 M324.949,124.25
	c0.267-1.267,0.851-2.217,1.75-2.85c0.934-0.634,2.033-0.95,3.301-0.95c1.199,0,2.232,0.333,3.1,1c0.934,0.7,1.517,1.634,1.75,2.8
	H324.949z"/>
<path fill="#5C666F" d="M345.4,127.75c0.033,2.8,0.634,5.15,1.8,7.05c1.233,1.9,2.9,3.351,5,4.351
	c2.067,0.967,4.45,1.449,7.15,1.449c1.866,0,3.633-0.283,5.3-0.85c1.7-0.6,3.167-1.517,4.4-2.75s2.083-2.783,2.55-4.65h-8.2
	c-0.467,0.801-1.033,1.367-1.7,1.7c-0.699,0.333-1.5,0.5-2.399,0.5c-1.767,0-3.101-0.466-4-1.399c-0.9-0.9-1.351-2.234-1.351-4h18
	V128.3c0-2.767-0.533-5.149-1.6-7.149c-1.033-2-2.517-3.533-4.45-4.601c-1.967-1.1-4.35-1.649-7.149-1.649
	c-2.667,0-4.983,0.516-6.95,1.55c-2,1.033-3.567,2.5-4.7,4.399C345.966,122.783,345.4,125.084,345.4,127.75 M362.25,121.45
	c0.933,0.7,1.517,1.634,1.75,2.8h-9.9c0.267-1.267,0.85-2.217,1.75-2.85c0.934-0.634,2.033-0.95,3.3-0.95
	C360.35,120.45,361.383,120.783,362.25,121.45z"/>
<path fill="#5C666F" d="M384.699,118.1v-5.949h10.95v-7.8H375.5v35.45h20.149V132h-10.95v-6.1h10.4V118.1H384.699z"/>
<path fill="#5C666F" d="M423.699,115.7h-8.55V128.6c0,1-0.116,1.9-0.35,2.7c-0.233,0.767-0.65,1.366-1.25,1.8
	c-0.634,0.467-1.533,0.7-2.7,0.7s-2.05-0.233-2.65-0.7c-0.633-0.434-1.066-1.033-1.3-1.8c-0.233-0.8-0.333-1.7-0.3-2.7V115.7h-8.55
	v14.5c0.033,2.634,0.6,4.716,1.7,6.25c1.133,1.5,2.649,2.583,4.55,3.25c1.933,0.634,4.116,0.933,6.55,0.899
	c2.434,0.033,4.616-0.266,6.55-0.899c1.934-0.667,3.45-1.75,4.55-3.25c1.134-1.534,1.717-3.616,1.75-6.25V115.7z"/>
<path fill="#5C666F" d="M436.75,119.65h-0.051v-4h-8.6V139.8h8.6v-9.75c-0.033-1.366,0.117-2.6,0.45-3.7
	c0.333-1.1,0.934-1.967,1.8-2.6c0.867-0.633,2.084-0.967,3.65-1c0.667,0,1.283,0.066,1.85,0.2c0.601,0.1,1.2,0.3,1.801,0.6v-8.2
	h-1.65c-1.7,0-3.217,0.334-4.55,1C438.716,117.05,437.616,118.15,436.75,119.65z"/>
<path fill="#5C666F" d="M468.55,116.4c-2.2-1-4.617-1.5-7.25-1.5c-2.634,0-5.033,0.5-7.2,1.5c-2.2,1-3.95,2.467-5.25,4.399
	c-1.333,1.9-2.017,4.217-2.05,6.95c0.033,2.767,0.717,5.1,2.05,7c1.3,1.9,3.05,3.35,5.25,4.35s4.6,1.5,7.2,1.5
	c2.633,0,5.05-0.5,7.25-1.5c2.166-1,3.916-2.449,5.25-4.35c1.333-1.934,2.017-4.267,2.05-7c-0.033-2.733-0.717-5.05-2.05-6.95
	C472.466,118.867,470.716,117.4,468.55,116.4 M466.15,125.05c0.434,0.8,0.65,1.7,0.65,2.7c0,1.566-0.483,2.85-1.45,3.85
	c-0.934,1-2.283,1.518-4.05,1.551c-1.767-0.033-3.117-0.551-4.05-1.551c-0.967-1-1.45-2.283-1.45-3.85c0-1,0.217-1.9,0.649-2.7
	c0.434-0.833,1.067-1.5,1.9-2c0.8-0.466,1.783-0.716,2.95-0.75c1.166,0.034,2.166,0.284,3,0.75
	C465.1,123.55,465.716,124.217,466.15,125.05z"/>
<path fill="#5C666F" d="M501.65,116.7c-1.8-1.2-3.917-1.8-6.35-1.8c-1.434,0-2.8,0.283-4.101,0.85c-1.3,0.566-2.35,1.45-3.149,2.65
	h-0.101v-2.7h-8.55v36.149h8.55V137.5c0.934,1.066,2.067,1.85,3.4,2.35c1.3,0.5,2.65,0.75,4.05,0.75
	c2.4-0.033,4.517-0.616,6.351-1.75c1.8-1.166,3.199-2.717,4.199-4.649c1-1.9,1.517-4.034,1.551-6.4
	c-0.034-2.333-0.551-4.466-1.551-6.399C504.916,119.434,503.483,117.867,501.65,116.7 M489.1,131.6c-0.934-1-1.417-2.283-1.45-3.85
	c0-1,0.217-1.9,0.65-2.7c0.433-0.833,1.066-1.5,1.899-2c0.801-0.466,1.783-0.716,2.95-0.75c1.167,0.034,2.167,0.284,3,0.75
	c0.8,0.5,1.417,1.167,1.851,2c0.433,0.8,0.649,1.7,0.649,2.7c0,1.566-0.483,2.85-1.45,3.85c-0.933,1-2.283,1.518-4.05,1.551
	C491.416,133.117,490.067,132.6,489.1,131.6z"/>
<path fill="#5C666F" d="M521.8,114.9c-2.667,0-4.983,0.516-6.95,1.55c-2,1.033-3.566,2.5-4.7,4.399c-1.133,1.934-1.7,4.234-1.7,6.9
	c0.033,2.8,0.634,5.15,1.801,7.05c1.232,1.9,2.899,3.351,5,4.351c2.066,0.967,4.449,1.449,7.149,1.449c1.867,0,3.634-0.283,5.3-0.85
	c1.7-0.6,3.167-1.517,4.4-2.75s2.083-2.783,2.55-4.65h-8.2c-0.467,0.801-1.033,1.367-1.699,1.7c-0.7,0.333-1.5,0.5-2.4,0.5
	c-1.767,0-3.1-0.466-4-1.399c-0.9-0.9-1.35-2.234-1.35-4h18V128.3c0-2.767-0.534-5.149-1.601-7.149c-1.033-2-2.517-3.533-4.45-4.601
	C526.983,115.45,524.6,114.9,521.8,114.9 M525.3,121.45c0.933,0.7,1.517,1.634,1.75,2.8h-9.9c0.267-1.267,0.851-2.217,1.75-2.85
	c0.934-0.634,2.033-0.95,3.3-0.95C523.4,120.45,524.433,120.783,525.3,121.45z"/>
</svg>
