<?xml version="1.0" encoding="UTF-8" standalone="no"?>
<svg
   xmlns:dc="http://purl.org/dc/elements/1.1/"
   xmlns:cc="http://creativecommons.org/ns#"
   xmlns:rdf="http://www.w3.org/1999/02/22-rdf-syntax-ns#"
   xmlns:svg="http://www.w3.org/2000/svg"
   xmlns="http://www.w3.org/2000/svg"
   xmlns:sodipodi="http://sodipodi.sourceforge.net/DTD/sodipodi-0.dtd"
   xmlns:inkscape="http://www.inkscape.org/namespaces/inkscape"
   version="1.1"
   id="svg72"
   width="96"
   height="32"
   viewBox="0 0 96 32"
   sodipodi:docname="logo-default.svg"
   inkscape:version="1.0.2 (e86c870879, 2021-01-15)">
  <metadata
     id="metadata78">
    <rdf:RDF>
      <cc:Work
         rdf:about="">
        <dc:format>image/svg+xml</dc:format>
        <dc:type
           rdf:resource="http://purl.org/dc/dcmitype/StillImage" />
      </cc:Work>
    </rdf:RDF>
  </metadata>
  <defs
     id="defs76" />
  <sodipodi:namedview
     pagecolor="#ffffff"
     bordercolor="#666666"
     borderopacity="1"
     objecttolerance="10"
     gridtolerance="10"
     guidetolerance="10"
     inkscape:pageopacity="0"
     inkscape:pageshadow="2"
     inkscape:window-width="1920"
     inkscape:window-height="1060"
     id="namedview74"
     showgrid="false"
     inkscape:zoom="8.9635417"
     inkscape:cx="24.06698"
     inkscape:cy="19.688243"
     inkscape:window-x="0"
     inkscape:window-y="0"
     inkscape:window-maximized="0"
     inkscape:current-layer="g80">
    <inkscape:grid
       type="xygrid"
       id="grid155" />
  </sodipodi:namedview>
  <g
     inkscape:groupmode="layer"
     inkscape:label="Image"
     id="g80">
    <text
       xml:space="preserve"
       style="font-style:normal;font-weight:normal;font-size:16px;line-height:1.25;font-family:sans-serif;fill:#000000;fill-opacity:1;stroke:none"
       x="1.7278253"
       y="16.118916"
       id="text94"><tspan
         sodipodi:role="line"
         id="tspan92"
         x="1.7278253"
         y="16.118916">onion</tspan></text>
    <path
       id="text98"
       style="font-style:normal;font-weight:normal;font-size:16px;line-height:1.25;font-family:sans-serif;fill:#000000;fill-opacity:1;stroke:none"
       d="m 12.984149,16.798044 v 12.15625 h 1.4375 v -12.15625 z m 43.273437,0 v 12.15625 h 1.445313 v -4.945313 c -1e-6,-0.854167 0.223958,-1.528646 0.671874,-2.023437 0.447917,-0.494792 1.059896,-0.742188 1.835938,-0.742188 0.645833,0 1.130208,0.205729 1.453125,0.617188 0.322917,0.411458 0.484375,1.03125 0.484375,1.859375 v 5.234375 h 1.4375 v -5.28125 c 0,-1.208334 -0.257812,-2.122396 -0.773438,-2.742188 -0.515625,-0.625 -1.276041,-0.9375 -2.28125,-0.9375 -0.609374,0 -1.148437,0.130208 -1.617187,0.390625 -0.463542,0.260417 -0.867187,0.653646 -1.210937,1.179688 v -4.765625 z m 35.914063,0 v 4.734375 c -0.302084,-0.520834 -0.684896,-0.90625 -1.148438,-1.15625 -0.458333,-0.255209 -1.010417,-0.382813 -1.65625,-0.382813 -1.057292,0 -1.919271,0.421875 -2.585938,1.265625 -0.661458,0.84375 -0.992187,1.953125 -0.992187,3.328125 0,1.375 0.330729,2.484375 0.992187,3.328125 0.666667,0.84375 1.528646,1.265625 2.585938,1.265625 0.645833,0 1.197917,-0.125 1.65625,-0.375 0.463542,-0.255208 0.846354,-0.643229 1.148438,-1.164062 v 1.3125 h 1.4375 v -12.15625 z m -71.671876,3.195312 c -0.46875,0 -0.95052,0.05208 -1.445312,0.15625 -0.494792,0.09896 -1.005208,0.25 -1.53125,0.453125 v 1.328125 c 0.4375,-0.239583 0.893229,-0.419271 1.367188,-0.539062 0.473958,-0.119792 0.960937,-0.179688 1.460937,-0.179688 0.786458,0 1.395833,0.182292 1.828125,0.546875 0.4375,0.359375 0.65625,0.869792 0.65625,1.53125 v 0.140625 h -2.015625 c -1.307292,0 -2.291667,0.25 -2.953125,0.75 -0.65625,0.5 -0.984375,1.242188 -0.984375,2.226563 0,0.84375 0.263021,1.518229 0.789063,2.023437 0.53125,0.5 1.244791,0.75 2.140624,0.75 0.708334,0 1.307292,-0.125 1.796876,-0.375 0.489583,-0.255208 0.898437,-0.648437 1.226562,-1.179687 v 1.328125 h 1.4375 v -4.992188 c 0,-1.333333 -0.3125,-2.328125 -0.9375,-2.984375 -0.625,-0.65625 -1.570312,-0.984375 -2.835938,-0.984375 z m 21.09375,0 c -0.609374,0 -1.148437,0.130208 -1.617187,0.390625 -0.463542,0.260417 -0.867187,0.653646 -1.210937,1.179688 v -1.359375 h -1.445313 v 8.75 h 1.445313 v -4.945313 c 0,-0.854167 0.223958,-1.528646 0.671874,-2.023437 0.447917,-0.494792 1.059896,-0.742188 1.835938,-0.742188 0.645833,0 1.130208,0.205729 1.453125,0.617188 0.322917,0.411458 0.484375,1.03125 0.484375,1.859375 v 5.234375 h 1.4375 v -5.28125 c 0,-1.208334 -0.257812,-2.122396 -0.773438,-2.742188 -0.515624,-0.625 -1.276041,-0.9375 -2.28125,-0.9375 z m 9.695313,0 c -1.364583,0 -2.440104,0.408854 -3.226563,1.226563 -0.78125,0.817708 -1.171874,1.940104 -1.171874,3.367187 -1e-6,1.40625 0.38802,2.523438 1.164062,3.351563 0.776042,0.828125 1.822917,1.242187 3.140625,1.242187 0.484375,0 0.940104,-0.04687 1.367187,-0.140625 0.432292,-0.09375 0.848959,-0.234375 1.25,-0.421875 v -1.328125 c -0.40625,0.223958 -0.815104,0.393229 -1.226562,0.507813 -0.40625,0.109375 -0.817708,0.164062 -1.234375,0.164062 -0.932292,0 -1.65625,-0.294271 -2.171875,-0.882812 -0.515625,-0.59375 -0.773438,-1.42448 -0.773438,-2.492188 0,-1.067708 0.257813,-1.895833 0.773438,-2.484375 0.515625,-0.59375 1.239583,-0.890625 2.171875,-0.890625 0.416667,0 0.828125,0.05729 1.234375,0.171875 0.411458,0.109375 0.820312,0.276042 1.226562,0.5 v -1.34375 c -0.395833,-0.182292 -0.804687,-0.317708 -1.226562,-0.40625 -0.421875,-0.09375 -0.854167,-0.140625 -1.296875,-0.140625 z m 19.351563,0 c -0.640626,0 -1.192709,0.127604 -1.65625,0.382813 -0.458334,0.25 -0.838542,0.635416 -1.140626,1.15625 v -1.328125 h -1.445312 v 12.078125 h 1.445312 v -4.640625 c 0.302084,0.520833 0.682292,0.908854 1.140626,1.164062 0.463541,0.25 1.015624,0.375 1.65625,0.375 1.0625,0 1.924479,-0.421875 2.585937,-1.265625 0.666667,-0.84375 1,-1.953125 1,-3.328125 0,-1.375 -0.333333,-2.484375 -1,-3.328125 -0.661458,-0.84375 -1.523437,-1.265625 -2.585937,-1.265625 z m 9.039062,0 c -0.46875,0 -0.950521,0.05208 -1.445312,0.15625 -0.494792,0.09896 -1.005209,0.25 -1.53125,0.453125 v 1.328125 c 0.4375,-0.239583 0.893229,-0.419271 1.367187,-0.539062 0.473958,-0.119792 0.960937,-0.179688 1.460937,-0.179688 0.786459,0 1.395834,0.182292 1.828126,0.546875 0.4375,0.359375 0.65625,0.869792 0.65625,1.53125 v 0.140625 h -2.015626 c -1.307291,0 -2.291666,0.25 -2.953124,0.75 -0.65625,0.5 -0.984376,1.242188 -0.984376,2.226563 0,0.84375 0.263021,1.518229 0.789063,2.023437 0.53125,0.5 1.244792,0.75 2.140625,0.75 0.708333,0 1.307292,-0.125 1.796875,-0.375 0.489583,-0.255208 0.898437,-0.648437 1.226563,-1.179687 v 1.328125 h 1.4375 v -4.992188 c 0,-1.333333 -0.3125,-2.328125 -0.9375,-2.984375 -0.625,-0.65625 -1.570313,-0.984375 -2.835938,-0.984375 z m -52.59375,0.210938 v 5.296875 c 0,1.203125 0.260417,2.117187 0.78125,2.742187 0.520833,0.625 1.283854,0.9375 2.289062,0.9375 0.609375,0 1.14323,-0.127604 1.601563,-0.382812 0.463542,-0.260417 0.869792,-0.65625 1.21875,-1.1875 v 1.34375 h 1.4375 v -8.75 h -1.4375 v 4.960937 c 0,0.854167 -0.226563,1.528646 -0.679687,2.023438 -0.447917,0.494791 -1.059896,0.742187 -1.835938,0.742187 -0.645833,0 -1.130208,-0.205729 -1.453125,-0.617187 -0.322917,-0.416667 -0.484375,-1.039063 -0.484375,-1.867188 v -5.242187 z m 43.203125,0.992187 c 0.760417,0 1.356771,0.302083 1.789063,0.90625 0.4375,0.598958 0.65625,1.427083 0.65625,2.484375 0,1.057292 -0.21875,1.888021 -0.65625,2.492188 -0.432292,0.598958 -1.028646,0.898437 -1.789063,0.898437 -0.760417,0 -1.359375,-0.299479 -1.796875,-0.898437 -0.432292,-0.604167 -0.648438,-1.434896 -0.648438,-2.492188 0,-1.057292 0.216146,-1.885417 0.648438,-2.484375 0.4375,-0.604167 1.036458,-0.90625 1.796875,-0.90625 z m 19.429687,0 c 0.760417,0 1.359376,0.302083 1.796876,0.90625 0.4375,0.598958 0.65625,1.427083 0.65625,2.484375 0,1.057292 -0.21875,1.888021 -0.65625,2.492188 -0.437501,0.598958 -1.036459,0.898437 -1.796876,0.898437 -0.760416,0 -1.359374,-0.299479 -1.796874,-0.898437 -0.432292,-0.604167 -0.648438,-1.434896 -0.648438,-2.492188 0,-1.057292 0.216146,-1.885417 0.648438,-2.484375 0.4375,-0.604167 1.036458,-0.90625 1.796874,-0.90625 z m -68.3125,3.359375 h 1.429688 v 0.320313 c 0,0.9375 -0.242188,1.690104 -0.726562,2.257812 -0.479167,0.5625 -1.117188,0.84375 -1.914063,0.84375 -0.578125,0 -1.036458,-0.148437 -1.375,-0.445312 -0.333333,-0.302084 -0.5,-0.708334 -0.5,-1.21875 0,-0.640625 0.223958,-1.09375 0.671875,-1.359375 0.447917,-0.265625 1.252604,-0.398438 2.414062,-0.398438 z m 59.179688,0 h 1.429688 v 0.320313 c 0,0.9375 -0.242188,1.690104 -0.726563,2.257812 -0.479167,0.5625 -1.117187,0.84375 -1.914063,0.84375 -0.578124,0 -1.036458,-0.148437 -1.375,-0.445312 -0.333333,-0.302084 -0.5,-0.708334 -0.5,-1.21875 0,-0.640625 0.223959,-1.09375 0.671876,-1.359375 0.447916,-0.265625 1.252604,-0.398438 2.414062,-0.398438 z" />
  </g>
</svg>
