<svg width="266" height="105" viewBox="0 0 266 105" fill="none" xmlns="http://www.w3.org/2000/svg">
<rect y="50" width="247" height="55" rx="11.5" fill="#38383D"/>
<path d="M22.5829 45.2403C19.9345 45.2403 17.6726 44.6398 15.7973 43.439C13.922 42.2381 12.4826 40.5767 11.4792 38.4546C10.4757 36.3326 9.974 33.898 9.974 31.1508C9.974 28.3543 10.484 25.9033 11.5039 23.7977C12.5238 21.6921 13.9714 20.0553 15.8467 18.8873C17.7384 17.7029 19.9838 17.1108 22.5829 17.1108C25.2478 17.1108 27.5179 17.7112 29.3932 18.912C31.285 20.0964 32.7244 21.7496 33.7114 23.8717C34.7148 25.9773 35.2165 28.4037 35.2165 31.1508C35.2165 33.9473 34.7148 36.4066 33.7114 38.5286C32.7079 40.6342 31.2603 42.2792 29.3686 43.4636C27.4768 44.648 25.2149 45.2403 22.5829 45.2403ZM22.5829 41.7611C25.5439 41.7611 27.7482 40.7823 29.1958 38.8248C30.6434 36.8507 31.3672 34.2928 31.3672 31.1508C31.3672 27.9266 30.6352 25.3604 29.1712 23.4522C27.7236 21.544 25.5275 20.5899 22.5829 20.5899C20.5925 20.5899 18.9475 21.0423 17.6479 21.947C16.3648 22.8354 15.4025 24.0773 14.761 25.673C14.1359 27.2522 13.8233 29.0781 13.8233 31.1508C13.8233 34.3586 14.5636 36.933 16.044 38.8741C17.5245 40.7987 19.7042 41.7611 22.5829 41.7611ZM59.9062 44.5V30.9041C59.9062 29.4236 59.7664 28.0664 59.4867 26.8327C59.2071 25.5825 58.7547 24.4968 58.1296 23.5756C57.5209 22.6379 56.7231 21.9141 55.7361 21.4042C54.7656 20.8942 53.5812 20.6393 52.1829 20.6393C50.8998 20.6393 49.7648 20.8613 48.7778 21.3055C47.8072 21.7496 46.9847 22.3912 46.3103 23.2301C45.6523 24.0526 45.1505 25.0561 44.8051 26.2405C44.4596 27.4249 44.2869 28.7738 44.2869 30.2872L41.7207 29.7197C41.7207 26.989 42.1978 24.6942 43.1519 22.8354C44.106 20.9765 45.422 19.57 47.0999 18.6159C48.7778 17.6618 50.7024 17.1848 52.8738 17.1848C54.4695 17.1848 55.8595 17.4315 57.0439 17.925C58.2447 18.4185 59.2564 19.0847 60.0789 19.9237C60.9179 20.7626 61.5923 21.725 62.1023 22.8107C62.6122 23.8799 62.9823 25.0232 63.2126 26.2405C63.4429 27.4413 63.5581 28.6422 63.5581 29.843V44.5H59.9062ZM40.635 44.5V17.851H43.9168V24.4146H44.2869V44.5H40.635ZM70.4547 12.7926V8.72125H74.082V12.7926H70.4547ZM70.4547 44.5V17.851H74.082V44.5H70.4547ZM92.6079 45.2403C89.9594 45.2403 87.6975 44.6398 85.8222 43.439C83.9469 42.2381 82.5076 40.5767 81.5041 38.4546C80.5007 36.3326 79.9989 33.898 79.9989 31.1508C79.9989 28.3543 80.5089 25.9033 81.5288 23.7977C82.5487 21.6921 83.9963 20.0553 85.8716 18.8873C87.7633 17.7029 90.0088 17.1108 92.6079 17.1108C95.2728 17.1108 97.5429 17.7112 99.4182 18.912C101.31 20.0964 102.749 21.7496 103.736 23.8717C104.74 25.9773 105.241 28.4037 105.241 31.1508C105.241 33.9473 104.74 36.4066 103.736 38.5286C102.733 40.6342 101.285 42.2792 99.3935 43.4636C97.5017 44.648 95.2399 45.2403 92.6079 45.2403ZM92.6079 41.7611C95.5689 41.7611 97.7732 40.7823 99.2208 38.8248C100.668 36.8507 101.392 34.2928 101.392 31.1508C101.392 27.9266 100.66 25.3604 99.1961 23.4522C97.7485 21.544 95.5524 20.5899 92.6079 20.5899C90.6174 20.5899 88.9724 21.0423 87.6729 21.947C86.3898 22.8354 85.4274 24.0773 84.7859 25.673C84.1608 27.2522 83.8482 29.0781 83.8482 31.1508C83.8482 34.3586 84.5885 36.933 86.069 38.8741C87.5495 40.7987 89.7291 41.7611 92.6079 41.7611ZM129.931 44.5V30.9041C129.931 29.4236 129.791 28.0664 129.512 26.8327C129.232 25.5825 128.78 24.4968 128.155 23.5756C127.546 22.6379 126.748 21.9141 125.761 21.4042C124.791 20.8942 123.606 20.6393 122.208 20.6393C120.925 20.6393 119.79 20.8613 118.803 21.3055C117.832 21.7496 117.01 22.3912 116.335 23.2301C115.677 24.0526 115.175 25.0561 114.83 26.2405C114.485 27.4249 114.312 28.7738 114.312 30.2872L111.746 29.7197C111.746 26.989 112.223 24.6942 113.177 22.8354C114.131 20.9765 115.447 19.57 117.125 18.6159C118.803 17.6618 120.727 17.1848 122.899 17.1848C124.494 17.1848 125.884 17.4315 127.069 17.925C128.27 18.4185 129.281 19.0847 130.104 19.9237C130.943 20.7626 131.617 21.725 132.127 22.8107C132.637 23.8799 133.007 25.0232 133.238 26.2405C133.468 27.4413 133.583 28.6422 133.583 29.843V44.5H129.931ZM110.66 44.5V17.851H113.942V24.4146H114.312V44.5H110.66Z" fill="#38383D"/>
<path d="M11.628 89.5V56.1678H16.3671V89.5H11.628ZM30.0922 90.1803C28.2782 90.1803 26.759 89.8477 25.5345 89.1826C24.3101 88.5023 23.3804 87.6104 22.7455 86.5069C22.1257 85.3883 21.8158 84.1638 21.8158 82.8336C21.8158 81.594 22.035 80.5056 22.4734 79.5683C22.9118 78.6311 23.5618 77.8375 24.4234 77.1875C25.2851 76.5223 26.3432 75.9857 27.5979 75.5775C28.6863 75.2601 29.9183 74.9804 31.294 74.7386C32.6696 74.4967 34.1132 74.27 35.6249 74.0583C37.1517 73.8467 38.6633 73.6351 40.1599 73.4234L38.4366 74.3758C38.4668 72.456 38.0587 71.035 37.2121 70.1129C36.3807 69.1756 34.9446 68.707 32.9039 68.707C31.619 68.707 30.4399 69.0094 29.3666 69.614C28.2933 70.2036 27.545 71.1862 27.1218 72.5618L22.7001 71.2013C23.3048 69.1001 24.4537 67.4297 26.1467 66.1901C27.8549 64.9505 30.1224 64.3308 32.9492 64.3308C35.1411 64.3308 37.0458 64.7087 38.6633 65.4645C40.2959 66.2052 41.4901 67.3843 42.246 69.0018C42.639 69.803 42.8809 70.6495 42.9716 71.5414C43.0623 72.4333 43.1076 73.3932 43.1076 74.4211V89.5H38.9128V83.8993L39.7291 84.6249C38.7162 86.4993 37.4238 87.8976 35.8516 88.8197C34.2946 89.7268 32.3748 90.1803 30.0922 90.1803ZM30.9312 86.3028C32.2765 86.3028 33.433 86.0685 34.4004 85.5999C35.3679 85.1162 36.1464 84.5039 36.736 83.7632C37.3255 83.0225 37.711 82.2516 37.8924 81.4504C38.1494 80.7248 38.293 79.9085 38.3232 79.0015C38.3686 78.0945 38.3912 77.3689 38.3912 76.8247L39.9331 77.3915C38.4366 77.6183 37.0761 77.8224 35.8516 78.0038C34.6272 78.1852 33.5161 78.3666 32.5184 78.548C31.5358 78.7143 30.6591 78.9183 29.8881 79.1602C29.2381 79.3869 28.6561 79.659 28.1421 79.9765C27.6433 80.2939 27.2427 80.6794 26.9404 81.1329C26.6531 81.5864 26.5095 82.1382 26.5095 82.7882C26.5095 83.4231 26.6683 84.0126 26.9857 84.5568C27.3032 85.0859 27.7869 85.5092 28.4369 85.8267C29.0869 86.1441 29.9183 86.3028 30.9312 86.3028ZM58.2244 90.1576C56.5313 90.1576 55.1104 89.8855 53.9615 89.3413C52.8126 88.7971 51.8754 88.0866 51.1498 87.2098C50.4393 86.3179 49.8951 85.3505 49.5172 84.3074C49.1393 83.2644 48.8823 82.244 48.7463 81.2463C48.6102 80.2486 48.5422 79.3718 48.5422 78.616V65.011H53.3493V77.0514C53.3493 78.0038 53.4249 78.9864 53.576 79.9992C53.7423 80.9969 54.0447 81.9265 54.483 82.7882C54.9365 83.6499 55.5639 84.3452 56.3651 84.8743C57.1814 85.4034 58.2395 85.6679 59.5396 85.6679C60.3861 85.6679 61.1873 85.5319 61.9431 85.2598C62.6989 84.9726 63.3565 84.5191 63.9158 83.8993C64.4903 83.2795 64.9362 82.4632 65.2537 81.4504C65.5862 80.4376 65.7525 79.2055 65.7525 77.7544L68.7003 78.8654C68.7003 81.0876 68.2846 83.0527 67.4531 84.7609C66.6217 86.454 65.4275 87.7767 63.8705 88.729C62.3135 89.6814 60.4314 90.1576 58.2244 90.1576ZM66.3194 89.5V82.4254H65.7525V65.011H70.5369V89.5H66.3194ZM94.0842 89.5V77.4596C94.0842 76.5072 94.0011 75.5322 93.8348 74.5345C93.6836 73.5217 93.3813 72.5844 92.9278 71.7228C92.4894 70.8612 91.8621 70.1658 91.0458 69.6367C90.2446 69.1076 89.194 68.8431 87.8939 68.8431C87.0474 68.8431 86.2462 68.9867 85.4904 69.2739C84.7346 69.546 84.0694 69.9919 83.495 70.6117C82.9357 71.2315 82.4897 72.0478 82.1572 73.0606C81.8397 74.0734 81.681 75.3054 81.681 76.7566L78.7332 75.6456C78.7332 73.4234 79.149 71.4658 79.9804 69.7727C80.8118 68.0646 82.006 66.7343 83.563 65.782C85.12 64.8296 87.0021 64.3534 89.2091 64.3534C90.9022 64.3534 92.3231 64.6255 93.472 65.1697C94.6209 65.7139 95.5505 66.432 96.261 67.3238C96.9866 68.2006 97.5384 69.1605 97.9163 70.2036C98.2942 71.2466 98.5512 72.267 98.6872 73.2647C98.8233 74.2624 98.8913 75.1392 98.8913 75.895V89.5H94.0842ZM76.8739 89.5V65.011H81.1141V72.0856H81.681V89.5H76.8739ZM114.963 90.1803C112.454 90.1803 110.322 89.6209 108.569 88.5023C106.815 87.3837 105.47 85.8493 104.533 83.8993C103.611 81.9492 103.142 79.7346 103.127 77.2555C103.142 74.731 103.626 72.5013 104.578 70.5664C105.53 68.6163 106.891 67.0895 108.66 65.986C110.428 64.8825 112.552 64.3308 115.031 64.3308C117.707 64.3308 119.99 64.9959 121.879 66.3261C123.784 67.6564 125.039 69.478 125.643 71.7908L120.927 73.1513C120.458 71.7757 119.687 70.71 118.614 69.9541C117.556 69.1832 116.339 68.7977 114.963 68.7977C113.406 68.7977 112.129 69.1681 111.131 69.9088C110.134 70.6344 109.393 71.6321 108.909 72.9019C108.425 74.1717 108.176 75.6229 108.161 77.2555C108.176 79.78 108.75 81.8207 109.884 83.3777C111.033 84.9348 112.726 85.7133 114.963 85.7133C116.49 85.7133 117.722 85.3656 118.659 84.6702C119.612 83.9597 120.337 82.9469 120.836 81.6318L125.643 82.7655C124.842 85.154 123.519 86.9906 121.675 88.2756C119.831 89.5454 117.594 90.1803 114.963 90.1803ZM147.45 89.5V77.4596C147.45 76.5072 147.367 75.5322 147.201 74.5345C147.05 73.5217 146.747 72.5844 146.294 71.7228C145.855 70.8612 145.228 70.1658 144.412 69.6367C143.611 69.1076 142.56 68.8431 141.26 68.8431C140.413 68.8431 139.612 68.9867 138.856 69.2739C138.101 69.546 137.435 69.9919 136.861 70.6117C136.302 71.2315 135.856 72.0478 135.523 73.0606C135.206 74.0734 135.047 75.3054 135.047 76.7566L132.099 75.6456C132.099 73.4234 132.515 71.4658 133.346 69.7727C134.178 68.0646 135.372 66.7343 136.929 65.782C138.486 64.8296 140.368 64.3534 142.575 64.3534C144.268 64.3534 145.689 64.6255 146.838 65.1697C147.987 65.7139 148.917 66.432 149.627 67.3238C150.353 68.2006 150.904 69.1605 151.282 70.2036C151.66 71.2466 151.917 72.267 152.053 73.2647C152.189 74.2624 152.257 75.1392 152.257 75.895V89.5H147.45ZM130.24 89.5V56.848H134.48V74.4665H135.047V89.5H130.24ZM169.66 90.1803C167.317 90.1803 165.351 89.6134 163.764 88.4796C162.177 87.3308 160.975 85.7813 160.159 83.8313C159.343 81.8812 158.934 79.6817 158.934 77.2328C158.934 74.7839 159.335 72.5845 160.136 70.6344C160.952 68.6844 162.147 67.15 163.719 66.0314C165.306 64.8976 167.256 64.3308 169.569 64.3308C171.867 64.3308 173.847 64.8976 175.51 66.0314C177.188 67.15 178.48 68.6844 179.387 70.6344C180.294 72.5693 180.748 74.7688 180.748 77.2328C180.748 79.6817 180.294 81.8888 179.387 83.8539C178.495 85.804 177.218 87.3459 175.555 88.4796C173.907 89.6134 171.942 90.1803 169.66 90.1803ZM158.141 100.384V65.011H162.358V82.6295H162.902V100.384H158.141ZM169.002 85.8947C170.514 85.8947 171.761 85.5092 172.743 84.7382C173.741 83.9673 174.482 82.9318 174.966 81.6318C175.464 80.3166 175.714 78.8503 175.714 77.2328C175.714 75.6305 175.464 74.1793 174.966 72.8792C174.482 71.5792 173.734 70.5437 172.721 69.7727C171.708 69.0018 170.415 68.6163 168.843 68.6163C167.362 68.6163 166.137 68.9791 165.17 69.7047C164.218 70.4303 163.507 71.4431 163.039 72.7432C162.585 74.0432 162.358 75.5398 162.358 77.2328C162.358 78.9259 162.585 80.4224 163.039 81.7225C163.492 83.0225 164.21 84.0429 165.193 84.7836C166.175 85.5243 167.445 85.8947 169.002 85.8947ZM192.67 90.1803C190.856 90.1803 189.337 89.8477 188.112 89.1826C186.888 88.5023 185.958 87.6104 185.323 86.5069C184.704 85.3883 184.394 84.1638 184.394 82.8336C184.394 81.594 184.613 80.5056 185.051 79.5683C185.49 78.6311 186.14 77.8375 187.001 77.1875C187.863 76.5223 188.921 75.9857 190.176 75.5775C191.264 75.2601 192.496 74.9804 193.872 74.7386C195.248 74.4967 196.691 74.27 198.203 74.0583C199.73 73.8467 201.241 73.6351 202.738 73.4234L201.015 74.3758C201.045 72.456 200.637 71.035 199.79 70.1129C198.959 69.1756 197.523 68.707 195.482 68.707C194.197 68.707 193.018 69.0094 191.945 69.614C190.871 70.2036 190.123 71.1862 189.7 72.5618L185.278 71.2013C185.883 69.1001 187.032 67.4297 188.725 66.1901C190.433 64.9505 192.7 64.3308 195.527 64.3308C197.719 64.3308 199.624 64.7087 201.241 65.4645C202.874 66.2052 204.068 67.3843 204.824 69.0018C205.217 69.803 205.459 70.6495 205.55 71.5414C205.64 72.4333 205.686 73.3932 205.686 74.4211V89.5H201.491V83.8993L202.307 84.6249C201.294 86.4993 200.002 87.8976 198.43 88.8197C196.873 89.7268 194.953 90.1803 192.67 90.1803ZM193.509 86.3028C194.855 86.3028 196.011 86.0685 196.978 85.5999C197.946 85.1162 198.724 84.5039 199.314 83.7632C199.903 83.0225 200.289 82.2516 200.47 81.4504C200.727 80.7248 200.871 79.9085 200.901 79.0015C200.947 78.0945 200.969 77.3689 200.969 76.8247L202.511 77.3915C201.015 77.6183 199.654 77.8224 198.43 78.0038C197.205 78.1852 196.094 78.3666 195.096 78.548C194.114 78.7143 193.237 78.9183 192.466 79.1602C191.816 79.3869 191.234 79.659 190.72 79.9765C190.221 80.2939 189.821 80.6794 189.518 81.1329C189.231 81.5864 189.087 82.1382 189.087 82.7882C189.087 83.4231 189.246 84.0126 189.564 84.5568C189.881 85.0859 190.365 85.5092 191.015 85.8267C191.665 86.1441 192.496 86.3028 193.509 86.3028ZM221.301 90.1803C219.019 90.1803 217.046 89.6134 215.383 88.4796C213.735 87.3459 212.458 85.804 211.551 83.8539C210.659 81.8888 210.213 79.6817 210.213 77.2328C210.213 74.7688 210.667 72.5693 211.574 70.6344C212.481 68.6844 213.766 67.15 215.428 66.0314C217.106 64.8976 219.094 64.3308 221.392 64.3308C223.705 64.3308 225.647 64.8976 227.219 66.0314C228.807 67.15 230.001 68.6844 230.802 70.6344C231.618 72.5845 232.027 74.7839 232.027 77.2328C232.027 79.6817 231.618 81.8812 230.802 83.8313C229.986 85.7813 228.784 87.3308 227.197 88.4796C225.609 89.6134 223.644 90.1803 221.301 90.1803ZM221.959 85.8947C223.516 85.8947 224.786 85.5243 225.768 84.7836C226.751 84.0429 227.469 83.0225 227.922 81.7225C228.376 80.4224 228.603 78.9259 228.603 77.2328C228.603 75.5398 228.368 74.0432 227.9 72.7432C227.446 71.4431 226.736 70.4303 225.768 69.7047C224.816 68.9791 223.599 68.6163 222.118 68.6163C220.545 68.6163 219.253 69.0018 218.24 69.7727C217.227 70.5437 216.471 71.5792 215.973 72.8792C215.489 74.1793 215.247 75.6305 215.247 77.2328C215.247 78.8503 215.489 80.3166 215.973 81.6318C216.471 82.9318 217.212 83.9673 218.195 84.7382C219.192 85.5092 220.447 85.8947 221.959 85.8947ZM228.603 89.5V71.8815H228.058V56.848H232.82V89.5H228.603Z" fill="#F9F9FA"/>
</svg>
