<svg width="242" height="91" viewBox="0 0 242 91" fill="none" xmlns="http://www.w3.org/2000/svg">
<path d="M15.2245 39.7403C12.5596 39.7403 10.2319 39.1398 8.24145 37.939C6.251 36.7381 4.7047 35.0849 3.60255 32.9793C2.51685 30.8572 1.974 28.4226 1.974 25.6755C1.974 22.879 2.5333 20.4279 3.6519 18.3223C4.7705 16.2167 6.32502 14.5717 8.31548 13.3873C10.3059 12.2029 12.6089 11.6108 15.2245 11.6108C17.9058 11.6108 20.2417 12.2112 22.2322 13.412C24.2226 14.6129 25.7689 16.2743 26.8711 18.3964C27.9732 20.502 28.5243 22.9284 28.5243 25.6755C28.5243 28.4391 27.965 30.8819 26.8464 33.004C25.7443 35.1096 24.198 36.7628 22.2075 37.9636C20.2171 39.148 17.8894 39.7403 15.2245 39.7403ZM15.2245 34.1637C17.5933 34.1637 19.3534 33.3741 20.5049 31.7949C21.6564 30.2157 22.2322 28.1759 22.2322 25.6755C22.2322 23.0928 21.6482 21.0366 20.4803 19.5068C19.3123 17.9604 17.5604 17.1873 15.2245 17.1873C13.6288 17.1873 12.3128 17.5492 11.2765 18.273C10.2566 18.9803 9.49987 19.9756 9.00637 21.2587C8.51287 22.5253 8.26612 23.9976 8.26612 25.6755C8.26612 28.2581 8.8501 30.3226 10.0181 31.8689C11.2025 33.3988 12.9379 34.1637 15.2245 34.1637ZM52.3931 39V26.169C52.3931 25.33 52.3355 24.4006 52.2204 23.3807C52.1052 22.3608 51.8338 21.382 51.4061 20.4444C50.9949 19.4903 50.3698 18.7089 49.5308 18.1003C48.7083 17.4916 47.5897 17.1873 46.175 17.1873C45.4183 17.1873 44.6698 17.3107 43.9296 17.5574C43.1893 17.8042 42.5149 18.2319 41.9062 18.8405C41.314 19.4327 40.837 20.2552 40.4751 21.308C40.1132 22.3444 39.9322 23.6768 39.9322 25.3054L36.4037 23.8002C36.4037 21.5301 36.8396 19.4739 37.7115 17.6314C38.5998 15.789 39.8993 14.325 41.6101 13.2393C43.3209 12.1371 45.4265 11.5861 47.9269 11.5861C49.9009 11.5861 51.5295 11.9151 52.8126 12.5731C54.0957 13.2311 55.1156 14.07 55.8723 15.0899C56.629 16.1098 57.1883 17.1955 57.5502 18.347C57.9121 19.4985 58.1424 20.5924 58.2411 21.6288C58.3562 22.6487 58.4138 23.4794 58.4138 24.121V39H52.3931ZM33.9115 39V12.351H39.2167V20.6171H39.9322V39H33.9115ZM65.3463 8.3043V2.85113H71.293V8.3043H65.3463ZM65.3463 39V12.351H71.293V39H65.3463ZM90.4543 39.7403C87.7894 39.7403 85.4617 39.1398 83.4713 37.939C81.4808 36.7381 79.9345 35.0849 78.8324 32.9793C77.7467 30.8572 77.2038 28.4226 77.2038 25.6755C77.2038 22.879 77.7631 20.4279 78.8817 18.3223C80.0003 16.2167 81.5549 14.5717 83.5453 13.3873C85.5358 12.2029 87.8388 11.6108 90.4543 11.6108C93.1357 11.6108 95.4716 12.2112 97.462 13.412C99.4525 14.6129 100.999 16.2743 102.101 18.3964C103.203 20.502 103.754 22.9284 103.754 25.6755C103.754 28.4391 103.195 30.8819 102.076 33.004C100.974 35.1096 99.4278 36.7628 97.4373 37.9636C95.4469 39.148 93.1192 39.7403 90.4543 39.7403ZM90.4543 34.1637C92.8231 34.1637 94.5833 33.3741 95.7348 31.7949C96.8863 30.2157 97.462 28.1759 97.462 25.6755C97.462 23.0928 96.878 21.0366 95.7101 19.5068C94.5421 17.9604 92.7902 17.1873 90.4543 17.1873C88.8587 17.1873 87.5427 17.5492 86.5063 18.273C85.4864 18.9803 84.7297 19.9756 84.2362 21.2587C83.7427 22.5253 83.496 23.9976 83.496 25.6755C83.496 28.2581 84.0799 30.3226 85.2479 31.8689C86.4323 33.3988 88.1678 34.1637 90.4543 34.1637ZM127.623 39V26.169C127.623 25.33 127.565 24.4006 127.45 23.3807C127.335 22.3608 127.064 21.382 126.636 20.4444C126.225 19.4903 125.6 18.7089 124.761 18.1003C123.938 17.4916 122.82 17.1873 121.405 17.1873C120.648 17.1873 119.9 17.3107 119.159 17.5574C118.419 17.8042 117.745 18.2319 117.136 18.8405C116.544 19.4327 116.067 20.2552 115.705 21.308C115.343 22.3444 115.162 23.6768 115.162 25.3054L111.634 23.8002C111.634 21.5301 112.069 19.4739 112.941 17.6314C113.83 15.789 115.129 14.325 116.84 13.2393C118.551 12.1371 120.656 11.5861 123.157 11.5861C125.131 11.5861 126.759 11.9151 128.042 12.5731C129.326 13.2311 130.345 14.07 131.102 15.0899C131.859 16.1098 132.418 17.1955 132.78 18.347C133.142 19.4985 133.372 20.5924 133.471 21.6288C133.586 22.6487 133.644 23.4794 133.644 24.121V39H127.623ZM109.141 39V12.351H114.447V20.6171H115.162V39H109.141ZM3.948 79V42.7278H7.57523V79H3.948ZM22.5973 79.7403C20.5904 79.7403 18.9043 79.3784 17.5389 78.6546C16.19 77.9307 15.1783 76.9684 14.5039 75.7676C13.8294 74.5667 13.4922 73.2589 13.4922 71.8442C13.4922 70.3966 13.7801 69.1629 14.3558 68.143C14.948 67.1066 15.7459 66.2595 16.7493 65.6015C17.7692 64.9435 18.9454 64.4418 20.2778 64.0963C21.6267 63.7673 23.1155 63.4794 24.744 63.2327C26.389 62.9695 27.9929 62.7474 29.5556 62.5665C31.1348 62.369 32.5166 62.1799 33.701 61.9989L32.4179 62.7885C32.4673 60.1565 31.9573 58.2072 30.8881 56.9405C29.8188 55.6739 27.96 55.0406 25.3115 55.0406C23.4856 55.0406 21.9393 55.4518 20.6726 56.2743C19.4224 57.0968 18.5424 58.3964 18.0324 60.173L14.5039 59.1366C15.1125 56.7514 16.3381 54.9007 18.1805 53.5847C20.0229 52.2687 22.4163 51.6108 25.3609 51.6108C27.7955 51.6108 29.86 52.0714 31.5543 52.9926C33.2651 53.8973 34.4742 55.2133 35.1815 56.9405C35.5105 57.7137 35.7244 58.5773 35.8231 59.5314C35.9218 60.4855 35.9711 61.4561 35.9711 62.4431V79H32.7387V72.3131L33.6764 72.7079C32.7716 74.9944 31.3651 76.7381 29.4569 77.939C27.5487 79.1398 25.2622 79.7403 22.5973 79.7403ZM23.0168 76.6065C24.7111 76.6065 26.1916 76.3022 27.4583 75.6936C28.7249 75.0849 29.7448 74.2542 30.518 73.2014C31.2911 72.1321 31.7928 70.9313 32.0231 69.5988C32.2205 68.7434 32.3275 67.8058 32.3439 66.7859C32.3604 65.7495 32.3686 64.9764 32.3686 64.4664L33.7504 65.182C32.5166 65.3465 31.176 65.511 29.7284 65.6755C28.2972 65.84 26.8825 66.0292 25.4843 66.243C24.1025 66.4569 22.8523 66.7118 21.7337 67.0079C20.977 67.2218 20.2449 67.5261 19.5376 67.9209C18.8302 68.2993 18.2463 68.8092 17.7857 69.4508C17.3415 70.0923 17.1194 70.8901 17.1194 71.8442C17.1194 72.6174 17.3086 73.3659 17.687 74.0897C18.0818 74.8135 18.7069 75.4139 19.5623 75.891C20.4341 76.368 21.5856 76.6065 23.0168 76.6065ZM52.5855 79.6662C50.9899 79.6662 49.5916 79.4195 48.3908 78.926C47.2064 78.4325 46.1947 77.7662 45.3557 76.9273C44.5332 76.0883 43.867 75.1343 43.3571 74.065C42.8471 72.9793 42.477 71.836 42.2467 70.6352C42.0164 69.4179 41.9012 68.2088 41.9012 67.0079V52.351H45.5531V65.9469C45.5531 67.411 45.693 68.7681 45.9726 70.0183C46.2523 71.2685 46.6964 72.3624 47.3051 73.3001C47.9302 74.2213 48.728 74.9368 49.6985 75.4468C50.6855 75.9567 51.8782 76.2117 53.2764 76.2117C54.5595 76.2117 55.6863 75.9896 56.6569 75.5455C57.6439 75.1013 58.4664 74.468 59.1244 73.6455C59.7988 72.8066 60.3088 71.7949 60.6542 70.6105C60.9997 69.4096 61.1724 68.0607 61.1724 66.5638L63.7386 67.1313C63.7386 69.862 63.2616 72.1568 62.3075 74.0156C61.3534 75.8745 60.0374 77.281 58.3595 78.2351C56.6816 79.1892 54.7569 79.6662 52.5855 79.6662ZM61.5425 79V72.4365H61.1724V52.351H64.7996V79H61.5425ZM90.9428 79V65.4041C90.9428 63.9236 90.803 62.5664 90.5233 61.3327C90.2437 60.0825 89.7913 58.9968 89.1662 58.0756C88.5575 57.1379 87.7597 56.4141 86.7727 55.9042C85.8022 55.3942 84.6178 55.1393 83.2195 55.1393C81.9364 55.1393 80.8014 55.3613 79.8144 55.8055C78.8438 56.2496 78.0213 56.8912 77.3469 57.7301C76.6889 58.5526 76.1871 59.5561 75.8417 60.7405C75.4962 61.9249 75.3235 63.2738 75.3235 64.7872L72.7573 64.2197C72.7573 61.489 73.2344 59.1942 74.1885 57.3354C75.1426 55.4765 76.4586 54.07 78.1365 53.1159C79.8144 52.1618 81.739 51.6848 83.9104 51.6848C85.5061 51.6848 86.8961 51.9315 88.0805 52.425C89.2813 52.9185 90.293 53.5847 91.1155 54.4237C91.9545 55.2626 92.6289 56.225 93.1389 57.3107C93.6488 58.3799 94.0189 59.5232 94.2492 60.7405C94.4795 61.9413 94.5947 63.1422 94.5947 64.343V79H90.9428ZM71.6716 79V52.351H74.9534V58.9146H75.3235V79H71.6716ZM111.908 79.7403C109.226 79.7403 106.956 79.1398 105.097 77.939C103.239 76.7381 101.824 75.0849 100.853 72.9793C99.8992 70.8572 99.4057 68.4226 99.3728 65.6755C99.4057 62.879 99.9156 60.4279 100.903 58.3223C101.89 56.2003 103.313 54.5553 105.171 53.3873C107.03 52.2029 109.284 51.6108 111.932 51.6108C114.63 51.6108 116.974 52.2687 118.965 53.5847C120.972 54.9007 122.345 56.702 123.085 58.9886L119.532 60.1236C118.907 58.528 117.912 57.2942 116.547 56.4224C115.198 55.5341 113.651 55.0899 111.908 55.0899C109.95 55.0899 108.33 55.5423 107.047 56.447C105.764 57.3354 104.809 58.5773 104.184 60.173C103.559 61.7686 103.239 63.6028 103.222 65.6755C103.255 68.8668 103.995 71.433 105.443 73.3741C106.89 75.2987 109.045 76.2611 111.908 76.2611C113.717 76.2611 115.255 75.8498 116.522 75.0273C117.805 74.1884 118.776 72.9711 119.434 71.3754L123.085 72.4611C122.098 74.8299 120.651 76.6394 118.743 77.8896C116.834 79.1234 114.556 79.7403 111.908 79.7403ZM147.425 79V65.4041C147.425 63.9236 147.286 62.5664 147.006 61.3327C146.726 60.0825 146.274 58.9968 145.649 58.0756C145.04 57.1379 144.242 56.4141 143.255 55.9042C142.285 55.3942 141.1 55.1393 139.702 55.1393C138.419 55.1393 137.284 55.3613 136.297 55.8055C135.326 56.2496 134.504 56.8912 133.829 57.7301C133.171 58.5526 132.67 59.5561 132.324 60.7405C131.979 61.9249 131.806 63.2738 131.806 64.7872L129.24 64.2197C129.24 61.489 129.717 59.1942 130.671 57.3354C131.625 55.4765 132.941 54.07 134.619 53.1159C136.297 52.1618 138.222 51.6848 140.393 51.6848C141.989 51.6848 143.379 51.9315 144.563 52.425C145.764 52.9185 146.776 53.5847 147.598 54.4237C148.437 55.2626 149.112 56.225 149.621 57.3107C150.131 58.3799 150.502 59.5232 150.732 60.7405C150.962 61.9413 151.077 63.1422 151.077 64.343V79H147.425ZM128.154 79V43.468H131.436V63.5288H131.806V79H128.154ZM169.448 79.7403C166.997 79.7403 164.924 79.1234 163.23 77.8896C161.535 76.6394 160.252 74.9533 159.38 72.8313C158.509 70.6927 158.073 68.2993 158.073 65.6508C158.073 62.953 158.509 60.5513 159.38 58.4457C160.269 56.3237 161.568 54.654 163.279 53.4367C164.99 52.2194 167.095 51.6108 169.596 51.6108C172.03 51.6108 174.12 52.2276 175.863 53.4614C177.607 54.6951 178.939 56.373 179.861 58.4951C180.798 60.6171 181.267 63.0024 181.267 65.6508C181.267 68.3157 180.798 70.7092 179.861 72.8313C178.923 74.9533 177.574 76.6394 175.814 77.8896C174.054 79.1234 171.932 79.7403 169.448 79.7403ZM157.456 90.844V52.351H160.713V72.4118H161.108V90.844H157.456ZM169.078 76.3598C170.937 76.3598 172.483 75.8909 173.717 74.9533C174.95 74.0156 175.872 72.7408 176.48 71.1287C177.105 69.5001 177.418 67.6742 177.418 65.6508C177.418 63.6439 177.114 61.8344 176.505 60.2223C175.896 58.6102 174.967 57.3353 173.717 56.3977C172.483 55.46 170.912 54.9912 169.004 54.9912C167.145 54.9912 165.599 55.4436 164.365 56.3483C163.147 57.2531 162.235 58.5115 161.626 60.1236C161.017 61.7193 160.713 63.5617 160.713 65.6508C160.713 67.7071 161.017 69.5495 161.626 71.178C162.235 72.7901 163.156 74.0568 164.389 74.978C165.623 75.8992 167.186 76.3598 169.078 76.3598ZM194.31 79.7403C192.303 79.7403 190.617 79.3784 189.252 78.6546C187.903 77.9307 186.891 76.9684 186.217 75.7676C185.542 74.5667 185.205 73.2589 185.205 71.8442C185.205 70.3966 185.493 69.1629 186.069 68.143C186.661 67.1066 187.459 66.2595 188.462 65.6015C189.482 64.9435 190.658 64.4418 191.991 64.0963C193.34 63.7673 194.828 63.4794 196.457 63.2327C198.102 62.9695 199.706 62.7474 201.269 62.5665C202.848 62.369 204.23 62.1799 205.414 61.9989L204.131 62.7885C204.18 60.1565 203.67 58.2072 202.601 56.9405C201.532 55.6739 199.673 55.0406 197.024 55.0406C195.199 55.0406 193.652 55.4518 192.386 56.2743C191.135 57.0968 190.255 58.3964 189.745 60.173L186.217 59.1366C186.825 56.7514 188.051 54.9007 189.893 53.5847C191.736 52.2687 194.129 51.6108 197.074 51.6108C199.508 51.6108 201.573 52.0714 203.267 52.9926C204.978 53.8973 206.187 55.2133 206.894 56.9405C207.223 57.7137 207.437 58.5773 207.536 59.5314C207.635 60.4855 207.684 61.4561 207.684 62.4431V79H204.452V72.3131L205.389 72.7079C204.485 74.9944 203.078 76.7381 201.17 77.939C199.262 79.1398 196.975 79.7403 194.31 79.7403ZM194.73 76.6065C196.424 76.6065 197.905 76.3022 199.171 75.6936C200.438 75.0849 201.458 74.2542 202.231 73.2014C203.004 72.1321 203.506 70.9313 203.736 69.5988C203.933 68.7434 204.04 67.8058 204.057 66.7859C204.073 65.7495 204.082 64.9764 204.082 64.4664L205.463 65.182C204.23 65.3465 202.889 65.511 201.441 65.6755C200.01 65.84 198.595 66.0292 197.197 66.243C195.815 66.4569 194.565 66.7118 193.447 67.0079C192.69 67.2218 191.958 67.5261 191.251 67.9209C190.543 68.2993 189.959 68.8092 189.499 69.4508C189.054 70.0923 188.832 70.8901 188.832 71.8442C188.832 72.6174 189.022 73.3659 189.4 74.0897C189.795 74.8135 190.42 75.4139 191.275 75.891C192.147 76.368 193.299 76.6065 194.73 76.6065ZM224.446 79.7403C221.963 79.7403 219.84 79.1234 218.08 77.8896C216.32 76.6394 214.971 74.9533 214.034 72.8313C213.096 70.7092 212.627 68.3157 212.627 65.6508C212.627 63.0024 213.088 60.6171 214.009 58.4951C214.947 56.373 216.287 54.6951 218.031 53.4614C219.775 52.2276 221.864 51.6108 224.298 51.6108C226.799 51.6108 228.904 52.2194 230.615 53.4367C232.326 54.654 233.617 56.3237 234.489 58.4457C235.378 60.5513 235.822 62.953 235.822 65.6508C235.822 68.2993 235.386 70.6927 234.514 72.8313C233.642 74.9533 232.359 76.6394 230.665 77.8896C228.97 79.1234 226.898 79.7403 224.446 79.7403ZM224.817 76.3598C226.708 76.3598 228.271 75.8992 229.505 74.978C230.739 74.0568 231.66 72.7901 232.268 71.178C232.877 69.5495 233.181 67.7071 233.181 65.6508C233.181 63.5617 232.877 61.7193 232.268 60.1236C231.66 58.5115 230.739 57.2531 229.505 56.3483C228.288 55.4436 226.749 54.9912 224.891 54.9912C222.982 54.9912 221.403 55.46 220.153 56.3977C218.903 57.3353 217.973 58.6102 217.365 60.2223C216.773 61.8344 216.476 63.6439 216.476 65.6508C216.476 67.6742 216.781 69.5001 217.389 71.1287C218.015 72.7408 218.944 74.0156 220.178 74.9533C221.411 75.8909 222.958 76.3598 224.817 76.3598ZM233.181 79V58.9392H232.787V43.468H236.439V79H233.181Z" fill="#38383D"/>
</svg>
