<svg width="512" height="512" viewBox="0 0 512 512" fill="none" xmlns="http://www.w3.org/2000/svg">
<g clip-path="url(#clip0_1_9)">
<rect width="512" height="512" fill="white"/>
<path d="M194.541 7.47353L200.287 30.7479C177.641 36.3449 155.966 45.3187 135.991 57.368L123.7 36.7847C145.686 23.4699 169.575 13.5859 194.541 7.47353V7.47353ZM317.459 7.47353L311.713 30.7479C334.359 36.3449 356.034 45.3187 376.009 57.368L388.446 36.7847C366.401 23.4816 342.467 13.5988 317.459 7.47353V7.47353ZM36.7844 123.627C23.482 145.646 13.5991 169.556 7.47322 194.541L30.7476 200.287C36.3446 177.641 45.3184 155.966 57.3677 135.992L36.7844 123.627ZM23.9835 256C23.9817 244.362 24.857 232.741 26.6019 221.234L2.89108 217.598C-0.963692 243.03 -0.963692 268.898 2.89108 294.33L26.6019 290.766C24.8597 279.26 23.9845 267.638 23.9835 256V256ZM388.3 475.143L376.009 454.633C356.065 466.693 334.413 475.668 311.786 481.253L317.532 504.527C342.468 498.356 366.327 488.449 388.3 475.143ZM488.017 256C488.016 267.638 487.14 279.26 485.398 290.766L509.109 294.33C512.964 268.898 512.964 243.03 509.109 217.598L485.398 221.234C487.143 232.741 488.018 244.362 488.017 256V256ZM504.527 317.387L481.252 311.641C475.669 334.314 466.694 356.015 454.632 376.009L475.216 388.373C488.531 366.335 498.414 342.399 504.527 317.387V317.387ZM290.766 485.398C267.72 488.89 244.28 488.89 221.234 485.398L217.67 509.109C243.078 512.964 268.922 512.964 294.33 509.109L290.766 485.398ZM442.777 393.61C428.953 412.357 412.377 428.908 393.61 442.704L407.865 462.051C428.536 446.834 446.823 428.621 462.124 408.011L442.777 393.61ZM393.61 69.2234C412.378 83.0462 428.954 99.6219 442.777 118.391L462.124 103.989C446.877 83.3612 428.639 65.1229 408.011 49.8765L393.61 69.2234ZM69.2231 118.391C83.0459 99.6219 99.6215 83.0462 118.39 69.2234L103.989 49.8765C83.3609 65.1229 65.1226 83.3612 49.8762 103.989L69.2231 118.391ZM475.216 123.627L454.632 135.992C466.693 155.935 475.668 177.587 481.252 200.215L504.527 194.469C498.4 169.507 488.517 145.62 475.216 123.627V123.627ZM221.234 26.6022C244.28 23.1106 267.72 23.1106 290.766 26.6022L294.33 2.89138C268.922 -0.963794 243.078 -0.963794 217.67 2.89138L221.234 26.6022ZM81.5149 468.452L31.9841 479.944L43.5485 430.413L20.2014 424.958L8.63694 474.489C7.91336 477.559 7.80232 480.743 8.31016 483.857C8.818 486.97 9.93476 489.954 11.5966 492.635C13.2583 495.317 15.4326 497.645 17.9948 499.486C20.5571 501.327 23.4572 502.644 26.5291 503.363C30.1217 504.163 33.8464 504.163 37.439 503.363L86.9698 491.944L81.5149 468.452ZM25.1472 403.574L48.5671 408.957L56.5676 374.627C44.8841 355.029 36.1821 333.801 30.7476 311.641L7.47322 317.387C12.7084 338.598 20.6274 359.055 31.0385 378.264L25.1472 403.574ZM137.155 455.505L102.825 463.506L108.28 486.926L133.519 481.034C152.712 491.477 173.174 499.398 194.396 504.6L200.141 481.325C178.051 475.82 156.898 467.069 137.373 455.36L137.155 455.505ZM256 47.9855C141.083 48.0582 48.0579 141.228 48.0579 256.073C48.1212 295.189 59.1857 333.499 79.9875 366.626L59.986 452.014L145.301 432.013C242.544 493.181 370.99 464.015 432.158 366.845C493.326 269.674 464.233 141.228 367.062 79.9878C333.797 59.0685 295.297 47.9749 256 47.9855" fill="black"/>
</g>
<defs>
<clipPath id="clip0_1_9">
<rect width="512" height="512" fill="white"/>
</clipPath>
</defs>
</svg>
