<?xml version="1.0" encoding="UTF-8"?><svg id="Layer_1" xmlns="http://www.w3.org/2000/svg" viewBox="0 0 200 200"><defs><style>.cls-1{fill:#ea6903;}.cls-2{fill:#9c9b9b;}</style></defs><path class="cls-2" d="M199.5,.5V199.5H.5V.5H199.5M200,0H0V200H200V0h0Z"/><g id="color"><path id="New_Symbol" class="cls-1" d="M149.6,69.48c-13.26,1.54-16.97,15.25-26.95,27.09-13.33,15.81-33.09,7.69-33.09,7.69,13.33-1.66,17.16-15.47,27.37-27.26,13.54-15.63,32.67-7.52,32.67-7.52Zm-48.04,23.2s16.58-13.13,9.43-32.49c-5.39-14.6-15.78-24.94-10.27-37.12,0,0-16.42,13.32-9.58,32.49,5.23,14.66,15.93,24.94,10.42,37.12Zm-.96-2.79s1.59-21.29-16.77-29.38c-14.32-6.31-29.38-5.72-34.54-18.05,0,0-2.05,21.16,17.44,29.35,14.43,6.07,28.71,5.75,33.87,18.07Zm-21.83,35.75h37.26l8.69-17.49h-45.95v17.49Zm5.94,51.29h3.14l21.38-48.95h-24.52v48.95Z"/></g></svg>