<?xml version="1.0" encoding="UTF-8"?><svg id="Layer_1" xmlns="http://www.w3.org/2000/svg" viewBox="0 0 162 130"><defs><style>.cls-1{fill:#ea6903;}.cls-2{fill:#5c6770;}</style></defs><g id="color"><g><path class="cls-2" d="M94.37,81.63h-5.21l-4.26-6.1v6.1h-4.25v-16.86h6.09c2.31,0,3.68,.81,4.41,1.48,.57,.54,1.52,1.75,1.52,3.82,0,1.47-.45,2.61-1.37,3.49-.59,.56-1.37,1-2.16,1.23l5.23,6.83Zm-9.47-9.36h.7c.71,0,1.59-.08,2.19-.67,.22-.21,.58-.68,.58-1.48,0-.66-.24-1.18-.71-1.54-.42-.32-1.13-.48-2.04-.48h-.73v4.16Z"/><path class="cls-2" d="M100.17,82c-1.85,0-3.19-.54-4.35-1.74-1.12-1.17-1.69-2.6-1.69-4.26,0-1.79,.65-3.46,1.8-4.58,1.03-1.01,2.46-1.56,4.04-1.56,.99,0,2.34,.24,3.35,1.29v-.92h4v11.39h-4v-.97c-.77,.89-1.83,1.35-3.15,1.35Zm.71-8.7c-.7,0-1.39,.28-1.87,.74h0c-.36,.35-.78,.95-.78,1.87s.38,1.51,.71,1.85c.49,.51,1.24,.81,2.01,.81,.66,0,1.3-.26,1.76-.71,.38-.35,.83-.97,.83-1.95,0-.74-.28-1.43-.77-1.89-.47-.44-1.21-.72-1.89-.72Z"/><path class="cls-2" d="M114.66,82c-1.66,0-2.93-.5-3.99-1.56-1.17-1.15-1.82-2.77-1.82-4.55s.65-3.39,1.82-4.48c1.06-.99,2.5-1.53,4.04-1.53,1.35,0,2.51,.46,3.33,1.29v-7.92h4v18.39h-4v-1c-.82,.91-1.95,1.37-3.38,1.37Zm.93-8.7c-.75,0-1.31,.21-1.82,.69h0c-.38,.35-.83,.98-.83,1.97,0,.71,.3,1.4,.83,1.89,.49,.46,1.13,.72,1.77,.72,.69,0,1.44-.29,1.94-.77,.29-.27,.78-.86,.78-1.84,0-.75-.25-1.37-.76-1.9-.51-.52-1.12-.76-1.91-.76Z"/><path class="cls-2" d="M128.69,81.63h-4v-11.39h4v11.39Zm-2-13.65c-1.29,0-2.3-.99-2.3-2.26s1.01-2.26,2.3-2.26,2.3,.99,2.3,2.26-1.01,2.26-2.3,2.26Z"/><path class="cls-2" d="M137.27,82c-2.02,0-3.86-.67-5.05-1.83-1.09-1.07-1.75-2.65-1.75-4.23s.65-3.16,1.75-4.23c1.19-1.16,3.03-1.83,5.05-1.83s3.86,.67,5.05,1.83c1.09,1.07,1.75,2.65,1.75,4.23s-.65,3.16-1.75,4.23c-1.19,1.16-3.03,1.83-5.05,1.83Zm-1.92-8.01c-.52,.51-.78,1.15-.78,1.95s.25,1.43,.78,1.95c.5,.49,1.15,.74,1.94,.74s1.39-.25,1.89-.74c.52-.51,.78-1.15,.78-1.95s-.25-1.43-.78-1.95c-.5-.49-1.15-.74-1.92-.74s-1.42,.25-1.92,.74h0Z"/><path class="cls-2" d="M84.9,107.17h-4.25v-16.86h9.7v3.58h-5.45v2.83h5.05v3.58h-5.05v6.87Z"/><path class="cls-2" d="M97.27,107.54c-1.85,0-3.19-.54-4.35-1.74-1.12-1.17-1.69-2.6-1.69-4.26,0-1.79,.65-3.46,1.8-4.58,1.03-1.01,2.46-1.56,4.04-1.56,.99,0,2.34,.24,3.35,1.29v-.92h4v11.39h-4v-.97c-.77,.89-1.83,1.35-3.15,1.35Zm.71-8.7c-.7,0-1.39,.28-1.87,.74h0c-.36,.35-.78,.95-.78,1.87s.38,1.51,.71,1.85c.49,.51,1.24,.81,2.01,.81,.66,0,1.3-.26,1.76-.71,.38-.35,.83-.97,.83-1.95,0-.74-.28-1.43-.77-1.89-.47-.44-1.21-.72-1.89-.72Z"/><path class="cls-2" d="M121.33,107.54c-1.66,0-2.93-.5-3.99-1.56-1.17-1.15-1.82-2.77-1.82-4.55s.65-3.39,1.82-4.48c1.06-.99,2.5-1.53,4.04-1.53,1.35,0,2.51,.46,3.33,1.29v-7.92h4v18.39h-4v-1c-.82,.91-1.95,1.37-3.38,1.37Zm.93-8.7c-.75,0-1.31,.21-1.82,.69h0c-.38,.35-.83,.98-.83,1.97,0,.71,.3,1.4,.83,1.89,.49,.46,1.13,.72,1.77,.72,.69,0,1.44-.29,1.94-.77,.29-.27,.78-.86,.78-1.84,0-.75-.25-1.37-.76-1.9-.51-.52-1.12-.76-1.91-.76Z"/><path class="cls-2" d="M136.53,107.54c-1.85,0-3.19-.54-4.35-1.74-1.12-1.17-1.69-2.6-1.69-4.26,0-1.79,.65-3.46,1.8-4.58,1.03-1.01,2.46-1.56,4.04-1.56,.99,0,2.34,.24,3.35,1.29v-.92h4v11.39h-4v-.97c-.77,.89-1.83,1.35-3.15,1.35Zm.71-8.7c-.7,0-1.39,.28-1.87,.74h0c-.36,.35-.78,.95-.78,1.87s.38,1.51,.71,1.85c.49,.51,1.24,.81,2.01,.81,.66,0,1.3-.26,1.76-.71,.38-.35,.83-.97,.83-1.95,0-.74-.28-1.43-.77-1.89-.47-.44-1.21-.72-1.89-.72Z"/><path class="cls-2" d="M110.68,107.2h-4v-11.39h4v1.28c.32-.44,.72-.81,1.14-1.06,.57-.35,1.18-.5,2.04-.5,.46,0,1.19,.22,1.19,.22l-.38,3.48s0-.19-1.46-.22c-.69-.01-1.24,.22-1.69,.69-.73,.76-.83,1.81-.83,2.84v4.66Z"/></g><path id="New_Symbol" class="cls-1" d="M80.24,45.16c-8.62,1-11.03,9.91-17.52,17.61-8.67,10.28-21.51,5-21.51,5,8.67-1.08,11.15-10.05,17.79-17.72,8.8-10.16,21.24-4.89,21.24-4.89Zm-31.23,15.08s10.78-8.54,6.13-21.12c-3.5-9.49-10.26-16.21-6.68-24.13,0,0-10.67,8.66-6.23,21.12,3.4,9.53,10.36,16.21,6.78,24.13Zm-.62-1.81s1.04-13.84-10.9-19.09c-9.31-4.1-19.1-3.72-22.45-11.73,0,0-1.33,13.75,11.34,19.08,9.38,3.94,18.66,3.74,22.01,11.75Zm-14.19,23.23h24.22l5.65-11.37h-29.87v11.37Zm3.86,33.34h2.04l13.89-31.81h-15.94v31.81Z"/></g></svg>
