<svg width="500" height="330" viewBox="0 0 500 330" fill="none" xmlns="http://www.w3.org/2000/svg">
<path fill-rule="evenodd" clip-rule="evenodd" d="M52.5351 0L79.9968 101.713L107.459 0H160L106.743 160H53.251L0 0H52.5351ZM170 46.8636L216.864 0H283.136L330 46.8636V113.136L283.136 160H216.864L170 113.136V46.8636ZM219.854 110.14H280.14V49.8535H219.854V110.14ZM340 44H394L394 160H445.863L446 44H500L500 0H340L340 44ZM52.5351 170L79.9968 271.713L107.459 170H160L106.743 330H53.251L0 170H52.5351ZM170 216.864L216.864 170H283.136L330 216.864V283.136L283.136 330H216.864L170 283.136V216.864ZM219.854 280.14H280.14V219.854H219.854V280.14ZM340 214H394L394 330H445.863L446 214H500L500 170H340L340 214Z" fill="#14130F"/>
</svg>
