<svg id="uzbek_ru" xmlns="http://www.w3.org/2000/svg" viewBox="0 0 232.69 71.58"><defs><style>.cls-1{fill:#5c666f;}.cls-2{fill:#ea6903;}</style></defs><path class="cls-1" d="M54.41,33.63h2.17A5.85,5.85,0,0,0,61,32.13a5.44,5.44,0,0,0,1.48-4,5.05,5.05,0,0,0-1.69-4.1,6.55,6.55,0,0,0-4.49-1.39h-6V39.36h4.21Zm0-7.52h1.12a2.91,2.91,0,0,1,2,.57,2,2,0,0,1,.56,1.46,2,2,0,0,1-.57,1.48,2.82,2.82,0,0,1-1.95.57H54.41Z"/><path class="cls-1" d="M69,39.73a3.92,3.92,0,0,0,3.12-1.34v1h4V28.08h-4V29a4.52,4.52,0,0,0-3.32-1.29,5.65,5.65,0,0,0-4,1.55,6.35,6.35,0,0,0-1.78,4.54A5.91,5.91,0,0,0,64.74,38,5.5,5.5,0,0,0,69,39.73Zm-1.92-6a2.57,2.57,0,0,1,.77-1.86,2.69,2.69,0,0,1,1.85-.73,2.87,2.87,0,0,1,1.87.71,2.68,2.68,0,0,1,0,3.81,2.52,2.52,0,0,1-1.75.7,2.82,2.82,0,0,1-2-.8A2.58,2.58,0,0,1,67.12,33.7Z"/><path class="cls-1" d="M81,39.36h7.26v3.09h3.56V36.31H90.18V28.08H80V32.5c0,1.28-.07,2.41-.92,3.17a2.44,2.44,0,0,1-1.42.64l-.16,0v6.12H81Zm5.21-8.23v5.18h-3.6a3.34,3.34,0,0,0,.73-1.21A6.63,6.63,0,0,0,83.61,33V31.13Z"/><polygon class="cls-1" points="101.46 33.38 101.46 39.36 105.42 39.36 105.42 28.08 101.81 28.08 97.33 33.97 97.33 28.08 93.37 28.08 93.37 39.36 96.99 39.36 101.46 33.38"/><path class="cls-1" d="M114,39.73a7.08,7.08,0,0,0,5-1.82,5.94,5.94,0,0,0,0-8.38,7.76,7.76,0,0,0-10,0,5.94,5.94,0,0,0,0,8.38A7.13,7.13,0,0,0,114,39.73Zm-1.9-7.94a2.84,2.84,0,0,1,3.8,0,2.71,2.71,0,0,1-3.8,3.86,2.8,2.8,0,0,1,0-3.86Z"/><path class="cls-1" d="M65.27,51.22A9.17,9.17,0,0,0,58.7,48.8a8.7,8.7,0,0,0-9.27,8.77,8.46,8.46,0,0,0,2.65,6.21,9.54,9.54,0,0,0,6.62,2.44,9.17,9.17,0,0,0,6.57-2.45,8.73,8.73,0,0,0,0-12.55ZM55.15,54h0a4.94,4.94,0,0,1,3.52-1.35A5.24,5.24,0,0,1,62.22,54a4.91,4.91,0,0,1,1.4,3.54A4.62,4.62,0,0,1,62.22,61a5,5,0,0,1-3.57,1.35,4.75,4.75,0,0,1-3.45-1.3,4.67,4.67,0,0,1-1.47-3.54A4.77,4.77,0,0,1,55.15,54Z"/><path class="cls-1" d="M77.48,60a3,3,0,0,0,.58-.45,2.64,2.64,0,0,0,.73-2,2.8,2.8,0,0,0-.88-2.14A5.93,5.93,0,0,0,74,54.21a8.12,8.12,0,0,0-2.68.4,11.36,11.36,0,0,0-1.88.92l-.15.09,1.57,2.69.16-.14a4.16,4.16,0,0,1,1.15-.68,3.42,3.42,0,0,1,1.41-.28,2.74,2.74,0,0,1,1,.18c.4.18.44.44.44.55a.62.62,0,0,1-.41.57,4.45,4.45,0,0,1-1.28.18H72.18v2.76h1.53a4.14,4.14,0,0,1,1.23.18.59.59,0,0,1,.42.57.75.75,0,0,1-.41.68,2.84,2.84,0,0,1-1.21.24,4.76,4.76,0,0,1-1.66-.33,5.56,5.56,0,0,1-1.32-.85l-.16-.13-1.72,2.63.12.1a7.61,7.61,0,0,0,2,1.18,8.86,8.86,0,0,0,3.11.5c2.09,0,3.31-.35,4.22-1.22a3.25,3.25,0,0,0,1-2.41,2.47,2.47,0,0,0-.8-1.94A3.61,3.61,0,0,0,77.48,60Z"/><path class="cls-1" d="M87.31,54.21a7.15,7.15,0,0,0-5,1.81,6,6,0,0,0,0,8.39,7.8,7.8,0,0,0,10,0,6,6,0,0,0,0-8.39A7.12,7.12,0,0,0,87.31,54.21Zm1.89,7.94a2.58,2.58,0,0,1-1.87.73,2.65,2.65,0,0,1-1.92-.73,2.68,2.68,0,1,1,3.79,0Z"/><path class="cls-1" d="M107.42,54.58H97.2V59c0,1.29-.07,2.41-.92,3.18a2.53,2.53,0,0,1-1.42.64H94.7v6.12h3.55V65.86h7.27v3.08h3.55V62.8h-1.65Zm-4,3.05V62.8H99.86a3.2,3.2,0,0,0,.73-1.21,6.28,6.28,0,0,0,.26-2.06v-1.9Z"/><path class="cls-1" d="M111.89,60.8a2.61,2.61,0,0,1-.4,1.62,1.64,1.64,0,0,1-1.54.27l-.23-.06v3.16l.14,0a5.57,5.57,0,0,0,1.44.17,4,4,0,0,0,3.21-1.21A5.54,5.54,0,0,0,115.65,61V57.77h2.57v8.09h4V54.58H111.89Z"/><polygon class="cls-1" points="128.62 60.47 128.62 54.58 124.66 54.58 124.66 65.86 128.28 65.86 132.75 59.87 132.75 65.86 136.71 65.86 136.71 54.58 133.1 54.58 128.62 60.47"/><polygon class="cls-1" points="146.56 59.83 151.51 54.58 146.54 54.58 143.15 58.6 143.15 54.58 139.2 54.58 139.2 65.86 143.15 65.86 143.15 61.35 146.69 65.86 151.81 65.86 146.56 59.83"/><path id="M" class="cls-2" d="M46.58,21.61c-6.16.72-7.88,7.11-12.51,12.62-6.19,7.37-15.36,3.58-15.36,3.58,6.19-.77,8-7.2,12.7-12.69C37.7,17.83,46.58,21.61,46.58,21.61ZM24.28,32.42S32,26.3,28.66,17.29C26.16,10.49,21.33,5.67,23.89,0c0,0-7.62,6.2-4.45,15.13C21.87,22,26.84,26.75,24.28,32.42Zm-.44-1.3s.74-9.92-7.78-13.68C9.41,14.5,2.42,14.77,0,9,0,9-.92,18.88,8.12,22.7,14.82,25.53,21.44,25.38,23.84,31.12ZM13.71,47.77H31l4-8.15H13.71Zm2.75,23.88h1.46l9.92-22.79H16.46Z"/></svg>