<?xml version="1.0" encoding="UTF-8"?>
<!-- Generator: Adobe Illustrator 25.2.1, SVG Export Plug-In . SVG Version: 6.00 Build 0)  -->
<svg version="1.1" xmlns="http://www.w3.org/2000/svg" xmlns:xlink="http://www.w3.org/1999/xlink" x="0px" y="0px" viewBox="0 0 177.55 80" style="enable-background:new 0 0 177.55 80;" xml:space="preserve">
<style type="text/css">
	.st0{fill:#5C666F;}
	.st1{fill:#EA6903;}
	.st2{fill:#E76A24;}
	.st3{fill:#5C6770;}
	.st4{display:none;}
	.st5{display:inline;}
	.st6{fill:#FFFFFF;}
	.st7{fill:#E56A24;}
	.st8{fill:#5D6771;}
	.st9{display:none;fill:#5C666F;}
	.st10{display:inline;fill:#5C666F;}
	.st11{fill:#5D6770;}
	.st12{fill:#69737B;}
	.st13{fill:#256A78;}
	.st14{fill:#D12430;}
	.st15{display:inline;fill:#2D1996;}
	.st16{fill:#2D1996;}
	.st17{fill:#E86B24;}
	.st18{fill:none;}
	.st19{opacity:0.7;}
	.st20{fill-rule:evenodd;clip-rule:evenodd;fill:#FFFFFF;}
	.st21{fill-rule:evenodd;clip-rule:evenodd;fill:#EA6903;}
	.st22{fill:#5B6770;}
	.st23{fill-rule:evenodd;clip-rule:evenodd;fill:#5B6770;}
	.st24{fill-rule:evenodd;clip-rule:evenodd;fill:#F7C39A;}
	.st25{clip-path:url(#SVGID_2_);fill-rule:evenodd;clip-rule:evenodd;fill:#FFFFFF;}
	.st26{display:none;fill:#E50E1F;}
	.st27{fill:#020202;}
	.st28{fill:#EE7204;}
	.st29{fill:#080808;}
	.st30{fill:#0A0A0A;}
	.st31{fill:#0B0B0B;}
	.st32{fill:#EF770C;}
	.st33{fill:#0F0F0F;}
	.st34{fill:#0C0C0C;}
	.st35{fill:#060606;}
	.st36{fill:#EF7B14;}
	.st37{fill:#B7B7B7;}
	.st38{fill:#C11D22;}
	.st39{fill:#3A79B7;}
	.st40{fill:#768492;}
	.st41{fill:#FFFFFF;stroke:#FFFFFF;stroke-width:0.25;stroke-miterlimit:10;}
	.st42{fill:#3B79B7;}
	.st43{fill:#363535;}
	.st44{fill:#BED970;}
	.st45{fill:#E1368E;}
	.st46{fill:#E9E751;}
	.st47{fill:#8E499B;}
	.st48{fill:#C1C0C0;}
	.st49{clip-path:url(#SVGID_4_);fill:url(#SVGID_5_);}
	.st50{fill:#334D5D;}
	.st51{fill:#2170B7;}
	.st52{fill:#718B99;}
	.st53{fill:#B62027;}
	.st54{fill:#26A3DD;}
	.st55{clip-path:url(#SVGID_7_);fill:url(#SVGID_8_);}
</style>
<g id="afghan_x5F_da">
</g>
<g id="afghan_x5F_eng">
</g>
<g id="afghan_x5F_pa">
</g>
<g id="armenian">
	<g>
		<path class="st0" d="M65.13,54.09l-0.29-0.07c-0.62-0.15-1.17-0.35-1.64-0.61c-0.38-0.21-0.73-0.43-1.06-0.67    c-0.47,0.3-0.99,0.54-1.55,0.7c-0.64,0.19-1.34,0.29-2.07,0.29c-0.83,0-1.62-0.13-2.34-0.37c-0.73-0.25-1.37-0.62-1.91-1.1    c-0.54-0.48-0.97-1.08-1.28-1.78c-0.31-0.7-0.47-1.5-0.47-2.38v-9.51h3.51v9.61c0,0.4,0.06,0.76,0.18,1.06    c0.12,0.29,0.29,0.54,0.5,0.74c0.22,0.2,0.48,0.36,0.78,0.46c0.5,0.18,1.14,0.2,1.66,0.11c-0.02-0.01-0.05-0.02-0.07-0.03    c-0.27-0.12-0.57-0.21-0.89-0.29l-0.36-0.09l0.96-2.83l0.3,0.07c0.48,0.12,0.93,0.27,1.31,0.45c0.2,0.1,0.4,0.2,0.59,0.31v-9.57    h3.51v9.51c0,0.47-0.05,0.92-0.14,1.33c-0.07,0.31-0.16,0.61-0.26,0.89c0.22,0.13,0.45,0.25,0.69,0.36    c0.33,0.15,0.7,0.28,1.12,0.38l0.38,0.1L65.13,54.09z M78.72,57.47h-5.59V53.3c-0.18,0.08-0.37,0.16-0.57,0.22    c-1,0.32-2.16,0.26-3.14-0.1c-0.57-0.21-1.09-0.54-1.53-1c-0.44-0.45-0.79-1.04-1.04-1.74c-0.25-0.69-0.38-1.54-0.38-2.52    c0-1.06,0.16-1.97,0.47-2.71c0.32-0.75,0.75-1.37,1.29-1.83c0.54-0.47,1.16-0.81,1.86-1.02c0.68-0.2,1.4-0.31,2.13-0.31    c0.27,0,0.57,0.01,0.9,0.03c0.33,0.02,0.67,0.07,1.02,0.13c0.35,0.06,0.7,0.14,1.06,0.25c0.36,0.11,0.72,0.24,1.07,0.41l0.19,0.09    v11.33h2.28V57.47z M72.19,45.16c-0.79,0-1.37,0.22-1.76,0.69c-0.4,0.47-0.6,1.24-0.6,2.28c0,0.52,0.05,0.96,0.14,1.32    c0.09,0.34,0.21,0.62,0.37,0.83c0.15,0.2,0.33,0.34,0.55,0.43c0.23,0.1,0.5,0.14,0.8,0.14c0.22,0,0.41-0.02,0.58-0.06    c0.17-0.04,0.32-0.09,0.45-0.15c0.13-0.06,0.24-0.12,0.32-0.19c0.04-0.03,0.07-0.06,0.1-0.08v-5.12c-0.1-0.02-0.2-0.04-0.3-0.06    C72.64,45.18,72.42,45.16,72.19,45.16z M87.74,53.73c-0.63,0-1.17-0.1-1.63-0.3c-0.35-0.16-0.66-0.35-0.93-0.59    c-0.35,0.24-0.74,0.44-1.14,0.59c-0.51,0.2-1.09,0.3-1.74,0.3c-0.67,0-1.27-0.1-1.76-0.28c-0.51-0.19-0.93-0.47-1.27-0.84    c-0.33-0.36-0.58-0.8-0.74-1.3c-0.15-0.49-0.23-1.04-0.23-1.63v-7.16h3.31v7.02c0,0.23,0.02,0.44,0.05,0.62    c0.03,0.16,0.08,0.3,0.16,0.41c0.06,0.1,0.14,0.17,0.25,0.22c0.11,0.06,0.27,0.09,0.47,0.09c0.37,0,0.69-0.06,0.95-0.18    c0.2-0.09,0.37-0.19,0.5-0.3c-0.01-0.09-0.02-0.19-0.03-0.28c-0.01-0.15-0.02-0.31-0.02-0.46v-7.14h3.31v7.02    c0,0.2,0.01,0.39,0.03,0.57c0.02,0.16,0.06,0.29,0.13,0.41c0.06,0.1,0.15,0.18,0.28,0.25c0.1,0.05,0.28,0.11,0.62,0.11    c0.12,0,0.24-0.02,0.37-0.04c0.13-0.03,0.26-0.07,0.39-0.13c0.13-0.06,0.24-0.12,0.34-0.19c0.06-0.04,0.1-0.08,0.15-0.12v-7.87    h3.31v11h-3.15v-0.31c-0.18,0.1-0.36,0.19-0.56,0.27C88.73,53.64,88.25,53.73,87.74,53.73z M98.51,53.73    c-0.48,0-0.95-0.07-1.39-0.2c-0.46-0.14-0.87-0.38-1.23-0.7c-0.35-0.32-0.64-0.75-0.85-1.28c-0.21-0.51-0.31-1.15-0.31-1.89v-7.14    h3.31v7.02c0,0.2,0.01,0.39,0.03,0.58c0.02,0.15,0.05,0.29,0.12,0.4c0.06,0.1,0.15,0.18,0.27,0.25c0.1,0.05,0.28,0.11,0.62,0.11    c0.12,0,0.25-0.02,0.38-0.05c0.14-0.03,0.27-0.07,0.39-0.13c0.13-0.06,0.25-0.12,0.35-0.19c0.06-0.04,0.11-0.08,0.15-0.12v-7.87    h3.15v0.31c0.18-0.1,0.36-0.19,0.56-0.27c0.82-0.33,1.88-0.34,2.81-0.05c0.46,0.14,0.88,0.38,1.24,0.7    c0.36,0.33,0.65,0.75,0.86,1.28c0.21,0.51,0.31,1.15,0.31,1.89v7.14h-3.31V46.5c0-0.19-0.01-0.38-0.03-0.57    c-0.02-0.16-0.06-0.29-0.13-0.41c-0.06-0.1-0.15-0.18-0.28-0.25c-0.1-0.05-0.28-0.11-0.62-0.11c-0.12,0-0.24,0.02-0.38,0.04    c-0.13,0.03-0.26,0.07-0.39,0.13c-0.12,0.06-0.24,0.12-0.34,0.19c-0.05,0.04-0.1,0.08-0.15,0.12v7.87h-3.15V53.2    c-0.18,0.1-0.37,0.19-0.57,0.27C99.5,53.64,99.02,53.73,98.51,53.73z M120.29,53.52h-3.31V46.5c0-0.24-0.02-0.46-0.06-0.64    c-0.03-0.16-0.09-0.29-0.17-0.39c-0.07-0.09-0.17-0.17-0.3-0.22c-0.15-0.06-0.35-0.09-0.59-0.09c-0.4,0-0.73,0.06-0.98,0.18    c-0.2,0.1-0.36,0.2-0.47,0.3v7.87h-3.31v-11h3.15v0.3c0.22-0.12,0.45-0.22,0.69-0.3c0.44-0.14,0.91-0.21,1.4-0.21    c0.62,0,1.18,0.09,1.66,0.26c0.5,0.18,0.92,0.44,1.26,0.78c0.34,0.34,0.6,0.76,0.78,1.25c0.17,0.48,0.25,1.03,0.25,1.63V53.52z     M128.97,53.52h-6.84v-11h3.31v8.08h3.53V53.52z M133.29,57.47h-3.31V42.51h3.15v0.37c0.1-0.04,0.2-0.08,0.3-0.12    c0.3-0.11,0.62-0.2,0.95-0.27c0.33-0.07,0.67-0.12,1.01-0.15c1.11-0.1,2.08-0.03,3.01,0.21c0.66,0.17,1.26,0.44,1.77,0.8    c0.52,0.36,0.96,0.82,1.29,1.36c0.28,0.47,0.47,1,0.56,1.6h1.29v2.92h-1.23c-0.03,0.7-0.15,1.31-0.36,1.84    c-0.25,0.61-0.58,1.12-1,1.52c-0.42,0.4-0.9,0.69-1.45,0.87c-1.03,0.35-2.2,0.35-3.18,0.05c-0.49-0.15-0.91-0.39-1.28-0.7    c-0.36-0.31-0.65-0.7-0.87-1.16c-0.21-0.46-0.32-1-0.32-1.6c0-0.61,0.1-1.16,0.31-1.63c0.21-0.47,0.5-0.87,0.86-1.18    c0.36-0.31,0.79-0.54,1.29-0.69c0.48-0.15,1.01-0.22,1.57-0.22h0.95c-0.06-0.13-0.13-0.24-0.21-0.34    c-0.17-0.2-0.39-0.36-0.63-0.48c-0.26-0.13-0.55-0.22-0.86-0.27c-0.65-0.1-1.33-0.1-1.96-0.01c-0.31,0.04-0.6,0.1-0.85,0.16    c-0.25,0.06-0.46,0.13-0.63,0.21c-0.08,0.04-0.14,0.07-0.18,0.09V57.47z M137.68,49.23c-0.26,0-0.46,0.07-0.61,0.2    c-0.14,0.13-0.21,0.32-0.21,0.6c0,0.29,0.07,0.49,0.22,0.62c0.25,0.23,0.63,0.28,0.99,0.12c0.12-0.05,0.23-0.14,0.32-0.27    c0.11-0.15,0.2-0.35,0.27-0.61c0.05-0.19,0.09-0.41,0.1-0.67H137.68z M143.6,57.66c-0.18,0-0.41-0.01-0.69-0.01    c-0.29-0.01-0.61-0.05-0.94-0.13l-0.27-0.06v-2.82l0.41,0.08c0.18,0.04,0.36,0.07,0.52,0.09c0.38,0.05,0.72,0.04,0.99-0.05    c0.14-0.05,0.25-0.13,0.35-0.24c0.1-0.12,0.18-0.3,0.24-0.52c0.06-0.24,0.1-0.55,0.1-0.93V42.51h3.31v10.56    c0,0.81-0.1,1.52-0.31,2.09c-0.21,0.59-0.5,1.07-0.87,1.44c-0.37,0.37-0.81,0.65-1.31,0.81C144.66,57.58,144.14,57.66,143.6,57.66    z M158.67,53.52h-3.31V46.5c0-0.24-0.02-0.45-0.06-0.64c-0.03-0.16-0.09-0.29-0.17-0.39c-0.07-0.09-0.17-0.17-0.3-0.22    c-0.15-0.06-0.35-0.09-0.59-0.09c-0.4,0-0.73,0.06-0.98,0.18c-0.2,0.1-0.36,0.2-0.47,0.3v7.87h-3.31v-11h3.15v0.3    c0.22-0.12,0.45-0.23,0.69-0.3c0.44-0.14,0.91-0.21,1.4-0.21c0.62,0,1.18,0.09,1.66,0.26c0.49,0.18,0.92,0.44,1.26,0.78    c0.34,0.34,0.6,0.76,0.78,1.25c0.17,0.48,0.25,1.03,0.25,1.63V53.52z M167.36,53.52h-6.84v-11h3.31v8.08h3.53V53.52z     M172.31,53.73c-1.26,0-2.24-0.35-2.92-1.04c-0.68-0.69-1.03-1.66-1.03-2.89v-8.3h-2.28v-2.92h5.59v10.94    c0,0.24,0.02,0.46,0.06,0.64c0.03,0.16,0.09,0.29,0.17,0.39c0.07,0.09,0.17,0.17,0.3,0.22c0.15,0.06,0.35,0.09,0.59,0.09    c0.4,0,0.73-0.06,0.98-0.18c0.2-0.1,0.36-0.2,0.47-0.3v-7.87h3.31v11h-3.15v-0.3c-0.22,0.12-0.45,0.23-0.69,0.3    C173.27,53.66,172.8,53.73,172.31,53.73z M64.53,75.04h-3.51v-9.61c0-0.4-0.06-0.76-0.18-1.06c-0.12-0.29-0.29-0.54-0.5-0.74    c-0.22-0.2-0.48-0.36-0.78-0.46c-0.62-0.22-1.42-0.22-2.04,0c-0.3,0.11-0.56,0.26-0.78,0.46c-0.21,0.2-0.38,0.45-0.5,0.74    c-0.12,0.3-0.18,0.66-0.18,1.06v9.61h-3.51v-9.51c0-0.88,0.16-1.68,0.47-2.38c0.31-0.7,0.74-1.3,1.28-1.78    c0.54-0.48,1.18-0.85,1.91-1.1c1.44-0.5,3.24-0.5,4.68,0c0.73,0.25,1.37,0.62,1.91,1.1c0.54,0.48,0.97,1.08,1.28,1.78    c0.31,0.7,0.47,1.5,0.47,2.38v2.35h1.79v3.24h-1.79V75.04z M76.67,75.25c-0.63,0-1.17-0.1-1.63-0.3    c-0.35-0.16-0.66-0.35-0.93-0.59c-0.35,0.24-0.74,0.44-1.14,0.59c-0.51,0.2-1.09,0.3-1.74,0.3c-0.67,0-1.27-0.1-1.76-0.28    c-0.51-0.19-0.93-0.47-1.27-0.84c-0.33-0.36-0.58-0.8-0.74-1.3c-0.15-0.49-0.23-1.04-0.23-1.63v-7.16h3.31v7.02    c0,0.23,0.02,0.44,0.05,0.62c0.03,0.16,0.08,0.3,0.16,0.41c0.06,0.1,0.14,0.17,0.25,0.22c0.11,0.06,0.27,0.09,0.47,0.09    c0.37,0,0.69-0.06,0.95-0.18c0.2-0.09,0.37-0.19,0.5-0.3c-0.01-0.09-0.02-0.19-0.03-0.28c-0.01-0.15-0.02-0.31-0.02-0.46v-7.14    h3.31v7.02c0,0.2,0.01,0.39,0.03,0.57c0.02,0.16,0.06,0.29,0.13,0.41c0.06,0.1,0.15,0.18,0.28,0.25c0.1,0.05,0.28,0.11,0.62,0.11    c0.12,0,0.24-0.02,0.37-0.04c0.13-0.03,0.26-0.07,0.39-0.13c0.13-0.06,0.24-0.12,0.34-0.19c0.06-0.04,0.1-0.08,0.15-0.12v-7.87    h3.31v11h-3.15v-0.31c-0.18,0.1-0.36,0.19-0.56,0.27C77.67,75.17,77.19,75.25,76.67,75.25z M92.84,78.99h-3.31v-11    c0-0.23-0.02-0.43-0.06-0.6c-0.03-0.17-0.09-0.3-0.16-0.4c-0.07-0.09-0.17-0.17-0.3-0.22c-0.15-0.06-0.35-0.09-0.59-0.09    c-0.4,0-0.73,0.06-0.98,0.18c-0.2,0.1-0.36,0.2-0.47,0.3v7.87h-3.31v-11h3.15v0.3c0.22-0.12,0.45-0.22,0.69-0.3    c0.44-0.14,0.91-0.21,1.4-0.21c0.62,0,1.18,0.09,1.66,0.26c0.5,0.18,0.92,0.44,1.26,0.78c0.34,0.34,0.6,0.76,0.78,1.25    c0.17,0.48,0.25,1.03,0.25,1.63v4.37h1.79v2.92h-1.79V78.99z M98.78,78.99h-3.31V60.11h3.31v4.18c0.16-0.09,0.34-0.16,0.53-0.23    c0.43-0.16,0.9-0.23,1.39-0.23c0.62,0,1.18,0.09,1.66,0.26c0.5,0.18,0.92,0.44,1.26,0.78c0.34,0.34,0.6,0.76,0.78,1.25    c0.17,0.48,0.25,1.03,0.25,1.63v7.29h-3.31v-7.02c0-0.24-0.02-0.46-0.06-0.64c-0.03-0.16-0.09-0.29-0.17-0.39    c-0.07-0.09-0.17-0.17-0.3-0.22c-0.15-0.06-0.35-0.09-0.59-0.09c-0.4,0-0.73,0.06-0.98,0.18c-0.2,0.1-0.36,0.2-0.47,0.3V78.99z     M115.7,75.04h-3.31v-7.02c0-0.24-0.02-0.46-0.06-0.64c-0.03-0.16-0.09-0.29-0.17-0.39c-0.07-0.09-0.17-0.17-0.3-0.22    c-0.15-0.06-0.35-0.09-0.59-0.09c-0.4,0-0.73,0.06-0.98,0.18c-0.2,0.1-0.36,0.2-0.47,0.3v7.87h-3.31v-11h3.15v0.3    c0.22-0.12,0.45-0.22,0.69-0.3c0.44-0.14,0.91-0.21,1.4-0.21c0.62,0,1.18,0.09,1.66,0.26c0.49,0.18,0.92,0.44,1.26,0.78    c0.34,0.34,0.6,0.76,0.78,1.25c0.17,0.48,0.25,1.03,0.25,1.63V75.04z M126.74,78.99h-3.31v-4.21c-0.16,0.09-0.34,0.16-0.53,0.23    c-0.43,0.16-0.9,0.23-1.39,0.23c-1.26,0-2.24-0.35-2.93-1.04c-0.68-0.69-1.03-1.66-1.03-2.89V60.11h3.31v10.94    c0,0.24,0.02,0.46,0.06,0.64c0.03,0.16,0.09,0.29,0.17,0.39c0.07,0.1,0.17,0.17,0.3,0.22c0.15,0.06,0.35,0.09,0.59,0.09    c0.4,0,0.73-0.06,0.98-0.18c0.2-0.1,0.36-0.2,0.47-0.3v-7.87h3.31V78.99z M138.03,75.25c-0.63,0-1.17-0.1-1.63-0.3    c-0.35-0.16-0.66-0.35-0.93-0.59c-0.35,0.24-0.74,0.44-1.14,0.59c-0.51,0.2-1.09,0.3-1.74,0.3c-0.67,0-1.27-0.1-1.76-0.28    c-0.51-0.19-0.93-0.47-1.27-0.84c-0.33-0.36-0.58-0.8-0.74-1.3c-0.15-0.49-0.23-1.04-0.23-1.63v-7.16h3.31v7.02    c0,0.23,0.02,0.44,0.05,0.62c0.03,0.16,0.08,0.3,0.15,0.41c0.06,0.1,0.14,0.17,0.25,0.22c0.11,0.06,0.27,0.09,0.47,0.09    c0.37,0,0.69-0.06,0.95-0.18c0.2-0.09,0.36-0.19,0.5-0.3c-0.01-0.09-0.02-0.19-0.03-0.28c-0.01-0.15-0.02-0.31-0.02-0.46v-7.14    h3.31v7.02c0,0.2,0.01,0.39,0.03,0.57c0.02,0.16,0.06,0.29,0.13,0.41c0.06,0.1,0.15,0.18,0.28,0.25c0.1,0.05,0.28,0.11,0.62,0.11    c0.12,0,0.24-0.02,0.38-0.04c0.13-0.03,0.26-0.07,0.39-0.13c0.12-0.06,0.24-0.12,0.34-0.19c0.05-0.04,0.1-0.08,0.15-0.12v-7.87    h3.31v11h-3.15v-0.31c-0.18,0.1-0.36,0.19-0.56,0.27C139.03,75.17,138.55,75.25,138.03,75.25z M144.29,79.19    c-0.18,0-0.41-0.01-0.69-0.01c-0.29-0.01-0.61-0.05-0.94-0.13l-0.27-0.06v-2.82l0.41,0.08c0.18,0.04,0.36,0.07,0.52,0.09    c0.38,0.05,0.72,0.04,0.99-0.05c0.14-0.05,0.25-0.13,0.35-0.24c0.1-0.12,0.18-0.3,0.24-0.52c0.06-0.24,0.1-0.55,0.1-0.93V64.04    h3.31V74.6c0,0.81-0.1,1.52-0.31,2.09c-0.21,0.59-0.5,1.07-0.87,1.44c-0.37,0.37-0.81,0.65-1.31,0.81    C145.35,79.11,144.84,79.19,144.29,79.19z M159.61,75.25c-0.63,0-1.17-0.1-1.63-0.3c-0.35-0.16-0.66-0.35-0.93-0.59    c-0.35,0.24-0.74,0.44-1.14,0.59c-0.51,0.2-1.09,0.3-1.74,0.3c-0.67,0-1.27-0.1-1.76-0.28c-0.51-0.19-0.93-0.47-1.27-0.84    c-0.33-0.36-0.58-0.8-0.74-1.3c-0.15-0.49-0.23-1.04-0.23-1.63v-7.16h3.31v7.02c0,0.23,0.02,0.44,0.05,0.62    c0.03,0.16,0.08,0.3,0.15,0.41c0.06,0.1,0.14,0.17,0.25,0.22c0.11,0.06,0.27,0.09,0.47,0.09c0.37,0,0.69-0.06,0.95-0.18    c0.2-0.09,0.37-0.19,0.5-0.3c-0.01-0.09-0.02-0.19-0.03-0.28c-0.01-0.15-0.02-0.31-0.02-0.46v-7.14h3.31v7.02    c0,0.19,0.01,0.39,0.03,0.57c0.02,0.15,0.06,0.29,0.13,0.41c0.06,0.1,0.15,0.18,0.28,0.25c0.2,0.1,0.57,0.16,1,0.06    c0.13-0.03,0.26-0.07,0.39-0.13c0.13-0.06,0.24-0.12,0.34-0.19c0.06-0.04,0.1-0.08,0.15-0.12v-7.87h3.31v11h-3.15v-0.31    c-0.18,0.1-0.36,0.19-0.56,0.27C160.61,75.17,160.13,75.25,159.61,75.25z M170.54,75.25c-1.26,0-2.24-0.35-2.92-1.04    c-0.68-0.69-1.03-1.66-1.03-2.89v-8.3h-2.28v-2.92h5.59v10.94c0,0.24,0.02,0.46,0.06,0.64c0.03,0.16,0.09,0.29,0.17,0.39    c0.07,0.09,0.17,0.17,0.3,0.22c0.15,0.06,0.35,0.09,0.59,0.09c0.4,0,0.73-0.06,0.98-0.18c0.2-0.1,0.36-0.2,0.47-0.3v-7.87h3.31v11    h-3.15v-0.3c-0.22,0.12-0.45,0.22-0.69,0.3C171.5,75.18,171.03,75.25,170.54,75.25z"/>
		<path id="New_Symbol_68_" class="st1" d="M52.19,24.13c-6.89,0.8-8.83,7.93-14.01,14.09c-6.93,8.22-17.21,4-17.21,4    c6.93-0.86,8.92-8.04,14.23-14.17C42.25,19.91,52.19,24.13,52.19,24.13z M27.21,36.19c0,0,8.62-6.83,4.9-16.89    c-2.8-7.59-8.2-12.97-5.34-19.3c0,0-8.54,6.93-4.98,16.89C24.51,24.51,30.07,29.86,27.21,36.19z M26.71,34.74    c0,0,0.83-11.07-8.72-15.28c-7.45-3.28-15.28-2.97-17.96-9.38c0,0-1.06,11,9.07,15.26C16.6,28.5,24.03,28.33,26.71,34.74z     M15.36,53.33h19.37l4.52-9.09H15.36V53.33z M18.45,80h1.63l11.12-25.45H18.45V80z"/>
	</g>
</g>
<g id="armenian_x5F_ru">
</g>
<g id="azeri">
</g>
<g id="azeri_x5F_ru">
</g>
<g id="balkan">
</g>
<g id="belarussian">
</g>
<g id="bulgarian">
</g>
<g id="crimea_x5F_ru">
</g>
<g id="crimea_x5F_ta">
</g>
<g id="crimea_x5F_ua">
</g>
<g id="donbass_x5F_ru_-_not_full">
</g>
<g id="donbass_x5F_ua_-_not_full">
</g>
<g id="English">
</g>
<g id="georgian">
</g>
<g id="georgian_x5F_ru">
</g>
<g id="kazakh">
</g>
<g id="kazakh_x5F_ru">
</g>
<g id="kosovo">
</g>
<g id="kyrgyz">
</g>
<g id="kyrgyz_x5F_ru">
</g>
<g id="macedonia">
</g>
<g id="moldova">
	<g id="Layer_60">
	</g>
	<g id="Layer_61">
	</g>
	<g id="Layer_62">
	</g>
</g>
<g id="north_x5F_caucasus_x5F_av_-_not_full">
</g>
<g id="north_x5F_caucasus_x5F_ch">
</g>
<g id="north_x5F_caucasus_x5F_ru">
</g>
<g id="pakistan">
</g>
<g id="perssian">
</g>
<g id="perssian_x5F_eng">
</g>
<g id="romanian">
	<g id="Layer_57">
	</g>
	<g id="Layer_59">
	</g>
	<g id="Layer_58">
	</g>
</g>
<g id="russia">
</g>
<g id="Siberia">
</g>
<g id="tajik">
</g>
<g id="tajik_x5F_ru">
</g>
<g id="tatar_x5F_bashkir">
</g>
<g id="tatar_x5F_bashkir_x5F_ru">
</g>
<g id="turkmen">
</g>
<g id="turkmen_x5F_ru">
</g>
<g id="ukrainian">
</g>
<g id="uzbek">
</g>
<g id="uzbek_x5F_ru">
</g>
<g id="Sizdan_Telegram_just_video">
</g>
<g id="Severreal">
</g>
<g id="hungarian">
</g>
<g id="theHUB">
</g>
<g id="Faktograf">
</g>
<g id="logos_-_RU">
</g>
<g id="Mobile">
	<g id="Change_5_">
	</g>
</g>
<g id="Desktop">
</g>
<g id="showcase">
</g>
<g id="logos_-_EN">
</g>
<g id="labels">
</g>
<g id="MArti">
</g>
<g id="Screen">
</g>
<g id="Isolation_Mode">
</g>
<g id="dandalin_voa_logo">
</g>
<g id="Layer_2">
</g>
<g id="logo_x5F_big">
</g>
<g id="marti_x5F_2019">
</g>
</svg>