<?xml version="1.0" encoding="utf-8"?>
<!-- Generator: Adobe Illustrator 25.2.1, SVG Export Plug-In . SVG Version: 6.00 Build 0)  -->
<svg version="1.1" xmlns="http://www.w3.org/2000/svg" xmlns:xlink="http://www.w3.org/1999/xlink" x="0px" y="0px"
	 viewBox="0 0 137.17 80" style="enable-background:new 0 0 137.17 80;" xml:space="preserve">
<style type="text/css">
	.st0{fill:#5C666F;}
	.st1{fill:#EA6903;}
	.st2{fill:#E76A24;}
	.st3{fill:#5C6770;}
	.st4{display:none;}
	.st5{display:inline;}
	.st6{fill:#FFFFFF;}
	.st7{fill:#E56A24;}
	.st8{fill:#5D6771;}
	.st9{display:none;fill:#5C666F;}
	.st10{display:inline;fill:#5C666F;}
	.st11{fill:#5D6770;}
	.st12{fill:#69737B;}
	.st13{fill:#256A78;}
	.st14{fill:#D12430;}
	.st15{display:inline;fill:#2D1996;}
	.st16{fill:#2D1996;}
	.st17{fill:#E86B24;}
	.st18{fill:none;}
	.st19{opacity:0.7;}
	.st20{fill-rule:evenodd;clip-rule:evenodd;fill:#FFFFFF;}
	.st21{fill-rule:evenodd;clip-rule:evenodd;fill:#EA6903;}
	.st22{fill:#5B6770;}
	.st23{fill-rule:evenodd;clip-rule:evenodd;fill:#5B6770;}
	.st24{fill-rule:evenodd;clip-rule:evenodd;fill:#F7C39A;}
	.st25{clip-path:url(#SVGID_2_);fill-rule:evenodd;clip-rule:evenodd;fill:#FFFFFF;}
	.st26{display:none;fill:#E50E1F;}
	.st27{fill:#020202;}
	.st28{fill:#EE7204;}
	.st29{fill:#080808;}
	.st30{fill:#0A0A0A;}
	.st31{fill:#0B0B0B;}
	.st32{fill:#EF770C;}
	.st33{fill:#0F0F0F;}
	.st34{fill:#0C0C0C;}
	.st35{fill:#060606;}
	.st36{fill:#EF7B14;}
	.st37{fill:#B7B7B7;}
	.st38{fill:#C11D22;}
	.st39{fill:#3A79B7;}
	.st40{fill:#768492;}
	.st41{fill:#FFFFFF;stroke:#FFFFFF;stroke-width:0.25;stroke-miterlimit:10;}
	.st42{fill:#3B79B7;}
	.st43{fill:#363535;}
	.st44{fill:#BED970;}
	.st45{fill:#E1368E;}
	.st46{fill:#E9E751;}
	.st47{fill:#8E499B;}
	.st48{fill:#C1C0C0;}
	.st49{clip-path:url(#SVGID_4_);fill:url(#SVGID_5_);}
	.st50{fill:#334D5D;}
	.st51{fill:#2170B7;}
	.st52{fill:#718B99;}
	.st53{fill:#B62027;}
	.st54{fill:#26A3DD;}
	.st55{clip-path:url(#SVGID_7_);fill:url(#SVGID_8_);}
</style>
<g id="afghan_x5F_da">
	<g>
		<path class="st0" d="M20.21,41.49c-0.18,0.38-0.35,0.72-0.53,1.02c-0.08,0.14-0.16,0.27-0.26,0.4c-0.08,0.1-0.18,0.22-0.32,0.28
			c-0.15,0.07-0.36,0.09-0.49-0.06c-0.03-0.04-0.11-0.07-0.22-0.1c-0.13-0.04-0.29-0.05-0.48-0.04c-0.32,0.01-0.66,0.18-0.98,0.36
			c-0.88,0.49-1.65,1.18-2.23,1.71c-0.37,0.34-0.67,0.66-0.92,0.97c-0.15,0.19-0.28,0.36-0.38,0.53c-0.09,0.14-0.17,0.28-0.21,0.42
			c-0.07,0.24-0.05,0.55,0.14,0.67c0.08,0.05,0.18,0.09,0.27,0.13l0.2,0.09c0.18,0.08,0.35,0.15,0.53,0.23
			c0.23,0.1,0.45,0.21,0.67,0.33c0.32,0.18,0.54,0.51,0.67,0.98c0.1,0.36,0.14,0.77,0.13,1.28c-0.01,0.52-0.08,1.04-0.15,1.48
			c-0.13,0.83-0.32,1.66-0.55,2.45c-0.27,0.91-0.62,1.8-1.09,2.71c-0.54,1.06-1.03,1.8-1.58,2.42c-0.56,0.62-1.18,1.2-1.86,1.7
			c-0.36,0.27-0.76,0.52-1.2,0.74c-0.21,0.11-0.72,0.34-1.27,0.5c-0.32,0.1-0.68,0.17-0.98,0.21c-0.43,0.05-0.85,0.11-1.27,0.11
			c-0.01,0-0.01,0-0.02,0c-0.53,0-1.01-0.05-1.45-0.13c-0.51-0.1-0.93-0.25-1.27-0.45c-0.45-0.27-0.81-0.56-1.09-0.86
			c-0.28-0.3-0.53-0.68-0.79-1.17c-0.19-0.36-0.34-0.72-0.46-1.08c-0.06-0.18-0.1-0.43-0.13-0.74c-0.02-0.32-0.03-0.69-0.04-1.04
			l-0.01-0.4c-0.01-0.37,0.03-0.73,0.06-1.09l0.01-0.11c0.04-0.41,0.09-0.83,0.18-1.25c0.06-0.27,0.12-0.48,0.19-0.7
			c0.03-0.11,0.07-0.23,0.1-0.36c0.22-0.82,0.53-1.66,0.96-2.65c0.22-0.49,0.45-0.98,0.68-1.47l0.38-0.8
			c0.1-0.22,0.2-0.44,0.31-0.65l0.55-1.05c0.16-0.31,0.31-0.61,0.46-0.91c0.15-0.3,0.3-0.61,0.46-0.92c0.12-0.23,0.27-0.5,0.42-0.72
			l0.07-0.09l0.11-0.01c0.36-0.04,0.49,0.22,0.55,0.35l0.03,0.06c0.08,0.15-0.01,0.5-0.01,0.5l-0.02,0.06
			c-0.06,0.19-0.15,0.37-0.23,0.55c-0.04,0.08-0.08,0.16-0.11,0.25c-0.09,0.2-0.82,1.8-1.18,2.54c-0.18,0.37-0.66,1.53-1,2.38
			c-0.1,0.25-0.19,0.51-0.27,0.72c-0.04,0.12-0.08,0.23-0.11,0.31c-0.23,0.6-0.57,2.01-0.59,2.37c-0.09,1.45,0.14,1.98,0.69,2.64
			c0.14,0.17,0.71,0.64,1.46,0.92c0.03,0.01,0.07,0.02,0.11,0.03l0.09,0.02c0.14,0.03,0.27,0.06,0.41,0.09
			c0.41,0.08,0.82,0.13,1.21,0.15c0.92,0.05,1.77-0.04,2.54-0.29c0.82-0.26,1.46-0.56,2.01-0.93c0.61-0.42,1.23-0.98,1.89-1.72
			c0.47-0.53,0.79-1.06,0.93-1.57c0.05-0.17,0.07-0.32,0.07-0.46c0-0.08-0.01-0.16-0.05-0.21c-0.07-0.08-0.19-0.15-0.35-0.2
			c-0.1-0.03-0.21-0.06-0.32-0.09c-0.09-0.02-0.18-0.05-0.26-0.07c-0.51-0.15-0.94-0.34-1.32-0.57c-0.39-0.23-0.66-0.53-0.81-0.88
			c-0.19-0.46-0.2-0.98-0.17-1.43c0.01-0.2,0.03-0.41,0.06-0.61c0.03-0.16,0.07-0.32,0.12-0.48l0.01-0.05
			c0.13-0.45,0.3-0.9,0.5-1.35c0.17-0.38,0.37-0.75,0.56-1.1l0.11-0.2c0.24-0.45,0.49-0.85,0.77-1.23c0.28-0.39,0.59-0.77,0.89-1.15
			c0.1-0.12,0.19-0.24,0.29-0.36c0.2-0.26,0.4-0.51,0.61-0.76c0.29-0.33,0.61-0.67,1-1.02c0.34-0.31,0.7-0.61,1.12-0.95
			c0.29-0.24,0.6-0.45,0.91-0.65l0.3-0.2c0.4-0.27,0.83-0.55,1.29-0.78c0.25-0.12,0.48-0.21,0.7-0.28c0.3-0.09,0.54-0.07,0.74,0.06
			c0.29,0.19,0.23,0.53,0.2,0.71c-0.04,0.22-0.09,0.44-0.16,0.68C20.61,40.57,20.44,40.99,20.21,41.49z M24.37,41.31l-0.06-0.01
			c-0.07-0.01-0.25-0.02-0.58,0.43l-0.03,0.05c-0.07,0.14-1.59,3.49-1.67,3.66l-0.02,0.06c-0.04,0.25,0.17,0.42,0.57,0.74
			c0.17,0.13,0.36,0.29,0.53,0.45c0.23,0.22,0.43,0.48,0.57,0.67c0.05,0.06,0.09,0.12,0.13,0.16c0.54,0.7,0.64,1.3,0.24,1.7
			c-0.06,0.07-0.79,0.82-0.79,0.82l-0.57,0.53c-2.61,2.2-2.66,2.28-2.68,2.32c-0.04,0.07-0.17,0.33-0.04,0.54
			c0.06,0.09,0.17,0.19,0.4,0.19c0.02,0,0.04,0,0.06,0c0.25-0.02,2.4-0.71,3.82-1.59c0.38-0.19,0.69-0.62,0.7-0.64l0.06-0.08
			c0.15-0.21,0.47-0.63,0.57-0.89l0.13-0.26c0.11-0.21,0.24-0.48,0.41-0.84c0.22-0.48,0.61-1.4,0.74-2.17
			c0.46-2.38-0.15-3.52-0.57-4C26.29,43.13,24.8,41.46,24.37,41.31z M68.43,41.31l-0.06-0.01c-0.08-0.01-0.25-0.02-0.58,0.43
			l-0.03,0.05c-0.07,0.14-1.59,3.49-1.67,3.66l-0.02,0.06c-0.04,0.25,0.17,0.42,0.57,0.74c0.17,0.13,0.36,0.29,0.53,0.45
			c0.23,0.22,0.43,0.48,0.58,0.67c0.05,0.06,0.09,0.12,0.12,0.16c0.54,0.7,0.64,1.29,0.24,1.7c-0.06,0.07-0.79,0.82-0.79,0.82
			l-0.57,0.53c-2.61,2.21-2.65,2.27-2.68,2.32c-0.04,0.07-0.17,0.33-0.04,0.55c0.06,0.09,0.17,0.19,0.4,0.19c0.02,0,0.04,0,0.06,0
			c0.25-0.02,2.4-0.71,3.82-1.59c0.38-0.19,0.68-0.62,0.7-0.64l0.06-0.08c0.15-0.21,0.47-0.64,0.57-0.89
			c0.04-0.08,0.08-0.17,0.13-0.26c0.11-0.21,0.24-0.47,0.41-0.84c0.22-0.48,0.61-1.4,0.74-2.17c0.46-2.38-0.15-3.52-0.57-4
			C70.35,43.13,68.86,41.46,68.43,41.31z M32.94,42.82c0.04-0.56,0.13-1.13,0.22-1.68c0.04-0.23,0.08-0.46,0.11-0.69l0.05-0.34
			c0.1-0.66,0.2-1.35,0.24-2.07c0.02-0.2,0.05-0.58-0.24-0.69c-0.32-0.12-0.56,0.2-1.09,1.41l-0.04,0.09
			c-0.39,0.83-0.76,1.68-1.1,2.52c-0.04,0.09-0.08,0.18-0.12,0.27c-0.13,0.29-0.26,0.59-0.29,0.95c-0.02,0.27-0.05,0.54-0.08,0.81
			l-0.03,0.31c-0.03,0.31-0.07,0.62-0.1,0.93c-0.13,1.13-0.31,2.47-0.67,3.81c-0.27,1.04-0.59,2.09-0.87,3
			c-0.05,0.15-0.1,0.31-0.15,0.46l-0.05,0.16l0.01,0.06c0.01,0.05,0.07,0.32,0.29,0.42c0.04,0.01,0.09,0.03,0.15,0.03
			c0.07,0,0.16-0.02,0.25-0.09c0.35-0.2,2.42-3.37,2.92-5.71C32.48,46.4,32.81,44.66,32.94,42.82z M47.56,37.27
			c-0.32-0.11-0.56,0.2-1.09,1.41l-0.04,0.09c-0.39,0.84-0.76,1.68-1.1,2.52c-0.04,0.09-0.08,0.18-0.12,0.27
			c-0.13,0.29-0.26,0.59-0.29,0.95c-0.02,0.27-0.05,0.55-0.08,0.82l-0.03,0.3c-0.03,0.31-0.07,0.62-0.1,0.93
			c-0.13,1.13-0.31,2.47-0.67,3.81c-0.27,1.04-0.59,2.09-0.87,3c-0.05,0.15-0.1,0.31-0.15,0.46l-0.05,0.16l0.01,0.06
			c0.01,0.05,0.07,0.32,0.29,0.42c0.04,0.01,0.09,0.03,0.15,0.03c0.07,0,0.16-0.02,0.25-0.09c0.35-0.2,2.42-3.37,2.92-5.71
			c0.13-0.38,0.47-2.11,0.59-3.96c0.04-0.56,0.13-1.13,0.22-1.69c0.04-0.23,0.07-0.46,0.11-0.69l0.05-0.33
			c0.1-0.66,0.2-1.35,0.24-2.08C47.82,37.75,47.85,37.38,47.56,37.27z M77.08,42.82c0.04-0.56,0.13-1.13,0.22-1.69
			c0.04-0.23,0.07-0.46,0.11-0.69l0.05-0.34c0.1-0.66,0.2-1.34,0.24-2.07c0.02-0.2,0.05-0.58-0.24-0.69h0
			c-0.32-0.11-0.56,0.2-1.09,1.41l-0.04,0.09c-0.39,0.83-0.76,1.68-1.1,2.52c-0.04,0.09-0.08,0.18-0.12,0.27
			c-0.13,0.29-0.26,0.59-0.29,0.95c-0.02,0.27-0.05,0.54-0.08,0.81l-0.03,0.31c-0.03,0.31-0.07,0.61-0.1,0.93
			c-0.13,1.13-0.31,2.47-0.67,3.81c-0.28,1.05-0.59,2.1-0.87,3c-0.05,0.17-0.11,0.34-0.18,0.55l-0.02,0.06l0.01,0.07
			c0.01,0.05,0.07,0.32,0.29,0.42c0.04,0.01,0.09,0.03,0.15,0.03c0.07,0,0.16-0.02,0.25-0.09c0.35-0.2,2.42-3.37,2.92-5.71
			C76.62,46.4,76.95,44.66,77.08,42.82z M37.07,33.71C37.07,33.71,37.07,33.71,37.07,33.71c0.03,0.01,0.06,0.01,0.09,0.01
			c0.15,0,0.31-0.07,0.51-0.21c0.53-0.38,1.39-1.42,1.51-2.4c0.31-1.31-0.33-1.95-0.37-1.99l-1.69-1.4
			c-0.01-0.01-0.02-0.02-0.03-0.02l-0.17,0.21l-0.22-0.12c-0.03,0.05-0.22,0.34-0.23,0.36l-0.07,0.11
			c-0.66,1.02-1.35,2.08-1.73,3.26l-0.02,0.07l0.02,0.07C34.8,32.21,36.78,33.71,37.07,33.71z M55.59,29.26
			c1.55-1.35,2.15-2.76,2.18-2.82l0.02-0.06c0.01-0.06,0.04-0.38-0.2-0.52c-0.27-0.16-0.59,0.08-0.7,0.16
			c-0.08,0.06-0.17,0.1-0.26,0.15c-0.08,0.04-0.17,0.08-0.25,0.13c-1.25,0.78-3.09,1.44-3.17,1.47c-1.16,0.42-2.46,0.24-3.71,0.06
			l-0.4-0.06c-0.15-0.02-0.29-0.06-0.45-0.09c-0.45-0.11-1.01-0.25-2.04-0.14c-0.62,0.07-1.24,0.32-1.99,0.65
			c-0.87,0.44-1.61,1.08-2.29,1.7c-0.35,0.32-0.64,0.63-0.9,0.93c-0.32,0.37-0.58,0.74-0.79,1.13c-0.32,0.57-0.25,0.7-0.22,0.76
			l0.12,0.13h0.15c0.08,0.01,0.15,0.01,0.21,0.01c0.12,0,0.21-0.02,0.28-0.09c0.07-0.07,1.77-1.77,4.75-1.1
			c0.13,0.03,0.26,0.07,0.4,0.12c0.18,0.06,0.36,0.12,0.57,0.16c0.71,0.12,1.44,0.09,2.05,0.04c1.69-0.13,3.36-0.71,5.41-1.88
			C54.87,29.81,55.26,29.54,55.59,29.26z M64.13,58.46c-0.11-0.1-0.19-0.17-0.2-0.17c-0.08-0.08-0.18-0.1-0.26-0.11
			c-0.12,0-0.23,0.04-0.3,0.11l0.01,0.01c-0.09,0.11-0.32,0.45-0.98,1.62c-0.04,0.07-0.36,0.72-0.59,1.19
			c0.01-0.13,0.01-0.25,0.01-0.35c-0.02-0.41-0.15-0.74-0.21-0.81c-0.06-0.1-0.28-0.32-1.4-1.28c-0.11-0.09-0.18-0.16-0.19-0.16
			c-0.08-0.09-0.18-0.11-0.26-0.11c-0.12,0-0.23,0.04-0.3,0.11l0.01,0.01c-0.09,0.1-0.31,0.44-0.97,1.62
			c-0.05,0.09-0.69,1.39-0.81,1.65l-0.02,0.05c-0.01,0.04-0.05,0.25,0.08,0.42c0.02,0.03,0.05,0.07,1.84,1.53l0.05,0.04l0.07,0.01
			c0.07,0.01,0.13,0.02,0.18,0.02c0.14,0,0.24-0.03,0.31-0.1c0.31-0.28,0.64-0.58,0.91-0.94c0.21-0.28,0.35-0.58,0.48-0.9
			c0.01,0.04,0.03,0.08,0.06,0.12c0.02,0.03,0.05,0.07,1.84,1.53l0.05,0.04l0.07,0.01c0.07,0.01,0.13,0.02,0.18,0.02
			c0.14,0,0.24-0.03,0.32-0.1c0.31-0.28,0.64-0.58,0.91-0.94c0.24-0.32,0.39-0.68,0.54-1.04c0.16-0.4,0.18-0.75,0.17-1.02
			c-0.03-0.44-0.16-0.75-0.21-0.81C65.47,59.64,65.24,59.42,64.13,58.46z M84.11,41.93c-0.19-0.06-0.38,0.03-0.55,0.27
			c-0.07,0.1-0.15,0.32-0.61,1.64c-0.05,0.15-0.12,0.35-0.19,0.58c-0.13,0.38-0.27,0.81-0.37,1.09c-0.07,0.19-0.14,0.38-0.21,0.56
			c-0.25,0.68-0.48,1.33-0.86,1.91c-0.32,0.5-0.81,1.07-1.34,1.57c-1.1,1.04-2.36,1.92-2.37,1.93c-0.55,0.41-1.48,1.14-1.57,1.5
			c-0.05,0.23,0.02,0.37,0.09,0.45c0.09,0.1,0.22,0.15,0.37,0.15c0.02,0,0.05,0,0.08,0c0.41-0.05,0.86-0.13,1.41-0.26
			c0.31-0.07,0.63-0.16,0.94-0.28c0.02-0.01,0.6-0.23,1.26-0.54c0.65-0.3,1.26-0.79,1.64-1.31c0.64-0.87,1.2-2.04,1.56-3.29
			c0.73-2.49,1.07-4.96,1.06-5.48C84.44,42.34,84.36,42.01,84.11,41.93z M40.42,41.9c-0.19-0.06-0.37,0.04-0.55,0.27
			c-0.07,0.1-0.16,0.36-0.61,1.64c-0.05,0.15-0.12,0.35-0.19,0.57c-0.13,0.38-0.27,0.82-0.38,1.1c-0.07,0.19-0.14,0.38-0.21,0.56
			c-0.25,0.68-0.48,1.33-0.86,1.91c-0.32,0.5-0.81,1.07-1.34,1.57h0c-1.1,1.04-2.36,1.92-2.37,1.93c-0.55,0.41-1.48,1.14-1.57,1.5
			c-0.05,0.23,0.02,0.37,0.09,0.45c0.09,0.1,0.22,0.15,0.36,0.15c0.03,0,0.05,0,0.08,0c0.41-0.05,0.85-0.13,1.41-0.26
			c0.29-0.07,0.63-0.15,0.95-0.28c0.14-0.06,0.66-0.26,1.26-0.54c0.65-0.3,1.26-0.79,1.64-1.31c0.64-0.87,1.2-2.04,1.56-3.29
			c0.73-2.49,1.07-4.96,1.06-5.48C40.76,42.4,40.73,41.99,40.42,41.9z M59.66,51.1l1.09-1.6c0.06-0.1,0.36-0.6,0.42-0.75
			c0.06-0.15,0.52-1.25,0.52-1.25c0.04-0.1,0.07-0.21,0.1-0.33c0.02-0.08,0.04-0.17,0.06-0.23c0.03-0.06,0.23-0.31,0.4-0.52
			c0,0,0.32-0.42,0.73-1.01c0.13-0.18,0.25-0.34,0.37-0.49c0.14-0.17,0.26-0.33,0.38-0.51c0.2-0.31,0.34-0.63,0.45-0.86
			c0.05-0.11,0.09-0.2,0.12-0.26c0.4-0.71,0.57-2.38,0.57-2.4c0.01-0.14,0.01-3.12,0.01-3.72l-0.01-0.07
			c-0.04-0.13-0.14-0.27-0.31-0.29c-0.16-0.02-0.31,0.07-0.44,0.28c-0.02,0.04-0.11,0.24-0.75,1.71c-0.33,0.76-0.74,1.7-0.77,1.77
			c-0.13,0.22-0.14,0.93-0.12,1.51c0.02,0.4,0.05,0.89,0.04,0.96c-0.01,0.08-0.05,0.16-0.08,0.2c-0.04,0.05-0.31,0.34-0.54,0.55
			c-0.01-0.02-0.02-0.04-0.03-0.06c-0.1-0.21-0.19-0.38-0.29-0.53c-0.25-0.39-0.54-0.69-0.87-0.89c-0.48-0.28-1.1-0.3-1.75-0.01
			c-0.51,0.32-0.88,0.91-1.03,1.13l-0.04,0.06c-0.12,0.2-0.46,0.82-0.74,1.44c-0.26,0.58-0.46,1.15-0.47,1.18
			c-0.01,0.03-0.25,0.79,0.25,1.26c0.3,0.3,0.82,0.65,1.38,0.75c0.49,0.09,0.96,0.04,1.27,0c-0.05,0.12-0.13,0.26-0.17,0.34
			c-0.08,0.12-0.76,0.87-0.96,1c-0.07,0.04-0.13,0.1-0.19,0.15l-0.07,0.06c-0.71,0.58-1.28,1-1.86,1.36
			c-0.34,0.21-0.68,0.42-0.85,0.52l-0.11,0.07c-0.08,0.05-1.44,0.82-2.34,1.33l-0.04,0.03c-0.05,0.04-0.19,0.19-0.14,0.38
			c0.02,0.08,0.09,0.21,0.29,0.24c0.01,0,0.03,0,0.05,0c0.37,0,2.11-0.44,2.13-0.44c0.98-0.25,1.98-0.56,2.11-0.6
			c0.37-0.13,1.08-0.41,1.41-0.62C59.08,51.78,59.55,51.22,59.66,51.1z"/>
		<path id="New_Symbol_27_" class="st1" d="M137.17,24.13c-6.89,0.8-8.83,7.93-14.01,14.09c-6.93,8.22-17.21,4-17.21,4
			c6.93-0.86,8.92-8.04,14.23-14.17C127.22,19.91,137.17,24.13,137.17,24.13z M112.18,36.19c0,0,8.62-6.83,4.9-16.89
			c-2.8-7.59-8.2-12.97-5.34-19.3c0,0-8.54,6.93-4.98,16.89C109.48,24.51,115.05,29.86,112.18,36.19z M111.69,34.74
			c0,0,0.83-11.07-8.72-15.28c-7.45-3.28-15.28-2.97-17.96-9.38c0,0-1.06,11,9.07,15.26C101.58,28.5,109,28.33,111.69,34.74z
			 M100.33,53.33h19.37l4.52-9.09h-23.89V53.33z M103.42,80h1.63l11.12-25.45h-12.75V80z"/>
	</g>
</g>
<g id="afghan_x5F_eng">
</g>
<g id="afghan_x5F_pa">
</g>
<g id="armenian">
</g>
<g id="armenian_x5F_ru">
</g>
<g id="azeri">
</g>
<g id="azeri_x5F_ru">
</g>
<g id="balkan">
</g>
<g id="belarussian">
</g>
<g id="bulgarian">
</g>
<g id="crimea_x5F_ru">
</g>
<g id="crimea_x5F_ta">
</g>
<g id="crimea_x5F_ua">
</g>
<g id="donbass_x5F_ru_-_not_full">
</g>
<g id="donbass_x5F_ua_-_not_full">
</g>
<g id="English">
</g>
<g id="georgian">
</g>
<g id="georgian_x5F_ru">
</g>
<g id="kazakh">
</g>
<g id="kazakh_x5F_ru">
</g>
<g id="kosovo">
</g>
<g id="kyrgyz">
</g>
<g id="kyrgyz_x5F_ru">
</g>
<g id="macedonia">
</g>
<g id="moldova">
	<g id="Layer_60">
	</g>
	<g id="Layer_61">
	</g>
	<g id="Layer_62">
	</g>
</g>
<g id="north_x5F_caucasus_x5F_av_-_not_full">
</g>
<g id="north_x5F_caucasus_x5F_ch">
</g>
<g id="north_x5F_caucasus_x5F_ru">
</g>
<g id="pakistan">
</g>
<g id="perssian">
</g>
<g id="perssian_x5F_eng">
</g>
<g id="romanian">
	<g id="Layer_57">
	</g>
	<g id="Layer_59">
	</g>
	<g id="Layer_58">
	</g>
</g>
<g id="russia">
</g>
<g id="Siberia">
</g>
<g id="tajik">
</g>
<g id="tajik_x5F_ru">
</g>
<g id="tatar_x5F_bashkir">
</g>
<g id="tatar_x5F_bashkir_x5F_ru">
</g>
<g id="turkmen">
</g>
<g id="turkmen_x5F_ru">
</g>
<g id="ukrainian">
</g>
<g id="uzbek">
</g>
<g id="uzbek_x5F_ru">
</g>
<g id="Sizdan_Telegram_just_video">
</g>
<g id="Severreal">
</g>
<g id="hungarian">
</g>
<g id="theHUB">
</g>
<g id="Faktograf">
</g>
<g id="logos_-_RU">
</g>
<g id="Mobile">
	<g id="Change_5_">
	</g>
</g>
<g id="Desktop">
</g>
<g id="showcase">
</g>
<g id="logos_-_EN">
</g>
<g id="labels">
</g>
<g id="MArti">
</g>
<g id="Screen">
</g>
<g id="Isolation_Mode">
</g>
<g id="dandalin_voa_logo">
</g>
<g id="Layer_2">
</g>
<g id="logo_x5F_big">
</g>
<g id="marti_x5F_2019">
</g>
</svg>
