<?xml version="1.0" encoding="UTF-8"?>
<!-- Generator: Adobe Illustrator 25.2.1, SVG Export Plug-In . SVG Version: 6.00 Build 0)  -->
<svg version="1.1" xmlns="http://www.w3.org/2000/svg" xmlns:xlink="http://www.w3.org/1999/xlink" x="0px" y="0px" viewBox="0 0 192.55 80" style="enable-background:new 0 0 192.55 80;" xml:space="preserve">
<style type="text/css">
	.st0{fill:#5C666F;}
	.st1{fill:#EA6903;}
	.st2{fill:#E76A24;}
	.st3{fill:#5C6770;}
	.st4{display:none;}
	.st5{display:inline;}
	.st6{fill:#FFFFFF;}
	.st7{fill:#E56A24;}
	.st8{fill:#5D6771;}
	.st9{display:none;fill:#5C666F;}
	.st10{display:inline;fill:#5C666F;}
	.st11{fill:#5D6770;}
	.st12{fill:#69737B;}
	.st13{fill:#256A78;}
	.st14{fill:#D12430;}
	.st15{display:inline;fill:#2D1996;}
	.st16{fill:#2D1996;}
	.st17{fill:#E86B24;}
	.st18{fill:none;}
	.st19{opacity:0.7;}
	.st20{fill-rule:evenodd;clip-rule:evenodd;fill:#FFFFFF;}
	.st21{fill-rule:evenodd;clip-rule:evenodd;fill:#EA6903;}
	.st22{fill:#5B6770;}
	.st23{fill-rule:evenodd;clip-rule:evenodd;fill:#5B6770;}
	.st24{fill-rule:evenodd;clip-rule:evenodd;fill:#F7C39A;}
	.st25{clip-path:url(#SVGID_2_);fill-rule:evenodd;clip-rule:evenodd;fill:#FFFFFF;}
	.st26{display:none;fill:#E50E1F;}
	.st27{fill:#020202;}
	.st28{fill:#EE7204;}
	.st29{fill:#080808;}
	.st30{fill:#0A0A0A;}
	.st31{fill:#0B0B0B;}
	.st32{fill:#EF770C;}
	.st33{fill:#0F0F0F;}
	.st34{fill:#0C0C0C;}
	.st35{fill:#060606;}
	.st36{fill:#EF7B14;}
	.st37{fill:#B7B7B7;}
	.st38{fill:#C11D22;}
	.st39{fill:#3A79B7;}
	.st40{fill:#768492;}
	.st41{fill:#FFFFFF;stroke:#FFFFFF;stroke-width:0.25;stroke-miterlimit:10;}
	.st42{fill:#3B79B7;}
	.st43{fill:#363535;}
	.st44{fill:#BED970;}
	.st45{fill:#E1368E;}
	.st46{fill:#E9E751;}
	.st47{fill:#8E499B;}
	.st48{fill:#C1C0C0;}
	.st49{clip-path:url(#SVGID_4_);fill:url(#SVGID_5_);}
	.st50{fill:#334D5D;}
	.st51{fill:#2170B7;}
	.st52{fill:#718B99;}
	.st53{fill:#B62027;}
	.st54{fill:#26A3DD;}
	.st55{clip-path:url(#SVGID_7_);fill:url(#SVGID_8_);}
</style>
<g id="afghan_x5F_da">
</g>
<g id="afghan_x5F_eng">
</g>
<g id="afghan_x5F_pa">
</g>
<g id="armenian">
</g>
<g id="armenian_x5F_ru">
</g>
<g id="azeri">
</g>
<g id="azeri_x5F_ru">
</g>
<g id="balkan">
</g>
<g id="belarussian">
</g>
<g id="bulgarian">
</g>
<g id="crimea_x5F_ru">
</g>
<g id="crimea_x5F_ta">
</g>
<g id="crimea_x5F_ua">
</g>
<g id="donbass_x5F_ru_-_not_full">
</g>
<g id="donbass_x5F_ua_-_not_full">
</g>
<g id="English">
</g>
<g id="georgian">
</g>
<g id="georgian_x5F_ru">
</g>
<g id="kazakh">
</g>
<g id="kazakh_x5F_ru">
</g>
<g id="kosovo">
</g>
<g id="kyrgyz">
</g>
<g id="kyrgyz_x5F_ru">
</g>
<g id="macedonia">
</g>
<g id="moldova">
	<g id="Layer_60">
	</g>
	<g id="Layer_61">
	</g>
	<g id="Layer_62">
	</g>
</g>
<g id="north_x5F_caucasus_x5F_av_-_not_full">
</g>
<g id="north_x5F_caucasus_x5F_ch">
</g>
<g id="north_x5F_caucasus_x5F_ru">
</g>
<g id="pakistan">
</g>
<g id="perssian">
</g>
<g id="perssian_x5F_eng">
</g>
<g id="romanian">
	<g id="Layer_57">
	</g>
	<g id="Layer_59">
	</g>
	<g id="Layer_58">
	</g>
</g>
<g id="russia">
</g>
<g id="Siberia">
	<g>
		<path id="Siberia_1_" class="st0" d="M59,53.72c-2.23,0-4.04-0.66-5.39-1.96c-1.38-1.31-2.14-3.12-2.14-5.11    c0-1.93,0.78-3.78,2.15-5.07c1.32-1.25,3.14-1.94,5.13-1.94c1.03,0,2.16,0.24,3.34,0.74l0.15,0.04v3.98l-0.31-0.26    c-0.87-0.9-1.92-1.36-3.07-1.36c-1.07,0-1.97,0.33-2.66,0.99c-0.78,0.74-1.23,1.81-1.23,2.94c0,1.51,0.7,2.4,1.12,2.8    c0.33,0.32,1.26,1.07,2.81,1.07c1.09,0,2.12-0.43,3.04-1.32l0.3-0.24v3.93l-0.14,0.04C60.8,53.64,59.74,53.72,59,53.72z     M73.42,53.37H70.5v-4.78l-3.83,4.78h-2.98v-9.24h3.4v4.94l3.46-4.94h2.86V53.37z M80.54,53.72c-1.63,0-2.84-0.43-3.81-1.35    c-1.64-1.58-1.64-3.9-1.64-4.66c0-1.55,0.24-4.4,1.82-6.05c1.07-1.11,2.42-1.41,3.3-1.6l0.72-0.16c0.79-0.17,1.55-0.29,1.84-0.61    c0.15-0.17,0.38-0.34,0.38-0.46v-0.06h2.46l-0.02,0.12c-0.09,0.91-0.53,1.83-1.11,2.38c-0.46,0.45-1.19,0.8-2.24,1.09l-1.22,0.33    c-0.76,0.21-1.61,0.44-2.18,0.94c-0.41,0.37-0.71,0.89-0.83,1.45c0.76-0.71,1.75-1.05,2.99-1.05c1.45,0,2.72,0.46,3.59,1.29    c0.88,0.83,1.38,2.06,1.38,3.35c0,1.42-0.53,2.72-1.5,3.65C83.19,53.56,81.7,53.72,80.54,53.72z M79.01,47.33    c-0.4,0.39-0.64,0.98-0.64,1.56c0,0.56,0.23,1.11,0.62,1.5c0.23,0.22,0.73,0.59,1.57,0.59c0.53,0,1.01-0.18,1.42-0.54    c0.46-0.41,0.72-1,0.72-1.63c0-0.53-0.22-1.05-0.62-1.46c-0.41-0.4-0.93-0.61-1.55-0.61C79.77,46.74,79.28,47.06,79.01,47.33    L79.01,47.33z M97.25,53.37h-3.4v-4.78l-3.56,4.78h-2.76v-9.24h3.4v4.94l3.25-4.94h3.08V53.37z M102.12,57.75H99.2V44.13h2.92    v0.99c0.97-0.73,1.63-1.1,2.7-1.1c1.63,0,2.71,0.7,3.31,1.29c0.9,0.88,1.41,2.14,1.41,3.55c0,1.46-0.49,2.68-1.47,3.64    c-0.87,0.85-1.87,1.23-3.18,1.23c-1.16,0-1.78-0.35-2.75-1.05V57.75z M102.63,47.37c-0.4,0.39-0.64,0.97-0.64,1.52    c0,0.53,0.22,1.07,0.6,1.46c0.41,0.4,0.97,0.63,1.55,0.63c0.53,0,1.07-0.21,1.46-0.57c0.4-0.38,0.66-0.99,0.66-1.57    c0-0.57-0.23-1.12-0.64-1.5c-0.4-0.37-0.92-0.57-1.48-0.57C103.41,46.76,102.91,47.09,102.63,47.37L102.63,47.37z M122.1,53.74    c-1.11,0-1.98-0.85-1.98-1.95s0.87-1.95,1.98-1.95s1.98,0.85,1.98,1.95S123.21,53.74,122.1,53.74z M128.87,53.37h-3.4V39.75h4.91    c1.09,0,2.48,0.22,3.63,1.22c0.92,0.79,1.36,1.92,1.36,3.36c0,1.32-0.4,2.52-1.19,3.33c-1.07,1.07-2.45,1.33-3.54,1.33h-1.77    V53.37z M128.87,46.07h0.98c0.33,0,1.09-0.03,1.58-0.49c0.29-0.29,0.46-0.74,0.46-1.21c0-0.48-0.17-0.95-0.46-1.21    c-0.43-0.4-1.07-0.49-1.64-0.49h-0.92V46.07z M141.17,53.72c-1.17,0-2.52-0.16-3.7-1.31c-0.9-0.88-1.4-2.13-1.4-3.51    c0-1.38,0.52-2.68,1.42-3.58c0.89-0.87,2.08-1.31,3.56-1.31c1.58,0,2.89,0.45,3.78,1.37c0.88,0.91,1.41,2.12,1.41,3.68v0.41h-6.91    c0.03,0.49,0.19,0.94,0.5,1.27c0.32,0.34,0.77,0.51,1.39,0.51c0.44,0,0.84-0.08,1.1-0.23c0.01-0.01,0.34-0.19,0.57-0.67l0.04-0.09    l3.09,0c0,0-0.02,0.13-0.12,0.47c-0.37,1.19-1.2,1.93-1.8,2.29C143.31,53.51,142.38,53.72,141.17,53.72z M139.46,47.53h3.55    c-0.07,0-0.22-0.54-0.49-0.78c-0.32-0.3-0.76-0.46-1.27-0.46c-0.56,0-1.01,0.18-1.37,0.54C139.68,47.04,139.54,47.05,139.46,47.53    z M151.66,53.72c-1.48,0-2.54-0.43-3.46-1.39c-0.9-0.94-1.35-2.08-1.35-3.4c0-1.43,0.53-2.77,1.44-3.66    c0.82-0.81,1.95-1.25,3.21-1.25c0.8,0,2.17,0.19,2.66,1.03v-0.92h3.4v9.24h-3.4v-0.73C153.67,53.36,152.72,53.72,151.66,53.72z     M152.25,46.76c-0.56,0-1.12,0.22-1.49,0.59v0c-0.28,0.28-0.62,0.76-0.62,1.5c0,0.73,0.31,1.21,0.57,1.48    c0.39,0.4,1,0.65,1.61,0.65c0.53,0,1.04-0.21,1.41-0.57c0.3-0.28,0.66-0.78,0.66-1.56c0-0.6-0.23-1.15-0.62-1.52    C153.39,46.98,152.8,46.76,152.25,46.76z M159.85,53.54c-0.44,0-0.73-0.04-1.13-0.14l-0.07-0.03v-2.56l0.14,0.05    c0.31,0.08,1.04,0.14,1.36-0.22c0.22-0.28,0.44-0.71,0.44-1.31v-5.21h8.27v9.24h-3.4v-6.32h-1.95v2.41c0,1.4-0.38,2.41-1,3.1    C161.72,53.43,160.68,53.54,159.85,53.54z M180.67,53.37h-3.4v-4.78l-3.69,4.78h-2.63v-9.24h2.92v4.94l3.61-4.94h3.2V53.37z     M192.55,53.37h-3.4v-4.78l-3.73,4.78h-2.59v-9.24h2.92v4.94l3.56-4.94h3.25V53.37z M118.63,48.12c-0.34-0.33-1.12-0.88-2.58-0.88    h-1.95v-3.11h-3.19v9.26h5.04c0.87,0,1.86-0.1,2.62-0.82c0.58-0.55,0.86-1.31,0.86-2.31C119.43,49.36,119.16,48.64,118.63,48.12z     M116.07,50.9c-0.24,0.22-0.63,0.22-0.85,0.22h-1.12v-1.61h1.14c0.17,0,0.59,0.02,0.83,0.2c0.08,0.06,0.25,0.23,0.25,0.57    C116.33,50.52,116.23,50.76,116.07,50.9z"/>
		<path id="New_Symbol_16_" class="st1" d="M52.19,24.13c-6.89,0.8-8.83,7.93-14.01,14.09c-6.93,8.22-17.21,4-17.21,4    c6.93-0.86,8.92-8.04,14.23-14.17C42.25,19.91,52.19,24.13,52.19,24.13z M27.21,36.19c0,0,8.62-6.83,4.9-16.89    c-2.8-7.59-8.2-12.97-5.34-19.3c0,0-8.54,6.93-4.98,16.89C24.51,24.51,30.07,29.86,27.21,36.19z M26.71,34.74    c0,0,0.83-11.07-8.72-15.28c-7.45-3.28-15.28-2.97-17.96-9.38c0,0-1.06,11,9.07,15.26C16.6,28.5,24.03,28.33,26.71,34.74z     M15.36,53.33h19.37l4.52-9.09H15.36V53.33z M18.45,80h1.63l11.12-25.45H18.45V80z"/>
	</g>
</g>
<g id="tajik">
</g>
<g id="tajik_x5F_ru">
</g>
<g id="tatar_x5F_bashkir">
</g>
<g id="tatar_x5F_bashkir_x5F_ru">
</g>
<g id="turkmen">
</g>
<g id="turkmen_x5F_ru">
</g>
<g id="ukrainian">
</g>
<g id="uzbek">
</g>
<g id="uzbek_x5F_ru">
</g>
<g id="Sizdan_Telegram_just_video">
</g>
<g id="Severreal">
</g>
<g id="hungarian">
</g>
<g id="theHUB">
</g>
<g id="Faktograf">
</g>
<g id="logos_-_RU">
</g>
<g id="Mobile">
	<g id="Change_5_">
	</g>
</g>
<g id="Desktop">
</g>
<g id="showcase">
</g>
<g id="logos_-_EN">
</g>
<g id="labels">
</g>
<g id="MArti">
</g>
<g id="Screen">
</g>
<g id="Isolation_Mode">
</g>
<g id="dandalin_voa_logo">
</g>
<g id="Layer_2">
</g>
<g id="logo_x5F_big">
</g>
<g id="marti_x5F_2019">
</g>
</svg>