<?xml version="1.0" encoding="UTF-8"?><svg id="Layer_1" xmlns="http://www.w3.org/2000/svg" viewBox="0 0 176 130"><defs><style>.cls-1{fill:#ea6903;}.cls-2{fill:#5c666f;}</style></defs><g id="color"><g><path class="cls-2" d="M96.07,81.72h-4.34l-1.27-3.15h-6.26l-1.3,3.15h-4.35l.07-.17,6.89-16.74h3.76l6.8,16.91Zm-10.64-6.34h3.85l-1.91-5.12-1.94,5.12Zm23.63,6.34h-11.96l5.91-8.14h-5.52v-3.24h12.2l-5.89,8.14h5.26v3.24Zm7.3,.37c-1.85,0-3.19-.54-4.35-1.74-1.12-1.17-1.69-2.6-1.69-4.26,0-1.79,.65-3.47,1.8-4.58,1.03-1.01,2.46-1.56,4.04-1.56,1.03,0,2.42,.25,3.45,1.4v-1.03h3.92v11.39h-3.92v-1.09c-.78,.97-1.86,1.47-3.24,1.47Zm.71-8.79c-.72,0-1.44,.29-1.93,.76-.37,.36-.8,.99-.8,1.94s.4,1.56,.73,1.91c.51,.52,1.29,.84,2.08,.84,.68,0,1.35-.27,1.83-.74,.39-.36,.86-1,.86-2.01,0-.77-.29-1.48-.8-1.96-.58-.55-1.39-.74-1.96-.74Zm13.4,8.42h-3.92v-8.24h-1.28v-3.14h1.28v-3.6h3.92v3.6h2.27v3.14h-2.27v8.24Zm7.95,0h-3.92v-18.46h3.92v18.46Zm6.53,0h-3.92v-11.39h3.92v11.39Zm14.81,5.72h-3.92v-6.79c-.89,.96-2.07,1.44-3.5,1.44-1.66,0-2.84-.46-3.94-1.53-1.23-1.2-1.85-2.73-1.85-4.56,0-2.18,.95-3.61,1.74-4.43,1.06-1.07,2.43-1.61,4.07-1.61,.92,0,2.27,.16,3.47,1.49v-1.11h3.92v17.11Zm-6.45-14.14c-.72,0-1.39,.26-1.9,.74-.53,.49-.83,1.19-.83,1.93s.33,1.55,.85,2.03c.5,.46,1.2,.74,1.88,.74,.75,0,1.48-.3,2-.81,.49-.51,.78-1.2,.78-1.89s-.32-1.46-.83-1.96c-.37-.36-1-.79-1.95-.79Zm-59.27,35.45h-5.11l-.04-.05-4.37-6.25v6.3h-4.17v-16.91h6.09c2.32,0,3.68,.81,4.42,1.48,.57,.54,1.52,1.74,1.52,3.81,0,1.47-.45,2.61-1.36,3.49-.62,.58-1.43,1.03-2.25,1.26l5.26,6.87Zm-9.51-9.34h.77c.72,0,1.63-.08,2.26-.69,.22-.22,.6-.71,.6-1.54,0-.69-.25-1.23-.74-1.6-.44-.33-1.16-.5-2.09-.5h-.79v4.33Zm15.4,9.71c-1.85,0-3.19-.54-4.35-1.74-1.12-1.17-1.69-2.6-1.69-4.26,0-1.79,.65-3.47,1.8-4.58,1.03-1.01,2.46-1.56,4.04-1.56,1.03,0,2.42,.25,3.45,1.4v-1.03h3.92v11.39h-3.92v-1.09c-.78,.97-1.86,1.47-3.24,1.47Zm.71-8.79c-.72,0-1.44,.29-1.93,.76-.37,.36-.8,.99-.8,1.94s.4,1.56,.73,1.91c.51,.52,1.29,.84,2.08,.84,.68,0,1.35-.27,1.83-.74,.39-.36,.85-1,.85-2.01,0-.77-.29-1.48-.8-1.96-.58-.55-1.39-.74-1.96-.74Zm13.94,8.79c-1.66,0-2.93-.5-3.99-1.56-1.17-1.15-1.82-2.77-1.82-4.56s.65-3.39,1.82-4.49c1.06-.99,2.5-1.53,4.04-1.53,1.41,0,2.61,.5,3.42,1.4v-8.1h3.92v18.46h-3.92v-1.11c-.82,.99-1.99,1.48-3.47,1.48Zm.94-8.79c-.77,0-1.35,.22-1.88,.72-.39,.36-.85,1.01-.85,2.03,0,.74,.31,1.45,.85,1.96,.5,.47,1.17,.74,1.83,.74,.72,0,1.49-.3,2.01-.79,.3-.28,.8-.89,.8-1.91,0-.76-.26-1.42-.78-1.96-.52-.54-1.15-.79-1.98-.79Zm13.17,8.42h-3.92v-11.39h3.92v11.39Zm-1.96-13.79c-1.27,0-2.26-.98-2.26-2.22s.99-2.22,2.26-2.22,2.26,.98,2.26,2.22-.99,2.22-2.26,2.22Zm10.63,14.16c-2.02,0-3.87-.67-5.06-1.83-1.09-1.07-1.75-2.65-1.75-4.23s.65-3.16,1.75-4.23c1.19-1.17,3.03-1.83,5.06-1.83s3.87,.67,5.06,1.83c1.09,1.07,1.75,2.65,1.75,4.23s-.65,3.16-1.75,4.23c-1.19,1.17-3.03,1.83-5.06,1.83Zm0-8.84c-.8,0-1.46,.26-1.98,.76-.54,.53-.8,1.19-.8,2.01s.26,1.48,.8,2.01c.52,.51,1.19,.76,2,.76s1.44-.26,1.95-.76c.54-.53,.8-1.19,.8-2.01s-.26-1.48-.8-2.01c-.52-.51-1.18-.76-1.98-.76Zm12.21,8.84c-1.92,0-3.47-.53-4.75-1.63l-.08-.07,1.69-2.63,.11,.09c.32,.27,.83,.63,1.22,.81,.45,.22,.96,.34,1.48,.34,.21,0,.78,0,1.07-.22,.21-.16,.33-.4,.33-.63s-.11-.4-.35-.54c-.25-.15-.58-.24-1.09-.39l-.92-.28c-.75-.23-1.42-.6-1.89-1.05-.58-.6-.85-1.27-.85-2.11,0-1.05,.4-2,1.14-2.66,.85-.77,2.03-1.16,3.52-1.16s2.68,.31,3.83,.97l.11,.06-1.59,2.48-.1-.06c-.39-.23-1.17-.61-1.95-.61-.4,0-.78,.11-.96,.29-.11,.11-.19,.28-.19,.41,0,.16,.09,.28,.29,.39,.16,.1,.39,.16,.65,.24,.13,.04,.27,.08,.42,.13l.97,.3c.61,.19,1.31,.44,1.93,1,.64,.58,.93,1.27,.93,2.22,0,1.59-.76,2.57-1.21,3.01-1.18,1.16-2.64,1.31-3.78,1.31Zm10.7-.37h-3.92v-11.39h3.92v11.39Z"/><path id="New_Symbol" class="cls-1" d="M80.24,45.16c-8.62,1-11.03,9.91-17.52,17.61-8.67,10.28-21.51,5-21.51,5,8.67-1.08,11.15-10.05,17.79-17.72,8.8-10.16,21.24-4.89,21.24-4.89Zm-31.23,15.08s10.78-8.54,6.13-21.12c-3.5-9.49-10.26-16.21-6.68-24.13,0,0-10.67,8.66-6.23,21.12,3.4,9.53,10.36,16.21,6.78,24.13Zm-.62-1.81s1.04-13.84-10.9-19.09c-9.31-4.1-19.1-3.72-22.45-11.73,0,0-1.33,13.75,11.34,19.08,9.38,3.94,18.66,3.74,22.01,11.75Zm-14.19,23.23h24.22l5.65-11.37h-29.87v11.37Zm3.86,33.34h2.04l13.89-31.81h-15.94v31.81Z"/></g></g></svg>