<?xml version="1.0" encoding="UTF-8"?><svg id="Layer_1" xmlns="http://www.w3.org/2000/svg" viewBox="0 0 225.75 130"><defs><style>.cls-1{fill:#ea6903;}.cls-2{fill:#5c666f;}</style></defs><path class="cls-2" d="M84.68,81.68h-4.09v-16.73h4.09v16.73Z"/><rect class="cls-2" x="115.47" y="64.93" width="3.84" height="16.75"/><path class="cls-2" d="M123.79,82.08c-1.35,0-2.4-1.03-2.4-2.35s1.05-2.35,2.4-2.35,2.4,1.03,2.4,2.35-1.05,2.35-2.4,2.35Z"/><path class="cls-2" d="M132.56,81.68h-4.09v-16.73h6.04c1.35,0,3.08,.16,4.49,1.39,1.13,.97,1.68,2.31,1.68,4.09,0,1.63-.49,2.97-1.47,3.96-1.32,1.32-3.03,1.49-4.37,1.49h-2.28v5.8Zm0-9.12h1.29c.42,0,1.4,0,2.03-.59,.38-.37,.6-.94,.6-1.56s-.22-1.19-.6-1.54c-.56-.52-1.38-.59-2.11-.59h-1.22v4.29Z"/><path class="cls-2" d="M147.31,82.05c-1.45,0-3.12-.19-4.57-1.61-1.11-1.09-1.72-2.63-1.72-4.33s.64-3.32,1.75-4.43c1.09-1.07,2.57-1.62,4.39-1.62,1.96,0,3.45,.55,4.55,1.69,1.09,1.13,1.62,2.62,1.62,4.55v.47h-8.42c.02,.54,.23,1.25,.65,1.72,.42,.45,1,.66,1.8,.66,.57,0,1.08-.11,1.42-.31,.01,0,.44-.25,.74-.88l.03-.06,3.63,.37-.04,.12c-.5,1.53-1.48,2.38-2.22,2.83-.97,.58-2.09,.83-3.62,.83Zm-2.25-7.61h4.67c-.09-.28-.28-.75-.67-1.12-.42-.39-.99-.59-1.65-.59-.72,0-1.3,.23-1.78,.69-.28,.3-.48,.65-.58,1.02Z"/><path class="cls-2" d="M160.76,82.05c-1.83,0-3.15-.53-4.29-1.72-1.11-1.16-1.67-2.57-1.67-4.21,0-1.77,.65-3.43,1.77-4.53,1.01-.99,2.43-1.54,3.99-1.54,1.03,0,2.43,.25,3.44,1.43v-1.06h3.84v11.25h-3.84v-1.13c-.77,1-1.85,1.5-3.24,1.5Zm-1.22-7.96c-.37,.36-.8,.99-.8,1.94s.4,1.56,.73,1.91c.51,.52,1.29,.84,2.08,.84,.68,0,1.35-.27,1.83-.74,.39-.36,.86-1.01,.86-2.01,0-.77-.29-1.48-.8-1.96-.58-.55-1.39-.74-1.96-.74-.72,0-1.44,.29-1.93,.76h0Z"/><path class="cls-2" d="M170.67,81.83c-.54,0-.95-.05-1.44-.18l-.07-.02v-3.03l.13,.03c.41,.11,1.22,.17,1.65-.29,.29-.36,.43-.93,.43-1.69v-6.22h10.24v11.25h-3.84v-8.18h-2.76v3.3c0,1.73-.37,2.98-1.14,3.83-.97,1.06-2.16,1.2-3.18,1.2Z"/><path class="cls-2" d="M196.13,81.68h-3.84v-6.22l-4.66,6.22h-3.54v-11.25h3.84v6.12l4.66-6.12h3.54v11.25Z"/><path class="cls-2" d="M210.78,81.68h-3.84v-6.22l-4.66,6.22h-3.54v-11.25h3.84v6.12l4.66-6.12h3.54v11.25Z"/><g id="New_Symbol"><g id="Torch"><g><path class="cls-1" d="M58.98,50.05c-6.64,7.66-9.13,16.64-17.79,17.72,0,0,12.84,5.28,21.51-5,6.49-7.69,8.9-16.61,17.52-17.61,0,0-12.43-5.27-21.24,4.89Z"/><path class="cls-1" d="M48.99,60.24s10.78-8.54,6.13-21.12c-3.5-9.49-10.26-16.21-6.68-24.13,0,0-10.67,8.66-6.23,21.12,3.4,9.53,10.36,16.21,6.78,24.13Z"/><path class="cls-1" d="M48.36,58.43s1.04-13.84-10.9-19.09c-9.31-4.1-19.1-3.72-22.45-11.73,0,0-1.33,13.75,11.34,19.08,9.38,3.94,18.66,3.74,22.01,11.75Z"/><polygon class="cls-1" points="34.17 81.66 58.39 81.66 64.04 70.3 34.17 70.3 34.17 81.66"/><polygon class="cls-1" points="38.03 115 40.07 115 53.97 83.19 38.03 83.19 38.03 115"/></g></g></g><path class="cls-2" d="M107.52,82.05c-1.45,0-3.12-.19-4.57-1.61-1.11-1.09-1.72-2.63-1.72-4.33s.64-3.32,1.75-4.43c1.09-1.07,2.57-1.62,4.39-1.62,1.96,0,3.45,.55,4.55,1.69,1.09,1.13,1.62,2.62,1.62,4.55v.47h-8.42c.02,.54,.23,1.25,.65,1.72,.42,.45,1,.66,1.8,.66,.57,0,1.08-.11,1.42-.31,.01,0,.44-.25,.74-.88l.03-.06,3.63,.37-.04,.12c-.5,1.53-1.48,2.38-2.22,2.83-.97,.58-2.09,.83-3.62,.83Zm-2.25-7.61h4.67c-.09-.28-.28-.75-.67-1.12-.42-.39-.99-.59-1.65-.59-.72,0-1.3,.23-1.78,.69-.28,.3-.48,.65-.58,1.02Z"/><path class="cls-2" d="M95.61,64.93v6.35c-.81-.83-1.96-1.29-3.31-1.29-1.53,0-2.95,.54-4.01,1.52-1.17,1.09-1.81,2.67-1.81,4.46s.64,3.38,1.81,4.52c1.06,1.06,2.32,1.55,3.96,1.55,1.42,0,2.54-.45,3.36-1.35v.99h3.97v-16.75h-3.97Zm-.55,12.95c-.5,.47-1.24,.76-1.93,.76-.63,0-1.27-.26-1.76-.71-.52-.49-.82-1.17-.82-1.88,0-.49,.11-.89,.27-1.22,.16-.32,.36-.57,.55-.74,.51-.48,1.06-.69,1.81-.69,.79,0,1.4,.24,1.9,.76,.5,.53,.75,1.14,.75,1.89,0,.98-.48,1.57-.77,1.84Z"/></svg>
