<?xml version="1.0" encoding="UTF-8"?>
<!-- Generator: Adobe Illustrator 25.2.1, SVG Export Plug-In . SVG Version: 6.00 Build 0)  -->
<svg version="1.1" xmlns="http://www.w3.org/2000/svg" xmlns:xlink="http://www.w3.org/1999/xlink" x="0px" y="0px" viewBox="0 0 129.45 80" style="enable-background:new 0 0 129.45 80;" xml:space="preserve">
<style type="text/css">
	.st0{fill:#5C666F;}
	.st1{fill:#EA6903;}
	.st2{fill:#E76A24;}
	.st3{fill:#5C6770;}
	.st4{display:none;}
	.st5{display:inline;}
	.st6{fill:#FFFFFF;}
	.st7{fill:#E56A24;}
	.st8{fill:#5D6771;}
	.st9{display:none;fill:#5C666F;}
	.st10{display:inline;fill:#5C666F;}
	.st11{fill:#5D6770;}
	.st12{fill:#69737B;}
	.st13{fill:#256A78;}
	.st14{fill:#D12430;}
	.st15{display:inline;fill:#2D1996;}
	.st16{fill:#2D1996;}
	.st17{fill:#E86B24;}
	.st18{fill:none;}
	.st19{opacity:0.7;}
	.st20{fill-rule:evenodd;clip-rule:evenodd;fill:#FFFFFF;}
	.st21{fill-rule:evenodd;clip-rule:evenodd;fill:#EA6903;}
	.st22{fill:#5B6770;}
	.st23{fill-rule:evenodd;clip-rule:evenodd;fill:#5B6770;}
	.st24{fill-rule:evenodd;clip-rule:evenodd;fill:#F7C39A;}
	.st25{clip-path:url(#SVGID_2_);fill-rule:evenodd;clip-rule:evenodd;fill:#FFFFFF;}
	.st26{display:none;fill:#E50E1F;}
	.st27{fill:#020202;}
	.st28{fill:#EE7204;}
	.st29{fill:#080808;}
	.st30{fill:#0A0A0A;}
	.st31{fill:#0B0B0B;}
	.st32{fill:#EF770C;}
	.st33{fill:#0F0F0F;}
	.st34{fill:#0C0C0C;}
	.st35{fill:#060606;}
	.st36{fill:#EF7B14;}
	.st37{fill:#B7B7B7;}
	.st38{fill:#C11D22;}
	.st39{fill:#3A79B7;}
	.st40{fill:#768492;}
	.st41{fill:#FFFFFF;stroke:#FFFFFF;stroke-width:0.25;stroke-miterlimit:10;}
	.st42{fill:#3B79B7;}
	.st43{fill:#363535;}
	.st44{fill:#BED970;}
	.st45{fill:#E1368E;}
	.st46{fill:#E9E751;}
	.st47{fill:#8E499B;}
	.st48{fill:#C1C0C0;}
	.st49{clip-path:url(#SVGID_4_);fill:url(#SVGID_5_);}
	.st50{fill:#334D5D;}
	.st51{fill:#2170B7;}
	.st52{fill:#718B99;}
	.st53{fill:#B62027;}
	.st54{fill:#26A3DD;}
	.st55{clip-path:url(#SVGID_7_);fill:url(#SVGID_8_);}
</style>
<g id="afghan_x5F_da">
</g>
<g id="afghan_x5F_eng">
</g>
<g id="afghan_x5F_pa">
</g>
<g id="armenian">
</g>
<g id="armenian_x5F_ru">
</g>
<g id="azeri">
</g>
<g id="azeri_x5F_ru">
</g>
<g id="balkan">
</g>
<g id="belarussian">
</g>
<g id="bulgarian">
</g>
<g id="crimea_x5F_ru">
</g>
<g id="crimea_x5F_ta">
</g>
<g id="crimea_x5F_ua">
</g>
<g id="donbass_x5F_ru_-_not_full">
</g>
<g id="donbass_x5F_ua_-_not_full">
</g>
<g id="English">
</g>
<g id="georgian">
</g>
<g id="georgian_x5F_ru">
</g>
<g id="kazakh">
</g>
<g id="kazakh_x5F_ru">
</g>
<g id="kosovo">
</g>
<g id="kyrgyz">
</g>
<g id="kyrgyz_x5F_ru">
</g>
<g id="macedonia">
</g>
<g id="moldova">
	<g id="Layer_60">
	</g>
	<g id="Layer_61">
	</g>
	<g id="Layer_62">
	</g>
</g>
<g id="north_x5F_caucasus_x5F_av_-_not_full">
</g>
<g id="north_x5F_caucasus_x5F_ch">
</g>
<g id="north_x5F_caucasus_x5F_ru">
</g>
<g id="pakistan">
</g>
<g id="perssian">
</g>
<g id="perssian_x5F_eng">
</g>
<g id="romanian">
	<g id="Layer_57">
	</g>
	<g id="Layer_59">
	</g>
	<g id="Layer_58">
	</g>
</g>
<g id="russia">
	<g>
		<path id="russia_1_" class="st0" d="M56.39,53.32H53.1V39.98h4.82c1.07,0,2.45,0.13,3.58,1.11c0.9,0.78,1.34,1.84,1.34,3.26    c0,1.3-0.39,2.37-1.17,3.16c-1.06,1.06-2.42,1.19-3.49,1.19h-1.79V53.32z M56.39,46.03h1.01c0.33,0,1.11,0,1.6-0.47    c0.3-0.29,0.47-0.74,0.47-1.23c0-0.49-0.17-0.94-0.47-1.21c-0.44-0.41-1.09-0.47-1.66-0.47h-0.95V46.03z M67.83,53.61    c-1.46,0-2.52-0.42-3.43-1.37c-0.89-0.92-1.33-2.05-1.33-3.36c0-1.42,0.52-2.73,1.42-3.61c0.81-0.79,1.94-1.23,3.18-1.23    c0.81,0,1.91,0.2,2.72,1.11v-0.81h3.09v8.98h-3.09v-0.86C69.77,53.22,68.91,53.61,67.83,53.61z M68.39,46.68    c-0.57,0-1.14,0.23-1.52,0.6c-0.29,0.28-0.63,0.78-0.63,1.53c0,0.74,0.31,1.23,0.58,1.51c0.4,0.41,1.01,0.66,1.64,0.66    c0.54,0,1.06-0.21,1.44-0.58c0.31-0.29,0.67-0.79,0.67-1.59c0-0.61-0.23-1.17-0.63-1.54C69.47,46.83,68.83,46.68,68.39,46.68z     M86.22,55.8h-2.77v-2.48h-5.94v2.48h-2.77v-4.83l0.09-0.01c0.44-0.05,0.84-0.22,1.17-0.53c0.7-0.63,0.75-1.54,0.75-2.59v-3.5    h8.13v6.62h1.33V55.8z M78.74,50.95h3.06V46.7h-2.2v1.58c0,0.89-0.12,1.36-0.21,1.64C79.31,50.18,79.13,50.56,78.74,50.95z     M97.17,53.32h-3.09v-4.91l-3.67,4.91h-2.84v-8.98h3.09v4.83l3.67-4.83h2.84V53.32z M103.8,53.61c-1.6,0-3.05-0.53-3.99-1.45    c-0.86-0.84-1.38-2.09-1.38-3.34c0-1.25,0.51-2.49,1.38-3.34c0.94-0.92,2.39-1.45,3.99-1.45c1.6,0,3.05,0.53,3.99,1.45    c0.86,0.84,1.38,2.09,1.38,3.34c0,1.25-0.51,2.49-1.38,3.34C106.85,53.08,105.4,53.61,103.8,53.61z M103.8,46.64    c-0.63,0-1.15,0.2-1.56,0.6c-0.43,0.42-0.63,0.94-0.63,1.59s0.21,1.17,0.63,1.59c0.41,0.4,0.94,0.6,1.58,0.6    c0.61,0,1.13-0.2,1.54-0.6c0.43-0.42,0.63-0.94,0.63-1.59s-0.21-1.17-0.63-1.59C104.96,46.84,104.43,46.64,103.8,46.64z     M58.92,73.47c-2.2,0-4-0.65-5.33-1.94c-1.37-1.29-2.12-3.09-2.12-5.05c0-1.91,0.77-3.74,2.12-5.01c1.31-1.24,3.11-1.92,5.07-1.92    c1.02,0,2.08,0.24,3.25,0.74l0.06,0.03v3.81l-0.17-0.17c-0.88-0.91-1.91-1.37-3.07-1.37c-1.07,0-1.97,0.34-2.67,1    c-0.79,0.75-1.24,1.83-1.24,2.96c0,1.52,0.71,2.42,1.14,2.82c0.33,0.32,1.27,1.08,2.83,1.08c1.09,0,2.08-0.44,3.01-1.33l0.16-0.16    v3.77l-0.05,0.03C60.64,73.39,59.65,73.47,58.92,73.47z M68.93,73.17h-5.56v-8.98h4.9c0.55,0,1.58,0,2.29,0.59    c0.5,0.43,0.76,1.03,0.76,1.79c0,0.64-0.18,1.1-0.57,1.49c-0.14,0.15-0.31,0.28-0.51,0.38c0.41,0.12,0.79,0.33,1.07,0.58    c0.41,0.4,0.61,0.93,0.61,1.57c0,0.71-0.24,1.32-0.69,1.76C70.85,72.73,70.15,73.17,68.93,73.17z M66.46,71.09h1.21    c0.24,0,0.57,0,0.8-0.21c0.16-0.14,0.25-0.36,0.25-0.62c0-0.27-0.13-0.44-0.25-0.54c-0.25-0.21-0.67-0.21-0.92-0.21h-1.09V71.09z     M66.46,67.7h1.09c0.16,0,0.46-0.02,0.67-0.16c0.18-0.13,0.26-0.3,0.26-0.57c0-0.32-0.16-0.48-0.23-0.54    c-0.14-0.11-0.47-0.15-0.74-0.15h-1.05V67.7z M78.14,73.47c-1.6,0-3.05-0.53-3.99-1.45c-0.86-0.84-1.38-2.09-1.38-3.34    c0-1.25,0.51-2.49,1.38-3.34c0.94-0.92,2.39-1.45,3.99-1.45c1.6,0,3.05,0.53,3.99,1.45c0.86,0.84,1.38,2.09,1.38,3.34    c0,1.25-0.51,2.49-1.38,3.34C81.19,72.94,79.73,73.47,78.14,73.47z M78.14,66.5c-0.63,0-1.15,0.2-1.56,0.6    c-0.43,0.42-0.63,0.94-0.63,1.59s0.21,1.17,0.63,1.59c0.41,0.4,0.94,0.6,1.58,0.6c0.61,0,1.13-0.2,1.54-0.6    c0.43-0.42,0.63-0.94,0.63-1.59s-0.21-1.17-0.63-1.59C79.29,66.7,78.77,66.5,78.14,66.5z M89.92,73.47    c-1.61,0-2.81-0.42-3.77-1.33c-1.62-1.56-1.62-3.85-1.62-4.6c0-1.54,0.23-4.36,1.8-5.99c1.06-1.1,2.39-1.39,3.27-1.58l0.71-0.16    c0.79-0.17,1.37-0.3,1.67-0.62c0.16-0.18,0.2-0.36,0.2-0.49v-0.1h2.74l-0.01,0.11c-0.09,0.89-0.52,1.82-1.09,2.37    c-0.45,0.44-1.18,0.8-2.21,1.09l-1.21,0.33c-0.76,0.21-1.62,0.44-2.19,0.95c-0.46,0.41-0.77,0.99-0.87,1.62    c0.77-0.77,1.77-1.14,3.06-1.14c1.43,0,2.69,0.45,3.54,1.27c0.86,0.82,1.36,2.03,1.36,3.3c0,1.41-0.52,2.68-1.48,3.6    C92.53,73.31,91.06,73.47,89.92,73.47z M89.9,66.52c-0.8,0-1.31,0.38-1.54,0.6c-0.41,0.4-0.65,0.99-0.65,1.59    c0,0.57,0.23,1.13,0.63,1.53c0.23,0.23,0.74,0.6,1.6,0.6c0.54,0,1.03-0.18,1.44-0.55c0.46-0.41,0.73-1.03,0.73-1.66    c0-0.54-0.23-1.07-0.64-1.49C91.06,66.72,90.52,66.52,89.9,66.52z M101.67,73.47c-1.6,0-3.05-0.53-3.99-1.45    c-0.86-0.84-1.38-2.09-1.38-3.34c0-1.25,0.51-2.49,1.38-3.34c0.94-0.92,2.39-1.45,3.99-1.45c1.6,0,3.05,0.53,3.99,1.45    c0.86,0.84,1.38,2.09,1.38,3.34c0,1.25-0.51,2.49-1.38,3.34C104.72,72.94,103.27,73.47,101.67,73.47z M101.67,66.5    c-0.63,0-1.15,0.2-1.56,0.6c-0.43,0.42-0.63,0.94-0.63,1.59s0.21,1.17,0.63,1.59c0.41,0.4,0.94,0.6,1.58,0.6    c0.61,0,1.13-0.2,1.54-0.6c0.43-0.42,0.63-0.94,0.63-1.59s-0.21-1.17-0.63-1.59C102.83,66.7,102.3,66.5,101.67,66.5z     M118.74,75.65h-2.77v-2.48h-5.94v2.48h-2.77v-4.83l0.09-0.01c0.44-0.05,0.84-0.22,1.17-0.53c0.7-0.63,0.75-1.54,0.75-2.59v-3.5    h8.13v6.62h1.33V75.65z M111.26,70.81h3.06v-4.26h-2.2v1.58c0,0.89-0.12,1.36-0.21,1.64C111.83,70.04,111.65,70.42,111.26,70.81z     M123.8,73.47c-1.46,0-2.52-0.42-3.43-1.37c-0.88-0.92-1.33-2.05-1.33-3.36c0-1.42,0.52-2.73,1.42-3.61    c0.81-0.79,1.94-1.23,3.18-1.23c0.81,0,1.91,0.2,2.72,1.11v-0.81h3.09v8.98h-3.09v-0.86C125.75,73.08,124.89,73.47,123.8,73.47z     M124.37,66.54c-0.57,0-1.14,0.23-1.52,0.6c-0.29,0.28-0.63,0.78-0.63,1.53c0,0.74,0.31,1.23,0.58,1.51    c0.4,0.41,1.01,0.66,1.64,0.66c0.54,0,1.06-0.21,1.44-0.58c0.31-0.29,0.67-0.79,0.67-1.59c0-0.61-0.23-1.17-0.63-1.54    C125.45,66.69,124.81,66.54,124.37,66.54z"/>
		<path id="New_Symbol_127_" class="st1" d="M52.19,24.13c-6.89,0.8-8.83,7.93-14.01,14.09c-6.93,8.22-17.21,4-17.21,4    c6.93-0.86,8.92-8.04,14.23-14.17C42.25,19.91,52.19,24.13,52.19,24.13z M27.21,36.19c0,0,8.62-6.83,4.9-16.89    c-2.8-7.59-8.2-12.97-5.34-19.3c0,0-8.54,6.93-4.98,16.89C24.51,24.51,30.07,29.86,27.21,36.19z M26.71,34.74    c0,0,0.83-11.07-8.72-15.28c-7.45-3.28-15.28-2.97-17.96-9.38c0,0-1.06,11,9.07,15.26C16.6,28.5,24.03,28.33,26.71,34.74z     M15.36,53.33h19.37l4.52-9.09H15.36V53.33z M18.45,80h1.63l11.12-25.45H18.45V80z"/>
	</g>
</g>
<g id="Siberia">
</g>
<g id="tajik">
</g>
<g id="tajik_x5F_ru">
</g>
<g id="tatar_x5F_bashkir">
</g>
<g id="tatar_x5F_bashkir_x5F_ru">
</g>
<g id="turkmen">
</g>
<g id="turkmen_x5F_ru">
</g>
<g id="ukrainian">
</g>
<g id="uzbek">
</g>
<g id="uzbek_x5F_ru">
</g>
<g id="Sizdan_Telegram_just_video">
</g>
<g id="Severreal">
</g>
<g id="hungarian">
</g>
<g id="theHUB">
</g>
<g id="Faktograf">
</g>
<g id="logos_-_RU">
</g>
<g id="Mobile">
	<g id="Change_5_">
	</g>
</g>
<g id="Desktop">
</g>
<g id="showcase">
</g>
<g id="logos_-_EN">
</g>
<g id="labels">
</g>
<g id="MArti">
</g>
<g id="Screen">
</g>
<g id="Isolation_Mode">
</g>
<g id="dandalin_voa_logo">
</g>
<g id="Layer_2">
</g>
<g id="logo_x5F_big">
</g>
<g id="marti_x5F_2019">
</g>
</svg>