<?xml version="1.0" encoding="UTF-8"?>
<!-- Generator: Adobe Illustrator 24.2.1, SVG Export Plug-In . SVG Version: 6.00 Build 0)  -->
<svg version="1.1" id="Layer_1" xmlns="http://www.w3.org/2000/svg" xmlns:xlink="http://www.w3.org/1999/xlink" x="0px" y="0px" viewBox="0 0 122.47 56" style="enable-background:new 0 0 122.47 56;" xml:space="preserve">
<style type="text/css">
	.st0{fill:#5C666F;}
	.st1{fill:#EA6903;}
</style>
<g id="kyrgyz">
	<g id="Kyrgyz_RGB">
		<path class="st0" d="M50,30.86h-3.41l-1-2.44h-4.83l-1,2.44h-3.37l0.06-0.13l5.33-13h2.91L50,30.86z M41.72,26h3l-1.49-4L41.72,26    z M54.57,31.2c-0.83,0.02-1.66-0.12-2.44-0.4c-0.58-0.22-1.12-0.53-1.61-0.92h-0.06l1.31-2l0.08,0.07    c0.32,0.27,0.68,0.5,1.06,0.68c0.42,0.17,0.87,0.25,1.33,0.26c0.34,0.01,0.69-0.06,1-0.2c0.21-0.11,0.35-0.33,0.34-0.57    c0.01-0.23-0.14-0.43-0.36-0.5c-0.32-0.1-0.66-0.15-1-0.14h-1.16v-2.19H54c0.34,0,0.68-0.05,1-0.15c0.21-0.07,0.35-0.27,0.35-0.49    c-0.01-0.22-0.16-0.41-0.37-0.47c-0.27-0.11-0.56-0.16-0.85-0.15c-0.39,0-0.77,0.07-1.13,0.23c-0.33,0.13-0.64,0.31-0.92,0.54    l-0.09,0.07l-1.19-2l0.08-0.05c0.47-0.28,0.97-0.52,1.48-0.72c0.68-0.22,1.39-0.33,2.1-0.32c1.08-0.05,2.14,0.27,3,0.92    c0.46,0.42,0.7,1.03,0.68,1.65c0.03,0.57-0.17,1.13-0.56,1.54c-0.16,0.16-0.34,0.29-0.54,0.4c0.37,0.11,0.71,0.31,1,0.57    c0.42,0.38,0.65,0.93,0.62,1.5c0,0.7-0.29,1.38-0.8,1.86c-0.93,0.74-2.11,1.08-3.29,0.93V31.2z M64.36,31.2    c-1.27,0.05-2.5-0.46-3.36-1.4c-0.85-0.88-1.32-2.06-1.3-3.29c-0.02-1.31,0.47-2.57,1.38-3.51c0.84-0.8,1.96-1.23,3.12-1.21    c1.01-0.04,1.98,0.36,2.67,1.09V22h3v8.82h-3V30c-0.6,0.77-1.54,1.2-2.51,1.15V31.2z M64.91,24.39c-0.55,0-1.09,0.21-1.49,0.59    c-0.81,0.82-0.84,2.14-0.06,3c0.43,0.42,1.01,0.65,1.61,0.65c1.16-0.02,2.09-0.97,2.08-2.13c0.01-0.57-0.22-1.12-0.62-1.52    c-0.41-0.39-0.95-0.62-1.52-0.64V24.39z M76.24,30.91h-3v-6.43h-2.41V22h7.77v2.44h-2.36L76.24,30.91z M84.78,30.91h-3v-6.43h-2.4    V22h7.77v2.44h-2.37L84.78,30.91z M99.84,30.91h-3V22h3V30.91z M92.78,30.91H88V22h3v3h1.85c0.9-0.05,1.78,0.25,2.46,0.84    c0.51,0.54,0.79,1.26,0.76,2c0.05,0.82-0.25,1.62-0.82,2.2c-0.69,0.58-1.57,0.88-2.47,0.82L92.78,30.91z M91,28.69h1.06    c0.28,0.03,0.57-0.04,0.81-0.2c0.16-0.16,0.24-0.37,0.24-0.59c0.01-0.21-0.08-0.41-0.24-0.54c-0.24-0.14-0.51-0.21-0.79-0.2H91    V28.69z M111.15,30.86h-3.93l0,0l-2.83-3.61v3.65h-3V22h3v3.3l2.73-3.3h3.8l-3.86,4.1L111.15,30.86z M44.35,48.45h-3.23v-6.08    l-4.81-7h3.83l2.59,3.93l2.59-3.93h3.83l-4.8,7L44.35,48.45z M57.79,48.45h-3v-3.38h-3v3.38h-3v-8.81h3v3h3v-3h3V48.45z     M63.53,48.74c-1.26,0.07-2.49-0.42-3.36-1.34c-0.86-0.88-1.33-2.07-1.31-3.3c-0.03-1.32,0.47-2.6,1.39-3.55    c0.84-0.8,1.96-1.23,3.12-1.2c0.99-0.03,1.95,0.36,2.63,1.08v-0.79h3v8.81h-3V47.6C65.41,48.35,64.49,48.78,63.53,48.74z     M64.08,41.93c-0.55,0-1.09,0.22-1.49,0.6C62.2,42.92,61.99,43.45,62,44c-0.01,0.55,0.19,1.08,0.56,1.49    c0.43,0.41,1.01,0.64,1.61,0.64c1.18-0.04,2.11-1.02,2.07-2.2c-0.02-0.54-0.24-1.05-0.61-1.44C65.2,42.12,64.65,41.92,64.08,41.93    z M84.86,48.45h-3v-8.81h6.11v2.47h-3.11V48.45z M100.76,48.45h-3v-8.81h3V48.45z M93.7,48.45h-4.79v-8.81h3v3h1.89    c0.9-0.06,1.78,0.24,2.46,0.83c0.51,0.54,0.78,1.26,0.75,2c0.06,0.82-0.24,1.62-0.81,2.2C95.5,48.25,94.6,48.53,93.7,48.45z     M91.94,46.29H93c0.29,0.03,0.57-0.05,0.81-0.21c0.16-0.15,0.25-0.37,0.24-0.59c0.01-0.21-0.08-0.41-0.24-0.54    c-0.24-0.14-0.51-0.2-0.79-0.19h-1.08V46.29z M106.94,48.74c-1.29,0.04-2.54-0.43-3.48-1.32c-0.93-0.87-1.46-2.09-1.46-3.36    c-0.01-1.31,0.53-2.57,1.49-3.47c0.93-0.85,2.16-1.29,3.42-1.24c0.78-0.01,1.56,0.15,2.27,0.49h0.06v2.8l-0.16-0.13    c-0.5-0.41-1.14-0.64-1.79-0.63c-0.57-0.02-1.13,0.2-1.55,0.59c-0.41,0.41-0.64,0.97-0.63,1.55c-0.01,0.55,0.19,1.08,0.57,1.48    c0.44,0.44,1.03,0.68,1.65,0.67c0.64,0,1.26-0.23,1.75-0.65l0.16-0.13v2.77l0,0c-0.71,0.4-1.52,0.6-2.34,0.58H106.94z     M122.51,48.45h-3v-8.81h3V48.45z M115.45,48.45h-4.79v-8.81h3v3h1.86c0.89-0.06,1.78,0.24,2.45,0.83c0.52,0.53,0.79,1.26,0.76,2    c0.05,0.82-0.24,1.62-0.82,2.2c-0.7,0.58-1.6,0.86-2.5,0.78H115.45z M113.69,46.29h1.07c0.28,0.03,0.57-0.05,0.8-0.21    c0.16-0.15,0.25-0.37,0.25-0.59c0.01-0.21-0.08-0.41-0.24-0.54c-0.24-0.14-0.51-0.2-0.79-0.19h-1.09L113.69,46.29z M80.76,48.48    h-3.25L75.38,44l-2.12,4.49H70l4.46-8.8h1.85v0.06L80.76,48.48z"/>
	</g>
	<path id="M" class="st1" d="M36.32,16.92c-4.8,0.56-6.14,5.54-9.75,9.84c-4.83,5.74-12,2.79-12,2.79c4.83-0.6,6.21-5.62,9.91-9.9   C29.4,14,36.32,16.92,36.32,16.92z M18.93,25.34c0,0,6-4.77,3.42-11.8c-2-5.3-5.71-9.06-3.72-13.48c0,0-5.94,4.84-3.47,11.8   C17.05,17.18,20.93,20.92,18.93,25.34z M18.59,24.34c0,0,0.57-7.73-6.07-10.67C7.34,11.37,1.89,11.58,0,7.1   c0,0-0.74,7.69,6.31,10.66c5.24,2.24,10.41,2.09,12.28,6.57V24.34z M10.69,37.34h13.48L27.32,31H10.69L10.69,37.34z M12.84,55.97   H14l7.74-17.78h-8.9V55.97z"/>
</g>
</svg>