<?xml version="1.0" encoding="UTF-8"?>
<!-- Generator: Adobe Illustrator 24.2.1, SVG Export Plug-In . SVG Version: 6.00 Build 0)  -->
<svg version="1.1" id="Layer_1" xmlns="http://www.w3.org/2000/svg" xmlns:xlink="http://www.w3.org/1999/xlink" x="0px" y="0px" viewBox="0 0 125.87 56" style="enable-background:new 0 0 125.87 56;" xml:space="preserve">
<style type="text/css">
	.st0{fill:#5C666F;}
	.st1{fill:#EA6903;}
</style>
<g id="armenian_ru">
	<g id="Armenian_RU_RGB_">
		<path class="st0" d="M42.59,31h-3.23V17.94h4.74c1.26-0.09,2.51,0.29,3.51,1.06c0.91,0.81,1.39,1.99,1.32,3.21    c0.05,1.15-0.37,2.26-1.15,3.1c-0.94,0.84-2.17,1.27-3.43,1.17h-1.76V31z M42.59,23.84h1c0.56,0.04,1.12-0.11,1.58-0.45    c0.31-0.33,0.47-0.76,0.46-1.21c0.01-0.44-0.16-0.87-0.47-1.18c-0.47-0.35-1.06-0.51-1.64-0.45h-0.93V23.84z M53.83,31.29    c-1.26,0.08-2.49-0.39-3.37-1.29c-0.86-0.88-1.33-2.06-1.31-3.29c-0.02-1.32,0.48-2.6,1.39-3.55c0.84-0.8,1.97-1.23,3.13-1.21    c1-0.05,1.97,0.34,2.67,1.05v-0.8h3V31h-3v-0.85c-0.6,0.77-1.53,1.2-2.51,1.17V31.29z M54.38,24.48c-0.55,0-1.09,0.21-1.49,0.59    c-0.41,0.39-0.64,0.93-0.63,1.5c-0.01,0.55,0.19,1.08,0.57,1.48c0.43,0.42,1.01,0.66,1.61,0.65c0.53,0,1.03-0.21,1.41-0.57    c0.43-0.4,0.67-0.97,0.66-1.56c0.02-0.57-0.21-1.13-0.62-1.52c-0.42-0.35-0.96-0.55-1.51-0.54V24.48z M71.88,33.48h-2.72V31h-5.83    v2.43h-2.71v-4.71h0.08c0.43-0.04,0.83-0.23,1.15-0.52c0.61-0.7,0.88-1.63,0.74-2.54v-3.45h8v6.5h1.3L71.88,33.48z M64.54,28.73h3    v-4.2h-2.15v1.55c0.02,0.54-0.05,1.09-0.21,1.61c-0.13,0.39-0.35,0.74-0.64,1.02L64.54,28.73z M82.63,31h-3v-4.79L76,31h-2.79    v-8.79h3V27l3.61-4.75h2.78L82.63,31z M89.15,31.29c-1.44,0.05-2.84-0.46-3.92-1.42c-1.8-1.82-1.8-4.74,0-6.56    c2.27-1.89,5.56-1.89,7.83,0c1.8,1.82,1.8,4.74,0,6.56c-1.07,0.97-2.47,1.49-3.91,1.45L89.15,31.29z M89.15,24.44    c-0.57-0.02-1.12,0.19-1.53,0.59c-0.84,0.87-0.84,2.25,0,3.12c0.42,0.4,0.98,0.61,1.55,0.59c1.14,0.03,2.1-0.86,2.13-2.01    c0-0.05,0-0.1,0-0.14c0.02-0.58-0.2-1.15-0.62-1.56c-0.42-0.38-0.97-0.58-1.53-0.56L89.15,24.44z M51.38,50.05H48l-1-2.44h-4.81    l-1,2.44h-3.37L43.2,37h2.91v0.06L51.38,50.05z M43.15,45.14h3l-1.48-4L43.15,45.14z M56,50.34c-0.83,0.02-1.66-0.12-2.44-0.4    C52.99,49.71,52.47,49.4,52,49h-0.12l1.31-2l0.09,0.07c0.32,0.27,0.68,0.5,1.06,0.68c0.42,0.17,0.87,0.25,1.32,0.26    c0.34,0.01,0.69-0.06,1-0.2c0.22-0.11,0.35-0.33,0.35-0.57c0.01-0.23-0.14-0.43-0.36-0.5c-0.32-0.1-0.66-0.14-1-0.14h-1.17v-2.12    h0.9c0.34,0,0.68-0.05,1-0.15c0.21-0.07,0.35-0.27,0.36-0.49c0-0.09,0-0.32-0.38-0.47c-0.27-0.11-0.56-0.16-0.85-0.15    c-0.39,0-0.77,0.08-1.13,0.23c-0.33,0.13-0.64,0.31-0.92,0.54l-0.08,0.07l-1.19-2l0.07-0.05c0.47-0.28,0.97-0.52,1.48-0.72    c0.68-0.22,1.39-0.33,2.11-0.32c1.08-0.05,2.14,0.27,3,0.92c0.46,0.42,0.71,1.03,0.68,1.65c0.04,0.56-0.15,1.1-0.53,1.51    c-0.16,0.16-0.34,0.29-0.54,0.4c0.37,0.11,0.71,0.31,1,0.57c0.42,0.38,0.65,0.93,0.62,1.5c0,0.7-0.29,1.38-0.8,1.86    C58.36,50.13,57.18,50.47,56,50.34z M65.78,50.34c-1.26,0.07-2.49-0.42-3.36-1.34c-0.86-0.88-1.33-2.06-1.31-3.29    c-0.02-1.32,0.48-2.6,1.39-3.55c0.84-0.8,1.97-1.24,3.13-1.21c1-0.05,1.96,0.34,2.66,1.05v-0.8h3v8.82h-3V49.2    C67.69,49.96,66.75,50.39,65.78,50.34z M66.34,43.53c-0.56,0-1.09,0.21-1.5,0.59c-0.81,0.84-0.81,2.16,0,3    c0.43,0.42,1.01,0.66,1.61,0.65c0.53,0,1.03-0.21,1.41-0.57c0.43-0.4,0.67-0.97,0.66-1.56c0.01-0.57-0.22-1.12-0.62-1.52    C67.47,43.74,66.92,43.53,66.34,43.53z M77.74,50.05h-3v-6.38h-2.4v-2.44h7.77v2.44h-2.37V50.05z M85.22,54.48H81.8l3.2-5.63    l-4.3-7.62h3.49l2.43,4.57L89,41.23h3.42l-0.08,0.14L85.22,54.48z M98.28,50.05h-3v-6.38h-2.4v-2.44h7.77v2.44h-2.37V50.05z     M110.56,50.34c-1.35,0.1-2.68-0.35-3.7-1.23c-0.65-0.63-1.09-1.44-1.25-2.33h-0.9v3.27h-3v-8.82h3v3.12h0.94    c0.16-0.76,0.53-1.45,1.07-2c1-0.96,2.35-1.47,3.74-1.42c1.41-0.05,2.79,0.45,3.84,1.4c0.88,0.86,1.38,2.05,1.37,3.28    c0.02,1.27-0.46,2.49-1.35,3.39C113.3,49.94,111.94,50.43,110.56,50.34z M110.46,43.49c-0.54-0.03-1.06,0.15-1.46,0.51    c-0.44,0.44-0.68,1.03-0.66,1.65c-0.02,0.56,0.19,1.1,0.58,1.5c0.4,0.42,0.95,0.64,1.53,0.63c0.53,0.02,1.05-0.18,1.44-0.54    c0.45-0.43,0.69-1.03,0.66-1.65c0.06-1.1-0.78-2.05-1.88-2.11c-0.07,0-0.14,0-0.22,0L110.46,43.49z M125.87,50.05h-3v-3.39h-3    v3.39h-3v-8.82h3v3h3v-3h3V50.05z"/>
	</g>
	<path id="M" class="st1" d="M36.32,16.92c-4.8,0.56-6.14,5.54-9.75,9.84c-4.83,5.74-12,2.79-12,2.79c4.83-0.6,6.21-5.62,9.91-9.9   C29.4,14,36.32,16.92,36.32,16.92z M18.93,25.34c0,0,6-4.77,3.42-11.8c-2-5.3-5.71-9.06-3.72-13.48c0,0-5.94,4.84-3.47,11.8   C17.05,17.18,20.93,20.92,18.93,25.34z M18.59,24.34c0,0,0.57-7.73-6.07-10.67C7.34,11.37,1.89,11.58,0,7.1   c0,0-0.74,7.69,6.31,10.66c5.24,2.24,10.41,2.09,12.28,6.57V24.34z M10.69,37.34h13.48L27.32,31H10.69L10.69,37.34z M12.84,55.97   H14l7.74-17.78h-8.9V55.97z"/>
</g>
</svg>