<?xml version="1.0" encoding="UTF-8"?><svg id="Primary" xmlns="http://www.w3.org/2000/svg" viewBox="0 0 242 130"><defs><style>.cls-1{fill:#ea6903;}.cls-2{fill:#5c666f;}</style></defs><g id="color"><g><path class="cls-2" d="M93.89,81.97l-1.2-1.2c-.87,.61-2.21,1.27-4.78,1.27s-4.66-.77-6.37-2.43c-1.76-1.71-2.73-4.02-2.73-6.5s.98-4.73,2.63-6.35c1.68-1.65,4.08-2.56,6.78-2.56s5.01,.9,6.7,2.46c1.75,1.61,2.71,3.91,2.71,6.5,0,1.16-.23,2.21-.73,3.31-.39,.89-.9,1.6-1.6,2.23l3.05,3.27h-4.45Zm-5.68-13.93c-1.39,0-2.76,.54-3.66,1.45-.9,.9-1.45,2.32-1.45,3.7s.5,2.64,1.4,3.57c.95,.96,2.16,1.45,3.6,1.45,.67,0,1.26-.11,1.83-.34l-3.54-3.48h4.56s1.48,1.57,1.48,1.57c.61-.87,.89-1.75,.89-2.84,0-1.93-.89-3.1-1.42-3.62-.92-.92-2.26-1.45-3.68-1.45Zm15.58,13.63h-3.94v-11.51h3.94v11.51Zm6.49,0h-3.94v-11.51h3.94v1.44c.34-.51,.78-.94,1.25-1.22,.57-.35,1.18-.5,2.04-.5,.47,0,.81,.05,1.24,.18l.09,.03v3.79s-.39-.18-.39-.18c-.51-.26-1.03-.39-1.61-.39-.72,0-1.29,.24-1.76,.72-.76,.8-.86,1.93-.86,2.94v4.69Zm9.92,0h-3.94v-11.51h3.94v11.51Zm21.62,0h-3.94v-5.83c0-.58,0-1.55-.46-2.12-.29-.36-.74-.56-1.24-.56-.54,0-1.03,.23-1.34,.63-.48,.6-.54,1.51-.54,2.15v5.73h-3.94v-5.98c0-.82-.04-1.61-.55-2.11-.29-.29-.65-.42-1.14-.42s-.89,.14-1.2,.42c-.44,.41-.68,1.2-.68,2.2v5.88h-3.94v-11.51h3.94v1.06c.73-.89,1.76-1.34,3.08-1.34,.88,0,1.63,.18,2.22,.52,.55,.3,1.02,.8,1.34,1.42,.36-.52,.81-.95,1.38-1.29,.75-.46,1.5-.65,2.5-.65,1.38,0,2.54,.39,3.29,1.09,1.22,1.14,1.22,2.88,1.22,3.45v7.24Zm4.72,.4c-1.38,0-2.46-1.06-2.46-2.42s1.08-2.42,2.46-2.42,2.46,1.06,2.46,2.42-1.08,2.42-2.46,2.42Zm21.52-.4h-4.37l-1.28-3.18h-6.3l-1.31,3.18h-4.37l.07-.17,6.93-16.91h3.78l6.84,17.09Zm-10.7-6.41h3.87l-1.92-5.18-1.95,5.18Zm24.15,12.19h-3.94v-6.86c-.9,.97-2.08,1.46-3.52,1.46-1.67,0-2.85-.46-3.96-1.55-1.23-1.21-1.86-2.76-1.86-4.61,0-2.2,.95-3.65,1.75-4.48,1.07-1.08,2.45-1.63,4.09-1.63,.93,0,2.28,.16,3.49,1.5v-1.13h3.94v17.29Zm-6.48-14.29c-.72,0-1.4,.27-1.92,.75-.53,.5-.83,1.21-.83,1.95s.34,1.56,.86,2.06c.5,.47,1.21,.75,1.89,.75,.75,0,1.48-.3,2.02-.82,.5-.51,.78-1.21,.78-1.91s-.32-1.47-.83-1.98c-.37-.36-1.01-.8-1.97-.8Zm12.87,8.51h-3.94v-11.51h3.94v11.51Zm-1.97-13.93c-1.28,0-2.28-.99-2.28-2.24s1-2.24,2.28-2.24,2.28,.99,2.28,2.24-1,2.24-2.28,2.24Zm16.87,19.71h-3.94v-6.86c-.9,.97-2.08,1.46-3.52,1.46-1.67,0-2.85-.46-3.96-1.55-1.23-1.21-1.86-2.76-1.86-4.61,0-2.2,.95-3.65,1.75-4.48,1.07-1.08,2.45-1.63,4.09-1.63,.93,0,2.28,.16,3.49,1.5v-1.13h3.94v17.29Zm-6.48-14.29c-.72,0-1.4,.27-1.92,.75-.53,.5-.83,1.21-.83,1.95s.34,1.56,.86,2.06c.5,.47,1.21,.75,1.89,.75,.75,0,1.48-.3,2.02-.82,.5-.51,.78-1.21,.78-1.91s-.32-1.47-.83-1.98c-.37-.36-1.01-.8-1.97-.8Zm14.05,8.89c-1.86,0-3.21-.54-4.37-1.75-1.13-1.18-1.7-2.63-1.7-4.3,0-1.81,.66-3.5,1.81-4.63,1.03-1.02,2.47-1.58,4.06-1.58,1.03,0,2.44,.25,3.47,1.42v-1.04h3.94v11.51h-3.94v-1.11c-.78,.99-1.87,1.48-3.26,1.48Zm.72-8.89c-.72,0-1.45,.29-1.94,.77-.37,.36-.81,1-.81,1.96s.4,1.58,.74,1.93c.51,.53,1.29,.85,2.09,.85,.68,0,1.35-.27,1.84-.75,.39-.37,.86-1.02,.86-2.03,0-.78-.29-1.5-.81-1.98-.59-.55-1.4-.75-1.97-.75Zm13.1,8.51h-3.94v-8.33h-1.28v-3.18h1.28v-3.64h3.94v3.64h2.28v3.18h-2.28v8.33Z"/><path id="New_Symbol" class="cls-1" d="M80.24,45.16c-8.62,1-11.03,9.91-17.52,17.61-8.67,10.28-21.51,5-21.51,5,8.67-1.08,11.15-10.05,17.79-17.72,8.8-10.16,21.24-4.89,21.24-4.89Zm-31.23,15.08s10.78-8.54,6.13-21.12c-3.5-9.49-10.26-16.21-6.68-24.13,0,0-10.67,8.66-6.23,21.12,3.4,9.53,10.36,16.21,6.78,24.13Zm-.62-1.81s1.04-13.84-10.9-19.09c-9.31-4.1-19.1-3.72-22.45-11.73,0,0-1.33,13.75,11.34,19.08,9.38,3.94,18.66,3.74,22.01,11.75Zm-14.19,23.23h24.22l5.65-11.37h-29.87v11.37Zm3.86,33.34h2.04l13.89-31.81h-15.94v31.81Z"/></g></g></svg>