<?xml version="1.0" encoding="utf-8"?>
<!-- Generator: Adobe Illustrator 25.2.1, SVG Export Plug-In . SVG Version: 6.00 Build 0)  -->
<svg version="1.1" xmlns="http://www.w3.org/2000/svg" xmlns:xlink="http://www.w3.org/1999/xlink" x="0px" y="0px"
	 viewBox="0 0 120.78 80" style="enable-background:new 0 0 120.78 80;" xml:space="preserve">
<style type="text/css">
	.st0{fill:#5C666F;}
	.st1{fill:#EA6903;}
	.st2{fill:#E76A24;}
	.st3{fill:#5C6770;}
	.st4{display:none;}
	.st5{display:inline;}
	.st6{fill:#FFFFFF;}
	.st7{fill:#E56A24;}
	.st8{fill:#5D6771;}
	.st9{display:none;fill:#5C666F;}
	.st10{display:inline;fill:#5C666F;}
	.st11{fill:#5D6770;}
	.st12{fill:#69737B;}
	.st13{fill:#256A78;}
	.st14{fill:#D12430;}
	.st15{display:inline;fill:#2D1996;}
	.st16{fill:#2D1996;}
	.st17{fill:#E86B24;}
	.st18{fill:none;}
	.st19{opacity:0.7;}
	.st20{fill-rule:evenodd;clip-rule:evenodd;fill:#FFFFFF;}
	.st21{fill-rule:evenodd;clip-rule:evenodd;fill:#EA6903;}
	.st22{fill:#5B6770;}
	.st23{fill-rule:evenodd;clip-rule:evenodd;fill:#5B6770;}
	.st24{fill-rule:evenodd;clip-rule:evenodd;fill:#F7C39A;}
	.st25{clip-path:url(#SVGID_2_);fill-rule:evenodd;clip-rule:evenodd;fill:#FFFFFF;}
	.st26{display:none;fill:#E50E1F;}
	.st27{fill:#020202;}
	.st28{fill:#EE7204;}
	.st29{fill:#080808;}
	.st30{fill:#0A0A0A;}
	.st31{fill:#0B0B0B;}
	.st32{fill:#EF770C;}
	.st33{fill:#0F0F0F;}
	.st34{fill:#0C0C0C;}
	.st35{fill:#060606;}
	.st36{fill:#EF7B14;}
	.st37{fill:#B7B7B7;}
	.st38{fill:#C11D22;}
	.st39{fill:#3A79B7;}
	.st40{fill:#768492;}
	.st41{fill:#FFFFFF;stroke:#FFFFFF;stroke-width:0.25;stroke-miterlimit:10;}
	.st42{fill:#3B79B7;}
	.st43{fill:#363535;}
	.st44{fill:#BED970;}
	.st45{fill:#E1368E;}
	.st46{fill:#E9E751;}
	.st47{fill:#8E499B;}
	.st48{fill:#C1C0C0;}
	.st49{clip-path:url(#SVGID_4_);fill:url(#SVGID_5_);}
	.st50{fill:#334D5D;}
	.st51{fill:#2170B7;}
	.st52{fill:#718B99;}
	.st53{fill:#B62027;}
	.st54{fill:#26A3DD;}
	.st55{clip-path:url(#SVGID_7_);fill:url(#SVGID_8_);}
</style>
<g id="afghan_x5F_da">
</g>
<g id="afghan_x5F_eng">
</g>
<g id="afghan_x5F_pa">
</g>
<g id="armenian">
</g>
<g id="armenian_x5F_ru">
</g>
<g id="azeri">
</g>
<g id="azeri_x5F_ru">
</g>
<g id="balkan">
</g>
<g id="belarussian">
</g>
<g id="bulgarian">
</g>
<g id="crimea_x5F_ru">
</g>
<g id="crimea_x5F_ta">
</g>
<g id="crimea_x5F_ua">
</g>
<g id="donbass_x5F_ru_-_not_full">
</g>
<g id="donbass_x5F_ua_-_not_full">
</g>
<g id="English">
</g>
<g id="georgian">
</g>
<g id="georgian_x5F_ru">
</g>
<g id="kazakh">
</g>
<g id="kazakh_x5F_ru">
</g>
<g id="kosovo">
</g>
<g id="kyrgyz">
</g>
<g id="kyrgyz_x5F_ru">
</g>
<g id="macedonia">
</g>
<g id="moldova">
	<g id="Layer_60">
	</g>
	<g id="Layer_61">
	</g>
	<g id="Layer_62">
	</g>
</g>
<g id="north_x5F_caucasus_x5F_av_-_not_full">
</g>
<g id="north_x5F_caucasus_x5F_ch">
</g>
<g id="north_x5F_caucasus_x5F_ru">
</g>
<g id="pakistan">
</g>
<g id="perssian">
</g>
<g id="perssian_x5F_eng">
</g>
<g id="romanian">
	<g id="Layer_57">
	</g>
	<g id="Layer_59">
	</g>
	<g id="Layer_58">
	</g>
</g>
<g id="russia">
</g>
<g id="Siberia">
</g>
<g id="tajik">
	<g>
		<path id="tajik_1_" class="st11" d="M56.41,53.35h-3.33V39.83h4.89c1.09,0,2.49,0.13,3.63,1.12c0.91,0.79,1.36,1.87,1.36,3.31
			c0,1.32-0.4,2.4-1.19,3.2c-1.07,1.07-2.45,1.21-3.53,1.21h-1.82V53.35z M56.41,45.96h1.02c0.34,0,1.12,0,1.62-0.47
			c0.3-0.3,0.48-0.75,0.48-1.25c0-0.5-0.17-0.95-0.48-1.23c-0.44-0.42-1.1-0.47-1.69-0.47h-0.96V45.96z M68.03,53.65
			c-1.48,0-2.55-0.43-3.47-1.39c-0.9-0.93-1.35-2.08-1.35-3.4c0-1.44,0.52-2.77,1.44-3.66c0.82-0.8,1.97-1.25,3.23-1.25
			c0.82,0,1.94,0.2,2.75,1.12v-0.82h3.13v9.1h-3.13v-0.87C70.01,53.25,69.13,53.65,68.03,53.65z M68.6,46.62
			c-0.57,0-1.15,0.23-1.54,0.61c-0.29,0.29-0.64,0.79-0.64,1.55c0,0.75,0.32,1.25,0.58,1.53c0.41,0.42,1.03,0.67,1.66,0.67
			c0.54,0,1.08-0.22,1.46-0.59c0.31-0.29,0.68-0.8,0.68-1.61c0-0.61-0.23-1.19-0.64-1.57C69.7,46.78,69.05,46.62,68.6,46.62z
			 M86.67,55.86h-2.8v-2.52h-6.02v2.52h-2.8v-4.9l0.09-0.01c0.45-0.05,0.85-0.23,1.19-0.53c0.7-0.63,0.76-1.56,0.76-2.62v-3.55h8.25
			v6.71h1.35V55.86z M79.1,50.96h3.1v-4.32h-2.23v1.6c0,0.9-0.12,1.38-0.21,1.67C79.68,50.17,79.49,50.55,79.1,50.96z M97.66,53.35
			h-3.13v-4.98l-3.72,4.98h-2.88v-9.1h3.13v4.9l3.73-4.9h2.88V53.35z M104.36,53.65c-1.62,0-3.09-0.53-4.04-1.47
			c-0.87-0.86-1.39-2.12-1.39-3.38c0-1.26,0.52-2.53,1.39-3.38c0.95-0.93,2.42-1.47,4.04-1.47c1.62,0,3.09,0.53,4.04,1.47
			c0.87,0.86,1.4,2.12,1.4,3.38c0,1.26-0.52,2.53-1.4,3.38C107.45,53.11,105.98,53.65,104.36,53.65z M104.36,46.58
			c-0.64,0-1.17,0.21-1.58,0.61c-0.43,0.42-0.64,0.95-0.64,1.61c0,0.66,0.21,1.18,0.64,1.61c0.41,0.41,0.95,0.61,1.6,0.61
			c0.62,0,1.15-0.21,1.56-0.61c0.43-0.42,0.64-0.95,0.64-1.61c0-0.66-0.21-1.18-0.64-1.61C105.53,46.79,105,46.58,104.36,46.58z
			 M120.78,53.35h-3.13v-4.98l-3.72,4.98h-2.88v-9.1h3.13v4.9l3.73-4.9h2.88V53.35z M58.99,73.29c-2.83,0-4.58-1.24-5.37-1.98
			c-1.37-1.26-2.15-3.09-2.15-5.02c0-1.84,0.84-3.85,2.13-5.12c0.92-0.91,2.61-1.99,5.39-1.99c2.16,0,3.95,0.66,5.33,1.96
			c1.39,1.31,2.15,3.13,2.15,5.1c0,1.94-0.76,3.74-2.15,5.06C62.92,72.62,61.13,73.29,58.99,73.29z M58.97,62.21
			c-1.14,0-2.18,0.39-2.91,1.11c-0.44,0.42-1.17,1.35-1.17,2.94c0,1.19,0.4,2.14,1.21,2.92c0.78,0.73,1.69,1.07,2.85,1.07
			c1.19,0,2.21-0.38,2.95-1.11c0.53-0.5,1.15-1.4,1.15-2.91c0-1.62-0.81-2.59-1.15-2.92C61.16,62.62,60.07,62.21,58.97,62.21z
			 M71.11,73.29c-0.95,0-1.78-0.13-2.52-0.41c-0.79-0.3-1.38-0.73-1.66-0.95l-0.07-0.06l1.35-2.06l0.08,0.07
			c0.33,0.28,0.75,0.55,1.1,0.7c0.4,0.16,0.94,0.27,1.37,0.27c0.3,0,0.74-0.05,1.01-0.21c0.24-0.14,0.36-0.33,0.36-0.59
			c0-0.24-0.11-0.39-0.37-0.51c-0.23-0.09-0.71-0.15-1.02-0.15h-1.2v-2.15h0.93c0.27,0,0.8-0.04,1.06-0.15
			c0.32-0.15,0.37-0.38,0.37-0.51c0-0.1-0.04-0.34-0.39-0.49c-0.24-0.1-0.53-0.15-0.88-0.15c-0.43,0-0.76,0.07-1.17,0.23
			c-0.38,0.16-0.68,0.33-0.95,0.56l-0.09,0.07l-1.23-2.1l0.08-0.05c0.37-0.23,1.01-0.56,1.53-0.75c0.62-0.22,1.36-0.33,2.17-0.33
			c0.81,0,2.29,0.12,3.15,0.95c0.47,0.44,0.7,1,0.7,1.71c0,0.49-0.07,1.06-0.58,1.59c-0.17,0.17-0.36,0.31-0.56,0.41
			c0.58,0.2,0.93,0.52,1,0.59c0.44,0.41,0.64,0.9,0.64,1.55c0,0.74-0.28,1.39-0.82,1.93C73.78,73,72.8,73.29,71.11,73.29z
			 M81.6,73.29c-1.62,0-3.09-0.53-4.04-1.47c-0.87-0.86-1.39-2.12-1.39-3.38c0-1.26,0.52-2.53,1.39-3.38
			c0.95-0.93,2.42-1.47,4.04-1.47c1.62,0,3.09,0.53,4.04,1.47c0.87,0.86,1.4,2.12,1.4,3.38c0,1.26-0.52,2.53-1.4,3.38
			C84.69,72.75,83.22,73.29,81.6,73.29z M81.6,66.22c-0.64,0-1.17,0.21-1.58,0.61c-0.43,0.42-0.64,0.95-0.64,1.61
			c0,0.66,0.21,1.18,0.64,1.61c0.41,0.41,0.95,0.61,1.6,0.61c0.62,0,1.15-0.21,1.56-0.61c0.43-0.42,0.64-0.95,0.64-1.61
			c0-0.66-0.21-1.18-0.64-1.61C82.77,66.42,82.24,66.22,81.6,66.22z M99.18,75.5h-2.8v-2.52h-6.02v2.52h-2.8v-4.9l0.09-0.01
			c0.45-0.05,0.85-0.23,1.19-0.53c0.7-0.63,0.76-1.56,0.76-2.62v-3.55h8.25v6.71h1.34V75.5z M91.61,70.59h3.1v-4.32h-2.23v1.6
			c0,1-0.16,1.5-0.21,1.67C92.19,69.81,92,70.19,91.61,70.59z M110,72.99h-3.13v-4.98l-3.72,4.98h-2.88v-9.1h3.13v4.9l3.73-4.9H110
			V72.99z M109.11,62.15h-7.94v-1.99h7.94V62.15z"/>
		<path id="New_Symbol_131_" class="st1" d="M52.19,24.13c-6.89,0.8-8.83,7.93-14.01,14.09c-6.93,8.22-17.21,4-17.21,4
			c6.93-0.86,8.92-8.04,14.23-14.17C42.25,19.91,52.19,24.13,52.19,24.13z M27.21,36.19c0,0,8.62-6.83,4.9-16.89
			c-2.8-7.59-8.2-12.97-5.34-19.3c0,0-8.54,6.93-4.98,16.89C24.51,24.51,30.07,29.86,27.21,36.19z M26.71,34.74
			c0,0,0.83-11.07-8.72-15.28c-7.45-3.28-15.28-2.97-17.96-9.38c0,0-1.06,11,9.07,15.26C16.6,28.5,24.03,28.33,26.71,34.74z
			 M15.36,53.33h19.37l4.52-9.09H15.36V53.33z M18.45,80h1.63l11.12-25.45H18.45V80z"/>
	</g>
</g>
<g id="tajik_x5F_ru">
</g>
<g id="tatar_x5F_bashkir">
</g>
<g id="tatar_x5F_bashkir_x5F_ru">
</g>
<g id="turkmen">
</g>
<g id="turkmen_x5F_ru">
</g>
<g id="ukrainian">
</g>
<g id="uzbek">
</g>
<g id="uzbek_x5F_ru">
</g>
<g id="Sizdan_Telegram_just_video">
</g>
<g id="Severreal">
</g>
<g id="hungarian">
</g>
<g id="theHUB">
</g>
<g id="Faktograf">
</g>
<g id="logos_-_RU">
</g>
<g id="Mobile">
	<g id="Change_5_">
	</g>
</g>
<g id="Desktop">
</g>
<g id="showcase">
</g>
<g id="logos_-_EN">
</g>
<g id="labels">
</g>
<g id="MArti">
</g>
<g id="Screen">
</g>
<g id="Isolation_Mode">
</g>
<g id="dandalin_voa_logo">
</g>
<g id="Layer_2">
</g>
<g id="logo_x5F_big">
</g>
<g id="marti_x5F_2019">
</g>
</svg>
