<?xml version="1.0" encoding="UTF-8"?>
<!-- Generator: Adobe Illustrator 24.2.1, SVG Export Plug-In . SVG Version: 6.00 Build 0)  -->
<svg version="1.1" id="Layer_1" xmlns="http://www.w3.org/2000/svg" xmlns:xlink="http://www.w3.org/1999/xlink" x="0px" y="0px" viewBox="0 0 107.79 56" style="enable-background:new 0 0 107.79 56;" xml:space="preserve">
<style type="text/css">
	.st0{fill:#5C666F;}
	.st1{fill:#EA6903;}
</style>
<g id="turkmen">
	<g id="Turkmen_RGB">
		<path class="st0" d="M107.79,43l-0.08,0.14l-7,12.82h-3.37l3-5.34L96.08,43h3.5l2.42,4.52l2.37-4.52H107.79z M90,26.6L87.58,22    h-3.5l4.26,7.61l-3.08,5.49l-0.07,0.14h3.41l7.11-13.1L95.79,22h-3.41L90,26.6z M39.91,30.84h-3.37l0.06-0.13l5.33-13h2.91    l5.27,13.09h-3.36l-1-2.44h-4.84L39.91,30.84z M41.91,25.93h3l-1.48-4L41.91,25.93z M83,16.55h-3v14.29h3V16.55z M99.61,27.28    l3.26,3.56H107L102.4,26l4.29-4h-4l-3.07,3v-8.45h-3v14.29h3L99.61,27.28z M44.51,46.45l4.07,5.31h-3.95l0,0l-3.38-4.84v4.88H38    V38.68h4.7c1.24-0.07,2.47,0.34,3.42,1.14c0.8,0.79,1.22,1.88,1.18,3c0.05,1.01-0.34,1.99-1.06,2.7    C45.74,45.96,45.15,46.28,44.51,46.45z M44,42.81c0.02-0.48-0.19-0.94-0.57-1.24c-0.49-0.29-1.05-0.42-1.62-0.38h-0.62v3.34h0.6    c0.64,0.06,1.28-0.13,1.78-0.53C43.87,43.68,44.02,43.25,44,42.81z M78.56,22H76.8v-2.76h-3V22h-1v2.43h1v6.38h3v-6.35h1.76    L78.56,22z M60.17,30.84v-2.51h-4.08L60.65,22h-9v2.51h3.79l-4.58,6.3L60.17,30.84z M72.45,51.76h3V43h-3V51.76z M68.32,22h3v8.81    h-3V30c-0.6,0.76-1.54,1.19-2.51,1.14c-1.26,0.07-2.49-0.42-3.36-1.34c-0.86-0.88-1.33-2.07-1.31-3.3    c-0.02-1.32,0.48-2.6,1.39-3.55c0.84-0.8,1.96-1.23,3.12-1.2c1-0.04,1.98,0.35,2.67,1.08L68.32,22z M68.5,26.38    c0.01-0.57-0.22-1.11-0.62-1.51c-0.42-0.37-0.95-0.58-1.51-0.58c-0.56,0-1.1,0.21-1.5,0.6c-0.41,0.39-0.63,0.93-0.62,1.49    c-0.01,0.55,0.19,1.09,0.57,1.49c0.43,0.42,1,0.65,1.6,0.64c1.16-0.01,2.09-0.96,2.08-2.12C68.5,26.39,68.5,26.38,68.5,26.38z     M74,37.65c-0.95,0.02-1.7,0.81-1.68,1.76c0.02,0.95,0.81,1.7,1.76,1.68c0.93-0.02,1.68-0.78,1.68-1.72    c0-0.95-0.77-1.72-1.72-1.72C74.03,37.65,74.01,37.65,74,37.65z M86.15,44.08c1.8,1.81,1.8,4.74,0,6.55    c-2.27,1.89-5.56,1.89-7.83,0c-1.8-1.81-1.8-4.74,0-6.55C80.59,42.19,83.88,42.19,86.15,44.08z M84.39,47.36    c0.02-0.59-0.21-1.15-0.63-1.56c-0.87-0.79-2.19-0.79-3.06,0c-0.83,0.87-0.83,2.24,0,3.11c0.42,0.4,0.98,0.61,1.55,0.59    c0.56,0.01,1.11-0.2,1.51-0.59c0.4-0.41,0.62-0.97,0.59-1.55H84.39z M55.71,43h3v8.81h-3v-0.84c-0.6,0.76-1.54,1.18-2.51,1.13    c-1.26,0.07-2.49-0.42-3.36-1.34c-0.86-0.88-1.33-2.07-1.31-3.3c-0.02-1.32,0.48-2.59,1.39-3.54c0.84-0.8,1.97-1.24,3.13-1.21    c1-0.04,1.97,0.35,2.66,1.08V43z M55.89,47.39c0.01-0.57-0.21-1.12-0.62-1.52c-0.42-0.37-0.95-0.57-1.51-0.57    c-0.56,0-1.09,0.21-1.5,0.59c-0.4,0.39-0.63,0.94-0.62,1.5c-0.01,0.55,0.19,1.08,0.57,1.48c0.43,0.42,1,0.65,1.6,0.64    c0.53,0.01,1.04-0.2,1.42-0.57c0.44-0.41,0.68-1,0.66-1.6V47.39z M93.29,46.27L92.54,46l-0.32-0.1c-0.18-0.04-0.35-0.1-0.51-0.18    c-0.16-0.09-0.23-0.19-0.23-0.31c0.01-0.12,0.06-0.24,0.15-0.32c0.21-0.16,0.48-0.23,0.74-0.22c0.54,0.03,1.06,0.19,1.52,0.47    l0.07,0.05l1.23-1.92l-0.08-0.05c-0.91-0.52-1.95-0.78-3-0.75c-0.99-0.06-1.96,0.26-2.73,0.89c-0.58,0.53-0.9,1.29-0.88,2.07    c-0.02,0.61,0.22,1.2,0.66,1.63c0.42,0.38,0.92,0.66,1.46,0.82l0.71,0.21c0.29,0.07,0.58,0.17,0.85,0.3    c0.16,0.08,0.27,0.24,0.27,0.42c-0.01,0.19-0.1,0.37-0.26,0.48c-0.25,0.14-0.54,0.2-0.83,0.18c-0.4,0-0.79-0.09-1.15-0.26    c-0.34-0.17-0.65-0.39-0.94-0.63l-0.09-0.07l-1.3,2h0.06c1.02,0.86,2.33,1.31,3.67,1.26c1.07,0.08,2.13-0.28,2.93-1    c0.62-0.62,0.96-1.46,0.94-2.33c0.02-0.62-0.23-1.22-0.69-1.64c-0.44-0.36-0.95-0.63-1.5-0.78V46.27z M67.24,37.48h3v14.28h-3    V50.9c-0.67,0.78-1.66,1.21-2.69,1.15c-1.15,0.05-2.28-0.38-3.09-1.2c-0.93-0.94-1.44-2.21-1.41-3.53    c-0.03-1.31,0.48-2.57,1.42-3.48c0.85-0.77,1.97-1.19,3.12-1.18c1-0.04,1.96,0.35,2.65,1.08V37.48z M67.42,47.38    c0.01-0.57-0.21-1.12-0.61-1.52c-0.4-0.41-0.96-0.64-1.53-0.61c-0.54-0.02-1.06,0.18-1.45,0.55c-0.85,0.8-0.89,2.15-0.08,3    c0.39,0.41,0.93,0.65,1.49,0.66c0.57,0,1.13-0.22,1.55-0.61C67.2,48.47,67.43,47.94,67.42,47.38z"/>
	</g>
	<path id="M" class="st1" d="M36.32,16.92c-4.8,0.56-6.14,5.54-9.75,9.84c-4.83,5.74-12,2.79-12,2.79c4.83-0.6,6.21-5.62,9.91-9.9   C29.4,14,36.32,16.92,36.32,16.92z M18.93,25.34c0,0,6-4.77,3.42-11.8c-2-5.3-5.71-9.06-3.72-13.48c0,0-5.94,4.84-3.47,11.8   C17.05,17.18,20.93,20.92,18.93,25.34z M18.59,24.34c0,0,0.57-7.73-6.07-10.67C7.34,11.37,1.89,11.58,0,7.1   c0,0-0.74,7.69,6.31,10.66c5.24,2.24,10.41,2.09,12.28,6.57V24.34z M10.69,37.34h13.48L27.32,31H10.69L10.69,37.34z M12.84,55.97   H14l7.74-17.78h-8.9V55.97z"/>
</g>
</svg>