<?xml version="1.0" encoding="utf-8"?>
<!-- Generator: Adobe Illustrator 24.2.1, SVG Export Plug-In . SVG Version: 6.00 Build 0)  -->
<svg version="1.1" id="Layer_1" xmlns="http://www.w3.org/2000/svg" xmlns:xlink="http://www.w3.org/1999/xlink" x="0px" y="0px"
	 viewBox="0 0 118.33 56" style="enable-background:new 0 0 118.33 56;" xml:space="preserve">
<style type="text/css">
	.st0{fill:#5C666F;}
	.st1{fill:#EA6903;}
</style>
<g id="uzbek">
	<g id="Uzbek_RGB">
		<path class="st0" d="M45.38,31c-1.92,0.05-3.78-0.63-5.2-1.92c-1.34-1.26-2.09-3.03-2.08-4.87c0.32-4.12,3.92-7.2,8.04-6.88
			c1.63,0.13,3.18,0.79,4.4,1.88c2.72,2.65,2.78,6.99,0.14,9.71c-0.04,0.05-0.09,0.09-0.14,0.14C49.14,30.36,47.29,31.06,45.38,31z
			 M45.38,20.27c-1.04-0.02-2.06,0.36-2.82,1.07c-0.76,0.75-1.17,1.78-1.13,2.85c-0.03,1.06,0.39,2.08,1.15,2.81
			c0.75,0.68,1.74,1.04,2.76,1c1.04,0.05,2.07-0.31,2.85-1c0.76-0.74,1.16-1.76,1.12-2.82c0.03-1.06-0.38-2.08-1.12-2.83
			c-0.78-0.7-1.79-1.08-2.83-1.08H45.38z M57.67,31c-0.83,0.01-1.66-0.12-2.44-0.39c-0.58-0.23-1.12-0.54-1.6-0.93l-0.07-0.05
			l1.31-2l0.08,0.07c0.32,0.27,0.68,0.5,1.06,0.68c0.42,0.17,0.87,0.25,1.33,0.26c0.34,0.01,0.69-0.06,1-0.2
			c0.21-0.11,0.35-0.33,0.34-0.57c0-0.23-0.14-0.43-0.36-0.5c-0.32-0.1-0.66-0.15-1-0.14h-1.16v-2.09h0.9c0.34,0,0.67-0.05,1-0.14
			c0.21-0.08,0.35-0.28,0.36-0.5c0-0.09,0-0.32-0.38-0.47c-0.27-0.11-0.56-0.16-0.85-0.15c-0.39,0-0.77,0.07-1.13,0.23
			c-0.33,0.13-0.64,0.31-0.92,0.54l-0.09,0.08l-1.19-2l0.08-0.05c0.47-0.28,0.97-0.52,1.48-0.72c0.68-0.22,1.39-0.33,2.1-0.32
			c1.09-0.06,2.17,0.26,3.05,0.92c0.46,0.42,0.7,1.03,0.68,1.65c0.03,0.57-0.17,1.13-0.56,1.54c-0.16,0.16-0.34,0.29-0.54,0.4
			c0.37,0.11,0.71,0.31,1,0.57c0.42,0.38,0.65,0.93,0.62,1.5C61.76,28.89,61.48,29.53,61,30C60.07,30.77,58.87,31.13,57.67,31z
			 M68.05,31c-1.44,0.05-2.84-0.46-3.91-1.42c-1.8-1.82-1.8-4.74,0-6.56C66.41,21.11,69.72,21.1,72,23c1.8,1.82,1.8,4.74,0,6.56
			C70.92,30.53,69.5,31.05,68.05,31z M68.05,24.15c-0.57-0.02-1.12,0.2-1.53,0.6c-0.42,0.4-0.65,0.97-0.62,1.55
			c-0.02,0.58,0.2,1.15,0.62,1.56c0.42,0.4,0.98,0.61,1.55,0.59c1.15,0.03,2.11-0.88,2.14-2.04c0-0.04,0-0.07,0-0.11
			c0.03-0.58-0.2-1.15-0.63-1.55C69.17,24.35,68.62,24.13,68.05,24.15z M85.2,33.15h-2.72v-2.44h-5.83v2.44h-2.71V28.4H74
			c0.43-0.04,0.83-0.23,1.15-0.52c0.61-0.7,0.88-1.63,0.74-2.54v-3.45h8v6.5h1.3L85.2,33.15z M77.86,28.39h3v-4.18H78.7v1.55
			c0.02,0.54-0.05,1.09-0.2,1.61C78.37,27.76,78.15,28.11,77.86,28.39z M87.17,30.82c-0.39,0.01-0.79-0.04-1.17-0.13h-0.07v-2.4
			h0.12c0.16,0.04,0.32,0.06,0.48,0.06c0.29,0.02,0.58-0.09,0.79-0.29c0.25-0.39,0.36-0.84,0.33-1.3v-4.87h8v8.82h-3v-6.38h-2.09
			v2.55c0.09,1.08-0.23,2.15-0.89,3C89.02,30.55,88.1,30.9,87.17,30.82z M106.83,30.71h-3v-4.82l-3.6,4.82H97.4v-8.82h3v4.75
			l3.6-4.75h2.79L106.83,30.71z M118.33,30.71h-3.93l0,0l-2.83-3.61v3.65h-3v-8.86h3v3.26l2.74-3.26h3.8L114.22,26L118.33,30.71z
			 M42.67,50.2h-3.23V37.12h4.73c1.27-0.09,2.52,0.3,3.52,1.08c0.9,0.82,1.38,2,1.31,3.21c0.05,1.15-0.37,2.27-1.16,3.1
			c-0.93,0.84-2.17,1.27-3.42,1.17h-1.75V50.2z M42.67,43.05h1c0.56,0.05,1.12-0.11,1.57-0.45c0.31-0.32,0.48-0.76,0.47-1.21
			c0.02-0.44-0.15-0.87-0.46-1.19c-0.47-0.35-1.06-0.51-1.64-0.46h-0.93L42.67,43.05z M54.06,50.5c-1.26,0.07-2.49-0.43-3.36-1.35
			c-0.86-0.88-1.33-2.06-1.31-3.29c-0.03-1.32,0.47-2.6,1.39-3.55c0.84-0.8,1.96-1.23,3.12-1.21c1.01-0.04,1.98,0.35,2.67,1.09v-0.8
			h3v8.81h-3v-0.84C55.97,50.12,55.03,50.55,54.06,50.5z M54.61,43.69c-0.55,0-1.09,0.21-1.49,0.59c-0.4,0.39-0.63,0.94-0.62,1.5
			c-0.01,0.55,0.19,1.08,0.56,1.48c0.43,0.42,1.01,0.65,1.61,0.65c1.18-0.03,2.11-1.01,2.08-2.19c-0.01-0.55-0.24-1.07-0.62-1.46
			C55.71,43.89,55.17,43.69,54.61,43.69z M72.02,52.69H69.3V50.2h-5.83v2.44h-2.72V47.9h0.09c0.43-0.05,0.84-0.23,1.16-0.53
			c0.61-0.7,0.88-1.63,0.74-2.54v-3.44h8v6.5H72L72.02,52.69z M64.68,47.94h3v-4.23h-2.16v1.55c0.02,0.54-0.05,1.09-0.2,1.61
			c-0.13,0.39-0.35,0.74-0.64,1.02L64.68,47.94z M82.68,50.25h-3v-4.86l-3.63,4.81h-2.79v-8.81h3v4.74l3.6-4.74h2.79L82.68,50.25z
			 M89.39,50.55c-1.44,0.05-2.84-0.46-3.91-1.42c-1.8-1.82-1.8-4.74,0-6.56c2.27-1.89,5.56-1.89,7.83,0c1.8,1.82,1.8,4.74,0,6.56
			c-1.08,0.94-2.48,1.43-3.91,1.37L89.39,50.55z M89.39,43.7c-0.57-0.02-1.12,0.2-1.53,0.59c-0.83,0.87-0.83,2.24,0,3.11
			c0.41,0.4,0.97,0.62,1.55,0.6c0.57,0.02,1.12-0.2,1.52-0.6c0.83-0.87,0.83-2.24,0-3.11c-0.4-0.41-0.95-0.64-1.53-0.64L89.39,43.7z
			 M100.56,50.55c-1.29,0.04-2.54-0.44-3.48-1.33c-0.91-0.88-1.42-2.09-1.41-3.35c-0.01-1.32,0.53-2.58,1.49-3.48
			c0.94-0.84,2.16-1.29,3.42-1.24c0.78-0.01,1.56,0.16,2.27,0.49h0.06v2.79l-0.16-0.12c-0.5-0.42-1.14-0.65-1.79-0.64
			c-0.57-0.02-1.13,0.2-1.55,0.59c-0.42,0.41-0.64,0.98-0.63,1.56c-0.01,0.55,0.19,1.08,0.57,1.48c0.43,0.45,1.03,0.7,1.65,0.7
			c0.64-0.01,1.26-0.24,1.75-0.66l0.16-0.13v2.77l0,0c-0.72,0.38-1.53,0.56-2.34,0.52L100.56,50.55z M113.9,50.25h-3v-4.86
			l-3.61,4.81h-2.79v-8.81h3v4.74l3.6-4.74h2.79L113.9,50.25z"/>
	</g>
	<path id="M" class="st1" d="M36.32,16.92c-4.8,0.56-6.14,5.54-9.75,9.84c-4.83,5.74-12,2.79-12,2.79c4.83-0.6,6.21-5.62,9.91-9.9
		C29.4,14,36.32,16.92,36.32,16.92z M18.93,25.34c0,0,6-4.77,3.42-11.8c-2-5.3-5.71-9.06-3.72-13.48c0,0-5.94,4.84-3.47,11.8
		C17.05,17.18,20.93,20.92,18.93,25.34z M18.59,24.34c0,0,0.57-7.73-6.07-10.67C7.34,11.37,1.89,11.58,0,7.1
		c0,0-0.74,7.69,6.31,10.66c5.24,2.24,10.41,2.09,12.28,6.57V24.34z M10.69,37.34h13.48L27.32,31H10.69L10.69,37.34z M12.84,55.97
		H14l7.74-17.78h-8.9V55.97z"/>
</g>
</svg>
