<?xml version="1.0" encoding="UTF-8"?>
<!-- Generator: Adobe Illustrator 24.2.1, SVG Export Plug-In . SVG Version: 6.00 Build 0)  -->
<svg version="1.1" id="Layer_1" xmlns="http://www.w3.org/2000/svg" xmlns:xlink="http://www.w3.org/1999/xlink" x="0px" y="0px" viewBox="0 0 114.3 56" style="enable-background:new 0 0 114.3 56;" xml:space="preserve">
<style type="text/css">
	.st0{fill:#5C666F;}
	.st1{fill:#EA6903;}
</style>
<g id="turkmen_ru">
	<g id="Turkmen-RU_RGB">
		<path class="st0" d="M42.42,30.81h-3.28v-13h4.72c1.26-0.08,2.51,0.3,3.5,1.08c0.9,0.81,1.38,1.99,1.31,3.2    c0.05,1.15-0.37,2.26-1.15,3.1c-0.93,0.84-2.16,1.26-3.41,1.17h-1.69V30.81z M42.42,23.66h0.93c0.54,0.04,1.08-0.11,1.52-0.44    c0.29-0.31,0.45-0.73,0.44-1.16c0.02-0.42-0.14-0.84-0.44-1.14c-0.45-0.34-1.02-0.5-1.58-0.44h-0.87V23.66z"/>
		<path class="st0" d="M53.75,31.1c-1.26,0.07-2.49-0.42-3.35-1.34c-0.86-0.88-1.33-2.06-1.31-3.29c-0.02-1.31,0.48-2.59,1.39-3.53    c0.84-0.8,1.96-1.23,3.12-1.21c0.96-0.04,1.89,0.33,2.58,1V22h3.09v8.79h-3.09v-0.75C55.58,30.75,54.68,31.14,53.75,31.1z     M52.86,25L52.86,25c-0.39,0.38-0.61,0.91-0.6,1.45c-0.02,0.53,0.18,1.04,0.54,1.43c0.42,0.4,0.98,0.63,1.56,0.62    c1.1,0,2-0.89,2-2c0-0.02,0-0.03,0-0.05c0.01-0.55-0.21-1.08-0.6-1.47c-0.41-0.35-0.92-0.54-1.46-0.55    C53.76,24.43,53.25,24.63,52.86,25z"/>
		<path class="st0" d="M71.52,33.22h-2.77v-2.41h-5.66v2.41h-2.78v-4.77h0.13c0.41-0.04,0.8-0.21,1.11-0.49    c0.58-0.68,0.84-1.59,0.71-2.48V22h8v6.41h1.28L71.52,33.22z M64.34,28.43h2.81v-4h-2v1.48c0.02,0.54-0.05,1.09-0.2,1.61    C64.81,27.86,64.61,28.17,64.34,28.43z"/>
		<path class="st0" d="M82.2,30.81h-3.09v-4.66l-3.49,4.66H72.8V22h3.09v4.59L79.38,22h2.82V30.81z"/>
		<path class="st0" d="M88.39,31.1c-1.43,0.04-2.83-0.46-3.9-1.41c-1.79-1.81-1.79-4.73,0-6.54c2.26-1.89,5.54-1.89,7.8,0    c1.79,1.81,1.79,4.73,0,6.54l0,0C91.22,30.64,89.82,31.14,88.39,31.1z M86.91,24.91c-0.79,0.84-0.79,2.16,0,3    c0.4,0.38,0.94,0.59,1.5,0.57c1.15-0.03,2.05-0.99,2.02-2.14s-0.99-2.05-2.14-2.02c-0.52,0.01-1.01,0.22-1.38,0.58V24.91z"/>
		<path class="st0" d="M51.21,49.72h-3.42l-1-2.41H42.1l-1,2.41h-3.41L43,36.7h3v0.09L51.21,49.72z M43.08,44.78h2.81L44.5,41    L43.08,44.78z"/>
		<path class="st0" d="M55.7,50c-0.82,0.02-1.64-0.12-2.42-0.4c-0.58-0.21-1.12-0.52-1.6-0.92l-0.1-0.08l1.34-2l0.12,0.11    c0.3,0.26,0.64,0.48,1,0.66c0.41,0.17,0.85,0.25,1.29,0.26c0.32,0.01,0.65-0.06,0.94-0.2c0.2-0.09,0.33-0.3,0.32-0.52    c0-0.21-0.13-0.39-0.33-0.45c-0.31-0.1-0.63-0.14-0.95-0.14h-1.15v-2.19h0.94c0.34,0,0.68-0.04,1-0.14    c0.19-0.06,0.33-0.24,0.33-0.45c0-0.08,0-0.29-0.35-0.42c-0.26-0.1-0.54-0.15-0.82-0.14c-0.38-0.01-0.75,0.07-1.09,0.22    c-0.33,0.12-0.63,0.3-0.9,0.53l-0.13,0.1l-1.22-2.09l0.11-0.07c0.47-0.26,0.96-0.49,1.46-0.67c0.67-0.22,1.38-0.33,2.09-0.32    c1.08-0.05,2.14,0.27,3,0.92c0.46,0.43,0.71,1.04,0.69,1.67c0.04,0.57-0.17,1.14-0.57,1.55c-0.13,0.14-0.28,0.25-0.45,0.35    c0.33,0.12,0.62,0.31,0.88,0.54c0.42,0.39,0.65,0.94,0.62,1.51c0.01,0.71-0.28,1.39-0.8,1.88C58.03,49.82,56.86,50.15,55.7,50z"/>
		<path class="st0" d="M65.23,50c-1.26,0.07-2.49-0.43-3.36-1.35c-0.85-0.88-1.32-2.06-1.3-3.28c-0.01-1.32,0.5-2.59,1.43-3.53    c0.84-0.8,1.96-1.23,3.12-1.21c0.96-0.03,1.9,0.33,2.59,1v-0.71h3.08v8.8h-3.13V49C67.05,49.69,66.15,50.06,65.23,50z     M64.33,43.84L64.33,43.84c-0.77,0.81-0.77,2.07,0,2.88c0.41,0.41,0.97,0.63,1.55,0.63c0.51,0,1-0.2,1.36-0.55    c0.83-0.81,0.84-2.14,0.03-2.97c-0.01-0.01-0.02-0.02-0.03-0.03c-0.41-0.36-0.93-0.56-1.47-0.56    C65.23,43.25,64.72,43.47,64.33,43.84L64.33,43.84z"/>
		<path class="st0" d="M77.19,49.72h-3.08v-6.3h-2.34v-2.5h7.76v2.5h-2.34V49.72z"/>
		<path class="st0" d="M80.66,49.83c-0.38,0-0.76-0.04-1.13-0.13h-0.1v-2.5h0.17c0.41,0.14,0.87,0.07,1.21-0.2    c0.24-0.38,0.35-0.82,0.31-1.26v-4.82h8v8.8h-3.07v-6.3h-2v2.47c0.09,1.08-0.23,2.15-0.89,3C82.51,49.56,81.59,49.9,80.66,49.83z"/>
		<path class="st0" d="M102.69,49.72h-3v-8.8h3V49.72z M95.69,49.72H90.9v-8.8H94v2.92h1.78c0.9-0.06,1.79,0.25,2.46,0.85    c0.52,0.53,0.79,1.26,0.76,2c0.05,0.82-0.24,1.62-0.82,2.2c-0.69,0.6-1.59,0.9-2.5,0.83H95.69z M94,47.49h1    c0.27,0.03,0.54-0.04,0.77-0.19c0.15-0.14,0.23-0.34,0.23-0.55c0.01-0.19-0.07-0.38-0.22-0.5c-0.23-0.13-0.49-0.19-0.76-0.18H94    V47.49z"/>
		<path class="st0" d="M114.3,49.72h-4l-2.76-3.52v3.52h-3.08v-8.8h3.08v3.14l2.64-3.14h3.88L110.2,45L114.3,49.72z"/>
	</g>
	<path id="M" class="st1" d="M36.32,16.92c-4.8,0.56-6.14,5.54-9.75,9.84c-4.83,5.74-12,2.79-12,2.79c4.83-0.6,6.21-5.62,9.91-9.9   C29.4,14,36.32,16.92,36.32,16.92z M18.93,25.34c0,0,6-4.77,3.42-11.8c-2-5.3-5.71-9.06-3.72-13.48c0,0-5.94,4.84-3.47,11.8   C17.05,17.18,20.93,20.92,18.93,25.34z M18.59,24.34c0,0,0.57-7.73-6.07-10.67C7.34,11.37,1.89,11.58,0,7.1   c0,0-0.74,7.69,6.31,10.66c5.24,2.24,10.41,2.09,12.28,6.57V24.34z M10.69,37.34h13.48L27.32,31H10.69L10.69,37.34z M12.84,55.97   H14l7.74-17.78h-8.9V55.97z"/>
</g>
</svg>