<?xml version="1.0" encoding="UTF-8"?><svg id="Layer_1" xmlns="http://www.w3.org/2000/svg" viewBox="0 0 188 130"><defs><style>.cls-1{fill:#ea6903;}.cls-2{fill:#5c666f;}</style></defs><g id="color-2"><g><path class="cls-2" d="M18.33,80.94l-2.39,.89-.94-18.7,3.33-1.36v19.17Zm12.69-4.76c0,1.8-.55,3.21-1.65,4.21-1.1,.88-2.5,1.32-4.21,1.32-2.43,0-4.14-.66-5.12-1.99l1.48-2.92c.48,.38,.96,.66,1.44,.85,.48,.19,.96,.28,1.45,.28,.64,0,1.18-.01,1.62-.03,.44-.02,.77-.05,.98-.1,.55-.12,.97-.31,1.26-.58,.29-.27,.43-.6,.43-1.01,0-.53-.43-1.22-1.29-2.07-.48-.52-1.01-.99-1.59-1.43-.58-.44-1.24-.85-1.98-1.23l1.53-3.66c3.76,2.42,5.65,5.2,5.65,8.35Zm12.34,5.18h-.63c-.38,0-.73-.05-1.06-.14s-.6-.22-.81-.39c-.09,.93-.36,1.82-.81,2.66-.45,.84-1.08,1.67-1.9,2.47-.71,.7-1.49,1.31-2.33,1.84s-1.77,.98-2.76,1.37l-2.7-1.86c.79-.34,1.59-.76,2.39-1.24,.8-.48,1.6-1.02,2.39-1.6,1.07-.79,1.87-1.53,2.42-2.21,.54-.68,.81-1.28,.81-1.81,0-.64-.57-1.72-1.71-3.24l2.55-2.8c.38,.62,.71,1.14,1.01,1.56,.3,.42,.56,.73,.78,.93,.12,.1,.23,.2,.35,.28,.12,.08,.25,.15,.41,.21,.15,.06,.34,.1,.55,.13,.21,.03,.48,.04,.8,.04h.25v3.81Zm8.36-5.75c0,3.83-2.25,5.75-6.75,5.75h-2.28v-3.81h4.01c.84,0,1.47-.14,1.9-.41s.66-.69,.7-1.26c-.21,.23-.5,.4-.87,.5-.37,.1-.85,.16-1.42,.16-2.04,0-3.05-.99-3.05-2.97,0-.3,.04-.64,.13-1.02,.09-.38,.21-.76,.37-1.15,.16-.39,.35-.77,.57-1.13,.22-.37,.46-.69,.73-.98,.27-.29,.55-.52,.86-.69s.62-.26,.93-.26c.63,0,1.22,.25,1.76,.74s1.01,1.19,1.41,2.11c.32,.73,.57,1.48,.75,2.24s.27,1.49,.27,2.19Zm-2.69-11.61l-2.12,2.87-2.88-1.99,2.13-2.92,2.87,2.04Zm-1.78,9.68c.71,0,1.15-.24,1.33-.71-.06-.18-.14-.36-.24-.54-.1-.18-.21-.34-.34-.48-.12-.14-.26-.26-.4-.34-.14-.09-.28-.13-.43-.13-.11,0-.22,.03-.34,.1-.12,.07-.22,.16-.32,.26-.1,.11-.18,.22-.25,.35-.07,.13-.1,.24-.1,.36,0,.75,.36,1.12,1.09,1.12Zm23.53,7.68h-2.22c-.19,.86-.53,1.68-1.01,2.46-.48,.78-1.11,1.54-1.88,2.28h.01c-1.33,1.4-2.9,2.45-4.68,3.14l-2.37-2.25c.76-.32,1.52-.69,2.27-1.12s1.48-.89,2.17-1.4c.73-.56,1.34-1.1,1.83-1.63,.5-.53,.83-1,1.01-1.43-.95,0-1.75-.08-2.4-.2s-1.18-.33-1.58-.62c-.4-.29-.7-.66-.87-1.12s-.26-1.03-.26-1.71c0-.51,.07-1.03,.22-1.57,.15-.54,.35-1.07,.62-1.6,.35-.69,.75-1.22,1.18-1.58,.44-.36,.93-.54,1.48-.54s1.04,.12,1.52,.37,.91,.6,1.29,1.04c.38,.44,.71,.98,.96,1.6,.26,.62,.43,1.31,.53,2.06h2.17v3.81Zm-6.19-3.58c.22,0,.45-.01,.69-.04,.24-.03,.49-.07,.75-.14-.03-.24-.1-.48-.2-.71s-.23-.44-.38-.63c-.15-.19-.32-.33-.51-.45s-.4-.17-.61-.17c-.13,0-.27,.04-.41,.12-.14,.08-.27,.19-.39,.31-.12,.12-.22,.26-.3,.41-.08,.15-.12,.28-.12,.4,0,.59,.5,.89,1.49,.89Zm11.14,7.47l-1.58,2.34-2.08-1.42c-.17,.26-.35,.53-.55,.83-.2,.29-.39,.57-.58,.84l-2.49-1.74,1.65-2.25,2.03,1.33c.17-.26,.36-.53,.55-.8,.19-.28,.38-.54,.55-.79l2.49,1.67Zm.6-9.14c0,.81-.12,1.54-.37,2.18s-.61,1.2-1.08,1.65c-.48,.45-1.06,.8-1.76,1.05s-1.49,.37-2.39,.37h-.63v-3.81h.25c.7,0,1.28-.02,1.73-.05,.45-.03,.81-.08,1.08-.15,.26-.06,.44-.14,.54-.24s.15-.21,.15-.34c0-.19-.06-.4-.18-.63-.12-.23-.29-.48-.51-.77l-1.04-1.38,2.04-3.1c1.44,1.46,2.15,3.2,2.15,5.22Zm12.69,.06c0,1.8-.55,3.21-1.65,4.21-1.1,.88-2.5,1.32-4.21,1.32-2.43,0-4.14-.66-5.12-1.99l1.48-2.92c.48,.38,.96,.66,1.44,.85,.48,.19,.96,.28,1.45,.28,.64,0,1.18-.01,1.62-.03,.44-.02,.77-.05,.98-.1,.55-.12,.97-.31,1.26-.58,.29-.27,.43-.6,.43-1.01,0-.53-.43-1.22-1.29-2.07-.48-.52-1.01-.99-1.59-1.43-.58-.44-1.24-.85-1.98-1.23l1.53-3.66c3.76,2.42,5.65,5.2,5.65,8.35Zm6.28,4.76l-2.39,.89-.94-18.7,3.33-1.36v19.17Zm10.88-1.38c0,2.09-1.01,4.11-3.03,6.05-.8,.77-1.66,1.44-2.57,2.03-.91,.59-1.87,1.1-2.89,1.54l-2.54-2.07c1.74-.87,3.35-1.87,4.84-3,2.21-1.61,3.32-3,3.32-4.16,0-.28-.06-.56-.18-.84s-.28-.57-.46-.86c-.19-.29-.39-.58-.62-.86-.23-.28-.44-.56-.64-.83l2.47-3.01c.81,1.12,1.35,2.02,1.63,2.69h-.01c.46,.89,.69,2,.69,3.32Z"/><path id="New_Symbol" class="cls-1" d="M172.61,45.16c-8.74,1-11.19,9.91-17.76,17.61-8.79,10.28-21.81,5-21.81,5,8.79-1.08,11.31-10.05,18.04-17.72,8.93-10.16,21.53-4.89,21.53-4.89Zm-31.66,15.08s10.93-8.54,6.22-21.12c-3.55-9.49-10.4-16.21-6.77-24.13,0,0-10.82,8.66-6.31,21.12,3.45,9.53,10.5,16.21,6.87,24.13Zm-.63-1.81s1.05-13.84-11.05-19.09c-9.44-4.1-19.36-3.72-22.76-11.73,0,0-1.35,13.75,11.49,19.08,9.51,3.94,18.92,3.74,22.32,11.75Zm-14.39,23.23h24.56l5.73-11.37h-30.28v11.37Zm3.91,33.34h2.07l14.09-31.81h-16.16v31.81Z"/></g></g></svg>