<?xml version="1.0" encoding="utf-8"?>
<!-- Generator: Adobe Illustrator 26.5.0, SVG Export Plug-In . SVG Version: 6.00 Build 0)  -->
<svg version="1.1" id="Layer_1" xmlns="http://www.w3.org/2000/svg" xmlns:xlink="http://www.w3.org/1999/xlink" x="0px" y="0px"
	 viewBox="0 0 190 130" style="enable-background:new 0 0 190 130;" xml:space="preserve">
<style type="text/css">
	.st0{fill:#5C666F;}
	.st1{fill:#EA6903;}
</style>
<g id="Primary">
	<g id="color">
		<g>
			<path class="st0" d="M84.7,81.7h-4.1V64.9h6.1c1.3,0,3.1,0.2,4.5,1.4c1.1,1,1.7,2.3,1.7,4.1c0,1.6-0.5,3-1.5,4
				c-1.3,1.3-3,1.5-4.4,1.5h-2.2C84.7,75.9,84.7,81.7,84.7,81.7z M84.7,72.5h1.3c0.4,0,1.4,0,2-0.6c0.4-0.4,0.6-0.9,0.6-1.5
				s-0.2-1.2-0.6-1.5c-0.6-0.5-1.4-0.6-2.1-0.6h-1.2C84.7,68.3,84.7,72.5,84.7,72.5z M99.1,82c-1.8,0-3.2-0.5-4.3-1.7
				c-1.1-1.2-1.7-2.6-1.7-4.2c0-1.8,0.7-3.4,1.8-4.5c1-1,2.4-1.5,4-1.5c1,0,2.4,0.2,3.4,1.4v-1h3.9v11.3h-3.9v-1.1
				C101.6,81.5,100.5,82,99.1,82z M99.8,73.3c-0.7,0-1.4,0.3-1.9,0.8c-0.4,0.3-0.8,1-0.8,1.9s0.4,1.5,0.7,1.9
				c0.5,0.5,1.3,0.8,2.1,0.8c0.7,0,1.3-0.3,1.8-0.7c0.4-0.4,0.8-1,0.8-2c0-0.8-0.3-1.5-0.8-1.9C101.2,73.5,100.4,73.3,99.8,73.3
				L99.8,73.3z M122.2,84.8h-3.5v-3.1h-7.4v3.1h-3.5v-6.1h0.1c0.6-0.1,1.1-0.3,1.5-0.7c0.9-0.8,0.9-1.9,0.9-3.2v-4.4h10.2v8.3h1.7
				L122.2,84.8L122.2,84.8z M112.8,78.7h3.8v-5.3h-2.8v2c0,1.1-0.2,1.7-0.3,2.1C113.5,77.7,113.3,78.2,112.8,78.7z M135.7,81.7h-3.9
				v-6.2l-4.6,6.2h-3.6V70.4h3.9v6.1l4.6-6.1h3.6C135.7,70.4,135.7,81.7,135.7,81.7z M144.1,82c-2,0-3.9-0.7-5.1-1.8
				c-1.1-1.1-1.7-2.6-1.7-4.2s0.6-3.1,1.7-4.2c1.2-1.2,3-1.8,5.1-1.8s3.9,0.7,5.1,1.8c1.1,1.1,1.7,2.6,1.7,4.2s-0.6,3.1-1.7,4.2
				C148,81.4,146.1,82,144.1,82z M144.1,73.3c-0.8,0-1.5,0.2-2,0.8c-0.5,0.5-0.8,1.2-0.8,2s0.3,1.5,0.8,2c0.5,0.5,1.2,0.8,2,0.8
				s1.4-0.2,1.9-0.8c0.5-0.5,0.8-1.2,0.8-2s-0.3-1.5-0.8-2C145.6,73.5,144.9,73.3,144.1,73.3L144.1,73.3z M96,106h-4.3l-1.3-3.1
				h-6.2l-1.3,3.1h-4.3l0.1-0.2l6.8-16.6h3.7L96,106L96,106z M85.4,99.7h3.8l-1.9-5.1L85.4,99.7z M101.9,106.3
				c-1.2,0-2.2-0.2-3.1-0.5c-1-0.4-1.7-0.9-2.1-1.2l-0.1-0.1l1.7-2.6l0.1,0.1c0.4,0.3,0.9,0.7,1.4,0.9c0.5,0.2,1.2,0.3,1.7,0.3
				c0.4,0,0.9-0.1,1.2-0.3c0.3-0.2,0.4-0.4,0.4-0.7c0-0.3-0.1-0.5-0.5-0.6c-0.3-0.1-0.9-0.2-1.3-0.2h-1.5v-2.7h1.2
				c0.3,0,1-0.1,1.3-0.2c0.4-0.2,0.5-0.5,0.5-0.6c0-0.1-0.1-0.4-0.5-0.6c-0.3-0.1-0.7-0.2-1.1-0.2c-0.5,0-0.9,0.1-1.4,0.3
				c-0.5,0.2-0.8,0.4-1.2,0.7l-0.1,0.1L97,95.7l0.1-0.1c0.5-0.3,1.2-0.7,1.9-0.9c0.8-0.3,1.7-0.4,2.7-0.4s2.8,0.2,3.9,1.2
				c0.6,0.6,0.9,1.2,0.9,2.1c0,0.6-0.1,1.3-0.7,2c-0.2,0.2-0.4,0.4-0.7,0.5c0.7,0.2,1.2,0.6,1.2,0.7c0.5,0.5,0.8,1.1,0.8,1.9
				c0,0.9-0.3,1.7-1,2.4C105.2,106,103.9,106.3,101.9,106.3L101.9,106.3z M114.4,106.3c-1.8,0-3.2-0.5-4.3-1.7
				c-1.1-1.2-1.7-2.6-1.7-4.2c0-1.8,0.7-3.4,1.8-4.5c1-1,2.4-1.5,4-1.5c1,0,2.4,0.2,3.4,1.4v-1h3.9V106h-3.9v-1.1
				C116.8,105.8,115.7,106.3,114.4,106.3z M115.1,97.6c-0.7,0-1.4,0.3-1.9,0.8c-0.4,0.4-0.8,1-0.8,1.9s0.4,1.5,0.7,1.9
				c0.5,0.5,1.3,0.8,2.1,0.8c0.7,0,1.3-0.3,1.8-0.7c0.4-0.4,0.8-1,0.8-2c0-0.8-0.3-1.5-0.8-1.9C116.4,97.8,115.6,97.6,115.1,97.6z
				 M129.4,106h-3.9v-8.2h-3v-3.1h9.9v3.1h-3V106z M140.4,106h-3.9v-8.2h-3v-3.1h9.9v3.1h-3L140.4,106L140.4,106z M159.6,106h-3.8
				V94.7h3.8V106z M150.6,106h-6.1V94.7h3.9v3.8h2.4c1.8,0,2.7,0.7,3.1,1.1c0.6,0.6,1,1.5,1,2.6c0,1.2-0.3,2.1-1.1,2.8
				C152.9,105.9,151.7,106,150.6,106L150.6,106z M148.4,103.2h1.4c0.3,0,0.7,0,1-0.3c0.2-0.2,0.3-0.5,0.3-0.8c0-0.4-0.2-0.6-0.3-0.7
				c-0.3-0.2-0.8-0.2-1-0.2h-1.4V103.2z M174,106h-5l0-0.1l-3.6-4.6v4.7h-3.9V94.7h3.9v4.2l3.5-4.2h4.9l-4.9,5.2L174,106L174,106z"
				/>
			<path id="New_Symbol" class="st1" d="M80.2,45.2c-8.6,1-11,9.9-17.5,17.6c-8.7,10.3-21.5,5-21.5,5c8.7-1.1,11.2-10,17.8-17.7
				C67.8,39.9,80.2,45.2,80.2,45.2z M49,60.2c0,0,10.8-8.5,6.1-21.1c-3.5-9.5-10.3-16.2-6.7-24.1c0,0-10.7,8.7-6.2,21.1
				C45.6,45.6,52.6,52.3,49,60.2z M48.4,58.4c0,0,1-13.8-10.9-19.1c-9.3-4.1-19.1-3.7-22.5-11.7c0,0-1.3,13.8,11.3,19.1
				C35.8,50.6,45,50.4,48.4,58.4L48.4,58.4z M34.2,81.7h24.2l5.7-11.4H34.2C34.2,70.3,34.2,81.7,34.2,81.7z M38.1,115h2L54,83.2
				H38.1L38.1,115L38.1,115z"/>
		</g>
	</g>
</g>
</svg>
