<?xml version="1.0" encoding="UTF-8"?>
<!-- Generator: Adobe Illustrator 24.2.1, SVG Export Plug-In . SVG Version: 6.00 Build 0)  -->
<svg version="1.1" id="Layer_1" xmlns="http://www.w3.org/2000/svg" xmlns:xlink="http://www.w3.org/1999/xlink" x="0px" y="0px" viewBox="0 0 114.55 56" style="enable-background:new 0 0 114.55 56;" xml:space="preserve">
<style type="text/css">
	.st0{fill:#5C666F;}
	.st1{fill:#EA6903;}
</style>
<g id="belarussian">
	<g id="Belarussian_RGB">
		<path class="st0" d="M44.19,17.88h-4.74V31h3.23v-4.56h1.76c1.26,0.1,2.49-0.33,3.43-1.17c0.78-0.84,1.18-1.96,1.13-3.1    c0.06-1.2-0.41-2.36-1.3-3.17C46.71,18.21,45.46,17.81,44.19,17.88z M45.25,23.36c-0.46,0.34-1.02,0.49-1.58,0.45h-1V20.5h0.93    c0.58-0.06,1.17,0.11,1.64,0.46c0.31,0.32,0.48,0.75,0.46,1.19C45.71,22.6,45.55,23.03,45.25,23.36z"/>
		<path class="st0" d="M90.76,31.21c1,0.05,1.99-0.18,2.86-0.66c0.84-0.51,1.46-1.31,1.76-2.24l0.11-0.47h-3v0.09    c-0.12,0.27-0.32,0.49-0.56,0.65c-0.33,0.17-0.7,0.25-1.07,0.24c-0.5,0.03-1-0.15-1.36-0.5c-0.29-0.35-0.47-0.78-0.5-1.23h6.56    v-0.43c0.08-1.32-0.39-2.62-1.28-3.6c-2.03-1.78-5.05-1.81-7.11-0.06c-0.9,0.94-1.4,2.2-1.39,3.5c-0.09,2.52,1.87,4.63,4.39,4.73    c0.21,0.01,0.41,0,0.61-0.02H90.76z M89.5,24.46c0.36-0.35,0.84-0.54,1.34-0.52c0.45-0.02,0.9,0.14,1.24,0.44    c0.22,0.21,0.38,0.47,0.48,0.76h-3.47C89.17,24.89,89.31,24.65,89.5,24.46z"/>
		<ellipse class="st0" cx="92.88" cy="19.27" rx="1.63" ry="1.6"/>
		<path class="st0" d="M63.32,31h5.83v2.4h2.72v-4.75h-1.3v-6.5h-8v3.44c0.14,0.91-0.13,1.84-0.74,2.54    c-0.32,0.29-0.72,0.48-1.15,0.52H60.6v4.75h2.71L63.32,31z M65.18,27.66c0.15-0.52,0.22-1.07,0.2-1.61v-1.58h2.16v4.18h-3    c0.29-0.29,0.5-0.64,0.64-1.02V27.66z"/>
		<path class="st0" d="M45.13,38.51c-1.85-0.04-3.63,0.64-5,1.88c-2.73,2.67-2.78,7.05-0.1,9.79c0.03,0.04,0.07,0.07,0.1,0.1    c1.43,1.3,3.31,1.98,5.24,1.9c1.02,0.01,2.03-0.23,2.94-0.71h0.06v-3.73l-0.16,0.16c-0.78,0.82-1.86,1.29-3,1.3    c-1.03,0.03-2.02-0.35-2.77-1.05c-0.75-0.73-1.15-1.74-1.12-2.78c-0.01-1.09,0.43-2.15,1.21-2.91c0.71-0.67,1.65-1.03,2.62-1    c1.14,0.01,2.23,0.49,3,1.34l0.17,0.17v-3.71h-0.06C47.28,38.8,46.21,38.55,45.13,38.51z"/>
		<path class="st0" d="M88.66,20.87c0.88-0.03,1.57-0.78,1.54-1.66c-0.03-0.88-0.78-1.57-1.66-1.54C87.68,17.7,87,18.41,87,19.27    c0,0.88,0.72,1.6,1.6,1.6C88.62,20.87,88.64,20.87,88.66,20.87z"/>
		<path class="st0" d="M102.73,43.07h-8v3.44c0.14,0.91-0.13,1.84-0.73,2.54c-0.32,0.29-0.72,0.48-1.15,0.52h-0.09v4.74h2.72v-2.42    h5.83v2.43H104v-4.75h-1.3L102.73,43.07z M99.73,49.57h-3c0.29-0.28,0.51-0.62,0.64-1c0.15-0.52,0.22-1.07,0.2-1.61v-1.57h2.13    L99.73,49.57z"/>
		<path class="st0" d="M87.22,42.78c-1.47-0.06-2.9,0.45-4,1.42c-1.81,1.81-1.81,4.75,0,6.56c2.3,1.89,5.61,1.89,7.91,0    c1.81-1.81,1.81-4.75,0-6.56C90.05,43.25,88.66,42.74,87.22,42.78z M88.77,49c-0.41,0.39-0.96,0.61-1.53,0.59    c-0.58,0.02-1.14-0.19-1.56-0.59c-0.43-0.4-0.66-0.97-0.63-1.56c-0.03-0.58,0.2-1.15,0.63-1.55c0.87-0.8,2.22-0.8,3.09,0    c0.43,0.4,0.66,0.97,0.63,1.55C89.43,48.03,89.2,48.6,88.77,49z"/>
		<path class="st0" d="M111.52,43.07v0.8c-0.69-0.73-1.66-1.13-2.67-1.09c-1.16-0.02-2.29,0.42-3.13,1.22    c-0.91,0.95-1.41,2.23-1.39,3.55c-0.02,1.23,0.45,2.41,1.31,3.29c0.87,0.92,2.1,1.41,3.36,1.34c0.98,0.04,1.92-0.4,2.52-1.18v0.85    h3v-8.78H111.52z M111,49c-0.38,0.37-0.88,0.57-1.41,0.57c-0.6,0.01-1.18-0.23-1.61-0.65c-0.38-0.4-0.58-0.93-0.57-1.48    c-0.01-0.57,0.22-1.11,0.63-1.5c0.4-0.38,0.94-0.59,1.49-0.59c0.56,0,1.09,0.21,1.51,0.58c0.84,0.85,0.83,2.22-0.02,3.05    C111.01,48.99,111.01,48.99,111,49z"/>
		<rect x="81.86" y="22.15" class="st0" width="2.99" height="8.81"/>
		<path class="st0" d="M53.92,31.26c0.97,0.04,1.9-0.38,2.51-1.14V31h3v-8.85h-3V23c-0.69-0.73-1.66-1.13-2.67-1.09    c-1.16-0.02-2.29,0.41-3.13,1.21c-0.91,0.95-1.41,2.23-1.39,3.55c-0.02,1.23,0.45,2.41,1.31,3.29    C51.43,30.87,52.66,31.34,53.92,31.26z M53,25c0.4-0.38,0.94-0.59,1.49-0.59c0.56,0.01,1.09,0.22,1.51,0.59    c0.41,0.39,0.64,0.95,0.62,1.52c0.01,0.59-0.23,1.16-0.66,1.56c-0.38,0.36-0.88,0.57-1.41,0.57c-0.61,0.01-1.2-0.22-1.63-0.65    c-0.38-0.4-0.58-0.93-0.57-1.48C52.34,25.94,52.57,25.39,53,25z"/>
		<path class="st0" d="M66.17,43.87c-0.69-0.73-1.66-1.13-2.66-1.09c-1.16-0.02-2.29,0.42-3.13,1.22c-0.91,0.95-1.4,2.22-1.38,3.54    c-0.02,1.23,0.45,2.41,1.31,3.29c0.87,0.92,2.1,1.42,3.36,1.35c0.98,0.04,1.91-0.4,2.5-1.18v0.85h3v-8.78h-3V43.87z M65.69,49    c-0.38,0.36-0.88,0.57-1.41,0.57c-0.6,0.01-1.18-0.23-1.61-0.65c-0.81-0.84-0.81-2.16,0-3c0.41-0.38,0.94-0.59,1.5-0.59    c0.56,0,1.09,0.21,1.51,0.58c0.41,0.39,0.64,0.94,0.62,1.51C66.33,48.01,66.11,48.58,65.69,49z"/>
		<path class="st0" d="M56.5,47.24c0.19-0.09,0.36-0.21,0.5-0.37c0.39-0.38,0.59-0.92,0.56-1.46c0.03-0.67-0.24-1.31-0.74-1.75    c-0.66-0.45-1.45-0.66-2.25-0.59h-4.82v8.82h5.47c0.83,0.04,1.64-0.24,2.26-0.8c0.45-0.46,0.7-1.09,0.68-1.73    c0.02-0.58-0.2-1.13-0.61-1.54C57.25,47.55,56.89,47.36,56.5,47.24z M52.79,45.12h1c0.25-0.01,0.5,0.04,0.73,0.15    c0.15,0.14,0.23,0.33,0.22,0.53c0.02,0.22-0.08,0.43-0.26,0.56c-0.2,0.11-0.42,0.17-0.65,0.16h-1.04V45.12z M54.79,49.63    c-0.23,0.17-0.51,0.24-0.79,0.21h-1.21v-1.55h1.07c0.31-0.03,0.63,0.04,0.9,0.21C54.91,48.62,55,48.81,55,49    c0.02,0.24-0.07,0.47-0.24,0.63L54.79,49.63z"/>
		<path class="st0" d="M76.08,42.8c-1.11-0.05-2.2,0.35-3,1.12c0.1-0.61,0.4-1.17,0.86-1.59c0.64-0.46,1.37-0.78,2.15-0.93    l1.19-0.32c0.79-0.19,1.53-0.56,2.16-1.08c0.61-0.63,0.98-1.45,1.07-2.32v-0.11h-2.67v0.1c-0.01,0.18-0.08,0.35-0.2,0.48    c-0.48,0.35-1.04,0.56-1.63,0.61l-0.7,0.15c-1.2,0.18-2.32,0.72-3.21,1.55c-1.53,1.61-1.76,4.38-1.76,5.89    c-0.1,1.66,0.48,3.29,1.59,4.52c1.01,0.91,2.34,1.38,3.69,1.3c1.4,0.08,2.78-0.41,3.82-1.36c0.95-0.93,1.47-2.2,1.45-3.53    c0.01-1.22-0.47-2.38-1.33-3.24C78.6,43.2,77.36,42.75,76.08,42.8z M77.08,49.05c-0.39,0.35-0.9,0.55-1.42,0.54    c-0.59,0.02-1.16-0.19-1.59-0.59c-0.4-0.4-0.62-0.94-0.62-1.5c0-0.58,0.23-1.14,0.64-1.56c0.86-0.8,2.2-0.8,3.06,0    c0.4,0.38,0.62,0.91,0.63,1.46c0.01,0.63-0.25,1.23-0.72,1.65H77.08z"/>
		<path class="st0" d="M77.89,25.11H76v-3h-3V31h4.79c0.9,0.08,1.8-0.2,2.5-0.78c0.57-0.58,0.87-1.38,0.82-2.2    c0.03-0.74-0.25-1.46-0.76-2C79.68,25.4,78.8,25.07,77.89,25.11z M77.89,28.6c-0.24,0.16-0.53,0.23-0.81,0.2H76v-1.53h1.09    c0.28-0.01,0.55,0.06,0.79,0.2c0.16,0.13,0.25,0.33,0.24,0.54c0.01,0.22-0.06,0.43-0.21,0.59H77.89z"/>
	</g>
	<path id="M" class="st1" d="M36.32,16.92c-4.8,0.56-6.14,5.54-9.75,9.84c-4.83,5.74-12,2.79-12,2.79c4.83-0.6,6.21-5.62,9.91-9.9   C29.4,14,36.32,16.92,36.32,16.92z M18.93,25.34c0,0,6-4.77,3.42-11.8c-2-5.3-5.71-9.06-3.72-13.48c0,0-5.94,4.84-3.47,11.8   C17.05,17.18,20.93,20.92,18.93,25.34z M18.59,24.34c0,0,0.57-7.73-6.07-10.67C7.34,11.37,1.89,11.58,0,7.1   c0,0-0.74,7.69,6.31,10.66c5.24,2.24,10.41,2.09,12.28,6.57V24.34z M10.69,37.34h13.48L27.32,31H10.69L10.69,37.34z M12.84,55.97   H14l7.74-17.78h-8.9V55.97z"/>
</g>
</svg>