<?xml version="1.0" encoding="utf-8"?>
<!-- Generator: Adobe Illustrator 25.2.1, SVG Export Plug-In . SVG Version: 6.00 Build 0)  -->
<svg version="1.1" xmlns="http://www.w3.org/2000/svg" xmlns:xlink="http://www.w3.org/1999/xlink" x="0px" y="0px"
	 viewBox="0 0 122.58 80" style="enable-background:new 0 0 122.58 80;" xml:space="preserve">
<style type="text/css">
	.st0{fill:#5C666F;}
	.st1{fill:#EA6903;}
	.st2{fill:#E76A24;}
	.st3{fill:#5C6770;}
	.st4{display:none;}
	.st5{display:inline;}
	.st6{fill:#FFFFFF;}
	.st7{fill:#E56A24;}
	.st8{fill:#5D6771;}
	.st9{display:none;fill:#5C666F;}
	.st10{display:inline;fill:#5C666F;}
	.st11{fill:#5D6770;}
	.st12{fill:#69737B;}
	.st13{fill:#256A78;}
	.st14{fill:#D12430;}
	.st15{display:inline;fill:#2D1996;}
	.st16{fill:#2D1996;}
	.st17{fill:#E86B24;}
	.st18{fill:none;}
	.st19{opacity:0.7;}
	.st20{fill-rule:evenodd;clip-rule:evenodd;fill:#FFFFFF;}
	.st21{fill-rule:evenodd;clip-rule:evenodd;fill:#EA6903;}
	.st22{fill:#5B6770;}
	.st23{fill-rule:evenodd;clip-rule:evenodd;fill:#5B6770;}
	.st24{fill-rule:evenodd;clip-rule:evenodd;fill:#F7C39A;}
	.st25{clip-path:url(#SVGID_2_);fill-rule:evenodd;clip-rule:evenodd;fill:#FFFFFF;}
	.st26{display:none;fill:#E50E1F;}
	.st27{fill:#020202;}
	.st28{fill:#EE7204;}
	.st29{fill:#080808;}
	.st30{fill:#0A0A0A;}
	.st31{fill:#0B0B0B;}
	.st32{fill:#EF770C;}
	.st33{fill:#0F0F0F;}
	.st34{fill:#0C0C0C;}
	.st35{fill:#060606;}
	.st36{fill:#EF7B14;}
	.st37{fill:#B7B7B7;}
	.st38{fill:#C11D22;}
	.st39{fill:#3A79B7;}
	.st40{fill:#768492;}
	.st41{fill:#FFFFFF;stroke:#FFFFFF;stroke-width:0.25;stroke-miterlimit:10;}
	.st42{fill:#3B79B7;}
	.st43{fill:#363535;}
	.st44{fill:#BED970;}
	.st45{fill:#E1368E;}
	.st46{fill:#E9E751;}
	.st47{fill:#8E499B;}
	.st48{fill:#C1C0C0;}
	.st49{clip-path:url(#SVGID_4_);fill:url(#SVGID_5_);}
	.st50{fill:#334D5D;}
	.st51{fill:#2170B7;}
	.st52{fill:#718B99;}
	.st53{fill:#B62027;}
	.st54{fill:#26A3DD;}
	.st55{clip-path:url(#SVGID_7_);fill:url(#SVGID_8_);}
</style>
<g id="afghan_x5F_da">
</g>
<g id="afghan_x5F_eng">
</g>
<g id="afghan_x5F_pa">
</g>
<g id="armenian">
</g>
<g id="armenian_x5F_ru">
</g>
<g id="azeri">
	<g>
		<path class="st0" d="M64.95,53.46H61.5l-1.01-2.5h-4.97l-1.03,2.5h-3.45l5.52-13.42h2.98l0.02,0.06L64.95,53.46z M56.51,48.43
			h3.06l-1.52-4.07L56.51,48.43z M75.26,53.46h-9.49L70.46,47h-4.38v-2.57h9.68l-4.67,6.46h4.18V53.46z M81.07,53.76
			c-1.47,0-2.53-0.43-3.45-1.38c-0.89-0.93-1.34-2.07-1.34-3.38c0-1.42,0.52-2.75,1.43-3.64c0.81-0.8,1.95-1.24,3.2-1.24
			c0.81,0,1.92,0.2,2.73,1.11v-0.81h3.11v9.04h-3.11v-0.87C83.03,53.36,82.16,53.76,81.07,53.76z M81.63,46.78
			c-0.57,0-1.14,0.23-1.53,0.61c-0.29,0.29-0.64,0.78-0.64,1.54c0,0.75,0.32,1.24,0.58,1.52c0.4,0.42,1.02,0.66,1.65,0.66
			c0.54,0,1.07-0.21,1.45-0.59c0.31-0.29,0.68-0.8,0.68-1.6c0-0.61-0.23-1.18-0.64-1.55C82.72,46.93,82.08,46.78,81.63,46.78z
			 M92.89,53.76c-1.33,0-2.35-0.39-3.2-1.24c-0.94-0.91-1.46-2.2-1.46-3.62c0-1.42,0.52-2.69,1.46-3.56c0.85-0.78,2-1.22,3.23-1.22
			c0.81,0,1.92,0.2,2.74,1.11v-6.43h3.14v14.65h-3.14v-0.88C95.02,53.36,94.08,53.76,92.89,53.76z M93.65,46.78
			c-0.62,0-1.08,0.18-1.51,0.57c-0.31,0.29-0.68,0.8-0.68,1.61c0,0.59,0.25,1.15,0.68,1.55c0.4,0.37,0.94,0.59,1.47,0.59
			c0.58,0,1.19-0.24,1.61-0.63c0.24-0.22,0.64-0.71,0.64-1.51c0-0.61-0.21-1.13-0.63-1.56C94.81,46.98,94.31,46.78,93.65,46.78z
			 M104.09,53.46h-3.11V38.81h3.11V53.46z M109.27,53.46h-3.11v-9.04h3.11V53.46z M121.03,58h-3.11v-5.39
			c-0.71,0.76-1.64,1.14-2.77,1.14c-1.32,0-2.25-0.36-3.12-1.22c-0.97-0.95-1.47-2.17-1.47-3.62c0-1.73,0.75-2.87,1.38-3.52
			c0.84-0.85,1.93-1.28,3.23-1.28c0.73,0,1.8,0.13,2.75,1.18v-0.88h3.11V58z M115.91,46.78c-0.57,0-1.1,0.21-1.51,0.59
			c-0.42,0.39-0.66,0.95-0.66,1.53c0,0.59,0.27,1.23,0.68,1.61c0.39,0.37,0.95,0.59,1.49,0.59c0.59,0,1.17-0.24,1.59-0.65
			c0.39-0.4,0.62-0.95,0.62-1.5c0-0.56-0.25-1.16-0.66-1.56C117.17,47.12,116.66,46.78,115.91,46.78z M63.38,74.91h-4.05l-3.49-5v5
			h-3.31V61.49h4.83c1.84,0,2.92,0.64,3.51,1.18c0.45,0.43,1.21,1.38,1.21,3.03c0,1.16-0.35,2.07-1.08,2.77
			c-0.49,0.46-1.13,0.82-1.78,1L63.38,74.91z M55.84,67.5h0.61c0.57,0,1.3-0.06,1.79-0.55c0.18-0.17,0.48-0.56,0.48-1.22
			c0-0.55-0.2-0.98-0.59-1.27c-0.35-0.26-0.92-0.4-1.66-0.4h-0.63V67.5z M68.06,75.21c-1.47,0-2.53-0.43-3.45-1.38
			c-0.89-0.93-1.34-2.07-1.34-3.38c0-1.42,0.52-2.75,1.43-3.64c0.81-0.8,1.95-1.24,3.2-1.24c0.81,0,1.92,0.2,2.73,1.11v-0.81h3.11
			v9.04h-3.11v-0.87C70.02,74.81,69.15,75.21,68.06,75.21z M68.63,68.23c-0.57,0-1.14,0.23-1.53,0.61
			c-0.29,0.29-0.64,0.78-0.64,1.54c0,0.75,0.32,1.24,0.58,1.52c0.4,0.42,1.02,0.66,1.65,0.66c0.54,0,1.07-0.21,1.45-0.59
			c0.31-0.29,0.68-0.8,0.68-1.6c0-0.61-0.23-1.18-0.64-1.55C69.72,68.38,69.07,68.23,68.63,68.23z M79.69,75.21
			c-1.32,0-2.32-0.39-3.16-1.24c-0.93-0.91-1.44-2.2-1.44-3.62c0-1.42,0.51-2.69,1.45-3.56c0.84-0.78,1.98-1.22,3.2-1.22
			c1.12,0,2.07,0.39,2.71,1.11v-6.43h3.11v14.65h-3.11v-0.88C81.8,74.81,80.87,75.21,79.69,75.21z M80.44,68.23
			c-0.61,0-1.07,0.18-1.49,0.57c-0.31,0.29-0.68,0.8-0.68,1.61c0,0.59,0.25,1.15,0.68,1.55c0.4,0.37,0.93,0.59,1.45,0.59
			c0.57,0,1.18-0.24,1.59-0.63c0.24-0.22,0.64-0.71,0.64-1.51c0-0.61-0.21-1.13-0.62-1.56C81.59,68.43,81.09,68.23,80.44,68.23z
			 M90.9,74.91h-3.11v-9.04h3.11V74.91z M89.34,63.97c-1.01,0-1.8-0.77-1.8-1.76s0.79-1.76,1.8-1.76s1.8,0.77,1.8,1.76
			S90.35,63.97,89.34,63.97z M97.84,75.21c-1.62,0-3.1-0.53-4.05-1.45c-0.88-0.85-1.4-2.11-1.4-3.36c0-1.25,0.52-2.51,1.4-3.36
			c0.95-0.92,2.43-1.45,4.05-1.45c1.62,0,3.1,0.53,4.05,1.45c0.88,0.85,1.4,2.11,1.4,3.36c0,1.25-0.52,2.51-1.4,3.36
			C100.94,74.68,99.46,75.21,97.84,75.21z M97.84,68.19c-0.64,0-1.17,0.2-1.59,0.61c-0.43,0.42-0.64,0.94-0.64,1.59
			c0,0.65,0.21,1.17,0.64,1.6c0.42,0.4,0.96,0.61,1.61,0.61c0.62,0,1.15-0.2,1.57-0.61c0.43-0.42,0.64-0.94,0.64-1.6
			c0-0.65-0.21-1.17-0.64-1.59C99.01,68.39,98.48,68.19,97.84,68.19z M107.85,75.21c-1.52,0-2.76-0.42-3.77-1.29l-0.06-0.06
			l1.34-2.09l0.09,0.07c0.26,0.22,0.65,0.5,0.97,0.64c0.36,0.18,0.77,0.27,1.17,0.27c0.17,0,0.61,0,0.85-0.18
			c0.16-0.12,0.26-0.31,0.26-0.5c0-0.18-0.09-0.32-0.28-0.43c-0.19-0.11-0.46-0.19-0.87-0.31l-0.73-0.22
			c-0.6-0.18-1.13-0.48-1.5-0.84c-0.46-0.47-0.68-1.01-0.68-1.68c0-0.84,0.32-1.59,0.9-2.11c0.67-0.61,1.61-0.92,2.8-0.92
			c1.16,0,2.13,0.24,3.04,0.77l0.09,0.05l-1.26,1.97l-0.08-0.05c-0.31-0.18-0.92-0.48-1.55-0.48c-0.32,0-0.62,0.09-0.76,0.23
			c-0.09,0.09-0.15,0.22-0.15,0.33c0,0.12,0.07,0.22,0.23,0.31c0.13,0.08,0.31,0.13,0.52,0.19c0.1,0.03,0.22,0.06,0.33,0.1
			l0.77,0.24c0.48,0.15,1.04,0.35,1.53,0.79c0.51,0.46,0.74,1,0.74,1.76c0,1.26-0.6,2.04-0.96,2.39
			C109.91,75.09,108.75,75.21,107.85,75.21z M117.76,75.21c-1.7,0-2.94-0.38-3.78-1.18c-0.92-0.86-1.04-1.82-1.04-2.73v-5.43h3.17
			v4.97c0,0.43,0.05,0.98,0.48,1.35c0.31,0.26,0.69,0.39,1.17,0.39c0.48,0,0.91-0.14,1.19-0.39c0.41-0.38,0.46-0.95,0.46-1.35v-4.97
			h3.17v5.25c0,0.97-0.08,1.99-1.06,2.91C120.68,74.82,119.45,75.21,117.76,75.21z"/>
		<path id="New_Symbol_65_" class="st1" d="M52.19,24.13c-6.89,0.8-8.83,7.93-14.01,14.09c-6.93,8.22-17.21,4-17.21,4
			c6.93-0.86,8.92-8.04,14.23-14.17C42.25,19.91,52.19,24.13,52.19,24.13z M27.21,36.19c0,0,8.62-6.83,4.9-16.89
			c-2.8-7.59-8.2-12.97-5.34-19.3c0,0-8.54,6.93-4.98,16.89C24.51,24.51,30.07,29.86,27.21,36.19z M26.71,34.74
			c0,0,0.83-11.07-8.72-15.28c-7.45-3.28-15.28-2.97-17.96-9.38c0,0-1.06,11,9.07,15.26C16.6,28.5,24.03,28.33,26.71,34.74z
			 M15.36,53.33h19.37l4.52-9.09H15.36V53.33z M18.45,80h1.63l11.12-25.45H18.45V80z"/>
	</g>
</g>
<g id="azeri_x5F_ru">
</g>
<g id="balkan">
</g>
<g id="belarussian">
</g>
<g id="bulgarian">
</g>
<g id="crimea_x5F_ru">
</g>
<g id="crimea_x5F_ta">
</g>
<g id="crimea_x5F_ua">
</g>
<g id="donbass_x5F_ru_-_not_full">
</g>
<g id="donbass_x5F_ua_-_not_full">
</g>
<g id="English">
</g>
<g id="georgian">
</g>
<g id="georgian_x5F_ru">
</g>
<g id="kazakh">
</g>
<g id="kazakh_x5F_ru">
</g>
<g id="kosovo">
</g>
<g id="kyrgyz">
</g>
<g id="kyrgyz_x5F_ru">
</g>
<g id="macedonia">
</g>
<g id="moldova">
	<g id="Layer_60">
	</g>
	<g id="Layer_61">
	</g>
	<g id="Layer_62">
	</g>
</g>
<g id="north_x5F_caucasus_x5F_av_-_not_full">
</g>
<g id="north_x5F_caucasus_x5F_ch">
</g>
<g id="north_x5F_caucasus_x5F_ru">
</g>
<g id="pakistan">
</g>
<g id="perssian">
</g>
<g id="perssian_x5F_eng">
</g>
<g id="romanian">
	<g id="Layer_57">
	</g>
	<g id="Layer_59">
	</g>
	<g id="Layer_58">
	</g>
</g>
<g id="russia">
</g>
<g id="Siberia">
</g>
<g id="tajik">
</g>
<g id="tajik_x5F_ru">
</g>
<g id="tatar_x5F_bashkir">
</g>
<g id="tatar_x5F_bashkir_x5F_ru">
</g>
<g id="turkmen">
</g>
<g id="turkmen_x5F_ru">
</g>
<g id="ukrainian">
</g>
<g id="uzbek">
</g>
<g id="uzbek_x5F_ru">
</g>
<g id="Sizdan_Telegram_just_video">
</g>
<g id="Severreal">
</g>
<g id="hungarian">
</g>
<g id="theHUB">
</g>
<g id="Faktograf">
</g>
<g id="logos_-_RU">
</g>
<g id="Mobile">
	<g id="Change_5_">
	</g>
</g>
<g id="Desktop">
</g>
<g id="showcase">
</g>
<g id="logos_-_EN">
</g>
<g id="labels">
</g>
<g id="MArti">
</g>
<g id="Screen">
</g>
<g id="Isolation_Mode">
</g>
<g id="dandalin_voa_logo">
</g>
<g id="Layer_2">
</g>
<g id="logo_x5F_big">
</g>
<g id="marti_x5F_2019">
</g>
</svg>
