<?xml version="1.0" encoding="utf-8"?>
<!-- Generator: Adobe Illustrator 25.2.1, SVG Export Plug-In . SVG Version: 6.00 Build 0)  -->
<svg version="1.1" xmlns="http://www.w3.org/2000/svg" xmlns:xlink="http://www.w3.org/1999/xlink" x="0px" y="0px"
	 viewBox="0 0 109.59 80" style="enable-background:new 0 0 109.59 80;" xml:space="preserve">
<style type="text/css">
	.st0{fill:#5C666F;}
	.st1{fill:#EA6903;}
	.st2{fill:#E76A24;}
	.st3{fill:#5C6770;}
	.st4{display:none;}
	.st5{display:inline;}
	.st6{fill:#FFFFFF;}
	.st7{fill:#E56A24;}
	.st8{fill:#5D6771;}
	.st9{display:none;fill:#5C666F;}
	.st10{display:inline;fill:#5C666F;}
	.st11{fill:#5D6770;}
	.st12{fill:#69737B;}
	.st13{fill:#256A78;}
	.st14{fill:#D12430;}
	.st15{display:inline;fill:#2D1996;}
	.st16{fill:#2D1996;}
	.st17{fill:#E86B24;}
	.st18{fill:none;}
	.st19{opacity:0.7;}
	.st20{fill-rule:evenodd;clip-rule:evenodd;fill:#FFFFFF;}
	.st21{fill-rule:evenodd;clip-rule:evenodd;fill:#EA6903;}
	.st22{fill:#5B6770;}
	.st23{fill-rule:evenodd;clip-rule:evenodd;fill:#5B6770;}
	.st24{fill-rule:evenodd;clip-rule:evenodd;fill:#F7C39A;}
	.st25{clip-path:url(#SVGID_2_);fill-rule:evenodd;clip-rule:evenodd;fill:#FFFFFF;}
	.st26{display:none;fill:#E50E1F;}
	.st27{fill:#020202;}
	.st28{fill:#EE7204;}
	.st29{fill:#080808;}
	.st30{fill:#0A0A0A;}
	.st31{fill:#0B0B0B;}
	.st32{fill:#EF770C;}
	.st33{fill:#0F0F0F;}
	.st34{fill:#0C0C0C;}
	.st35{fill:#060606;}
	.st36{fill:#EF7B14;}
	.st37{fill:#B7B7B7;}
	.st38{fill:#C11D22;}
	.st39{fill:#3A79B7;}
	.st40{fill:#768492;}
	.st41{fill:#FFFFFF;stroke:#FFFFFF;stroke-width:0.25;stroke-miterlimit:10;}
	.st42{fill:#3B79B7;}
	.st43{fill:#363535;}
	.st44{fill:#BED970;}
	.st45{fill:#E1368E;}
	.st46{fill:#E9E751;}
	.st47{fill:#8E499B;}
	.st48{fill:#C1C0C0;}
	.st49{clip-path:url(#SVGID_4_);fill:url(#SVGID_5_);}
	.st50{fill:#334D5D;}
	.st51{fill:#2170B7;}
	.st52{fill:#718B99;}
	.st53{fill:#B62027;}
	.st54{fill:#26A3DD;}
	.st55{clip-path:url(#SVGID_7_);fill:url(#SVGID_8_);}
</style>
<g id="afghan_x5F_da">
</g>
<g id="afghan_x5F_eng">
</g>
<g id="afghan_x5F_pa">
</g>
<g id="armenian">
</g>
<g id="armenian_x5F_ru">
</g>
<g id="azeri">
</g>
<g id="azeri_x5F_ru">
</g>
<g id="balkan">
</g>
<g id="belarussian">
</g>
<g id="bulgarian">
</g>
<g id="crimea_x5F_ru">
</g>
<g id="crimea_x5F_ta">
</g>
<g id="crimea_x5F_ua">
</g>
<g id="donbass_x5F_ru_-_not_full">
</g>
<g id="donbass_x5F_ua_-_not_full">
</g>
<g id="English">
</g>
<g id="georgian">
</g>
<g id="georgian_x5F_ru">
</g>
<g id="kazakh">
</g>
<g id="kazakh_x5F_ru">
</g>
<g id="kosovo">
</g>
<g id="kyrgyz">
</g>
<g id="kyrgyz_x5F_ru">
</g>
<g id="macedonia">
</g>
<g id="moldova">
	<g id="Layer_60">
	</g>
	<g id="Layer_61">
	</g>
	<g id="Layer_62">
	</g>
</g>
<g id="north_x5F_caucasus_x5F_av_-_not_full">
</g>
<g id="north_x5F_caucasus_x5F_ch">
</g>
<g id="north_x5F_caucasus_x5F_ru">
</g>
<g id="pakistan">
</g>
<g id="perssian">
</g>
<g id="perssian_x5F_eng">
</g>
<g id="romanian">
	<g id="Layer_57">
	</g>
	<g id="Layer_59">
	</g>
	<g id="Layer_58">
	</g>
</g>
<g id="russia">
</g>
<g id="Siberia">
</g>
<g id="tajik">
</g>
<g id="tajik_x5F_ru">
	<g>
		<path id="tajik_x5F_ru_1_" class="st0" d="M56.21,53.46H52.9V40.04h4.85c1.08,0,2.47,0.13,3.6,1.11c0.91,0.78,1.35,1.85,1.35,3.28
			c0,1.31-0.4,2.38-1.18,3.18c-1.06,1.06-2.43,1.2-3.51,1.2h-1.8V53.46z M56.21,46.13h1.02c0.33,0,1.11,0,1.61-0.47
			c0.3-0.3,0.47-0.75,0.47-1.24c0-0.5-0.17-0.94-0.47-1.22c-0.44-0.41-1.09-0.47-1.67-0.47h-0.95V46.13z M67.73,53.76
			c-1.47,0-2.53-0.43-3.45-1.38c-0.89-0.93-1.34-2.07-1.34-3.38c0-1.42,0.52-2.75,1.43-3.64c0.81-0.8,1.95-1.24,3.2-1.24
			c0.81,0,1.92,0.2,2.73,1.11v-0.81h3.11v9.04H70.3v-0.87C69.69,53.37,68.82,53.76,67.73,53.76z M68.3,46.78
			c-0.57,0-1.14,0.23-1.53,0.61c-0.29,0.29-0.64,0.78-0.64,1.54c0,0.75,0.32,1.24,0.58,1.52c0.4,0.42,1.02,0.66,1.65,0.66
			c0.54,0,1.07-0.21,1.45-0.59c0.31-0.29,0.68-0.8,0.68-1.6c0-0.61-0.23-1.18-0.64-1.55C69.38,46.93,68.74,46.78,68.3,46.78z
			 M86.24,55.96h-2.78v-2.5h-5.98v2.5h-2.78v-4.86l0.09-0.01c0.44-0.05,0.84-0.22,1.18-0.53c0.7-0.63,0.76-1.55,0.76-2.6v-3.53h8.19
			v6.66h1.34V55.96z M78.72,51.08h3.08V46.8h-2.21v1.59c0,0.89-0.12,1.37-0.21,1.65C79.29,50.3,79.11,50.69,78.72,51.08z
			 M97.26,53.46h-3.11v-4.94l-3.7,4.94H87.6v-9.04h3.11v4.86l3.7-4.86h2.86V53.46z M103.94,53.76c-1.61,0-3.07-0.53-4.01-1.46
			c-0.87-0.85-1.39-2.11-1.39-3.36c0-1.25,0.52-2.51,1.39-3.36c0.94-0.92,2.41-1.46,4.01-1.46s3.07,0.53,4.01,1.46
			c0.87,0.85,1.38,2.1,1.38,3.36c0,1.25-0.52,2.51-1.38,3.36C107.01,53.23,105.55,53.76,103.94,53.76z M103.94,46.74
			c-0.63,0-1.16,0.2-1.57,0.61c-0.43,0.42-0.64,0.94-0.64,1.6s0.21,1.17,0.64,1.6c0.41,0.4,0.95,0.61,1.59,0.61
			c0.62,0,1.14-0.2,1.55-0.61c0.43-0.42,0.64-0.94,0.64-1.6s-0.21-1.17-0.64-1.6C105.1,46.94,104.57,46.74,103.94,46.74z
			 M58.94,73.26c-2.81,0-4.55-1.23-5.33-1.97c-1.36-1.25-2.13-3.06-2.13-4.99c0-1.83,0.83-3.83,2.11-5.08
			c0.92-0.9,2.59-1.97,5.35-1.97c2.15,0,3.93,0.66,5.29,1.95c1.38,1.31,2.13,3.11,2.13,5.07c0,1.93-0.76,3.72-2.13,5.03
			C62.85,72.59,61.07,73.26,58.94,73.26z M58.92,62.25c-1.14,0-2.16,0.39-2.89,1.1c-0.44,0.41-1.16,1.34-1.16,2.92
			c0,1.18,0.39,2.13,1.2,2.9c0.78,0.73,1.67,1.06,2.83,1.06c1.18,0,2.19-0.38,2.93-1.1c0.52-0.49,1.14-1.39,1.14-2.88
			c0-1.61-0.8-2.57-1.14-2.9C61.1,62.67,60.01,62.25,58.92,62.25z M70.97,73.26c-0.95,0-1.77-0.13-2.5-0.4
			c-0.78-0.3-1.37-0.72-1.65-0.95l-0.07-0.06l1.34-2.05l0.08,0.07c0.33,0.28,0.75,0.55,1.09,0.7c0.4,0.16,0.93,0.27,1.36,0.27
			c0.29,0,0.73-0.05,1-0.21c0.24-0.14,0.35-0.33,0.35-0.59c0-0.24-0.11-0.39-0.37-0.51c-0.22-0.09-0.7-0.15-1.01-0.15h-1.19v-2.14
			h0.93c0.27,0,0.79-0.04,1.05-0.15c0.32-0.15,0.37-0.38,0.37-0.51c0-0.1-0.04-0.33-0.39-0.49c-0.24-0.1-0.53-0.15-0.87-0.15
			c-0.43,0-0.76,0.07-1.16,0.23c-0.38,0.16-0.67,0.33-0.95,0.56l-0.09,0.07l-1.22-2.08l0.08-0.05c0.37-0.23,1-0.55,1.52-0.74
			c0.62-0.22,1.35-0.32,2.16-0.32c0.8,0,2.27,0.12,3.12,0.94c0.47,0.44,0.7,1,0.7,1.7c0,0.49-0.07,1.06-0.57,1.58
			c-0.17,0.17-0.36,0.31-0.55,0.41c0.58,0.2,0.93,0.51,1,0.58c0.43,0.41,0.64,0.89,0.64,1.54c0,0.74-0.28,1.38-0.82,1.91
			C73.63,72.97,72.65,73.26,70.97,73.26z M81.39,73.26c-1.61,0-3.07-0.53-4.01-1.46c-0.87-0.85-1.38-2.11-1.38-3.36
			c0-1.25,0.52-2.51,1.38-3.36c0.94-0.92,2.41-1.46,4.01-1.46s3.07,0.53,4.01,1.46c0.87,0.85,1.38,2.11,1.38,3.36
			c0,1.25-0.52,2.51-1.38,3.36C84.46,72.73,83,73.26,81.39,73.26z M81.39,66.24c-0.63,0-1.16,0.2-1.57,0.61
			c-0.43,0.42-0.64,0.94-0.64,1.6c0,0.65,0.21,1.17,0.64,1.6c0.41,0.4,0.95,0.61,1.59,0.61c0.62,0,1.14-0.2,1.55-0.61
			c0.43-0.42,0.64-0.94,0.64-1.6c0-0.65-0.21-1.17-0.64-1.6C82.55,66.44,82.02,66.24,81.39,66.24z M98.85,75.46h-2.78v-2.5h-5.98
			v2.5H87.3v-4.86l0.09-0.01c0.44-0.05,0.84-0.22,1.18-0.53c0.7-0.63,0.76-1.55,0.76-2.6v-3.53h8.19v6.66h1.34V75.46z M91.33,70.58
			h3.08V66.3h-2.21v1.59c0,0.89-0.12,1.37-0.21,1.65C91.9,69.8,91.72,70.19,91.33,70.58z M109.59,72.96h-3.11v-4.94l-3.7,4.94h-2.86
			v-9.04h3.11v4.86l3.7-4.86h2.86V72.96z"/>
		<path id="New_Symbol_13_" class="st1" d="M52.19,24.13c-6.89,0.8-8.83,7.93-14.01,14.09c-6.93,8.22-17.21,4-17.21,4
			c6.93-0.86,8.92-8.04,14.23-14.17C42.25,19.91,52.19,24.13,52.19,24.13z M27.21,36.19c0,0,8.62-6.83,4.9-16.89
			c-2.8-7.59-8.2-12.97-5.34-19.3c0,0-8.54,6.93-4.98,16.89C24.51,24.51,30.07,29.86,27.21,36.19z M26.71,34.74
			c0,0,0.83-11.07-8.72-15.28c-7.45-3.28-15.28-2.97-17.96-9.38c0,0-1.06,11,9.07,15.26C16.6,28.5,24.03,28.33,26.71,34.74z
			 M15.36,53.33h19.37l4.52-9.09H15.36V53.33z M18.45,80h1.63l11.12-25.45H18.45V80z"/>
	</g>
</g>
<g id="tatar_x5F_bashkir">
</g>
<g id="tatar_x5F_bashkir_x5F_ru">
</g>
<g id="turkmen">
</g>
<g id="turkmen_x5F_ru">
</g>
<g id="ukrainian">
</g>
<g id="uzbek">
</g>
<g id="uzbek_x5F_ru">
</g>
<g id="Sizdan_Telegram_just_video">
</g>
<g id="Severreal">
</g>
<g id="hungarian">
</g>
<g id="theHUB">
</g>
<g id="Faktograf">
</g>
<g id="logos_-_RU">
</g>
<g id="Mobile">
	<g id="Change_5_">
	</g>
</g>
<g id="Desktop">
</g>
<g id="showcase">
</g>
<g id="logos_-_EN">
</g>
<g id="labels">
</g>
<g id="MArti">
</g>
<g id="Screen">
</g>
<g id="Isolation_Mode">
</g>
<g id="dandalin_voa_logo">
</g>
<g id="Layer_2">
</g>
<g id="logo_x5F_big">
</g>
<g id="marti_x5F_2019">
</g>
</svg>
