<?xml version="1.0" encoding="UTF-8"?><svg id="Primary" xmlns="http://www.w3.org/2000/svg" viewBox="0 0 236 130"><defs><style>.cls-1{fill:#ea6903;}.cls-2{fill:#5c666f;}</style></defs><g id="color"><g id="color-2"><g><path id="New_Symbol" class="cls-1" d="M80.24,45.16c-8.62,1-11.03,9.91-17.52,17.61-8.67,10.28-21.51,5-21.51,5,8.67-1.08,11.15-10.05,17.79-17.72,8.8-10.16,21.24-4.89,21.24-4.89Zm-31.23,15.08s10.78-8.54,6.13-21.12c-3.5-9.49-10.26-16.21-6.68-24.13,0,0-10.67,8.66-6.23,21.12,3.4,9.53,10.36,16.21,6.78,24.13Zm-.62-1.81s1.04-13.84-10.9-19.09c-9.31-4.1-19.1-3.72-22.45-11.73,0,0-1.33,13.75,11.34,19.08,9.38,3.94,18.66,3.74,22.01,11.75Zm-14.19,23.23h24.22l5.65-11.37h-29.87v11.37Zm3.86,33.34h2.04l13.89-31.81h-15.94v31.81Z"/><path class="cls-2" d="M96.41,81.66h-5.44l-.04-.05-5.95-7.22v7.27h-4.23v-17.13h4.23v6.82l5.71-6.82h5.19l-7.09,8.12,7.62,9.01Zm5.54,5.8h-3.97v-17.34h3.97v1.12c.9-1,2.06-1.5,3.47-1.5,2.07,0,3.41,.89,4.17,1.63,1.14,1.12,1.77,2.71,1.77,4.49s-.63,3.4-1.87,4.62c-1.1,1.08-2.33,1.56-3.99,1.56-1.53,0-2.72-.48-3.54-1.44v6.86Zm2.56-14.33c-.96,0-1.61,.43-1.98,.8-.52,.51-.84,1.27-.84,1.99s.29,1.4,.79,1.91c.53,.52,1.27,.82,2.03,.82,.69,0,1.4-.28,1.9-.75,.52-.49,.86-1.3,.86-2.06s-.31-1.46-.84-1.96c-.52-.48-1.2-.75-1.93-.75Zm20.79,8.53h-3.97v-6.31l-4.72,6.31h-3.65v-11.54h3.97v6.21l4.72-6.21h3.65v11.54Zm17.93,0h-3.82l-.88-5.7-2.7,5.7h-1.4l-2.7-5.7-.88,5.7h-3.82l2.06-11.54h3.13l2.92,6.11,2.92-6.11h3.13l2.06,11.54Zm4.66,.41c-1.39,0-2.48-1.07-2.48-2.43s1.09-2.43,2.48-2.43,2.48,1.07,2.48,2.43-1.09,2.43-2.48,2.43Zm8.58-.41h-4.23v-17.13h6.2c1.38,0,3.15,.16,4.6,1.42,1.16,1,1.72,2.37,1.72,4.2,0,1.67-.51,3.04-1.51,4.06-1.36,1.36-3.11,1.53-4.48,1.53h-2.3v5.92Zm0-9.36h1.3c.43,0,1.42,0,2.06-.6,.38-.38,.61-.95,.61-1.58s-.22-1.2-.61-1.55c-.56-.53-1.4-.6-2.14-.6h-1.22v4.33Zm15.22,9.8c-1.49,0-3.22-.2-4.73-1.67-1.15-1.13-1.79-2.72-1.79-4.49s.66-3.43,1.81-4.59c1.13-1.11,2.66-1.67,4.55-1.67,2.03,0,3.57,.57,4.71,1.75,1.13,1.17,1.68,2.71,1.68,4.71v.57h-8.6c.04,.51,.24,1.18,.64,1.61,.41,.44,.99,.65,1.77,.65,.56,0,1.08-.11,1.4-.3,.02,0,.43-.25,.73-.86l.06-.12h3.95s-.15,.61-.15,.61c-.52,1.59-1.54,2.48-2.3,2.94-.99,.59-2.18,.86-3.74,.86Zm-2.19-7.94h4.54c-.1-.28-.29-.68-.62-.99-.41-.38-.98-.58-1.63-.58-.71,0-1.29,.22-1.76,.68-.25,.27-.43,.57-.54,.9Zm15.54,7.88c-1.88,0-3.23-.54-4.4-1.76-1.14-1.19-1.71-2.64-1.71-4.31,0-1.82,.66-3.51,1.82-4.65,1.04-1.02,2.49-1.58,4.09-1.58,1.04,0,2.46,.26,3.49,1.42v-1.04h3.97v11.54h-3.97v-1.11c-.78,.99-1.89,1.49-3.29,1.49Zm.72-8.91c-.73,0-1.46,.29-1.95,.77-.37,.36-.82,1-.82,1.96s.4,1.58,.74,1.94c.52,.53,1.3,.85,2.11,.85,.69,0,1.36-.27,1.85-.75,.4-.37,.87-1.02,.87-2.04,0-.78-.3-1.5-.81-1.98-.59-.55-1.41-.75-1.98-.75Zm9.32,8.68c-.55,0-.98-.05-1.48-.18l-.09-.02v-3.15l.16,.04c.11,.03,.34,.08,.62,.08,.32,0,.75-.07,1.04-.37,.29-.37,.43-.94,.43-1.71v-6.38h10.51v11.54h-3.97v-8.35h-2.77v3.34c0,1.77-.38,3.05-1.17,3.93-1,1.08-2.22,1.23-3.27,1.23Zm17.85-.15h-3.97v-11.54h3.97v11.54Zm-1.98-12.9c-1.29,0-2.29-.99-2.29-2.25s1.01-2.25,2.29-2.25,2.29,.99,2.29,2.25-1.01,2.25-2.29,2.25Zm9.6-1.24c0-.75-.56-1.36-1.25-1.36-.62,0-1.25,.51-1.25,1.36s.64,1.36,1.25,1.36c.69,0,1.25-.61,1.25-1.36Zm-3.11,0c0-.85-.64-1.36-1.25-1.36-.69,0-1.25,.61-1.25,1.36s.56,1.36,1.25,1.36c.62,0,1.25-.51,1.25-1.36Zm2.22,14.15h-3.97v-11.54h3.97v11.54Z"/></g></g></g></svg>