<?xml version="1.0" encoding="utf-8"?>
<!-- Generator: Adobe Illustrator 26.5.0, SVG Export Plug-In . SVG Version: 6.00 Build 0)  -->
<svg version="1.1" id="Layer_1" xmlns="http://www.w3.org/2000/svg" xmlns:xlink="http://www.w3.org/1999/xlink" x="0px" y="0px"
	 viewBox="0 0 194 130" style="enable-background:new 0 0 194 130;" xml:space="preserve">
<style type="text/css">
	.st0{fill:#5C666F;}
	.st1{fill:#EA6903;}
</style>
<g id="Primary">
	<g>
		<path class="st0" d="M95.4,81.7H91l-1.3-3.1h-6.2l-1.3,3.1h-4.3l6.9-16.9h3.8l0,0.1L95.4,81.7L95.4,81.7z M84.8,75.3h3.8l-1.9-5.1
			C86.7,70.2,84.8,75.3,84.8,75.3z M101.3,82c-1.2,0-2.2-0.2-3.2-0.5c-1-0.4-1.8-1-2.1-1.2L96,80.3l1.7-2.6l0.1,0.1
			c0.4,0.3,0.9,0.7,1.4,0.9c0.5,0.2,1.2,0.3,1.7,0.3c0.4,0,0.9-0.1,1.3-0.3c0.3-0.2,0.4-0.4,0.4-0.7c0-0.3-0.1-0.5-0.5-0.6
			c-0.3-0.1-0.9-0.2-1.3-0.2h-1.5v-2.7h1.2c0.3,0,1-0.1,1.3-0.2c0.4-0.2,0.5-0.5,0.5-0.6c0-0.1-0.1-0.4-0.5-0.6
			c-0.3-0.1-0.7-0.2-1.1-0.2c-0.5,0-1,0.1-1.4,0.3c-0.5,0.2-0.8,0.4-1.2,0.7L98,73.9l-1.5-2.6l0.1-0.1c0.5-0.3,1.3-0.7,1.9-0.9
			c0.8-0.3,1.7-0.4,2.7-0.4s2.8,0.2,3.9,1.2c0.6,0.6,0.9,1.2,0.9,2.1c0,0.6-0.1,1.3-0.7,2c-0.2,0.2-0.4,0.4-0.7,0.5
			c0.7,0.2,1.2,0.7,1.2,0.7c0.6,0.5,0.8,1.1,0.8,1.9c0,0.9-0.3,1.7-1,2.4C104.7,81.6,103.5,82,101.3,82L101.3,82z M113.6,82
			c-1.8,0-3.2-0.5-4.3-1.7c-1.1-1.2-1.7-2.6-1.7-4.2c0-1.8,0.7-3.5,1.8-4.6c1-1,2.5-1.6,4-1.6c1,0,2.4,0.2,3.4,1.4v-1h3.9v11.4h-3.9
			v-1.1C116.1,81.5,115,82,113.6,82L113.6,82z M114.3,73.2c-0.7,0-1.4,0.3-1.9,0.8c-0.4,0.4-0.8,1-0.8,1.9s0.4,1.6,0.7,1.9
			c0.5,0.5,1.3,0.8,2.1,0.8c0.7,0,1.3-0.3,1.8-0.7c0.4-0.4,0.8-1,0.8-2c0-0.8-0.3-1.5-0.8-1.9C115.7,73.4,114.9,73.2,114.3,73.2
			L114.3,73.2z M129.1,81.7h-3.9v-8.2h-3.1v-3.1h10v3.1h-3.1L129.1,81.7L129.1,81.7z M140.2,81.7h-3.9v-8.2h-3.1v-3.1h10v3.1h-3.1
			L140.2,81.7L140.2,81.7z M159.6,81.7h-3.9V70.3h3.9V81.7z M150.5,81.7h-6.2V70.3h3.9v3.8h2.4c1.8,0,2.8,0.7,3.2,1.1
			c0.6,0.6,1,1.5,1,2.6c0,1.2-0.4,2.2-1.1,2.8C152.7,81.5,151.5,81.7,150.5,81.7z M148.2,78.9h1.4c0.3,0,0.7,0,1-0.3
			c0.2-0.2,0.3-0.5,0.3-0.8c0-0.4-0.2-0.6-0.3-0.7c-0.3-0.2-0.8-0.2-1-0.2h-1.4L148.2,78.9L148.2,78.9z M173.4,84.8h-3.5v-3.1H169
			l0-0.1l-3.6-4.7v4.7h-3.9V70.3h3.9v4.2l3.5-4.2h4.9l-5,5.3l2.6,2.9h2.1L173.4,84.8L173.4,84.8z M83.8,104.9h-4.2V88.1h6.1
			c1.4,0,3.1,0.2,4.5,1.4c1.1,1,1.7,2.3,1.7,4.1c0,1.7-0.5,3-1.5,4c-1.3,1.3-3.1,1.5-4.4,1.5h-2.3C83.7,99.1,83.7,104.9,83.8,104.9z
			 M83.8,95.7H85c0.4,0,1.4,0,2-0.6c0.4-0.4,0.6-0.9,0.6-1.6s-0.2-1.2-0.6-1.5c-0.6-0.5-1.4-0.6-2.1-0.6h-1.2
			C83.8,91.5,83.8,95.7,83.8,95.7z M98.3,105.3c-1.8,0-3.2-0.5-4.3-1.7c-1.1-1.2-1.7-2.6-1.7-4.2c0-1.8,0.7-3.5,1.8-4.6
			c1-1,2.5-1.6,4-1.6c1,0,2.4,0.2,3.4,1.4v-1h3.9v11.4h-3.9v-1.1C100.8,104.8,99.7,105.3,98.3,105.3L98.3,105.3z M99,96.5
			c-0.7,0-1.4,0.3-1.9,0.8c-0.4,0.4-0.8,1-0.8,1.9s0.4,1.6,0.7,1.9c0.5,0.5,1.3,0.8,2.1,0.8c0.7,0,1.3-0.3,1.8-0.7
			c0.4-0.4,0.8-1,0.8-2c0-0.8-0.3-1.5-0.8-1.9C100.4,96.7,99.6,96.5,99,96.5L99,96.5z M121.1,108.1h-3.5v-3.1h-7.5v3.1h-3.5V102h0.1
			c0.6-0.1,1.1-0.3,1.5-0.7c0.9-0.8,0.9-1.9,0.9-3.3v-4.4h10.3v8.4h1.7C121.1,101.9,121.1,108.1,121.1,108.1z M111.6,101.9h3.9v-5.4
			h-2.8v2c0,1.1-0.2,1.7-0.3,2.1C112.3,101,112.1,101.4,111.6,101.9z M134.7,104.9h-3.9v-6.2l-4.7,6.2h-3.6V93.6h3.9v6.1l4.7-6.1
			h3.6V104.9z M142.6,105.3c-2,0-3.9-0.7-5.1-1.8c-1.1-1.1-1.7-2.7-1.7-4.2s0.6-3.2,1.7-4.2c1.2-1.2,3-1.8,5.1-1.8s3.9,0.7,5.1,1.8
			c1.1,1.1,1.7,2.7,1.7,4.2s-0.6,3.2-1.7,4.2C146.5,104.6,144.6,105.3,142.6,105.3z M142.6,96.5c-0.8,0-1.5,0.3-2,0.8
			c-0.5,0.5-0.8,1.2-0.8,2s0.3,1.5,0.8,2c0.5,0.5,1.2,0.8,2,0.8s1.4-0.3,1.9-0.8c0.5-0.5,0.8-1.2,0.8-2s-0.3-1.5-0.8-2
			C144.1,96.7,143.4,96.5,142.6,96.5L142.6,96.5z M156.9,105.3c-1.8,0-3.3-0.6-4.5-1.7c-0.7-0.7-1.8-2.1-1.8-4.3
			c0-1.7,0.7-3.3,1.9-4.5c1.2-1.1,2.6-1.6,4.4-1.6c1.1,0,2,0.2,2.9,0.6l0.1,0v3.6l-0.2-0.2c-0.7-0.5-1.4-0.8-2.3-0.8
			c-1.1,0-1.8,0.5-2,0.8c-0.5,0.5-0.8,1.2-0.8,2c0,0.7,0.3,1.4,0.7,1.9c0.5,0.5,1.3,0.9,2.1,0.9c0.6,0,1.4-0.2,2.3-0.8l0.2-0.2v3.6
			l-0.1,0C159,105.1,158.1,105.3,156.9,105.3L156.9,105.3z M176.7,104.9h-3.9V93.6h3.9V104.9z M167.6,104.9h-6.2V93.6h3.9v3.8h2.4
			c1.8,0,2.8,0.7,3.2,1.1c0.6,0.6,1,1.5,1,2.6c0,1.2-0.4,2.2-1.1,2.8C169.9,104.8,168.7,104.9,167.6,104.9z M165.3,102.1h1.4
			c0.3,0,0.7,0,1-0.3c0.2-0.2,0.3-0.5,0.3-0.8c0-0.4-0.2-0.6-0.3-0.7c-0.3-0.2-0.8-0.2-1-0.2h-1.4L165.3,102.1L165.3,102.1z"/>
		<path id="New_Symbol" class="st1" d="M80.2,45.2c-8.6,1-11,9.9-17.5,17.6c-8.7,10.3-21.5,5-21.5,5c8.7-1.1,11.2-10,17.8-17.7
			C67.8,39.9,80.2,45.2,80.2,45.2z M49,60.2c0,0,10.8-8.5,6.1-21.1c-3.5-9.5-10.3-16.2-6.7-24.1c0,0-10.7,8.7-6.2,21.1
			C45.6,45.6,52.6,52.3,49,60.2z M48.4,58.4c0,0,1-13.8-10.9-19.1c-9.3-4.1-19.1-3.7-22.5-11.7c0,0-1.3,13.8,11.3,19.1
			C35.8,50.6,45,50.4,48.4,58.4L48.4,58.4z M34.2,81.7h24.2l5.7-11.4H34.2C34.2,70.3,34.2,81.7,34.2,81.7z M38.1,115h2L54,83.2H38.1
			L38.1,115L38.1,115z"/>
	</g>
</g>
</svg>
