<?xml version="1.0" encoding="utf-8"?>
<!-- Generator: Adobe Illustrator 24.2.1, SVG Export Plug-In . SVG Version: 6.00 Build 0)  -->
<svg version="1.1" id="Layer_1" xmlns="http://www.w3.org/2000/svg" xmlns:xlink="http://www.w3.org/1999/xlink" x="0px" y="0px"
	 viewBox="0 0 112.68 56" style="enable-background:new 0 0 112.68 56;" xml:space="preserve">
<style type="text/css">
	.st0{fill:#5C666F;}
	.st1{fill:#EA6903;}
</style>
<g id="georgian_ru">
	<g id="Georgian-RU_RGB">
		<path id="VECTOR" class="st0" d="M43.46,30.92c-1.39,0.08-2.78-0.24-4-0.92l0,0v-3.4l0.16,0.14c0.4,0.35,0.84,0.65,1.32,0.89
			c0.65,0.27,1.35,0.4,2.06,0.37c0.9,0.06,1.79-0.2,2.52-0.73c0.63-0.5,1.05-1.21,1.19-2h-5.08v-2.55h5.07
			c-0.17-0.67-0.53-1.27-1.05-1.72c-0.72-0.59-1.63-0.89-2.56-0.83c-0.74-0.01-1.47,0.15-2.13,0.47c-0.48,0.24-0.93,0.54-1.34,0.9
			l-0.16,0.13v-3.46l0,0c1.17-0.62,2.48-0.95,3.81-0.94c3.49-0.28,6.53,2.33,6.81,5.81c0.03,0.33,0.03,0.66,0,0.99
			c0.09,1.9-0.59,3.76-1.9,5.14C46.91,30.41,45.2,31.03,43.46,30.92z M62.56,30.63h-3.93l-2.36-2.74l-2.36,2.74H50l4.39-4.8l-3.57-4
			h3.89l1.59,1.94l1.59-1.94h3.89l-3.58,4L62.56,30.63z M67.48,30.92c-1.44,0.05-2.84-0.46-3.92-1.42c-1.8-1.82-1.8-4.74,0-6.56
			c2.27-1.89,5.56-1.89,7.83,0c1.8,1.82,1.8,4.74,0,6.56C70.32,30.46,68.92,30.97,67.48,30.92z M67.48,24.07
			c-0.57-0.02-1.12,0.19-1.53,0.59c-0.84,0.87-0.84,2.25,0,3.12c0.42,0.4,0.98,0.61,1.55,0.59c0.56,0.01,1.1-0.2,1.5-0.59
			c0.83-0.88,0.83-2.24,0-3.12C68.59,24.27,68.05,24.06,67.48,24.07z M51.4,50.12h-4.15l0,0L42.7,44.6v5.55h-3.26V37h3.23v5.21
			L47,37h4l-5.41,6.21L51.4,50.12z M55.91,50.41c-1.26,0.07-2.49-0.42-3.36-1.34c-0.86-0.88-1.33-2.07-1.31-3.3
			c-0.02-1.32,0.48-2.59,1.39-3.54c0.84-0.81,1.96-1.25,3.13-1.23c1-0.04,1.97,0.35,2.66,1.08v-0.79h3v8.81h-3v-0.84
			C57.82,50.03,56.88,50.46,55.91,50.41z M56.47,43.61c-0.56,0-1.09,0.21-1.5,0.59c-0.4,0.39-0.63,0.94-0.62,1.5
			c-0.01,0.55,0.19,1.08,0.57,1.48c0.43,0.42,1.01,0.65,1.61,0.64c0.53,0,1.03-0.2,1.41-0.57c0.85-0.84,0.85-2.21,0.02-3.05
			c-0.01-0.01-0.01-0.01-0.02-0.02C57.53,43.82,57.01,43.62,56.47,43.61z M68.8,50.12h-5.46v-8.81h4.81
			c0.79-0.07,1.59,0.14,2.25,0.58c0.5,0.44,0.77,1.09,0.74,1.76c0.03,0.54-0.17,1.08-0.56,1.46c-0.14,0.15-0.31,0.27-0.49,0.37
			c0.37,0.12,0.71,0.31,1,0.57c0.41,0.41,0.63,0.96,0.61,1.54c0.02,0.65-0.23,1.27-0.68,1.73C70.41,49.87,69.62,50.16,68.8,50.12z
			 M66.37,48.12h1.19c0.28,0.03,0.56-0.04,0.78-0.21c0.17-0.16,0.26-0.38,0.25-0.61c0-0.2-0.09-0.4-0.25-0.52
			c-0.27-0.17-0.59-0.24-0.9-0.21h-1.07V48.12z M66.37,44.79h1.07c0.23,0.01,0.46-0.05,0.66-0.16c0.17-0.13,0.27-0.34,0.25-0.56
			c0.01-0.2-0.07-0.39-0.22-0.52c-0.23-0.11-0.48-0.17-0.73-0.15h-1L66.37,44.79z M82.82,50.16H78.9l0,0L76,46.47v3.65h-3v-8.81h3
			v3.26l2.74-3.26h3.8l-3.86,4.1L82.82,50.16z M87.03,50.45c-1.26,0.07-2.49-0.42-3.36-1.34c-0.86-0.88-1.33-2.07-1.31-3.3
			c-0.02-1.32,0.48-2.59,1.39-3.54c0.83-0.82,1.96-1.28,3.13-1.27c1-0.04,1.97,0.35,2.66,1.08v-0.79h3v8.81h-3v-0.84
			c-0.61,0.78-1.56,1.21-2.54,1.15L87.03,50.45z M87.59,43.65c-0.56,0-1.09,0.21-1.5,0.59c-0.4,0.39-0.63,0.94-0.62,1.5
			c-0.01,0.53,0.18,1.05,0.53,1.44c0.43,0.42,1.01,0.65,1.61,0.64c0.53,0,1.03-0.2,1.41-0.57c0.85-0.84,0.85-2.21,0.02-3.05
			c-0.01-0.01-0.01-0.01-0.02-0.02c-0.4-0.35-0.9-0.55-1.43-0.57L87.59,43.65z M97.59,50.45c-0.85,0-1.69-0.15-2.48-0.45
			c-0.58-0.22-1.12-0.53-1.61-0.92L93.44,49l1.31-2l0.08,0.07c0.32,0.28,0.68,0.51,1.06,0.68c0.42,0.17,0.87,0.26,1.33,0.27
			c0.34,0.01,0.68-0.06,1-0.2c0.21-0.11,0.35-0.34,0.34-0.58c0-0.23-0.14-0.43-0.36-0.49c-0.32-0.1-0.66-0.15-1-0.15H96v-2.04h0.91
			c0.34,0,0.68-0.05,1-0.15c0.28-0.06,0.46-0.32,0.4-0.6c-0.04-0.2-0.2-0.36-0.4-0.4c-0.27-0.1-0.56-0.14-0.85-0.14
			c-0.39-0.01-0.77,0.07-1.13,0.22c-0.34,0.13-0.65,0.31-0.92,0.55l-0.09,0.07l-1.19-2h0.08c0.47-0.28,0.97-0.53,1.48-0.73
			c0.68-0.22,1.39-0.32,2.1-0.31c1.07-0.05,2.13,0.27,3,0.91c0.46,0.43,0.7,1.03,0.68,1.66c0.04,0.57-0.16,1.12-0.56,1.53
			c-0.16,0.16-0.34,0.29-0.54,0.4c0.37,0.11,0.71,0.31,1,0.57c0.42,0.38,0.64,0.93,0.62,1.5c0.01,0.71-0.28,1.39-0.8,1.87
			c-0.92,0.72-2.08,1.04-3.24,0.9L97.59,50.45z M107.18,50.45c-1.26,0.07-2.49-0.42-3.36-1.34c-0.86-0.88-1.33-2.07-1.31-3.3
			c-0.03-1.32,0.47-2.6,1.39-3.54c0.82-0.82,1.94-1.27,3.1-1.27c1-0.04,1.98,0.35,2.67,1.08v-0.79h3v8.81h-3v-0.84
			c-0.6,0.77-1.55,1.2-2.53,1.15L107.18,50.45z M107.73,43.65c-0.55,0-1.09,0.21-1.49,0.59c-0.4,0.39-0.63,0.94-0.62,1.5
			c-0.01,0.55,0.19,1.08,0.56,1.48c0.43,0.41,1.01,0.64,1.61,0.64c0.53,0.01,1.04-0.2,1.42-0.57c0.85-0.84,0.85-2.21,0.02-3.05
			c-0.01-0.01-0.01-0.01-0.02-0.02c-0.42-0.38-0.96-0.6-1.52-0.61L107.73,43.65z"/>
	</g>
	<path id="M" class="st1" d="M36.32,16.92c-4.8,0.56-6.14,5.54-9.75,9.84c-4.83,5.74-12,2.79-12,2.79c4.83-0.6,6.21-5.62,9.91-9.9
		C29.4,14,36.32,16.92,36.32,16.92z M18.93,25.34c0,0,6-4.77,3.42-11.8c-2-5.3-5.71-9.06-3.72-13.48c0,0-5.94,4.84-3.47,11.8
		C17.05,17.18,20.93,20.92,18.93,25.34z M18.59,24.34c0,0,0.57-7.73-6.07-10.67C7.34,11.37,1.89,11.58,0,7.1
		c0,0-0.74,7.69,6.31,10.66c5.24,2.24,10.41,2.09,12.28,6.57V24.34z M10.69,37.34h13.48L27.32,31H10.69L10.69,37.34z M12.84,55.97
		H14l7.74-17.78h-8.9V55.97z"/>
</g>
</svg>
