<?xml version="1.0" encoding="UTF-8"?>
<!-- Generator: Adobe Illustrator 24.2.1, SVG Export Plug-In . SVG Version: 6.00 Build 0)  -->
<svg version="1.1" id="Layer_1" xmlns="http://www.w3.org/2000/svg" xmlns:xlink="http://www.w3.org/1999/xlink" x="0px" y="0px" viewBox="0 0 113.15 56" style="enable-background:new 0 0 113.15 56;" xml:space="preserve">
<style type="text/css">
	.st0{fill:#5C666F;}
	.st1{fill:#EA6903;}
</style>
<g id="kyrgyz_ru">
	<g id="Kyrgyz-RU_RGB">
		<path class="st0" d="M42.64,30.89h-3.26V17.68h4.78c1.28-0.08,2.54,0.31,3.55,1.1c0.9,0.82,1.37,2.01,1.29,3.22    c0.05,1.16-0.37,2.29-1.16,3.14c-0.94,0.84-2.19,1.27-3.45,1.18h-1.75V30.89z M42.64,23.67h1c0.57,0.05,1.13-0.12,1.59-0.46    c0.31-0.33,0.47-0.76,0.46-1.21c0.02-0.45-0.15-0.88-0.46-1.2c-0.47-0.35-1.06-0.52-1.65-0.46h-0.94V23.67z M54,31.18    c-1.28,0.07-2.52-0.42-3.4-1.35c-0.87-0.89-1.34-2.09-1.32-3.33c-0.03-1.33,0.47-2.62,1.4-3.58c0.85-0.8,1.99-1.24,3.16-1.22    c1.01-0.04,1.99,0.36,2.69,1.1V22h3.06v8.89h-3.08V30C55.91,30.77,54.98,31.21,54,31.18z M54.55,24.32c-0.56,0-1.09,0.21-1.5,0.59    c-0.41,0.39-0.64,0.94-0.63,1.51c-0.01,0.56,0.19,1.09,0.57,1.5c0.43,0.42,1.02,0.66,1.62,0.65c0.52-0.01,1.01-0.21,1.39-0.57    c0.86-0.84,0.87-2.21,0.03-3.07c-0.01-0.01-0.02-0.02-0.03-0.03c-0.41-0.36-0.93-0.56-1.47-0.58H54.55z M72.21,33.32h-2.76v-2.43    h-5.88v2.46h-2.74v-4.79h0.08c0.44-0.05,0.85-0.25,1.16-0.56c0.61-0.7,0.89-1.64,0.75-2.56V22h8.06v6.55h1.31L72.21,33.32z     M64.81,28.52h3v-4.19h-2.17v1.57c0.02,0.55-0.05,1.1-0.2,1.63c-0.14,0.38-0.36,0.73-0.65,1.02L64.81,28.52z M83,30.89h-3V26    l-3.64,4.86h-2.83V22h3.06v4.78L80.23,22H83V30.89z M89.58,31.18c-1.47,0.06-2.9-0.45-4-1.43c-1.83-1.82-1.83-4.78-0.01-6.6    c0,0,0,0,0.01-0.01c2.28-1.92,5.62-1.92,7.9,0c1.81,1.83,1.81,4.78,0,6.61c-1.06,0.95-2.44,1.46-3.86,1.43H89.58z M89.58,24.28    c-0.57-0.02-1.13,0.2-1.55,0.59c-0.42,0.41-0.65,0.98-0.63,1.57c-0.01,0.59,0.23,1.16,0.67,1.56c0.42,0.4,0.99,0.62,1.57,0.6    c0.57,0.02,1.12-0.2,1.52-0.6c0.43-0.4,0.66-0.98,0.63-1.57c0.02-0.59-0.21-1.16-0.63-1.57c-0.41-0.39-0.97-0.6-1.54-0.58H89.58z     M51.57,50.56h-3.39l-1-2.45h-4.89l-1,2.45h-3.41l0.06-0.13l5.38-13.07h2.93L51.57,50.56z M43.26,45.56h3l-1.5-4L43.26,45.56z     M56.2,50.86c-0.84,0.01-1.67-0.12-2.46-0.4c-0.59-0.22-1.13-0.54-1.62-0.93l-0.07-0.06l1.33-2l0.08,0.07    c0.32,0.28,0.68,0.51,1.07,0.68c0.43,0.17,0.88,0.26,1.34,0.27c0.34,0.01,0.69-0.06,1-0.2c0.22-0.11,0.36-0.34,0.35-0.58    c0.01-0.23-0.14-0.43-0.36-0.5c-0.32-0.1-0.66-0.15-1-0.15h-1.19V45h0.92c0.34,0,0.68-0.05,1-0.15c0.21-0.08,0.35-0.28,0.35-0.5    c-0.01-0.22-0.16-0.42-0.38-0.48c-0.27-0.1-0.56-0.15-0.85-0.14c-0.39-0.01-0.78,0.07-1.14,0.22c-0.34,0.14-0.65,0.32-0.93,0.55    l-0.09,0.08l-1.2-2.06h0.08c0.5-0.33,1.02-0.6,1.57-0.83c0.68-0.22,1.4-0.32,2.12-0.31c1.1-0.06,2.19,0.26,3.08,0.92    c0.45,0.45,0.68,1.07,0.64,1.7c0.04,0.57-0.16,1.14-0.56,1.55c-0.16,0.16-0.34,0.29-0.54,0.4c0.37,0.12,0.71,0.31,1,0.58    c0.39,0.39,0.61,0.92,0.6,1.47c0.01,0.71-0.28,1.39-0.8,1.88C58.61,50.65,57.4,51,56.2,50.86z M66.06,50.86    c-1.28,0.07-2.52-0.43-3.39-1.36c-0.87-0.89-1.35-2.09-1.33-3.33c-0.03-1.33,0.48-2.62,1.41-3.58c0.85-0.8,1.98-1.23,3.15-1.21    c1.01-0.04,1.99,0.35,2.69,1.09v-0.8h3.06v8.89h-3.06v-0.85C67.98,50.48,67.04,50.9,66.06,50.86z M66.62,44    c-0.56,0-1.1,0.21-1.51,0.59c-0.4,0.4-0.63,0.95-0.63,1.52c-0.01,0.55,0.19,1.09,0.58,1.49c0.43,0.42,1.01,0.66,1.62,0.65    c0.53,0,1.04-0.2,1.42-0.57c0.44-0.4,0.68-0.97,0.67-1.57c0.01-0.57-0.21-1.13-0.62-1.53C67.73,44.21,67.18,44,66.62,44z     M78,50.56h-3v-6.44h-2.43v-2.45h7.84v2.45H78V50.56z M86.61,50.56h-3.04v-6.44h-2.39v-2.45H89v2.45h-2.37L86.61,50.56z     M101.78,50.56h-3v-8.89h3V50.56z M94.65,50.56h-4.81v-8.89h3.06v3h1.87c0.91-0.06,1.8,0.25,2.48,0.85    c0.52,0.55,0.79,1.29,0.75,2.04c0.05,0.82-0.25,1.63-0.83,2.22c-0.7,0.58-1.6,0.86-2.5,0.78H94.65z M92.9,48.38H94    c0.29,0.03,0.57-0.05,0.81-0.21c0.16-0.15,0.25-0.37,0.25-0.59c0.01-0.21-0.08-0.42-0.25-0.55c-0.24-0.14-0.51-0.2-0.79-0.19H92.9    V48.38z M113.15,50.56h-4l0,0l-2.86-3.65v3.68h-3.06v-8.92h3.06V45l2.77-3.29h3.83l-3.89,4.1L113.15,50.56z"/>
	</g>
	<path id="M" class="st1" d="M36.32,16.92c-4.8,0.56-6.14,5.54-9.75,9.84c-4.83,5.74-12,2.79-12,2.79c4.83-0.6,6.21-5.62,9.91-9.9   C29.4,14,36.32,16.92,36.32,16.92z M18.93,25.34c0,0,6-4.77,3.42-11.8c-2-5.3-5.71-9.06-3.72-13.48c0,0-5.94,4.84-3.47,11.8   C17.05,17.18,20.93,20.92,18.93,25.34z M18.59,24.34c0,0,0.57-7.73-6.07-10.67C7.34,11.37,1.89,11.58,0,7.1   c0,0-0.74,7.69,6.31,10.66c5.24,2.24,10.41,2.09,12.28,6.57V24.34z M10.69,37.34h13.48L27.32,31H10.69L10.69,37.34z M12.84,55.97   H14l7.74-17.78h-8.9V55.97z"/>
</g>
</svg>