<?xml version="1.0" encoding="UTF-8"?>
<!-- Generator: Adobe Illustrator 25.2.1, SVG Export Plug-In . SVG Version: 6.00 Build 0)  -->
<svg version="1.1" xmlns="http://www.w3.org/2000/svg" xmlns:xlink="http://www.w3.org/1999/xlink" x="0px" y="0px" viewBox="0 0 118.72 80" style="enable-background:new 0 0 118.72 80;" xml:space="preserve">
<style type="text/css">
	.st0{fill:#5C666F;}
	.st1{fill:#EA6903;}
	.st2{fill:#E76A24;}
	.st3{fill:#5C6770;}
	.st4{display:none;}
	.st5{display:inline;}
	.st6{fill:#FFFFFF;}
	.st7{fill:#E56A24;}
	.st8{fill:#5D6771;}
	.st9{display:none;fill:#5C666F;}
	.st10{display:inline;fill:#5C666F;}
	.st11{fill:#5D6770;}
	.st12{fill:#69737B;}
	.st13{fill:#256A78;}
	.st14{fill:#D12430;}
	.st15{display:inline;fill:#2D1996;}
	.st16{fill:#2D1996;}
	.st17{fill:#E86B24;}
	.st18{fill:none;}
	.st19{opacity:0.7;}
	.st20{fill-rule:evenodd;clip-rule:evenodd;fill:#FFFFFF;}
	.st21{fill-rule:evenodd;clip-rule:evenodd;fill:#EA6903;}
	.st22{fill:#5B6770;}
	.st23{fill-rule:evenodd;clip-rule:evenodd;fill:#5B6770;}
	.st24{fill-rule:evenodd;clip-rule:evenodd;fill:#F7C39A;}
	.st25{clip-path:url(#SVGID_2_);fill-rule:evenodd;clip-rule:evenodd;fill:#FFFFFF;}
	.st26{display:none;fill:#E50E1F;}
	.st27{fill:#020202;}
	.st28{fill:#EE7204;}
	.st29{fill:#080808;}
	.st30{fill:#0A0A0A;}
	.st31{fill:#0B0B0B;}
	.st32{fill:#EF770C;}
	.st33{fill:#0F0F0F;}
	.st34{fill:#0C0C0C;}
	.st35{fill:#060606;}
	.st36{fill:#EF7B14;}
	.st37{fill:#B7B7B7;}
	.st38{fill:#C11D22;}
	.st39{fill:#3A79B7;}
	.st40{fill:#768492;}
	.st41{fill:#FFFFFF;stroke:#FFFFFF;stroke-width:0.25;stroke-miterlimit:10;}
	.st42{fill:#3B79B7;}
	.st43{fill:#363535;}
	.st44{fill:#BED970;}
	.st45{fill:#E1368E;}
	.st46{fill:#E9E751;}
	.st47{fill:#8E499B;}
	.st48{fill:#C1C0C0;}
	.st49{clip-path:url(#SVGID_4_);fill:url(#SVGID_5_);}
	.st50{fill:#334D5D;}
	.st51{fill:#2170B7;}
	.st52{fill:#718B99;}
	.st53{fill:#B62027;}
	.st54{fill:#26A3DD;}
	.st55{clip-path:url(#SVGID_7_);fill:url(#SVGID_8_);}
</style>
<g id="afghan_x5F_da">
</g>
<g id="afghan_x5F_eng">
</g>
<g id="afghan_x5F_pa">
</g>
<g id="armenian">
</g>
<g id="armenian_x5F_ru">
</g>
<g id="azeri">
</g>
<g id="azeri_x5F_ru">
</g>
<g id="balkan">
</g>
<g id="belarussian">
</g>
<g id="bulgarian">
</g>
<g id="crimea_x5F_ru">
</g>
<g id="crimea_x5F_ta">
</g>
<g id="crimea_x5F_ua">
</g>
<g id="donbass_x5F_ru_-_not_full">
</g>
<g id="donbass_x5F_ua_-_not_full">
</g>
<g id="English">
</g>
<g id="georgian">
</g>
<g id="georgian_x5F_ru">
</g>
<g id="kazakh">
</g>
<g id="kazakh_x5F_ru">
</g>
<g id="kosovo">
</g>
<g id="kyrgyz">
</g>
<g id="kyrgyz_x5F_ru">
</g>
<g id="macedonia">
</g>
<g id="moldova">
	<g id="Layer_60">
	</g>
	<g id="Layer_61">
	</g>
	<g id="Layer_62">
	</g>
</g>
<g id="north_x5F_caucasus_x5F_av_-_not_full">
</g>
<g id="north_x5F_caucasus_x5F_ch">
	<g>
		<path id="north_x5F_caucasus_x5F_ch_2_" class="st0" d="M67.5,53.46h-3.32l-1.04-7.64l-3.27,7.64h-1.22l-0.03-0.06l-3.25-7.58    l-1.04,7.64h-3.32l2.2-13.45h2.74l3.3,7.78l3.3-7.78h2.74l0.01,0.08L67.5,53.46z M73.09,53.76c-1.47,0-2.54-0.43-3.46-1.38    c-0.89-0.93-1.35-2.07-1.35-3.39c0-1.43,0.52-2.76,1.43-3.65c0.82-0.8,1.96-1.24,3.21-1.24c0.82,0,1.93,0.2,2.74,1.12V44.4h3.12    v9.06h-3.12v-0.87C75.05,53.37,74.18,53.76,73.09,53.76z M73.65,46.77c-0.57,0-1.15,0.23-1.53,0.61    c-0.29,0.29-0.64,0.78-0.64,1.54c0,0.75,0.32,1.24,0.58,1.52c0.4,0.42,1.02,0.67,1.65,0.67c0.54,0,1.07-0.21,1.45-0.59    c0.31-0.29,0.68-0.8,0.68-1.6c0-0.61-0.23-1.18-0.64-1.56C74.74,46.92,74.1,46.77,73.65,46.77z M83.72,58.01H80.6V44.4h3.12v0.88    c0.7-0.78,1.62-1.18,2.72-1.18c1.29,0,2.42,0.44,3.27,1.28c0.9,0.88,1.39,2.13,1.39,3.53c0,1.45-0.49,2.67-1.47,3.63    c-0.86,0.84-1.83,1.22-3.13,1.22c-1.2,0-2.13-0.38-2.78-1.13V58.01z M85.73,46.77c-0.75,0-1.26,0.34-1.55,0.63    c-0.41,0.4-0.66,1-0.66,1.56c0,0.55,0.23,1.1,0.62,1.5c0.42,0.41,1,0.65,1.59,0.65c0.54,0,1.1-0.22,1.49-0.59    c0.41-0.39,0.68-1.02,0.68-1.62c0-0.59-0.24-1.15-0.66-1.54C86.84,46.97,86.3,46.77,85.73,46.77z M106.62,53.46H92.39V44.4h3.12    v6.56h2.44V44.4h3.12v6.56h2.44V44.4h3.12V53.46z M113.31,53.76c-1.61,0-3.08-0.53-4.02-1.46c-0.87-0.85-1.39-2.11-1.39-3.37    c0-1.26,0.52-2.52,1.39-3.37c0.95-0.93,2.41-1.46,4.02-1.46c1.61,0,3.08,0.53,4.02,1.46c0.87,0.85,1.39,2.11,1.39,3.37    c0,1.26-0.52,2.52-1.39,3.37C116.39,53.23,114.92,53.76,113.31,53.76z M113.31,46.73c-0.63,0-1.16,0.2-1.57,0.61    c-0.43,0.42-0.64,0.95-0.64,1.6c0,0.65,0.21,1.18,0.64,1.6c0.41,0.4,0.95,0.61,1.6,0.61c0.62,0,1.14-0.2,1.55-0.61    c0.43-0.42,0.64-0.94,0.64-1.6c0-0.65-0.21-1.18-0.64-1.6C114.47,46.93,113.94,46.73,113.31,46.73z M55.85,74.96h-3.32V61.51h4.86    c1.08,0,2.47,0.13,3.61,1.12c0.91,0.78,1.35,1.86,1.35,3.29c0,1.32-0.4,2.39-1.18,3.19c-1.07,1.07-2.44,1.2-3.52,1.2h-1.81V74.96z     M55.85,67.61h1.02c0.33,0,1.12,0,1.62-0.47c0.3-0.3,0.48-0.75,0.48-1.24c0-0.5-0.17-0.94-0.48-1.22    c-0.44-0.42-1.1-0.47-1.68-0.47h-0.96V67.61z M67.39,75.26c-1.47,0-2.54-0.43-3.46-1.38c-0.89-0.93-1.35-2.07-1.35-3.39    c0-1.43,0.52-2.76,1.43-3.65c0.82-0.8,1.96-1.24,3.21-1.24c0.82,0,1.93,0.2,2.74,1.11V65.9h3.12v9.06h-3.12v-0.87    C69.35,74.87,68.49,75.26,67.39,75.26z M67.96,68.26c-0.57,0-1.15,0.23-1.53,0.61c-0.29,0.29-0.64,0.78-0.64,1.54    c0,0.75,0.32,1.24,0.58,1.52c0.4,0.42,1.02,0.66,1.65,0.66c0.54,0,1.07-0.21,1.45-0.59c0.31-0.29,0.68-0.8,0.68-1.6    c0-0.61-0.23-1.18-0.64-1.56C69.05,68.42,68.4,68.26,67.96,68.26z M85.94,77.46h-2.79v-2.5h-5.99v2.5h-2.79v-4.87l0.09-0.01    c0.45-0.05,0.84-0.23,1.18-0.53c0.7-0.63,0.76-1.56,0.76-2.61V65.9h8.21v6.68h1.34V77.46z M78.4,72.58h3.08v-4.3h-2.22v1.59    c0,0.89-0.12,1.38-0.21,1.66C78.97,71.8,78.79,72.18,78.4,72.58z M96.99,74.96h-3.12v-4.95l-3.71,4.95H87.3V65.9h3.12v4.87    l3.71-4.87h2.86V74.96z M103.69,75.26c-1.61,0-3.08-0.53-4.02-1.46c-0.87-0.85-1.39-2.11-1.39-3.37c0-1.26,0.52-2.52,1.39-3.37    c0.95-0.93,2.41-1.46,4.02-1.46s3.08,0.53,4.02,1.46c0.87,0.85,1.39,2.11,1.39,3.37c0,1.26-0.52,2.52-1.39,3.37    C106.76,74.73,105.3,75.26,103.69,75.26z M103.69,68.23c-0.63,0-1.16,0.2-1.57,0.61c-0.43,0.42-0.64,0.95-0.64,1.6    c0,0.65,0.21,1.18,0.64,1.6c0.41,0.4,0.95,0.61,1.59,0.61c0.62,0,1.14-0.2,1.55-0.61c0.43-0.42,0.64-0.94,0.64-1.6    c0-0.65-0.21-1.18-0.64-1.6C104.85,68.43,104.32,68.23,103.69,68.23z"/>
		<path id="New_Symbol_11_" class="st1" d="M52.19,24.13c-6.89,0.8-8.83,7.93-14.01,14.09c-6.93,8.22-17.21,4-17.21,4    c6.93-0.86,8.92-8.04,14.23-14.17C42.25,19.91,52.19,24.13,52.19,24.13z M27.21,36.19c0,0,8.62-6.83,4.9-16.89    c-2.8-7.59-8.2-12.97-5.34-19.3c0,0-8.54,6.93-4.98,16.89C24.51,24.51,30.07,29.86,27.21,36.19z M26.71,34.74    c0,0,0.83-11.07-8.72-15.28c-7.45-3.28-15.28-2.97-17.96-9.38c0,0-1.06,11,9.07,15.26C16.6,28.5,24.03,28.33,26.71,34.74z     M15.36,53.33h19.37l4.52-9.09H15.36V53.33z M18.45,80h1.63l11.12-25.45H18.45V80z"/>
	</g>
</g>
<g id="north_x5F_caucasus_x5F_ru">
</g>
<g id="pakistan">
</g>
<g id="perssian">
</g>
<g id="perssian_x5F_eng">
</g>
<g id="romanian">
	<g id="Layer_57">
	</g>
	<g id="Layer_59">
	</g>
	<g id="Layer_58">
	</g>
</g>
<g id="russia">
</g>
<g id="Siberia">
</g>
<g id="tajik">
</g>
<g id="tajik_x5F_ru">
</g>
<g id="tatar_x5F_bashkir">
</g>
<g id="tatar_x5F_bashkir_x5F_ru">
</g>
<g id="turkmen">
</g>
<g id="turkmen_x5F_ru">
</g>
<g id="ukrainian">
</g>
<g id="uzbek">
</g>
<g id="uzbek_x5F_ru">
</g>
<g id="Sizdan_Telegram_just_video">
</g>
<g id="Severreal">
</g>
<g id="hungarian">
</g>
<g id="theHUB">
</g>
<g id="Faktograf">
</g>
<g id="logos_-_RU">
</g>
<g id="Mobile">
	<g id="Change_5_">
	</g>
</g>
<g id="Desktop">
</g>
<g id="showcase">
</g>
<g id="logos_-_EN">
</g>
<g id="labels">
</g>
<g id="MArti">
</g>
<g id="Screen">
</g>
<g id="Isolation_Mode">
</g>
<g id="dandalin_voa_logo">
</g>
<g id="Layer_2">
</g>
<g id="logo_x5F_big">
</g>
<g id="marti_x5F_2019">
</g>
</svg>