<?xml version="1.0" encoding="utf-8"?>
<!-- Generator: Adobe Illustrator 25.2.1, SVG Export Plug-In . SVG Version: 6.00 Build 0)  -->
<svg version="1.1" xmlns="http://www.w3.org/2000/svg" xmlns:xlink="http://www.w3.org/1999/xlink" x="0px" y="0px"
	 viewBox="0 0 135.63 80" style="enable-background:new 0 0 135.63 80;" xml:space="preserve">
<style type="text/css">
	.st0{fill:#5C666F;}
	.st1{fill:#EA6903;}
	.st2{fill:#E76A24;}
	.st3{fill:#5C6770;}
	.st4{display:none;}
	.st5{display:inline;}
	.st6{fill:#FFFFFF;}
	.st7{fill:#E56A24;}
	.st8{fill:#5D6771;}
	.st9{display:none;fill:#5C666F;}
	.st10{display:inline;fill:#5C666F;}
	.st11{fill:#5D6770;}
	.st12{fill:#69737B;}
	.st13{fill:#256A78;}
	.st14{fill:#D12430;}
	.st15{display:inline;fill:#2D1996;}
	.st16{fill:#2D1996;}
	.st17{fill:#E86B24;}
	.st18{fill:none;}
	.st19{opacity:0.7;}
	.st20{fill-rule:evenodd;clip-rule:evenodd;fill:#FFFFFF;}
	.st21{fill-rule:evenodd;clip-rule:evenodd;fill:#EA6903;}
	.st22{fill:#5B6770;}
	.st23{fill-rule:evenodd;clip-rule:evenodd;fill:#5B6770;}
	.st24{fill-rule:evenodd;clip-rule:evenodd;fill:#F7C39A;}
	.st25{clip-path:url(#SVGID_2_);fill-rule:evenodd;clip-rule:evenodd;fill:#FFFFFF;}
	.st26{display:none;fill:#E50E1F;}
	.st27{fill:#020202;}
	.st28{fill:#EE7204;}
	.st29{fill:#080808;}
	.st30{fill:#0A0A0A;}
	.st31{fill:#0B0B0B;}
	.st32{fill:#EF770C;}
	.st33{fill:#0F0F0F;}
	.st34{fill:#0C0C0C;}
	.st35{fill:#060606;}
	.st36{fill:#EF7B14;}
	.st37{fill:#B7B7B7;}
	.st38{fill:#C11D22;}
	.st39{fill:#3A79B7;}
	.st40{fill:#768492;}
	.st41{fill:#FFFFFF;stroke:#FFFFFF;stroke-width:0.25;stroke-miterlimit:10;}
	.st42{fill:#3B79B7;}
	.st43{fill:#363535;}
	.st44{fill:#BED970;}
	.st45{fill:#E1368E;}
	.st46{fill:#E9E751;}
	.st47{fill:#8E499B;}
	.st48{fill:#C1C0C0;}
	.st49{clip-path:url(#SVGID_4_);fill:url(#SVGID_5_);}
	.st50{fill:#334D5D;}
	.st51{fill:#2170B7;}
	.st52{fill:#718B99;}
	.st53{fill:#B62027;}
	.st54{fill:#26A3DD;}
	.st55{clip-path:url(#SVGID_7_);fill:url(#SVGID_8_);}
</style>
<g id="afghan_x5F_da">
</g>
<g id="afghan_x5F_eng">
</g>
<g id="afghan_x5F_pa">
	<g>
		<path class="st0" d="M23.68,43.38c0.36,1.19,0.55,2.78,0.55,4.72v4.24h-5.12c-0.54,0-0.96-0.14-1.26-0.42
			c-0.36-0.33-0.54-0.86-0.54-1.57c0-0.37,0.02-0.78,0.05-1.2c0.03-0.42,0.08-0.85,0.15-1.3l0.03-0.21l0.84-0.05l0.04,0.22
			c0.04,0.22,0.13,0.38,0.27,0.47c0.15,0.11,0.34,0.16,0.57,0.16h3.4c-0.16-1.05-0.43-1.9-0.79-2.54c-0.32-0.57-0.77-1.07-1.33-1.48
			l-0.13-0.1l0.89-4.47l0.33,0.29C22.59,40.98,23.28,42.07,23.68,43.38z M28.74,48.47c0-0.87-0.04-1.79-0.11-2.74
			c-0.09-1.24-0.26-2.7-0.5-4.37l-0.77-5.25l-0.36,0.79c-0.4,0.88-0.72,1.64-0.94,2.26c-0.23,0.65-0.35,1.11-0.35,1.4
			c0,0.19,0.04,0.52,0.13,1c0.24,1.31,0.42,2.46,0.52,3.41c0.11,0.94,0.2,1.92,0.27,2.89c0.07,0.96,0.11,1.71,0.11,2.21
			c0,0.65-0.09,1.51-0.25,2.54l-0.03,0.19l1.06,0.49l0.1-0.24c0.43-1.03,0.73-1.87,0.88-2.49C28.66,49.92,28.74,49.22,28.74,48.47z
			 M36.63,43.83l-0.35-0.42l-0.72,4.01l0.09,0.09c0.35,0.38,0.65,0.87,0.9,1.46c0.21,0.5,0.32,0.91,0.32,1.2
			c0,0.41-0.3,1.2-1.71,2.66c-0.83,0.86-1.5,1.45-1.98,1.77c-0.87,0.57-1.78,0.53-2.52,0.2c-0.37-0.16-0.88-0.49-1.5-0.97
			l-0.23-0.18l-0.71,1.21l0.17,0.14c1.36,1.09,2.34,1.8,2.98,2.16c0.76,0.43,1.48,0.65,2.16,0.65c0.6,0,1.28-0.35,2.08-1.08
			c0.69-0.62,1.3-1.37,1.81-2.23c0.53-0.88,0.79-1.58,0.79-2.14v-3.8c0-0.98-0.14-1.88-0.41-2.66
			C37.52,45.13,37.13,44.43,36.63,43.83z M49.9,58.55l-1.62-0.97l-1.03,2.17l2.09,1.29l0.8-1.65l1.66,0.97l1.01-2.15l-2.11-1.25
			L49.9,58.55z M53.97,43.73c-0.56,0-1.13,0.25-1.7,0.73c-0.54,0.46-1.09,1.15-1.62,2.04c-0.35,0.58-0.64,1.18-0.85,1.77
			c-0.22,0.61-0.33,1.11-0.33,1.53c0,0.88,0.17,1.48,0.53,1.83c0.43,0.42,1.21,0.62,2.39,0.62c0.14,0,0.38,0.01,0.72,0.03
			c0.08,0,0.14,0.01,0.19,0.02c-0.05,0.05-0.14,0.12-0.27,0.2c-0.05,0.03-0.42,0.22-1.11,0.58c-0.44,0.22-0.83,0.4-1.16,0.54
			c-0.51,0.21-1.03,0.37-1.53,0.49c-0.49,0.12-1.02,0.17-1.57,0.17c-1.39,0-2.03-0.67-2.03-2.09c0-0.57,0.13-1.26,0.38-2.04
			c0.26-0.79,0.65-1.71,1.18-2.73l0.1-0.19l-0.9-0.68l-0.14,0.26c-0.91,1.62-1.51,2.93-1.79,3.89c-0.26,0.86-0.39,1.9-0.39,3.09
			c0,2.44,1.24,3.72,3.59,3.72c0.82,0,1.72-0.18,2.66-0.52c0.94-0.35,1.85-0.81,2.71-1.37c0.73-0.47,1.28-1.26,1.66-2.34
			c0.29-0.85,0.44-1.74,0.44-2.66c0-0.54-0.15-0.92-0.44-1.13c-0.3-0.21-0.86-0.32-1.71-0.32c0,0-0.01,0-0.01,0
			c-0.1,0.01-0.2,0.01-0.3,0.01h-0.32c-0.39,0-0.67-0.02-0.83-0.07c-0.07-0.02-0.22-0.07-0.22-0.14c0-0.15,0.12-0.48,0.91-1.08
			c0.78-0.59,1.22-0.71,1.44-0.71c0.22,0,0.32,0.09,0.37,0.16c0.08,0.11,0.22,0.38,0.45,1.08L54.64,49l0.28-0.53
			c0.27-0.51,0.44-0.91,0.53-1.23c0.08-0.32,0.13-0.72,0.13-1.2c0-0.67-0.14-1.22-0.41-1.63C54.88,43.96,54.47,43.73,53.97,43.73z
			 M62.05,40.15l-0.33-0.29l-0.89,4.47l0.13,0.1c0.57,0.42,1.02,0.92,1.33,1.49c0.36,0.64,0.62,1.49,0.79,2.54h-3.4
			c-0.23,0-0.42-0.05-0.57-0.16c-0.14-0.09-0.23-0.25-0.27-0.47l-0.04-0.22l-0.84,0.05l-0.03,0.21c-0.06,0.44-0.11,0.88-0.15,1.3
			c-0.03,0.43-0.05,0.83-0.05,1.2c0,0.71,0.18,1.24,0.54,1.57c0.3,0.28,0.72,0.42,1.26,0.42h5.12V48.1c0-1.95-0.18-3.54-0.55-4.72
			C63.7,42.07,63.01,40.98,62.05,40.15z M69.05,45.73c-0.09-1.22-0.26-2.69-0.5-4.37l-0.77-5.25l-0.36,0.78
			c-0.4,0.88-0.72,1.65-0.94,2.26c-0.23,0.65-0.35,1.11-0.35,1.4c0,0.19,0.04,0.52,0.13,1c0.24,1.3,0.42,2.44,0.52,3.41
			c0.1,0.93,0.19,1.9,0.27,2.89c0.07,0.96,0.11,1.7,0.11,2.21c0,0.65-0.09,1.5-0.25,2.54l-0.03,0.19l1.06,0.49l0.1-0.24
			c0.43-1.03,0.73-1.87,0.88-2.49c0.15-0.63,0.23-1.33,0.23-2.08C69.16,47.6,69.13,46.68,69.05,45.73z M78.46,39.54l-2.96-1.81
			L74,41l2.95,1.78L78.46,39.54z M77.35,43.83L77,43.42l-0.72,4.01l0.09,0.09c0.35,0.38,0.65,0.87,0.9,1.46
			c0.21,0.5,0.32,0.91,0.32,1.2c0,0.41-0.3,1.2-1.71,2.66c-0.83,0.86-1.5,1.45-1.98,1.77c-0.88,0.57-1.78,0.53-2.52,0.2
			c-0.37-0.16-0.88-0.49-1.5-0.97l-0.23-0.18l-0.71,1.21l0.17,0.14c1.37,1.09,2.34,1.8,2.99,2.16c0.76,0.43,1.48,0.65,2.16,0.65
			c0.6,0,1.28-0.36,2.08-1.09c0.69-0.62,1.29-1.37,1.81-2.23c0.53-0.88,0.79-1.58,0.79-2.14v-3.8c0-0.98-0.14-1.88-0.41-2.66
			C78.25,45.13,77.85,44.43,77.35,43.83z M82.8,45.73c-0.09-1.23-0.26-2.7-0.5-4.37l-0.77-5.25l-0.36,0.79
			c-0.4,0.88-0.72,1.64-0.94,2.26c-0.23,0.65-0.35,1.11-0.35,1.4c0,0.19,0.04,0.52,0.13,1c0.24,1.31,0.42,2.46,0.52,3.41
			c0.1,0.93,0.2,1.9,0.27,2.89c0.07,0.97,0.11,1.71,0.11,2.21c0,0.64-0.09,1.5-0.26,2.54l-0.03,0.19l1.06,0.49l0.1-0.24
			c0.43-1.03,0.73-1.87,0.88-2.49c0.15-0.62,0.23-1.33,0.23-2.08C82.91,47.6,82.87,46.68,82.8,45.73z M16.11,45.53
			c0.2,0.79,0.3,1.96,0.3,3.49h-0.25v3.24h0v0.25h-5.82c-0.2,1.1-0.71,2.2-1.52,3.27c-1.09,1.45-2.2,2.19-3.3,2.19
			c-0.64,0-1.34-0.23-2.08-0.7c-0.71-0.45-1.82-1.33-3.28-2.62L0,54.52l0.72-1.14l0.22,0.17c0.75,0.58,1.37,0.97,1.84,1.16
			c0.38,0.15,0.81,0.23,1.29,0.23c0.64,0,1.29-0.21,1.92-0.63c0.66-0.44,1.36-1.12,2.07-2.02c-0.07,0-0.13,0.01-0.19,0.01
			c-0.79,0-1.42-0.3-1.89-0.9c-0.45-0.58-0.68-1.36-0.68-2.34c0-1.27,0.26-2.51,0.76-3.69c0.59-1.37,1.26-2.03,2.07-2.03
			c0.68,0,1.25,0.51,1.69,1.51c0.41,0.93,0.62,2.07,0.62,3.37v0.43h4.34c-0.08-0.41-0.2-0.76-0.35-1.05
			c-0.1-0.21-0.35-0.57-0.73-1.09l-0.08-0.1l1.04-3.56l0.31,0.4C15.52,43.96,15.91,44.73,16.11,45.53z M7.68,47.14
			c-0.14,0-0.23,0.06-0.32,0.19c-0.11,0.16-0.16,0.33-0.16,0.53c0,0.21,0.1,0.38,0.31,0.53c0.24,0.16,0.57,0.25,0.98,0.25H8.6
			C8.46,47.9,8.19,47.14,7.68,47.14z M13.01,54.84l-1.59-0.92l-1.33,2.87l2.44,1.55l0.86-1.96l1.52,0.99l1.4-3l-2.39-1.55
			L13.01,54.84z"/>
		<path id="New_Symbol_26_" class="st1" d="M135.63,24.13c-6.89,0.8-8.83,7.93-14.01,14.09c-6.93,8.22-17.21,4-17.21,4
			c6.93-0.86,8.92-8.04,14.23-14.17C125.68,19.91,135.63,24.13,135.63,24.13z M110.64,36.19c0,0,8.62-6.83,4.9-16.89
			c-2.8-7.59-8.2-12.97-5.34-19.3c0,0-8.54,6.93-4.98,16.89C107.94,24.51,113.51,29.86,110.64,36.19z M110.15,34.74
			c0,0,0.83-11.07-8.72-15.28c-7.45-3.28-15.28-2.97-17.96-9.38c0,0-1.06,11,9.07,15.26C100.04,28.5,107.46,28.33,110.15,34.74z
			 M98.79,53.33h19.37l4.52-9.09H98.79V53.33z M101.88,80h1.63l11.12-25.45h-12.75V80z"/>
	</g>
</g>
<g id="armenian">
</g>
<g id="armenian_x5F_ru">
</g>
<g id="azeri">
</g>
<g id="azeri_x5F_ru">
</g>
<g id="balkan">
</g>
<g id="belarussian">
</g>
<g id="bulgarian">
</g>
<g id="crimea_x5F_ru">
</g>
<g id="crimea_x5F_ta">
</g>
<g id="crimea_x5F_ua">
</g>
<g id="donbass_x5F_ru_-_not_full">
</g>
<g id="donbass_x5F_ua_-_not_full">
</g>
<g id="English">
</g>
<g id="georgian">
</g>
<g id="georgian_x5F_ru">
</g>
<g id="kazakh">
</g>
<g id="kazakh_x5F_ru">
</g>
<g id="kosovo">
</g>
<g id="kyrgyz">
</g>
<g id="kyrgyz_x5F_ru">
</g>
<g id="macedonia">
</g>
<g id="moldova">
	<g id="Layer_60">
	</g>
	<g id="Layer_61">
	</g>
	<g id="Layer_62">
	</g>
</g>
<g id="north_x5F_caucasus_x5F_av_-_not_full">
</g>
<g id="north_x5F_caucasus_x5F_ch">
</g>
<g id="north_x5F_caucasus_x5F_ru">
</g>
<g id="pakistan">
</g>
<g id="perssian">
</g>
<g id="perssian_x5F_eng">
</g>
<g id="romanian">
	<g id="Layer_57">
	</g>
	<g id="Layer_59">
	</g>
	<g id="Layer_58">
	</g>
</g>
<g id="russia">
</g>
<g id="Siberia">
</g>
<g id="tajik">
</g>
<g id="tajik_x5F_ru">
</g>
<g id="tatar_x5F_bashkir">
</g>
<g id="tatar_x5F_bashkir_x5F_ru">
</g>
<g id="turkmen">
</g>
<g id="turkmen_x5F_ru">
</g>
<g id="ukrainian">
</g>
<g id="uzbek">
</g>
<g id="uzbek_x5F_ru">
</g>
<g id="Sizdan_Telegram_just_video">
</g>
<g id="Severreal">
</g>
<g id="hungarian">
</g>
<g id="theHUB">
</g>
<g id="Faktograf">
</g>
<g id="logos_-_RU">
</g>
<g id="Mobile">
	<g id="Change_5_">
	</g>
</g>
<g id="Desktop">
</g>
<g id="showcase">
</g>
<g id="logos_-_EN">
</g>
<g id="labels">
</g>
<g id="MArti">
</g>
<g id="Screen">
</g>
<g id="Isolation_Mode">
</g>
<g id="dandalin_voa_logo">
</g>
<g id="Layer_2">
</g>
<g id="logo_x5F_big">
</g>
<g id="marti_x5F_2019">
</g>
</svg>
