<?xml version="1.0" encoding="UTF-8"?>
<!-- Generator: Adobe Illustrator 25.2.1, SVG Export Plug-In . SVG Version: 6.00 Build 0)  -->
<svg version="1.1" xmlns="http://www.w3.org/2000/svg" xmlns:xlink="http://www.w3.org/1999/xlink" x="0px" y="0px" viewBox="0 0 180.24 80" style="enable-background:new 0 0 180.24 80;" xml:space="preserve">
<style type="text/css">
	.st0{fill:#5C666F;}
	.st1{fill:#EA6903;}
	.st2{fill:#E76A24;}
	.st3{fill:#5C6770;}
	.st4{display:none;}
	.st5{display:inline;}
	.st6{fill:#FFFFFF;}
	.st7{fill:#E56A24;}
	.st8{fill:#5D6771;}
	.st9{display:none;fill:#5C666F;}
	.st10{display:inline;fill:#5C666F;}
	.st11{fill:#5D6770;}
	.st12{fill:#69737B;}
	.st13{fill:#256A78;}
	.st14{fill:#D12430;}
	.st15{display:inline;fill:#2D1996;}
	.st16{fill:#2D1996;}
	.st17{fill:#E86B24;}
	.st18{fill:none;}
	.st19{opacity:0.7;}
	.st20{fill-rule:evenodd;clip-rule:evenodd;fill:#FFFFFF;}
	.st21{fill-rule:evenodd;clip-rule:evenodd;fill:#EA6903;}
	.st22{fill:#5B6770;}
	.st23{fill-rule:evenodd;clip-rule:evenodd;fill:#5B6770;}
	.st24{fill-rule:evenodd;clip-rule:evenodd;fill:#F7C39A;}
	.st25{clip-path:url(#SVGID_2_);fill-rule:evenodd;clip-rule:evenodd;fill:#FFFFFF;}
	.st26{display:none;fill:#E50E1F;}
	.st27{fill:#020202;}
	.st28{fill:#EE7204;}
	.st29{fill:#080808;}
	.st30{fill:#0A0A0A;}
	.st31{fill:#0B0B0B;}
	.st32{fill:#EF770C;}
	.st33{fill:#0F0F0F;}
	.st34{fill:#0C0C0C;}
	.st35{fill:#060606;}
	.st36{fill:#EF7B14;}
	.st37{fill:#B7B7B7;}
	.st38{fill:#C11D22;}
	.st39{fill:#3A79B7;}
	.st40{fill:#768492;}
	.st41{fill:#FFFFFF;stroke:#FFFFFF;stroke-width:0.25;stroke-miterlimit:10;}
	.st42{fill:#3B79B7;}
	.st43{fill:#363535;}
	.st44{fill:#BED970;}
	.st45{fill:#E1368E;}
	.st46{fill:#E9E751;}
	.st47{fill:#8E499B;}
	.st48{fill:#C1C0C0;}
	.st49{clip-path:url(#SVGID_4_);fill:url(#SVGID_5_);}
	.st50{fill:#334D5D;}
	.st51{fill:#2170B7;}
	.st52{fill:#718B99;}
	.st53{fill:#B62027;}
	.st54{fill:#26A3DD;}
	.st55{clip-path:url(#SVGID_7_);fill:url(#SVGID_8_);}
</style>
<g id="afghan_x5F_da">
</g>
<g id="afghan_x5F_eng">
</g>
<g id="afghan_x5F_pa">
</g>
<g id="armenian">
</g>
<g id="armenian_x5F_ru">
</g>
<g id="azeri">
</g>
<g id="azeri_x5F_ru">
</g>
<g id="balkan">
</g>
<g id="belarussian">
</g>
<g id="bulgarian">
</g>
<g id="crimea_x5F_ru">
</g>
<g id="crimea_x5F_ta">
</g>
<g id="crimea_x5F_ua">
</g>
<g id="donbass_x5F_ru_-_not_full">
</g>
<g id="donbass_x5F_ua_-_not_full">
</g>
<g id="English">
</g>
<g id="georgian">
</g>
<g id="georgian_x5F_ru">
</g>
<g id="kazakh">
</g>
<g id="kazakh_x5F_ru">
</g>
<g id="kosovo">
</g>
<g id="kyrgyz">
</g>
<g id="kyrgyz_x5F_ru">
</g>
<g id="macedonia">
</g>
<g id="moldova">
	<g id="Layer_60">
	</g>
	<g id="Layer_61">
	</g>
	<g id="Layer_62">
	</g>
</g>
<g id="north_x5F_caucasus_x5F_av_-_not_full">
</g>
<g id="north_x5F_caucasus_x5F_ch">
</g>
<g id="north_x5F_caucasus_x5F_ru">
</g>
<g id="pakistan">
</g>
<g id="perssian">
</g>
<g id="perssian_x5F_eng">
</g>
<g id="romanian">
	<g id="Layer_57">
	</g>
	<g id="Layer_59">
	</g>
	<g id="Layer_58">
	</g>
</g>
<g id="russia">
</g>
<g id="Siberia">
</g>
<g id="tajik">
</g>
<g id="tajik_x5F_ru">
</g>
<g id="tatar_x5F_bashkir">
</g>
<g id="tatar_x5F_bashkir_x5F_ru">
</g>
<g id="turkmen">
</g>
<g id="turkmen_x5F_ru">
</g>
<g id="ukrainian">
</g>
<g id="uzbek">
</g>
<g id="uzbek_x5F_ru">
</g>
<g id="Sizdan_Telegram_just_video">
</g>
<g id="Severreal">
	<g id="color_4_">
		<g>
			<g>
				<path class="st0" d="M59.18,42.78c1.13,0,2.15,0.45,3.01,1.34l0.34,0.36v-4.15l-0.12-0.05c-1.19-0.5-2.27-0.75-3.31-0.75      c-2,0-3.83,0.69-5.17,1.95c-1.37,1.3-2.16,3.16-2.16,5.11c0,2,0.77,3.83,2.16,5.15c1.36,1.31,3.19,1.98,5.43,1.98      c0.68,0,1.74-0.08,3.06-0.73l0.11-0.06v-4.1l-0.34,0.33c-0.91,0.88-1.88,1.31-2.95,1.31c-1.53,0-2.44-0.74-2.77-1.05      c-0.41-0.39-1.11-1.27-1.11-2.76c0-1.11,0.44-2.17,1.21-2.9C57.25,43.11,58.12,42.78,59.18,42.78z"/>
				<path class="st0" d="M73.65,49.01c0-1.58-0.43-2.8-1.33-3.72c-0.9-0.93-2.12-1.39-3.72-1.39c-1.49,0-2.7,0.45-3.59,1.33      c-0.91,0.91-1.43,2.23-1.43,3.62c0,1.39,0.5,2.65,1.41,3.55c1.19,1.17,2.56,1.32,3.73,1.32c1.23,0,2.17-0.22,2.95-0.68      c0.61-0.37,1.42-1.07,1.82-2.33l0.08-0.24l-3.13-0.32l-0.06,0.13c-0.22,0.45-0.53,0.64-0.55,0.65      c-0.25,0.15-0.64,0.23-1.07,0.23c-0.6,0-1.04-0.16-1.35-0.49c-0.29-0.31-0.44-0.79-0.48-1.17h6.71V49.01z M67.09,47.41      c0.08-0.22,0.21-0.42,0.38-0.61c0.35-0.35,0.79-0.52,1.33-0.52c0.49,0,0.92,0.15,1.24,0.44c0.23,0.21,0.37,0.48,0.45,0.68H67.09      z"/>
				<path class="st0" d="M83.22,49.09c-0.24-0.22-0.55-0.41-0.89-0.54c0.13-0.08,0.24-0.18,0.33-0.28c0.42-0.41,0.61-0.89,0.61-1.57      c0-0.8-0.27-1.43-0.8-1.88c-0.75-0.62-1.8-0.62-2.37-0.62h-5.03v9.23h5.69c1.25,0,1.99-0.46,2.38-0.85      c0.48-0.47,0.73-1.1,0.73-1.84C83.87,50.06,83.65,49.51,83.22,49.09z M78.38,49.75h0.99c0.24,0,0.63,0,0.86,0.19      c0.14,0.12,0.21,0.27,0.21,0.46c0,0.22-0.08,0.42-0.22,0.54c-0.21,0.19-0.51,0.19-0.73,0.19h-1.11V49.75z M79.98,47.58      c-0.19,0.13-0.47,0.15-0.62,0.15h-0.99V46.5h0.95c0.3,0,0.58,0.06,0.68,0.13c0.06,0.05,0.19,0.18,0.19,0.46      C80.2,47.33,80.13,47.48,79.98,47.58z"/>
				<path class="st0" d="M94.74,49.01c0-1.58-0.43-2.8-1.33-3.72c-0.9-0.93-2.12-1.39-3.72-1.39c-1.49,0-2.7,0.45-3.59,1.33      c-0.91,0.91-1.43,2.23-1.43,3.62c0,1.39,0.5,2.65,1.41,3.55c1.19,1.17,2.56,1.32,3.73,1.32c1.23,0,2.17-0.22,2.95-0.68      c0.61-0.37,1.42-1.07,1.82-2.33l0.08-0.24l-3.13-0.32l-0.06,0.13c-0.22,0.45-0.53,0.64-0.55,0.65      c-0.25,0.15-0.64,0.23-1.07,0.23c-0.6,0-1.04-0.16-1.35-0.49c-0.29-0.31-0.44-0.79-0.48-1.17h6.71V49.01z M88.18,47.41      c0.08-0.22,0.21-0.42,0.38-0.61c0.35-0.35,0.79-0.52,1.33-0.52c0.49,0,0.92,0.15,1.24,0.44c0.23,0.21,0.37,0.48,0.45,0.68H88.18      z"/>
				<path class="st0" d="M105.37,45.21c-0.61-0.59-1.68-1.3-3.33-1.3c-1.04,0-1.91,0.34-2.61,1.02V44.2h-3.31v13.76h3.31v-5.2      c0.66,0.64,1.55,0.97,2.67,0.97c1.33,0,2.31-0.38,3.19-1.24c0.99-0.97,1.49-2.21,1.49-3.69      C106.79,47.38,106.29,46.1,105.37,45.21z M103.4,48.78c0,0.57-0.25,1.17-0.64,1.54c-0.37,0.35-0.9,0.56-1.42,0.56      c-0.56,0-1.12-0.22-1.51-0.61c-0.37-0.38-0.59-0.9-0.59-1.42c0-0.53,0.24-1.1,0.63-1.48c0.28-0.27,0.76-0.6,1.48-0.6      c0.54,0,1.05,0.2,1.44,0.56C103.17,47.69,103.4,48.22,103.4,48.78z"/>
				<path class="st0" d="M109.75,49.75c-1.14,0-2.04,0.88-2.04,2s0.89,2,2.04,2c1.14,0,2.04-0.88,2.04-2S110.9,49.75,109.75,49.75z"/>
				<path class="st0" d="M122.24,40.97c-1.16-1.01-2.57-1.14-3.66-1.14h-4.94v13.6h3.51V48.8h1.7c1.09,0,2.49-0.14,3.57-1.23      c0.8-0.82,1.21-1.91,1.21-3.25C123.62,42.87,123.17,41.77,122.24,40.97z M117.14,42.72h0.85c0.56,0,1.19,0.05,1.6,0.44      c0.28,0.25,0.44,0.67,0.44,1.14c0,0.46-0.16,0.89-0.44,1.16c-0.41,0.39-1.01,0.44-1.54,0.44h-0.91V42.72z"/>
				<path class="st0" d="M134.05,49.01c0-1.58-0.43-2.79-1.33-3.72c-0.9-0.93-2.12-1.39-3.72-1.39c-1.49,0-2.7,0.45-3.59,1.33      c-0.91,0.91-1.43,2.23-1.43,3.62c0,1.39,0.5,2.65,1.41,3.55c1.19,1.17,2.56,1.32,3.73,1.32c1.23,0,2.17-0.22,2.95-0.68      c0.61-0.37,1.42-1.07,1.82-2.33l0.08-0.24l-3.13-0.32l-0.06,0.13c-0.22,0.45-0.53,0.64-0.55,0.65      c-0.25,0.15-0.64,0.23-1.07,0.23c-0.6,0-1.04-0.16-1.35-0.49c-0.29-0.31-0.44-0.79-0.48-1.17h6.71V49.01z M127.49,47.41      c0.08-0.22,0.21-0.42,0.38-0.61c0.35-0.35,0.79-0.52,1.33-0.52c0.5,0,0.92,0.15,1.24,0.44c0.23,0.21,0.37,0.48,0.45,0.68H127.49      z"/>
				<path class="st0" d="M142.29,44.2v0.66c-0.81-0.78-1.85-0.96-2.63-0.96c-1.28,0-2.44,0.45-3.27,1.26      c-0.92,0.9-1.45,2.25-1.45,3.7c0,1.34,0.46,2.5,1.37,3.44c0.94,0.97,2.02,1.41,3.52,1.41c1.02,0,1.85-0.33,2.47-0.99v0.69h3.31      V44.2H142.29z M142.47,48.8c0,0.76-0.35,1.24-0.65,1.52c-0.36,0.35-0.86,0.56-1.37,0.56c-0.6,0-1.19-0.24-1.57-0.63      c-0.25-0.27-0.55-0.73-0.55-1.45c0-0.57,0.2-1.06,0.61-1.46c0.37-0.36,0.91-0.58,1.46-0.58c0.53,0,1.12,0.22,1.48,0.56      C142.25,47.68,142.47,48.22,142.47,48.8z"/>
				<path class="st0" d="M148.38,44.2v5.09c0,0.58-0.1,1.01-0.31,1.27c-0.3,0.33-0.91,0.28-1.19,0.2l-0.25-0.07v2.67l0.15,0.04      c0.4,0.1,0.74,0.14,1.18,0.14c0.85,0,1.82-0.12,2.63-1c0.63-0.71,0.94-1.73,0.94-3.14V46.9h1.96v6.53h3.31V44.2H148.38z"/>
				<polygon class="st0" points="165.51,44.2 161.97,48.86 161.97,44.2 158.67,44.2 158.67,53.43 161.67,53.43 165.21,48.71       165.21,53.43 168.52,53.43 168.52,44.2     "/>
				<polygon class="st0" points="177.23,44.2 173.69,48.86 173.69,44.2 170.39,44.2 170.39,53.43 173.39,53.43 176.93,48.71       176.93,53.43 180.24,53.43 180.24,44.2     "/>
			</g>
			<path id="New_Symbol_3_" class="st1" d="M52.37,24.13c-6.92,0.8-8.86,7.93-14.06,14.09c-6.96,8.22-17.27,4-17.27,4     C28,41.35,30,34.17,35.33,28.04C42.39,19.91,52.37,24.13,52.37,24.13z M27.3,36.19c0,0,8.65-6.83,4.92-16.89     C29.41,11.71,23.99,6.33,26.86,0c0,0-8.57,6.93-5,16.89C24.59,24.51,30.18,29.86,27.3,36.19z M26.8,34.74     c0,0,0.83-11.07-8.75-15.28c-7.47-3.28-15.33-2.97-18.02-9.38c0,0-1.07,11,9.1,15.26C16.66,28.5,24.11,28.33,26.8,34.74z      M15.41,53.33h19.44l4.54-9.09H15.41V53.33z M18.51,80h1.64L31.3,54.55H18.51V80z"/>
		</g>
	</g>
</g>
<g id="hungarian">
</g>
<g id="theHUB">
</g>
<g id="Faktograf">
</g>
<g id="logos_-_RU">
</g>
<g id="Mobile">
	<g id="Change_5_">
	</g>
</g>
<g id="Desktop">
</g>
<g id="showcase">
</g>
<g id="logos_-_EN">
</g>
<g id="labels">
</g>
<g id="MArti">
</g>
<g id="Screen">
</g>
<g id="Isolation_Mode">
</g>
<g id="dandalin_voa_logo">
</g>
<g id="Layer_2">
</g>
<g id="logo_x5F_big">
</g>
<g id="marti_x5F_2019">
</g>
</svg>